<svg width="753" height="690" viewBox="0 0 753 690" fill="none" xmlns="http://www.w3.org/2000/svg">
<g filter="url(#filter0_d)">
<rect x="348" y="173" width="359.341" height="199.075" rx="32" fill="white"/>
</g>
<path d="M474.322 228.546C474.322 230.026 473.939 231.272 473.175 232.283C472.41 233.27 471.374 234.022 470.067 234.54C468.784 235.058 467.378 235.317 465.849 235.317H453.158V209.047H467.218C468.451 209.047 469.512 209.38 470.4 210.046C471.288 210.688 471.978 211.526 472.472 212.562C472.965 213.598 473.212 214.659 473.212 215.744C473.212 217.027 472.891 218.236 472.25 219.37C471.608 220.48 470.671 221.307 469.438 221.849C470.942 222.293 472.126 223.095 472.99 224.254C473.878 225.414 474.322 226.844 474.322 228.546ZM458.264 213.413V220.036H465.072C465.91 220.036 466.638 219.74 467.255 219.148C467.871 218.556 468.18 217.742 468.18 216.706C468.18 215.72 467.896 214.93 467.329 214.338C466.786 213.722 466.108 213.413 465.294 213.413H458.264ZM469.179 227.584C469.179 226.622 468.883 225.796 468.291 225.105C467.699 224.415 466.971 224.069 466.108 224.069H458.264V230.988H465.849C466.786 230.988 467.575 230.655 468.217 229.989C468.858 229.323 469.179 228.522 469.179 227.584ZM477.788 208.307H482.746V229.101C482.746 230.014 482.894 230.618 483.19 230.914C483.486 231.21 483.893 231.358 484.411 231.358C484.806 231.358 485.213 231.309 485.632 231.21C486.051 231.112 486.421 230.988 486.742 230.84L487.408 234.614C486.742 234.935 485.965 235.182 485.077 235.354C484.189 235.527 483.387 235.613 482.672 235.613C481.118 235.613 479.909 235.206 479.046 234.392C478.207 233.554 477.788 232.37 477.788 230.84V208.307ZM488.236 229.582C488.236 228.324 488.582 227.227 489.272 226.289C489.988 225.327 490.974 224.587 492.232 224.069C493.49 223.551 494.933 223.292 496.561 223.292C497.375 223.292 498.202 223.366 499.04 223.514C499.879 223.638 500.607 223.823 501.223 224.069V223.033C501.223 221.8 500.853 220.85 500.113 220.184C499.398 219.518 498.325 219.185 496.894 219.185C495.834 219.185 494.822 219.37 493.86 219.74C492.898 220.11 491.887 220.653 490.826 221.368L489.235 218.112C490.518 217.274 491.825 216.645 493.157 216.225C494.514 215.806 495.932 215.596 497.412 215.596C500.175 215.596 502.321 216.287 503.85 217.668C505.404 219.05 506.181 221.023 506.181 223.588V229.767C506.181 230.31 506.268 230.692 506.44 230.914C506.613 231.112 506.921 231.235 507.365 231.284V235.317C506.921 235.416 506.514 235.478 506.144 235.502C505.799 235.552 505.503 235.576 505.256 235.576C504.27 235.576 503.517 235.354 502.999 234.91C502.481 234.466 502.173 233.924 502.074 233.282L501.963 232.283C501.1 233.393 500.039 234.244 498.781 234.836C497.548 235.404 496.278 235.687 494.97 235.687C493.663 235.687 492.504 235.428 491.492 234.91C490.481 234.368 489.679 233.64 489.087 232.727C488.52 231.79 488.236 230.742 488.236 229.582ZM500.298 230.581C500.915 229.989 501.223 229.422 501.223 228.879V226.918C499.941 226.4 498.646 226.141 497.338 226.141C496.031 226.141 494.97 226.425 494.156 226.992C493.342 227.535 492.935 228.263 492.935 229.175C492.935 229.915 493.231 230.581 493.823 231.173C494.415 231.765 495.266 232.061 496.376 232.061C497.116 232.061 497.832 231.926 498.522 231.654C499.238 231.383 499.83 231.025 500.298 230.581ZM519.842 235.687C517.746 235.687 515.933 235.219 514.403 234.281C512.874 233.344 511.69 232.111 510.851 230.581C510.013 229.052 509.593 227.399 509.593 225.623C509.593 223.823 510 222.158 510.814 220.628C511.653 219.099 512.837 217.878 514.366 216.965C515.896 216.053 517.709 215.596 519.805 215.596C521.927 215.596 523.727 216.053 525.207 216.965C526.712 217.878 527.834 219.074 528.574 220.554L523.727 222.034C522.864 220.554 521.544 219.814 519.768 219.814C518.806 219.814 517.943 220.061 517.178 220.554C516.414 221.023 515.809 221.701 515.365 222.589C514.921 223.453 514.699 224.464 514.699 225.623C514.699 226.758 514.921 227.769 515.365 228.657C515.834 229.521 516.451 230.211 517.215 230.729C517.98 231.223 518.831 231.469 519.768 231.469C520.656 231.469 521.47 231.26 522.21 230.84C522.975 230.396 523.505 229.841 523.801 229.175L528.648 230.655C527.982 232.111 526.872 233.319 525.318 234.281C523.789 235.219 521.964 235.687 519.842 235.687ZM544.945 235.317L539.284 226.955L536.657 229.545V235.317H531.699V208.307H536.657V224.661L544.464 215.966H549.718L542.503 224.18L550.236 235.317H544.945ZM561.701 235.317V209.047H579.35V213.524H566.807V220.295H577.241V224.439H566.807V235.317H561.701ZM593.034 220.221C591.529 220.221 590.185 220.517 589.001 221.109C587.817 221.677 586.966 222.503 586.448 223.588V235.317H581.49V215.929H586.041V220.073C586.707 218.741 587.57 217.693 588.631 216.928C589.716 216.164 590.851 215.744 592.035 215.67C592.553 215.67 592.886 215.683 593.034 215.707V220.221ZM595.799 213.228V208.307H600.757V213.228H595.799ZM595.799 235.317V215.929H600.757V235.317H595.799ZM604.045 225.623C604.045 223.773 604.415 222.084 605.155 220.554C605.895 219.025 606.919 217.816 608.226 216.928C609.534 216.04 611.026 215.596 612.703 215.596C614.134 215.596 615.417 215.954 616.551 216.669C617.711 217.36 618.611 218.248 619.252 219.333V208.307H624.21V229.767C624.21 230.31 624.297 230.692 624.469 230.914C624.642 231.112 624.938 231.235 625.357 231.284V235.317C624.469 235.49 623.766 235.576 623.248 235.576C622.36 235.576 621.62 235.354 621.028 234.91C620.461 234.466 620.14 233.887 620.066 233.171L619.992 231.95C619.277 233.159 618.303 234.084 617.069 234.725C615.861 235.367 614.59 235.687 613.258 235.687C611.458 235.687 609.867 235.243 608.485 234.355C607.104 233.443 606.019 232.234 605.229 230.729C604.44 229.2 604.045 227.498 604.045 225.623ZM619.252 228.213V223.588C618.858 222.503 618.179 221.603 617.217 220.887C616.255 220.172 615.269 219.814 614.257 219.814C613.246 219.814 612.358 220.098 611.593 220.665C610.829 221.208 610.237 221.936 609.817 222.848C609.398 223.736 609.188 224.698 609.188 225.734C609.188 226.795 609.423 227.769 609.891 228.657C610.36 229.521 610.989 230.211 611.778 230.729C612.592 231.223 613.517 231.469 614.553 231.469C615.491 231.469 616.416 231.161 617.328 230.544C618.266 229.928 618.907 229.151 619.252 228.213ZM627.745 229.582C627.745 228.324 628.09 227.227 628.781 226.289C629.496 225.327 630.483 224.587 631.741 224.069C632.999 223.551 634.442 223.292 636.07 223.292C636.884 223.292 637.71 223.366 638.549 223.514C639.388 223.638 640.115 223.823 640.732 224.069V223.033C640.732 221.8 640.362 220.85 639.622 220.184C638.907 219.518 637.834 219.185 636.403 219.185C635.342 219.185 634.331 219.37 633.369 219.74C632.407 220.11 631.396 220.653 630.335 221.368L628.744 218.112C630.027 217.274 631.334 216.645 632.666 216.225C634.023 215.806 635.441 215.596 636.921 215.596C639.684 215.596 641.83 216.287 643.359 217.668C644.913 219.05 645.69 221.023 645.69 223.588V229.767C645.69 230.31 645.776 230.692 645.949 230.914C646.122 231.112 646.43 231.235 646.874 231.284V235.317C646.43 235.416 646.023 235.478 645.653 235.502C645.308 235.552 645.012 235.576 644.765 235.576C643.778 235.576 643.026 235.354 642.508 234.91C641.99 234.466 641.682 233.924 641.583 233.282L641.472 232.283C640.609 233.393 639.548 234.244 638.29 234.836C637.057 235.404 635.786 235.687 634.479 235.687C633.172 235.687 632.012 235.428 631.001 234.91C629.99 234.368 629.188 233.64 628.596 232.727C628.029 231.79 627.745 230.742 627.745 229.582ZM639.807 230.581C640.424 229.989 640.732 229.422 640.732 228.879V226.918C639.449 226.4 638.154 226.141 636.847 226.141C635.54 226.141 634.479 226.425 633.665 226.992C632.851 227.535 632.444 228.263 632.444 229.175C632.444 229.915 632.74 230.581 633.332 231.173C633.924 231.765 634.775 232.061 635.885 232.061C636.625 232.061 637.34 231.926 638.031 231.654C638.746 231.383 639.338 231.025 639.807 230.581ZM650.007 239.091C650.92 239.338 651.66 239.461 652.227 239.461C652.893 239.461 653.424 239.178 653.818 238.61C654.238 238.068 654.706 236.97 655.224 235.317L647.565 215.929H652.708L657.925 230.248L662.513 215.929H667.249L659.109 239.165C658.665 240.497 657.864 241.595 656.704 242.458C655.57 243.346 654.164 243.79 652.486 243.79C651.672 243.79 650.846 243.655 650.007 243.383V239.091ZM529.421 258.929C529.199 258.683 528.731 258.362 528.015 257.967C527.3 257.548 526.437 257.178 525.425 256.857C524.439 256.512 523.415 256.339 522.354 256.339C519.567 256.339 518.173 257.326 518.173 259.299C518.173 260.015 518.395 260.582 518.839 261.001C519.283 261.421 519.949 261.778 520.837 262.074C521.725 262.37 522.835 262.691 524.167 263.036C525.894 263.48 527.386 263.998 528.644 264.59C529.927 265.182 530.901 265.972 531.567 266.958C532.258 267.92 532.603 269.203 532.603 270.806C532.603 272.681 532.147 274.198 531.234 275.357C530.346 276.492 529.162 277.318 527.682 277.836C526.202 278.354 524.599 278.613 522.872 278.613C520.899 278.613 518.938 278.317 516.989 277.725C515.065 277.109 513.351 276.27 511.846 275.209L514.103 270.806C514.325 271.028 514.72 271.324 515.287 271.694C515.855 272.04 516.545 272.397 517.359 272.767C518.173 273.113 519.061 273.409 520.023 273.655C520.985 273.902 521.96 274.025 522.946 274.025C525.758 274.025 527.164 273.125 527.164 271.324C527.164 270.56 526.881 269.943 526.313 269.474C525.746 269.006 524.944 268.611 523.908 268.29C522.897 267.97 521.713 267.612 520.356 267.217C518.679 266.749 517.285 266.231 516.175 265.663C515.09 265.071 514.276 264.344 513.733 263.48C513.191 262.592 512.919 261.47 512.919 260.113C512.919 258.313 513.339 256.808 514.177 255.599C515.041 254.366 516.2 253.441 517.655 252.824C519.111 252.183 520.726 251.862 522.502 251.862C524.328 251.862 526.03 252.158 527.608 252.75C529.187 253.342 530.544 254.021 531.678 254.785L529.421 258.929ZM534.577 272.582C534.577 271.324 534.922 270.227 535.613 269.289C536.328 268.327 537.315 267.587 538.573 267.069C539.831 266.551 541.274 266.292 542.902 266.292C543.716 266.292 544.542 266.366 545.381 266.514C546.219 266.638 546.947 266.823 547.564 267.069V266.033C547.564 264.8 547.194 263.85 546.454 263.184C545.738 262.518 544.665 262.185 543.235 262.185C542.174 262.185 541.163 262.37 540.201 262.74C539.239 263.11 538.227 263.653 537.167 264.368L535.576 261.112C536.858 260.274 538.166 259.645 539.498 259.225C540.854 258.806 542.273 258.596 543.753 258.596C546.515 258.596 548.661 259.287 550.191 260.668C551.745 262.05 552.522 264.023 552.522 266.588V272.767C552.522 273.31 552.608 273.692 552.781 273.914C552.953 274.112 553.262 274.235 553.706 274.284V278.317C553.262 278.416 552.855 278.478 552.485 278.502C552.139 278.552 551.843 278.576 551.597 278.576C550.61 278.576 549.858 278.354 549.34 277.91C548.822 277.466 548.513 276.924 548.415 276.282L548.304 275.283C547.44 276.393 546.38 277.244 545.122 277.836C543.888 278.404 542.618 278.687 541.311 278.687C540.003 278.687 538.844 278.428 537.833 277.91C536.821 277.368 536.02 276.64 535.428 275.727C534.86 274.79 534.577 273.742 534.577 272.582ZM546.639 273.581C547.255 272.989 547.564 272.422 547.564 271.879V269.918C546.281 269.4 544.986 269.141 543.679 269.141C542.371 269.141 541.311 269.425 540.497 269.992C539.683 270.535 539.276 271.263 539.276 272.175C539.276 272.915 539.572 273.581 540.164 274.173C540.756 274.765 541.607 275.061 542.717 275.061C543.457 275.061 544.172 274.926 544.863 274.654C545.578 274.383 546.17 274.025 546.639 273.581ZM557.118 251.307H562.076V272.101C562.076 273.014 562.224 273.618 562.52 273.914C562.816 274.21 563.223 274.358 563.741 274.358C564.135 274.358 564.542 274.309 564.962 274.21C565.381 274.112 565.751 273.988 566.072 273.84L566.738 277.614C566.072 277.935 565.295 278.182 564.407 278.354C563.519 278.527 562.717 278.613 562.002 278.613C560.448 278.613 559.239 278.206 558.376 277.392C557.537 276.554 557.118 275.37 557.118 273.84V251.307ZM577.889 278.687C575.792 278.687 573.979 278.231 572.45 277.318C570.945 276.406 569.773 275.197 568.935 273.692C568.096 272.163 567.677 270.51 567.677 268.734C567.677 266.909 568.084 265.232 568.898 263.702C569.736 262.148 570.92 260.915 572.45 260.002C573.979 259.065 575.804 258.596 577.926 258.596C580.047 258.596 581.86 259.065 583.365 260.002C584.869 260.915 586.016 262.136 586.806 263.665C587.62 265.17 588.027 266.798 588.027 268.549C588.027 269.191 587.99 269.746 587.916 270.214H572.931C573.054 271.719 573.609 272.903 574.596 273.766C575.607 274.63 576.766 275.061 578.074 275.061C579.06 275.061 579.985 274.827 580.849 274.358C581.737 273.865 582.341 273.224 582.662 272.434L586.917 273.618C586.201 275.098 585.054 276.319 583.476 277.281C581.897 278.219 580.035 278.687 577.889 278.687ZM572.82 267.069H582.958C582.81 265.614 582.255 264.442 581.293 263.554C580.355 262.642 579.208 262.185 577.852 262.185C576.52 262.185 575.373 262.642 574.411 263.554C573.473 264.442 572.943 265.614 572.82 267.069ZM598.188 278.687C596.536 278.687 594.957 278.416 593.452 277.873C591.948 277.331 590.653 276.529 589.567 275.468L591.343 272.249C592.503 273.187 593.637 273.877 594.747 274.321C595.857 274.765 596.943 274.987 598.003 274.987C598.965 274.987 599.73 274.815 600.297 274.469C600.889 274.124 601.185 273.606 601.185 272.915C601.185 272.2 600.828 271.719 600.112 271.472C599.397 271.201 598.398 270.868 597.115 270.473C595.685 270.029 594.488 269.573 593.526 269.104C592.564 268.636 591.837 268.068 591.343 267.402C590.875 266.736 590.64 265.873 590.64 264.812C590.64 262.913 591.356 261.396 592.786 260.261C594.217 259.127 596.116 258.559 598.484 258.559C599.866 258.559 601.173 258.781 602.406 259.225C603.64 259.645 604.762 260.335 605.773 261.297L603.775 264.442C601.876 262.962 600.038 262.222 598.262 262.222C597.473 262.222 596.77 262.37 596.153 262.666C595.561 262.962 595.265 263.48 595.265 264.22C595.265 264.911 595.549 265.404 596.116 265.7C596.708 265.996 597.596 266.317 598.78 266.662C600.31 267.131 601.605 267.587 602.665 268.031C603.751 268.475 604.565 269.043 605.107 269.733C605.675 270.424 605.958 271.361 605.958 272.545C605.958 274.469 605.255 275.974 603.849 277.059C602.443 278.145 600.556 278.687 598.188 278.687Z" fill="black"/>
<path d="M459.924 333.754C459.924 332.296 460.05 331.063 460.302 330.055C460.572 329.029 460.995 328.156 461.571 327.436C462.165 326.698 462.948 326.032 463.92 325.438C464.55 325.06 465.198 324.709 465.864 324.385C466.548 324.043 467.178 323.692 467.754 323.332C468.348 322.954 468.825 322.522 469.185 322.036C469.563 321.532 469.752 320.929 469.752 320.227C469.752 319.435 469.5 318.805 468.996 318.337C468.51 317.851 467.817 317.608 466.917 317.608C466.233 317.608 465.594 317.734 465 317.986C464.424 318.22 463.902 318.517 463.434 318.877C462.984 319.219 462.597 319.561 462.273 319.903L460.005 317.527C460.329 317.149 460.824 316.717 461.49 316.231C462.174 315.727 463.011 315.286 464.001 314.908C464.991 314.53 466.116 314.341 467.376 314.341C468.78 314.341 469.959 314.593 470.913 315.097C471.867 315.583 472.587 316.258 473.073 317.122C473.577 317.968 473.829 318.949 473.829 320.065C473.829 321.145 473.595 322.063 473.127 322.819C472.677 323.557 472.092 324.187 471.372 324.709C470.652 325.231 469.905 325.717 469.131 326.167C467.889 326.833 466.944 327.4 466.296 327.868C465.666 328.336 465.216 328.777 464.946 329.191C464.676 329.587 464.46 330.019 464.298 330.487H473.856V333.754H459.924ZM490.553 327.355C490.553 328.597 490.238 329.722 489.608 330.73C488.996 331.738 488.159 332.539 487.097 333.133C486.053 333.727 484.865 334.024 483.533 334.024C482.093 334.024 480.842 333.673 479.78 332.971C478.718 332.269 477.899 331.261 477.323 329.947C476.765 328.633 476.486 327.058 476.486 325.222C476.486 321.73 477.152 319.066 478.484 317.23C479.834 315.376 481.643 314.449 483.911 314.449C485.117 314.449 486.224 314.71 487.232 315.232C488.258 315.754 489.122 316.501 489.824 317.473L487.745 319.741C487.313 319.075 486.755 318.553 486.071 318.175C485.387 317.779 484.649 317.581 483.857 317.581C482.651 317.581 481.688 318.067 480.968 319.039C480.248 319.993 479.87 321.334 479.834 323.062C480.212 322.414 480.752 321.901 481.454 321.523C482.156 321.145 482.957 320.956 483.857 320.956C485.117 320.956 486.251 321.244 487.259 321.82C488.267 322.378 489.068 323.143 489.662 324.115C490.256 325.069 490.553 326.149 490.553 327.355ZM483.56 330.973C484.19 330.973 484.775 330.811 485.315 330.487C485.855 330.145 486.287 329.704 486.611 329.164C486.935 328.606 487.097 328.003 487.097 327.355C487.097 326.707 486.935 326.122 486.611 325.6C486.287 325.06 485.855 324.637 485.315 324.331C484.775 324.007 484.19 323.845 483.56 323.845C482.912 323.845 482.318 324.007 481.778 324.331C481.238 324.637 480.806 325.06 480.482 325.6C480.176 326.122 480.023 326.707 480.023 327.355C480.023 328.003 480.185 328.606 480.509 329.164C480.833 329.704 481.256 330.145 481.778 330.487C482.318 330.811 482.912 330.973 483.56 330.973ZM503.855 321.442V333.754H500.129V314.584H503.099L513.008 327.22V314.611H516.734V333.754H513.629L503.855 321.442ZM526.667 334.024C525.119 334.024 523.787 333.691 522.671 333.025C521.573 332.341 520.727 331.441 520.133 330.325C519.539 329.209 519.242 328.003 519.242 326.707C519.242 325.393 519.539 324.178 520.133 323.062C520.745 321.946 521.6 321.055 522.698 320.389C523.814 319.705 525.137 319.363 526.667 319.363C528.197 319.363 529.511 319.705 530.609 320.389C531.725 321.055 532.58 321.946 533.174 323.062C533.768 324.178 534.065 325.393 534.065 326.707C534.065 328.003 533.768 329.209 533.174 330.325C532.58 331.441 531.725 332.341 530.609 333.025C529.511 333.691 528.197 334.024 526.667 334.024ZM522.968 326.707C522.968 327.535 523.13 328.273 523.454 328.921C523.778 329.551 524.219 330.046 524.777 330.406C525.335 330.766 525.965 330.946 526.667 330.946C527.351 330.946 527.972 330.766 528.53 330.406C529.088 330.028 529.529 329.524 529.853 328.894C530.195 328.246 530.366 327.508 530.366 326.68C530.366 325.87 530.195 325.15 529.853 324.52C529.529 323.872 529.088 323.368 528.53 323.008C527.972 322.63 527.351 322.441 526.667 322.441C525.965 322.441 525.335 322.63 524.777 323.008C524.219 323.368 523.778 323.872 523.454 324.52C523.13 325.15 522.968 325.879 522.968 326.707ZM539.84 333.754L534.629 319.606H538.382L541.946 330.46L545.537 319.606H548.966L543.782 333.754H539.84ZM556.545 327.976V324.709H564.726V327.976H556.545ZM573.857 333.754C573.857 332.296 573.983 331.063 574.235 330.055C574.505 329.029 574.928 328.156 575.504 327.436C576.098 326.698 576.881 326.032 577.853 325.438C578.483 325.06 579.131 324.709 579.797 324.385C580.481 324.043 581.111 323.692 581.687 323.332C582.281 322.954 582.758 322.522 583.118 322.036C583.496 321.532 583.685 320.929 583.685 320.227C583.685 319.435 583.433 318.805 582.929 318.337C582.443 317.851 581.75 317.608 580.85 317.608C580.166 317.608 579.527 317.734 578.933 317.986C578.357 318.22 577.835 318.517 577.367 318.877C576.917 319.219 576.53 319.561 576.206 319.903L573.938 317.527C574.262 317.149 574.757 316.717 575.423 316.231C576.107 315.727 576.944 315.286 577.934 314.908C578.924 314.53 580.049 314.341 581.309 314.341C582.713 314.341 583.892 314.593 584.846 315.097C585.8 315.583 586.52 316.258 587.006 317.122C587.51 317.968 587.762 318.949 587.762 320.065C587.762 321.145 587.528 322.063 587.06 322.819C586.61 323.557 586.025 324.187 585.305 324.709C584.585 325.231 583.838 325.717 583.064 326.167C581.822 326.833 580.877 327.4 580.229 327.868C579.599 328.336 579.149 328.777 578.879 329.191C578.609 329.587 578.393 330.019 578.231 330.487H587.789V333.754H573.857ZM590.257 321.118C590.257 319.876 590.563 318.751 591.175 317.743C591.805 316.735 592.642 315.934 593.686 315.34C594.748 314.746 595.945 314.449 597.277 314.449C598.717 314.449 599.968 314.8 601.03 315.502C602.092 316.186 602.902 317.185 603.46 318.499C604.036 319.813 604.324 321.388 604.324 323.224C604.324 326.716 603.649 329.389 602.299 331.243C600.967 333.097 599.167 334.024 596.899 334.024C595.693 334.024 594.577 333.763 593.551 333.241C592.543 332.701 591.688 331.945 590.986 330.973L593.065 328.705C593.497 329.371 594.055 329.902 594.739 330.298C595.423 330.676 596.161 330.865 596.953 330.865C598.159 330.865 599.122 330.388 599.842 329.434C600.562 328.48 600.94 327.13 600.976 325.384C600.598 326.032 600.058 326.545 599.356 326.923C598.654 327.301 597.853 327.49 596.953 327.49C595.693 327.49 594.559 327.211 593.551 326.653C592.543 326.077 591.742 325.312 591.148 324.358C590.554 323.386 590.257 322.306 590.257 321.118ZM597.25 317.473C596.62 317.473 596.035 317.644 595.495 317.986C594.955 318.31 594.523 318.751 594.199 319.309C593.893 319.849 593.74 320.443 593.74 321.091C593.74 321.739 593.893 322.333 594.199 322.873C594.523 323.395 594.955 323.818 595.495 324.142C596.035 324.448 596.629 324.601 597.277 324.601C597.925 324.601 598.51 324.448 599.032 324.142C599.572 323.818 600.004 323.395 600.328 322.873C600.652 322.333 600.814 321.748 600.814 321.118C600.814 320.47 600.652 319.867 600.328 319.309C600.004 318.751 599.572 318.31 599.032 317.986C598.492 317.644 597.898 317.473 597.25 317.473ZM617.788 321.442V333.754H614.062V314.584H617.032L626.941 327.22V314.611H630.667V333.754H627.562L617.788 321.442ZM640.6 334.024C639.052 334.024 637.72 333.691 636.604 333.025C635.506 332.341 634.66 331.441 634.066 330.325C633.472 329.209 633.175 328.003 633.175 326.707C633.175 325.393 633.472 324.178 634.066 323.062C634.678 321.946 635.533 321.055 636.631 320.389C637.747 319.705 639.07 319.363 640.6 319.363C642.13 319.363 643.444 319.705 644.542 320.389C645.658 321.055 646.513 321.946 647.107 323.062C647.701 324.178 647.998 325.393 647.998 326.707C647.998 328.003 647.701 329.209 647.107 330.325C646.513 331.441 645.658 332.341 644.542 333.025C643.444 333.691 642.13 334.024 640.6 334.024ZM636.901 326.707C636.901 327.535 637.063 328.273 637.387 328.921C637.711 329.551 638.152 330.046 638.71 330.406C639.268 330.766 639.898 330.946 640.6 330.946C641.284 330.946 641.905 330.766 642.463 330.406C643.021 330.028 643.462 329.524 643.786 328.894C644.128 328.246 644.299 327.508 644.299 326.68C644.299 325.87 644.128 325.15 643.786 324.52C643.462 323.872 643.021 323.368 642.463 323.008C641.905 322.63 641.284 322.441 640.6 322.441C639.898 322.441 639.268 322.63 638.71 323.008C638.152 323.368 637.711 323.872 637.387 324.52C637.063 325.15 636.901 325.879 636.901 326.707ZM653.772 333.754L648.561 319.606H652.314L655.878 330.46L659.469 319.606H662.898L657.714 333.754H653.772Z" fill="#A177B4"/>
<g filter="url(#filter1_d)">
<rect x="347.719" y="422.961" width="359.341" height="179.671" rx="44" fill="#A177B4"/>
</g>
<path d="M470.539 472.594C470.323 472.354 469.867 472.042 469.171 471.658C468.475 471.25 467.635 470.89 466.651 470.578C465.691 470.242 464.695 470.074 463.663 470.074C460.951 470.074 459.595 471.034 459.595 472.954C459.595 473.65 459.811 474.202 460.243 474.61C460.675 475.018 461.323 475.366 462.187 475.654C463.051 475.942 464.131 476.254 465.427 476.59C467.107 477.022 468.559 477.526 469.783 478.102C471.031 478.678 471.979 479.446 472.627 480.406C473.299 481.342 473.635 482.59 473.635 484.15C473.635 485.974 473.191 487.45 472.303 488.578C471.439 489.682 470.287 490.486 468.847 490.99C467.407 491.494 465.847 491.746 464.167 491.746C462.247 491.746 460.339 491.458 458.443 490.882C456.571 490.282 454.903 489.466 453.439 488.434L455.635 484.15C455.851 484.366 456.235 484.654 456.787 485.014C457.339 485.35 458.011 485.698 458.803 486.058C459.595 486.394 460.459 486.682 461.395 486.922C462.331 487.162 463.279 487.282 464.239 487.282C466.975 487.282 468.343 486.406 468.343 484.654C468.343 483.91 468.067 483.31 467.515 482.854C466.963 482.398 466.183 482.014 465.175 481.702C464.191 481.39 463.039 481.042 461.719 480.658C460.087 480.202 458.731 479.698 457.651 479.146C456.595 478.57 455.803 477.862 455.275 477.022C454.747 476.158 454.483 475.066 454.483 473.746C454.483 471.994 454.891 470.53 455.707 469.354C456.547 468.154 457.675 467.254 459.091 466.654C460.507 466.03 462.079 465.718 463.807 465.718C465.583 465.718 467.239 466.006 468.775 466.582C470.311 467.158 471.631 467.818 472.735 468.562L470.539 472.594ZM475.555 485.878C475.555 484.654 475.891 483.586 476.563 482.674C477.259 481.738 478.219 481.018 479.443 480.514C480.667 480.01 482.071 479.758 483.655 479.758C484.447 479.758 485.251 479.83 486.067 479.974C486.883 480.094 487.591 480.274 488.191 480.514V479.506C488.191 478.306 487.831 477.382 487.111 476.734C486.415 476.086 485.371 475.762 483.979 475.762C482.947 475.762 481.963 475.942 481.027 476.302C480.091 476.662 479.107 477.19 478.075 477.886L476.527 474.718C477.775 473.902 479.047 473.29 480.343 472.882C481.663 472.474 483.043 472.27 484.483 472.27C487.171 472.27 489.259 472.942 490.747 474.286C492.259 475.63 493.015 477.55 493.015 480.046V486.058C493.015 486.586 493.099 486.958 493.267 487.174C493.435 487.366 493.735 487.486 494.167 487.534V491.458C493.735 491.554 493.339 491.614 492.979 491.638C492.643 491.686 492.355 491.71 492.115 491.71C491.155 491.71 490.423 491.494 489.919 491.062C489.415 490.63 489.115 490.102 489.019 489.478L488.911 488.506C488.071 489.586 487.039 490.414 485.815 490.99C484.615 491.542 483.379 491.818 482.107 491.818C480.835 491.818 479.707 491.566 478.723 491.062C477.739 490.534 476.959 489.826 476.383 488.938C475.831 488.026 475.555 487.006 475.555 485.878ZM487.291 486.85C487.891 486.274 488.191 485.722 488.191 485.194V483.286C486.943 482.782 485.683 482.53 484.411 482.53C483.139 482.53 482.107 482.806 481.315 483.358C480.523 483.886 480.127 484.594 480.127 485.482C480.127 486.202 480.415 486.85 480.991 487.426C481.567 488.002 482.395 488.29 483.475 488.29C484.195 488.29 484.891 488.158 485.563 487.894C486.259 487.63 486.835 487.282 487.291 486.85ZM501.93 491.458L494.982 472.594H499.986L504.738 487.066L509.526 472.594H514.098L507.186 491.458H501.93ZM524.763 491.818C522.723 491.818 520.959 491.374 519.471 490.486C518.007 489.598 516.867 488.422 516.051 486.958C515.235 485.47 514.827 483.862 514.827 482.134C514.827 480.358 515.223 478.726 516.015 477.238C516.831 475.726 517.983 474.526 519.471 473.638C520.959 472.726 522.735 472.27 524.799 472.27C526.863 472.27 528.627 472.726 530.091 473.638C531.555 474.526 532.671 475.714 533.439 477.202C534.231 478.666 534.627 480.25 534.627 481.954C534.627 482.578 534.591 483.118 534.519 483.574H519.939C520.059 485.038 520.599 486.19 521.559 487.03C522.543 487.87 523.671 488.29 524.943 488.29C525.903 488.29 526.803 488.062 527.643 487.606C528.507 487.126 529.095 486.502 529.407 485.734L533.547 486.886C532.851 488.326 531.735 489.514 530.199 490.45C528.663 491.362 526.851 491.818 524.763 491.818ZM519.831 480.514H529.695C529.551 479.098 529.011 477.958 528.075 477.094C527.163 476.206 526.047 475.762 524.727 475.762C523.431 475.762 522.315 476.206 521.379 477.094C520.467 477.958 519.951 479.098 519.831 480.514ZM557.518 491.638C555.478 491.638 553.738 491.302 552.298 490.63C550.882 489.934 549.73 488.986 548.842 487.786C547.978 486.586 547.342 485.23 546.934 483.718C546.526 482.182 546.322 480.586 546.322 478.93V465.898H551.29V478.93C551.29 480.346 551.482 481.69 551.866 482.962C552.25 484.234 552.898 485.266 553.81 486.058C554.722 486.85 555.946 487.246 557.482 487.246C559.066 487.246 560.314 486.85 561.226 486.058C562.138 485.242 562.786 484.198 563.17 482.926C563.554 481.654 563.746 480.322 563.746 478.93V465.898H568.678V478.93C568.678 480.682 568.462 482.326 568.03 483.862C567.622 485.398 566.962 486.754 566.05 487.93C565.162 489.082 564.01 489.994 562.594 490.666C561.178 491.314 559.486 491.638 557.518 491.638ZM584.201 491.818C582.713 491.818 581.417 491.482 580.313 490.81C579.209 490.138 578.345 489.25 577.721 488.146V499.126H572.897V472.594H577.109V475.834C577.805 474.73 578.705 473.866 579.809 473.242C580.937 472.594 582.209 472.27 583.625 472.27C585.329 472.27 586.841 472.714 588.161 473.602C589.481 474.466 590.525 475.642 591.293 477.13C592.061 478.594 592.445 480.214 592.445 481.99C592.445 483.838 592.085 485.506 591.365 486.994C590.669 488.458 589.697 489.634 588.449 490.522C587.225 491.386 585.809 491.818 584.201 491.818ZM582.581 487.714C583.565 487.714 584.417 487.45 585.137 486.922C585.881 486.37 586.457 485.662 586.865 484.798C587.297 483.91 587.513 482.974 587.513 481.99C587.513 480.934 587.285 479.986 586.829 479.146C586.373 478.282 585.749 477.61 584.957 477.13C584.189 476.626 583.301 476.374 582.293 476.374C581.381 476.374 580.469 476.674 579.557 477.274C578.645 477.874 578.033 478.63 577.721 479.542V483.97C578.153 485.026 578.813 485.914 579.701 486.634C580.589 487.354 581.549 487.714 582.581 487.714ZM622.892 470.254H614.72V491.458H609.788V470.254H601.616V465.898H622.892V470.254ZM630.758 491.818C628.694 491.818 626.918 491.374 625.43 490.486C623.966 489.574 622.838 488.374 622.046 486.886C621.254 485.398 620.858 483.79 620.858 482.062C620.858 480.31 621.254 478.69 622.046 477.202C622.862 475.714 624.002 474.526 625.466 473.638C626.954 472.726 628.718 472.27 630.758 472.27C632.798 472.27 634.55 472.726 636.014 473.638C637.502 474.526 638.642 475.714 639.434 477.202C640.226 478.69 640.622 480.31 640.622 482.062C640.622 483.79 640.226 485.398 639.434 486.886C638.642 488.374 637.502 489.574 636.014 490.486C634.55 491.374 632.798 491.818 630.758 491.818ZM625.826 482.062C625.826 483.166 626.042 484.15 626.474 485.014C626.906 485.854 627.494 486.514 628.238 486.994C628.982 487.474 629.822 487.714 630.758 487.714C631.67 487.714 632.498 487.474 633.242 486.994C633.986 486.49 634.574 485.818 635.006 484.978C635.462 484.114 635.69 483.13 635.69 482.026C635.69 480.946 635.462 479.986 635.006 479.146C634.574 478.282 633.986 477.61 633.242 477.13C632.498 476.626 631.67 476.374 630.758 476.374C629.822 476.374 628.982 476.626 628.238 477.13C627.494 477.61 626.906 478.282 626.474 479.146C626.042 479.986 625.826 480.958 625.826 482.062Z" fill="white"/>
<path d="M518.918 561.18C516.146 561.18 513.644 560.586 511.412 559.398C509.216 558.174 507.524 556.536 506.336 554.484L510.494 550.164C511.502 551.568 512.762 552.684 514.274 553.512C515.786 554.34 517.352 554.754 518.972 554.754C520.916 554.754 522.5 554.16 523.724 552.972C524.984 551.784 525.614 550.236 525.614 548.328C525.614 546.492 525.02 544.998 523.832 543.846C522.644 542.658 521.168 542.064 519.404 542.064C518.252 542.064 517.154 542.334 516.11 542.874C515.066 543.414 514.238 544.152 513.626 545.088H507.308L511.736 522.3H530.636V528.888H516.974L515.462 537.474C515.894 537.006 516.524 536.628 517.352 536.34C518.18 536.016 519.206 535.854 520.43 535.854C522.842 535.854 525.002 536.376 526.91 537.42C528.818 538.464 530.312 539.922 531.392 541.794C532.508 543.63 533.066 545.754 533.066 548.166C533.066 550.758 532.454 553.026 531.23 554.97C530.006 556.914 528.314 558.444 526.154 559.56C524.03 560.64 521.618 561.18 518.918 561.18ZM554.036 561.18C551.3 561.144 548.888 560.532 546.8 559.344C544.748 558.156 543.02 556.608 541.616 554.7C540.212 552.756 539.15 550.65 538.43 548.382C537.746 546.114 537.404 543.9 537.404 541.74C537.404 539.436 537.782 537.132 538.538 534.828C539.294 532.524 540.392 530.436 541.832 528.564C543.308 526.656 545.072 525.144 547.124 524.028C549.176 522.876 551.48 522.3 554.036 522.3C556.808 522.3 559.22 522.912 561.272 524.136C563.36 525.36 565.106 526.944 566.51 528.888C567.914 530.832 568.958 532.938 569.642 535.206C570.362 537.474 570.722 539.652 570.722 541.74C570.722 544.08 570.344 546.402 569.588 548.706C568.832 550.974 567.716 553.062 566.24 554.97C564.8 556.842 563.054 558.354 561.002 559.506C558.95 560.622 556.628 561.18 554.036 561.18ZM544.91 541.74C544.946 543.216 545.144 544.71 545.504 546.222C545.9 547.734 546.458 549.12 547.178 550.38C547.934 551.64 548.87 552.666 549.986 553.458C551.138 554.214 552.488 554.592 554.036 554.592C555.656 554.592 557.042 554.178 558.194 553.35C559.346 552.522 560.282 551.46 561.002 550.164C561.758 548.868 562.316 547.482 562.676 546.006C563.036 544.53 563.216 543.108 563.216 541.74C563.216 540.264 563.018 538.77 562.622 537.258C562.226 535.746 561.65 534.36 560.894 533.1C560.138 531.84 559.184 530.832 558.032 530.076C556.88 529.284 555.548 528.888 554.036 528.888C552.452 528.888 551.084 529.302 549.932 530.13C548.78 530.958 547.826 532.02 547.07 533.316C546.314 534.612 545.756 536.016 545.396 537.528C545.072 539.004 544.91 540.408 544.91 541.74ZM583.799 538.122C582.143 538.122 580.631 537.762 579.263 537.042C577.931 536.286 576.869 535.296 576.077 534.072C575.285 532.812 574.889 531.426 574.889 529.914C574.889 528.402 575.285 527.034 576.077 525.81C576.869 524.586 577.931 523.614 579.263 522.894C580.631 522.138 582.143 521.76 583.799 521.76C585.455 521.76 586.949 522.138 588.281 522.894C589.649 523.614 590.729 524.586 591.521 525.81C592.313 527.034 592.709 528.402 592.709 529.914C592.709 531.426 592.313 532.812 591.521 534.072C590.729 535.296 589.649 536.286 588.281 537.042C586.949 537.762 585.455 538.122 583.799 538.122ZM577.967 558.102L593.141 540.336L607.181 521.868L610.475 524.784L595.679 542.28L581.207 561.018L577.967 558.102ZM583.799 534.504C584.843 534.504 585.743 534.054 586.499 533.154C587.255 532.218 587.633 531.138 587.633 529.914C587.633 528.69 587.255 527.628 586.499 526.728C585.743 525.828 584.843 525.378 583.799 525.378C582.755 525.378 581.855 525.828 581.099 526.728C580.343 527.628 579.965 528.69 579.965 529.914C579.965 531.174 580.343 532.254 581.099 533.154C581.855 534.054 582.755 534.504 583.799 534.504ZM604.643 561.18C602.987 561.18 601.493 560.82 600.161 560.1C598.829 559.344 597.749 558.354 596.921 557.13C596.129 555.906 595.733 554.538 595.733 553.026C595.733 551.514 596.129 550.146 596.921 548.922C597.749 547.662 598.829 546.672 600.161 545.952C601.493 545.196 602.987 544.818 604.643 544.818C606.299 544.818 607.793 545.196 609.125 545.952C610.493 546.672 611.573 547.662 612.365 548.922C613.157 550.146 613.553 551.514 613.553 553.026C613.553 554.538 613.157 555.906 612.365 557.13C611.573 558.354 610.493 559.344 609.125 560.1C607.793 560.82 606.299 561.18 604.643 561.18ZM604.643 557.562C605.723 557.562 606.623 557.112 607.343 556.212C608.099 555.312 608.477 554.25 608.477 553.026C608.477 551.766 608.099 550.686 607.343 549.786C606.587 548.886 605.687 548.436 604.643 548.436C603.599 548.436 602.699 548.904 601.943 549.84C601.187 550.74 600.809 551.802 600.809 553.026C600.809 554.25 601.187 555.312 601.943 556.212C602.699 557.112 603.599 557.562 604.643 557.562Z" fill="white"/>
<circle cx="688.375" cy="535.075" r="4.31209" fill="white"/>
<circle cx="686.937" cy="558.073" r="4.31209" fill="white"/>
<circle cx="675.438" cy="578.196" r="4.31209" fill="white"/>
<circle cx="688.375" cy="489.08" r="4.31209" fill="white"/>
<circle cx="688.375" cy="512.078" r="4.31209" fill="white"/>
<circle cx="686.937" cy="466.082" r="4.31209" fill="white"/>
<circle cx="675.438" cy="448.834" r="4.31209" fill="white"/>
<circle cx="655.315" cy="441.647" r="4.31209" fill="white"/>
<circle cx="632.317" cy="440.209" r="4.31209" fill="white"/>
<circle cx="609.319" cy="440.209" r="4.31209" fill="white"/>
<circle cx="586.322" cy="440.209" r="4.31209" fill="white"/>
<circle cx="563.324" cy="440.209" r="4.31209" fill="white"/>
<circle cx="540.326" cy="440.209" r="4.31209" fill="white"/>
<circle cx="517.328" cy="440.209" r="4.31209" fill="white"/>
<circle cx="494.33" cy="440.209" r="4.31209" fill="white"/>
<circle cx="471.332" cy="440.209" r="4.31209" fill="white"/>
<circle cx="448.335" cy="440.209" r="4.31209" fill="white"/>
<circle cx="425.337" cy="440.209" r="4.31209" fill="white"/>
<circle cx="655.315" cy="585.383" r="4.31209" fill="white"/>
<circle cx="632.317" cy="586.821" r="4.31209" fill="white"/>
<circle cx="609.319" cy="586.821" r="4.31209" fill="white"/>
<circle cx="586.322" cy="586.821" r="4.31209" fill="white"/>
<circle cx="563.324" cy="586.821" r="4.31209" fill="white"/>
<circle cx="540.326" cy="586.821" r="4.31209" fill="white"/>
<circle cx="517.328" cy="586.821" r="4.31209" fill="white"/>
<circle cx="494.33" cy="586.821" r="4.31209" fill="white"/>
<circle cx="471.332" cy="586.821" r="4.31209" fill="white"/>
<circle cx="448.335" cy="586.821" r="4.31209" fill="white"/>
<circle cx="425.337" cy="586.821" r="4.31209" fill="white"/>
<g filter="url(#filter2_d)">
<rect x="20" y="39.5168" width="393.506" height="610.336" rx="32" fill="white"/>
</g>
<rect x="71" y="92" width="295" height="259" rx="32" fill="#C4C4C4"/>
<circle cx="404.951" cy="57.8213" r="57.8213" fill="#A177B4"/>
<path d="M367.856 63.152V59.28H377.552V63.152H367.856ZM388.079 70.224C386.266 70.224 384.698 69.8827 383.375 69.2C382.052 68.496 381.071 67.536 380.431 66.32L382.735 63.408C383.055 64.1333 383.652 64.7947 384.527 65.392C385.423 65.9893 386.554 66.288 387.919 66.288C389.22 66.288 390.255 66.0107 391.023 65.456C391.812 64.9013 392.207 64.1333 392.207 63.152C392.207 62.0853 391.716 61.2747 390.735 60.72C389.754 60.144 388.335 59.856 386.479 59.856H385.423V56.656H386.543C388.079 56.656 389.306 56.4 390.223 55.888C391.162 55.3547 391.631 54.5867 391.631 53.584C391.631 52.688 391.279 51.984 390.575 51.472C389.892 50.96 389.071 50.704 388.111 50.704C387.023 50.704 386.074 50.96 385.263 51.472C384.452 51.9627 383.834 52.6027 383.407 53.392L380.623 50.288C381.092 49.6053 381.732 49.0293 382.543 48.56C383.354 48.0693 384.26 47.6853 385.263 47.408C386.287 47.1307 387.343 46.992 388.431 46.992C389.946 46.992 391.279 47.2587 392.431 47.792C393.604 48.304 394.522 49.008 395.183 49.904C395.866 50.8 396.207 51.824 396.207 52.976C396.207 54.2773 395.812 55.3867 395.023 56.304C394.255 57.2 393.22 57.7973 391.919 58.096C393.327 58.3307 394.468 58.992 395.343 60.08C396.218 61.1467 396.655 62.4053 396.655 63.856C396.655 65.2 396.271 66.352 395.503 67.312C394.756 68.2507 393.732 68.976 392.431 69.488C391.151 69.9787 389.7 70.224 388.079 70.224ZM406.798 70.224C404.984 70.224 403.416 69.8827 402.094 69.2C400.771 68.496 399.79 67.536 399.15 66.32L401.454 63.408C401.774 64.1333 402.371 64.7947 403.246 65.392C404.142 65.9893 405.272 66.288 406.638 66.288C407.939 66.288 408.974 66.0107 409.742 65.456C410.531 64.9013 410.926 64.1333 410.926 63.152C410.926 62.0853 410.435 61.2747 409.454 60.72C408.472 60.144 407.054 59.856 405.198 59.856H404.142V56.656H405.262C406.798 56.656 408.024 56.4 408.942 55.888C409.88 55.3547 410.35 54.5867 410.35 53.584C410.35 52.688 409.998 51.984 409.294 51.472C408.611 50.96 407.79 50.704 406.83 50.704C405.742 50.704 404.792 50.96 403.982 51.472C403.171 51.9627 402.552 52.6027 402.126 53.392L399.342 50.288C399.811 49.6053 400.451 49.0293 401.262 48.56C402.072 48.0693 402.979 47.6853 403.982 47.408C405.006 47.1307 406.062 46.992 407.15 46.992C408.664 46.992 409.998 47.2587 411.15 47.792C412.323 48.304 413.24 49.008 413.902 49.904C414.584 50.8 414.926 51.824 414.926 52.976C414.926 54.2773 414.531 55.3867 413.742 56.304C412.974 57.2 411.939 57.7973 410.638 58.096C412.046 58.3307 413.187 58.992 414.062 60.08C414.936 61.1467 415.374 62.4053 415.374 63.856C415.374 65.2 414.99 66.352 414.222 67.312C413.475 68.2507 412.451 68.976 411.15 69.488C409.87 69.9787 408.419 70.224 406.798 70.224ZM423.213 56.656C422.231 56.656 421.335 56.4427 420.525 56.016C419.735 55.568 419.106 54.9813 418.637 54.256C418.167 53.5093 417.933 52.688 417.933 51.792C417.933 50.896 418.167 50.0853 418.637 49.36C419.106 48.6347 419.735 48.0587 420.525 47.632C421.335 47.184 422.231 46.96 423.213 46.96C424.194 46.96 425.079 47.184 425.869 47.632C426.679 48.0587 427.319 48.6347 427.789 49.36C428.258 50.0853 428.493 50.896 428.493 51.792C428.493 52.688 428.258 53.5093 427.789 54.256C427.319 54.9813 426.679 55.568 425.869 56.016C425.079 56.4427 424.194 56.656 423.213 56.656ZM419.757 68.496L428.749 57.968L437.069 47.024L439.021 48.752L430.253 59.12L421.677 70.224L419.757 68.496ZM423.213 54.512C423.831 54.512 424.365 54.2453 424.812 53.712C425.261 53.1573 425.485 52.5173 425.485 51.792C425.485 51.0667 425.261 50.4373 424.812 49.904C424.365 49.3707 423.831 49.104 423.213 49.104C422.594 49.104 422.061 49.3707 421.613 49.904C421.165 50.4373 420.941 51.0667 420.941 51.792C420.941 52.5387 421.165 53.1787 421.613 53.712C422.061 54.2453 422.594 54.512 423.213 54.512ZM435.565 70.32C434.583 70.32 433.698 70.1067 432.909 69.68C432.119 69.232 431.479 68.6453 430.989 67.92C430.519 67.1947 430.285 66.384 430.285 65.488C430.285 64.592 430.519 63.7813 430.989 63.056C431.479 62.3093 432.119 61.7227 432.909 61.296C433.698 60.848 434.583 60.624 435.565 60.624C436.546 60.624 437.431 60.848 438.221 61.296C439.031 61.7227 439.671 62.3093 440.141 63.056C440.61 63.7813 440.845 64.592 440.845 65.488C440.845 66.384 440.61 67.1947 440.141 67.92C439.671 68.6453 439.031 69.232 438.221 69.68C437.431 70.1067 436.546 70.32 435.565 70.32ZM435.565 68.176C436.205 68.176 436.738 67.9093 437.165 67.376C437.613 66.8427 437.837 66.2133 437.837 65.488C437.837 64.7413 437.613 64.1013 437.165 63.568C436.717 63.0347 436.183 62.768 435.565 62.768C434.946 62.768 434.413 63.0453 433.965 63.6C433.517 64.1333 433.293 64.7627 433.293 65.488C433.293 66.2133 433.517 66.8427 433.965 67.376C434.413 67.9093 434.946 68.176 435.565 68.176Z" fill="white"/>
<rect x="98" y="462" width="237.009" height="17.7757" rx="7.5" fill="#CCCCCC"/>
<path d="M132.034 593V563.89H144.908C146.247 563.89 147.477 564.163 148.598 564.71C149.746 565.257 150.73 565.995 151.55 566.924C152.397 567.853 153.04 568.892 153.477 570.04C153.942 571.188 154.174 572.363 154.174 573.566C154.174 575.425 153.696 577.133 152.739 578.691C151.81 580.249 150.539 581.37 148.926 582.053L155.568 593H149.336L143.35 583.242H137.692V593H132.034ZM137.692 578.281H144.785C145.851 578.281 146.726 577.83 147.409 576.928C148.12 575.999 148.475 574.878 148.475 573.566C148.475 572.664 148.284 571.858 147.901 571.147C147.518 570.436 147.026 569.876 146.425 569.466C145.851 569.056 145.222 568.851 144.539 568.851H137.692V578.281ZM183.04 593V573.894L175.578 588.121H172.421L164.959 573.894V593H159.301V563.89H165.369L173.979 580.454L182.671 563.89H188.698V593H183.04ZM220.779 588.039V593H204.297V588.039H209.955V569.097C209.654 569.507 209.121 569.999 208.356 570.573C207.59 571.12 206.743 571.598 205.814 572.008C204.912 572.418 204.092 572.623 203.354 572.623V567.539C204.064 567.539 204.802 567.348 205.568 566.965C206.333 566.582 207.044 566.145 207.7 565.653C208.356 565.134 208.889 564.683 209.299 564.3C209.736 563.89 209.955 563.658 209.955 563.603H215.572V588.039H220.779ZM223.33 573.812C223.33 571.926 223.795 570.218 224.724 568.687C225.681 567.156 226.952 565.94 228.537 565.038C230.15 564.136 231.968 563.685 233.99 563.685C236.177 563.685 238.077 564.218 239.689 565.284C241.302 566.323 242.532 567.84 243.379 569.835C244.254 571.83 244.691 574.222 244.691 577.01C244.691 582.313 243.666 586.372 241.616 589.187C239.594 592.002 236.86 593.41 233.416 593.41C231.585 593.41 229.89 593.014 228.332 592.221C226.802 591.401 225.503 590.253 224.437 588.777L227.594 585.333C228.25 586.344 229.098 587.151 230.136 587.752C231.175 588.326 232.296 588.613 233.498 588.613C235.33 588.613 236.792 587.889 237.885 586.44C238.979 584.991 239.553 582.941 239.607 580.29C239.033 581.274 238.213 582.053 237.147 582.627C236.081 583.201 234.865 583.488 233.498 583.488C231.585 583.488 229.863 583.064 228.332 582.217C226.802 581.342 225.585 580.181 224.683 578.732C223.781 577.256 223.33 575.616 223.33 573.812ZM233.949 568.277C232.993 568.277 232.104 568.537 231.284 569.056C230.464 569.548 229.808 570.218 229.316 571.065C228.852 571.885 228.619 572.787 228.619 573.771C228.619 574.755 228.852 575.657 229.316 576.477C229.808 577.27 230.464 577.912 231.284 578.404C232.104 578.869 233.006 579.101 233.99 579.101C234.974 579.101 235.863 578.869 236.655 578.404C237.475 577.912 238.131 577.27 238.623 576.477C239.115 575.657 239.361 574.769 239.361 573.812C239.361 572.828 239.115 571.912 238.623 571.065C238.131 570.218 237.475 569.548 236.655 569.056C235.835 568.537 234.933 568.277 233.949 568.277ZM248.973 593V587.096H253.483V593H248.973ZM257.444 573.812C257.444 571.926 257.908 570.218 258.838 568.687C259.794 567.156 261.065 565.94 262.651 565.038C264.263 564.136 266.081 563.685 268.104 563.685C270.29 563.685 272.19 564.218 273.803 565.284C275.415 566.323 276.645 567.84 277.493 569.835C278.367 571.83 278.805 574.222 278.805 577.01C278.805 582.313 277.78 586.372 275.73 589.187C273.707 592.002 270.974 593.41 267.53 593.41C265.698 593.41 264.004 593.014 262.446 592.221C260.915 591.401 259.617 590.253 258.551 588.777L261.708 585.333C262.364 586.344 263.211 587.151 264.25 587.752C265.288 588.326 266.409 588.613 267.612 588.613C269.443 588.613 270.905 587.889 271.999 586.44C273.092 584.991 273.666 582.941 273.721 580.29C273.147 581.274 272.327 582.053 271.261 582.627C270.195 583.201 268.978 583.488 267.612 583.488C265.698 583.488 263.976 583.064 262.446 582.217C260.915 581.342 259.699 580.181 258.797 578.732C257.895 577.256 257.444 575.616 257.444 573.812ZM268.063 568.277C267.106 568.277 266.218 568.537 265.398 569.056C264.578 569.548 263.922 570.218 263.43 571.065C262.965 571.885 262.733 572.787 262.733 573.771C262.733 574.755 262.965 575.657 263.43 576.477C263.922 577.27 264.578 577.912 265.398 578.404C266.218 578.869 267.12 579.101 268.104 579.101C269.088 579.101 269.976 578.869 270.769 578.404C271.589 577.912 272.245 577.27 272.737 576.477C273.229 575.657 273.475 574.769 273.475 573.812C273.475 572.828 273.229 571.912 272.737 571.065C272.245 570.218 271.589 569.548 270.769 569.056C269.949 568.537 269.047 568.277 268.063 568.277ZM282.348 573.812C282.348 571.926 282.813 570.218 283.742 568.687C284.699 567.156 285.97 565.94 287.555 565.038C289.168 564.136 290.985 563.685 293.008 563.685C295.195 563.685 297.094 564.218 298.707 565.284C300.32 566.323 301.55 567.84 302.397 569.835C303.272 571.83 303.709 574.222 303.709 577.01C303.709 582.313 302.684 586.372 300.634 589.187C298.611 592.002 295.878 593.41 292.434 593.41C290.603 593.41 288.908 593.014 287.35 592.221C285.819 591.401 284.521 590.253 283.455 588.777L286.612 585.333C287.268 586.344 288.115 587.151 289.154 587.752C290.193 588.326 291.313 588.613 292.516 588.613C294.347 588.613 295.81 587.889 296.903 586.44C297.996 584.991 298.57 582.941 298.625 580.29C298.051 581.274 297.231 582.053 296.165 582.627C295.099 583.201 293.883 583.488 292.516 583.488C290.603 583.488 288.881 583.064 287.35 582.217C285.819 581.342 284.603 580.181 283.701 578.732C282.799 577.256 282.348 575.616 282.348 573.812ZM292.967 568.277C292.01 568.277 291.122 568.537 290.302 569.056C289.482 569.548 288.826 570.218 288.334 571.065C287.869 571.885 287.637 572.787 287.637 573.771C287.637 574.755 287.869 575.657 288.334 576.477C288.826 577.27 289.482 577.912 290.302 578.404C291.122 578.869 292.024 579.101 293.008 579.101C293.992 579.101 294.88 578.869 295.673 578.404C296.493 577.912 297.149 577.27 297.641 576.477C298.133 575.657 298.379 574.769 298.379 573.812C298.379 572.828 298.133 571.912 297.641 571.065C297.149 570.218 296.493 569.548 295.673 569.056C294.853 568.537 293.951 568.277 292.967 568.277Z" fill="black"/>
<path d="M148.368 529V506.28H158.416C159.461 506.28 160.421 506.493 161.296 506.92C162.192 507.347 162.96 507.923 163.6 508.648C164.261 509.373 164.763 510.184 165.104 511.08C165.467 511.976 165.648 512.893 165.648 513.832C165.648 515.283 165.275 516.616 164.528 517.832C163.803 519.048 162.811 519.923 161.552 520.456L166.736 529H161.872L157.2 521.384H152.784V529H148.368ZM152.784 517.512H158.32C159.152 517.512 159.835 517.16 160.368 516.456C160.923 515.731 161.2 514.856 161.2 513.832C161.2 513.128 161.051 512.499 160.752 511.944C160.453 511.389 160.069 510.952 159.6 510.632C159.152 510.312 158.661 510.152 158.128 510.152H152.784V517.512ZM188.177 529V514.088L182.353 525.192H179.889L174.065 514.088V529H169.649V506.28H174.385L181.105 519.208L187.889 506.28H192.593V529H188.177ZM203.968 529C203.968 527.272 204.118 525.811 204.416 524.616C204.736 523.4 205.238 522.365 205.92 521.512C206.624 520.637 207.552 519.848 208.704 519.144C209.451 518.696 210.219 518.28 211.008 517.896C211.819 517.491 212.566 517.075 213.248 516.648C213.952 516.2 214.518 515.688 214.944 515.112C215.392 514.515 215.616 513.8 215.616 512.968C215.616 512.029 215.318 511.283 214.72 510.728C214.144 510.152 213.323 509.864 212.256 509.864C211.446 509.864 210.688 510.013 209.984 510.312C209.302 510.589 208.683 510.941 208.128 511.368C207.595 511.773 207.136 512.179 206.752 512.584L204.064 509.768C204.448 509.32 205.035 508.808 205.824 508.232C206.635 507.635 207.627 507.112 208.8 506.664C209.974 506.216 211.307 505.992 212.8 505.992C214.464 505.992 215.862 506.291 216.992 506.888C218.123 507.464 218.976 508.264 219.552 509.288C220.15 510.291 220.448 511.453 220.448 512.776C220.448 514.056 220.171 515.144 219.616 516.04C219.083 516.915 218.39 517.661 217.536 518.28C216.683 518.899 215.798 519.475 214.88 520.008C213.408 520.797 212.288 521.469 211.52 522.024C210.774 522.579 210.24 523.101 209.92 523.592C209.6 524.061 209.344 524.573 209.152 525.128H220.48V529H203.968ZM223.405 514.024C223.405 512.552 223.768 511.219 224.493 510.024C225.24 508.829 226.232 507.88 227.469 507.176C228.728 506.472 230.146 506.12 231.725 506.12C233.432 506.12 234.914 506.536 236.173 507.368C237.432 508.179 238.392 509.363 239.053 510.92C239.736 512.477 240.077 514.344 240.077 516.52C240.077 520.659 239.277 523.827 237.677 526.024C236.098 528.221 233.965 529.32 231.277 529.32C229.848 529.32 228.525 529.011 227.309 528.392C226.114 527.752 225.101 526.856 224.269 525.704L226.733 523.016C227.245 523.805 227.906 524.435 228.717 524.904C229.528 525.352 230.402 525.576 231.341 525.576C232.77 525.576 233.912 525.011 234.765 523.88C235.618 522.749 236.066 521.149 236.109 519.08C235.661 519.848 235.021 520.456 234.189 520.904C233.357 521.352 232.408 521.576 231.341 521.576C229.848 521.576 228.504 521.245 227.309 520.584C226.114 519.901 225.165 518.995 224.461 517.864C223.757 516.712 223.405 515.432 223.405 514.024ZM231.693 509.704C230.946 509.704 230.253 509.907 229.613 510.312C228.973 510.696 228.461 511.219 228.077 511.88C227.714 512.52 227.533 513.224 227.533 513.992C227.533 514.76 227.714 515.464 228.077 516.104C228.461 516.723 228.973 517.224 229.613 517.608C230.253 517.971 230.957 518.152 231.725 518.152C232.493 518.152 233.186 517.971 233.805 517.608C234.445 517.224 234.957 516.723 235.341 516.104C235.725 515.464 235.917 514.771 235.917 514.024C235.917 513.256 235.725 512.541 235.341 511.88C234.957 511.219 234.445 510.696 233.805 510.312C233.165 509.907 232.461 509.704 231.693 509.704ZM243.419 529V524.392H246.939V529H243.419ZM250.03 514.024C250.03 512.552 250.393 511.219 251.118 510.024C251.865 508.829 252.857 507.88 254.094 507.176C255.353 506.472 256.771 506.12 258.35 506.12C260.057 506.12 261.539 506.536 262.798 507.368C264.057 508.179 265.017 509.363 265.678 510.92C266.361 512.477 266.702 514.344 266.702 516.52C266.702 520.659 265.902 523.827 264.302 526.024C262.723 528.221 260.59 529.32 257.902 529.32C256.473 529.32 255.15 529.011 253.934 528.392C252.739 527.752 251.726 526.856 250.894 525.704L253.358 523.016C253.87 523.805 254.531 524.435 255.342 524.904C256.153 525.352 257.027 525.576 257.966 525.576C259.395 525.576 260.537 525.011 261.39 523.88C262.243 522.749 262.691 521.149 262.734 519.08C262.286 519.848 261.646 520.456 260.814 520.904C259.982 521.352 259.033 521.576 257.966 521.576C256.473 521.576 255.129 521.245 253.934 520.584C252.739 519.901 251.79 518.995 251.086 517.864C250.382 516.712 250.03 515.432 250.03 514.024ZM258.318 509.704C257.571 509.704 256.878 509.907 256.238 510.312C255.598 510.696 255.086 511.219 254.702 511.88C254.339 512.52 254.158 513.224 254.158 513.992C254.158 514.76 254.339 515.464 254.702 516.104C255.086 516.723 255.598 517.224 256.238 517.608C256.878 517.971 257.582 518.152 258.35 518.152C259.118 518.152 259.811 517.971 260.43 517.608C261.07 517.224 261.582 516.723 261.966 516.104C262.35 515.464 262.542 514.771 262.542 514.024C262.542 513.256 262.35 512.541 261.966 511.88C261.582 511.219 261.07 510.696 260.43 510.312C259.79 509.907 259.086 509.704 258.318 509.704ZM269.468 514.024C269.468 512.552 269.83 511.219 270.556 510.024C271.302 508.829 272.294 507.88 273.532 507.176C274.79 506.472 276.209 506.12 277.788 506.12C279.494 506.12 280.977 506.536 282.236 507.368C283.494 508.179 284.454 509.363 285.116 510.92C285.798 512.477 286.14 514.344 286.14 516.52C286.14 520.659 285.34 523.827 283.74 526.024C282.161 528.221 280.028 529.32 277.34 529.32C275.91 529.32 274.588 529.011 273.372 528.392C272.177 527.752 271.164 526.856 270.332 525.704L272.796 523.016C273.308 523.805 273.969 524.435 274.78 524.904C275.59 525.352 276.465 525.576 277.404 525.576C278.833 525.576 279.974 525.011 280.828 523.88C281.681 522.749 282.129 521.149 282.172 519.08C281.724 519.848 281.084 520.456 280.252 520.904C279.42 521.352 278.47 521.576 277.404 521.576C275.91 521.576 274.566 521.245 273.372 520.584C272.177 519.901 271.228 518.995 270.524 517.864C269.82 516.712 269.468 515.432 269.468 514.024ZM277.756 509.704C277.009 509.704 276.316 509.907 275.676 510.312C275.036 510.696 274.524 511.219 274.14 511.88C273.777 512.52 273.596 513.224 273.596 513.992C273.596 514.76 273.777 515.464 274.14 516.104C274.524 516.723 275.036 517.224 275.676 517.608C276.316 517.971 277.02 518.152 277.788 518.152C278.556 518.152 279.249 517.971 279.868 517.608C280.508 517.224 281.02 516.723 281.404 516.104C281.788 515.464 281.98 514.771 281.98 514.024C281.98 513.256 281.788 512.541 281.404 511.88C281.02 511.219 280.508 510.696 279.868 510.312C279.228 509.907 278.524 509.704 277.756 509.704Z" fill="#999999"/>
<path d="M130.123 527.049L305.996 512.594" stroke="#999999" stroke-width="2" stroke-linecap="round"/>
<path fill-rule="evenodd" clip-rule="evenodd" d="M123.486 391L123.486 414.021L141.78 400.408C144.419 404.092 145.972 408.608 145.972 413.486C145.972 425.905 135.905 435.972 123.486 435.972C111.067 435.972 101 425.905 101 413.486C101 401.067 111.067 391 123.486 391Z" fill="#A177B4"/>
<path d="M168.027 422.281C166.611 422.281 165.386 421.972 164.352 421.356C163.336 420.739 162.544 419.922 161.977 418.906C161.411 417.872 161.127 416.756 161.127 415.556C161.127 414.322 161.402 413.189 161.952 412.156C162.519 411.106 163.319 410.272 164.352 409.656C165.386 409.022 166.619 408.706 168.052 408.706C169.486 408.706 170.711 409.022 171.727 409.656C172.744 410.272 173.519 411.097 174.052 412.131C174.602 413.147 174.877 414.247 174.877 415.431C174.877 415.864 174.852 416.239 174.802 416.556H164.677C164.761 417.572 165.136 418.372 165.802 418.956C166.486 419.539 167.269 419.831 168.152 419.831C168.819 419.831 169.444 419.672 170.027 419.356C170.627 419.022 171.036 418.589 171.252 418.056L174.127 418.856C173.644 419.856 172.869 420.681 171.802 421.331C170.736 421.964 169.477 422.281 168.027 422.281ZM164.602 414.431H171.452C171.352 413.447 170.977 412.656 170.327 412.056C169.694 411.439 168.919 411.131 168.002 411.131C167.102 411.131 166.327 411.439 165.677 412.056C165.044 412.656 164.686 413.447 164.602 414.431ZM189.093 422.031H185.743V414.681C185.743 413.631 185.56 412.864 185.193 412.381C184.827 411.897 184.318 411.656 183.668 411.656C183.218 411.656 182.76 411.772 182.293 412.006C181.843 412.239 181.435 412.564 181.068 412.981C180.702 413.381 180.435 413.847 180.268 414.381V422.031H176.918V408.931H179.943V411.356C180.427 410.539 181.127 409.897 182.043 409.431C182.96 408.947 183.993 408.706 185.143 408.706C185.96 408.706 186.627 408.856 187.143 409.156C187.66 409.439 188.06 409.831 188.343 410.331C188.627 410.814 188.818 411.364 188.918 411.981C189.035 412.597 189.093 413.222 189.093 413.856V422.031ZM191.206 415.481C191.206 414.231 191.456 413.089 191.956 412.056C192.456 411.022 193.148 410.206 194.031 409.606C194.914 409.006 195.923 408.706 197.056 408.706C198.023 408.706 198.889 408.947 199.656 409.431C200.439 409.897 201.048 410.497 201.481 411.231V403.781H204.831V418.281C204.831 418.647 204.889 418.906 205.006 419.056C205.123 419.189 205.323 419.272 205.606 419.306V422.031C205.006 422.147 204.531 422.206 204.181 422.206C203.581 422.206 203.081 422.056 202.681 421.756C202.298 421.456 202.081 421.064 202.031 420.581L201.981 419.756C201.498 420.572 200.839 421.197 200.006 421.631C199.189 422.064 198.331 422.281 197.431 422.281C196.214 422.281 195.139 421.981 194.206 421.381C193.273 420.764 192.539 419.947 192.006 418.931C191.473 417.897 191.206 416.747 191.206 415.481ZM201.481 417.231V414.106C201.214 413.372 200.756 412.764 200.106 412.281C199.456 411.797 198.789 411.556 198.106 411.556C197.423 411.556 196.823 411.747 196.306 412.131C195.789 412.497 195.389 412.989 195.106 413.606C194.823 414.206 194.681 414.856 194.681 415.556C194.681 416.272 194.839 416.931 195.156 417.531C195.473 418.114 195.898 418.581 196.431 418.931C196.981 419.264 197.606 419.431 198.306 419.431C198.939 419.431 199.564 419.222 200.181 418.806C200.814 418.389 201.248 417.864 201.481 417.231ZM214.125 407.106V403.781H217.475V407.106H214.125ZM214.125 422.031V408.931H217.475V422.031H214.125ZM232.672 422.031H229.322V414.681C229.322 413.631 229.139 412.864 228.772 412.381C228.406 411.897 227.897 411.656 227.247 411.656C226.797 411.656 226.339 411.772 225.872 412.006C225.422 412.239 225.014 412.564 224.647 412.981C224.281 413.381 224.014 413.847 223.847 414.381V422.031H220.497V408.931H223.522V411.356C224.006 410.539 224.706 409.897 225.622 409.431C226.539 408.947 227.572 408.706 228.722 408.706C229.539 408.706 230.206 408.856 230.722 409.156C231.239 409.439 231.639 409.831 231.922 410.331C232.206 410.814 232.397 411.364 232.497 411.981C232.614 412.597 232.672 413.222 232.672 413.856V422.031ZM246.866 422.206C245.449 422.206 244.224 421.939 243.191 421.406C242.158 420.856 241.391 420.106 240.891 419.156L242.691 416.881C242.941 417.447 243.408 417.964 244.091 418.431C244.791 418.897 245.674 419.131 246.741 419.131C247.758 419.131 248.566 418.914 249.166 418.481C249.783 418.047 250.091 417.447 250.091 416.681C250.091 415.847 249.708 415.214 248.941 414.781C248.174 414.331 247.066 414.106 245.616 414.106H244.791V411.606H245.666C246.866 411.606 247.824 411.406 248.541 411.006C249.274 410.589 249.641 409.989 249.641 409.206C249.641 408.506 249.366 407.956 248.816 407.556C248.283 407.156 247.641 406.956 246.891 406.956C246.041 406.956 245.299 407.156 244.666 407.556C244.033 407.939 243.549 408.439 243.216 409.056L241.041 406.631C241.408 406.097 241.908 405.647 242.541 405.281C243.174 404.897 243.883 404.597 244.666 404.381C245.466 404.164 246.291 404.056 247.141 404.056C248.324 404.056 249.366 404.264 250.266 404.681C251.183 405.081 251.899 405.631 252.416 406.331C252.949 407.031 253.216 407.831 253.216 408.731C253.216 409.747 252.908 410.614 252.291 411.331C251.691 412.031 250.883 412.497 249.866 412.731C250.966 412.914 251.858 413.431 252.541 414.281C253.224 415.114 253.566 416.097 253.566 417.231C253.566 418.281 253.266 419.181 252.666 419.931C252.083 420.664 251.283 421.231 250.266 421.631C249.266 422.014 248.133 422.206 246.866 422.206ZM274.396 422.031H271.046V414.681C271.046 413.664 270.846 412.906 270.446 412.406C270.063 411.906 269.529 411.656 268.846 411.656C268.429 411.656 267.996 411.772 267.546 412.006C267.113 412.239 266.713 412.564 266.346 412.981C265.996 413.381 265.738 413.847 265.571 414.381V422.031H262.221V403.781H265.571V411.356C266.054 410.522 266.713 409.872 267.546 409.406C268.379 408.939 269.288 408.706 270.271 408.706C271.388 408.706 272.246 408.956 272.846 409.456C273.446 409.956 273.854 410.597 274.071 411.381C274.288 412.164 274.396 412.989 274.396 413.856V422.031ZM283.359 422.281C281.926 422.281 280.692 421.972 279.659 421.356C278.642 420.722 277.859 419.889 277.309 418.856C276.759 417.822 276.484 416.706 276.484 415.506C276.484 414.289 276.759 413.164 277.309 412.131C277.876 411.097 278.667 410.272 279.684 409.656C280.717 409.022 281.942 408.706 283.359 408.706C284.776 408.706 285.992 409.022 287.009 409.656C288.042 410.272 288.834 411.097 289.384 412.131C289.934 413.164 290.209 414.289 290.209 415.506C290.209 416.706 289.934 417.822 289.384 418.856C288.834 419.889 288.042 420.722 287.009 421.356C285.992 421.972 284.776 422.281 283.359 422.281ZM279.934 415.506C279.934 416.272 280.084 416.956 280.384 417.556C280.684 418.139 281.092 418.597 281.609 418.931C282.126 419.264 282.709 419.431 283.359 419.431C283.992 419.431 284.567 419.264 285.084 418.931C285.601 418.581 286.009 418.114 286.309 417.531C286.626 416.931 286.784 416.247 286.784 415.481C286.784 414.731 286.626 414.064 286.309 413.481C286.009 412.881 285.601 412.414 285.084 412.081C284.567 411.731 283.992 411.556 283.359 411.556C282.709 411.556 282.126 411.731 281.609 412.081C281.092 412.414 280.684 412.881 280.384 413.481C280.084 414.064 279.934 414.739 279.934 415.506ZM292.345 417.131V408.931H295.695V416.406C295.695 418.422 296.42 419.431 297.87 419.431C298.52 419.431 299.145 419.239 299.745 418.856C300.362 418.456 300.862 417.856 301.245 417.056V408.931H304.595V418.281C304.595 418.647 304.653 418.906 304.77 419.056C304.887 419.189 305.095 419.272 305.395 419.306V422.031C305.062 422.097 304.778 422.139 304.545 422.156C304.328 422.172 304.128 422.181 303.945 422.181C303.345 422.181 302.853 422.047 302.47 421.781C302.103 421.497 301.887 421.114 301.82 420.631L301.745 419.581C301.162 420.481 300.412 421.156 299.495 421.606C298.578 422.056 297.57 422.281 296.47 422.281C295.12 422.281 294.095 421.847 293.395 420.981C292.695 420.097 292.345 418.814 292.345 417.131ZM315.724 411.831C314.707 411.831 313.799 412.031 312.999 412.431C312.199 412.814 311.624 413.372 311.274 414.106V422.031H307.924V408.931H310.999V411.731C311.449 410.831 312.032 410.122 312.749 409.606C313.482 409.089 314.249 408.806 315.049 408.756C315.399 408.756 315.624 408.764 315.724 408.781V411.831ZM322.417 422.281C321.3 422.281 320.234 422.097 319.217 421.731C318.2 421.364 317.325 420.822 316.592 420.106L317.792 417.931C318.575 418.564 319.342 419.031 320.092 419.331C320.842 419.631 321.575 419.781 322.292 419.781C322.942 419.781 323.459 419.664 323.842 419.431C324.242 419.197 324.442 418.847 324.442 418.381C324.442 417.897 324.2 417.572 323.717 417.406C323.234 417.222 322.559 416.997 321.692 416.731C320.725 416.431 319.917 416.122 319.267 415.806C318.617 415.489 318.125 415.106 317.792 414.656C317.475 414.206 317.317 413.622 317.317 412.906C317.317 411.622 317.8 410.597 318.767 409.831C319.734 409.064 321.017 408.681 322.617 408.681C323.55 408.681 324.434 408.831 325.267 409.131C326.1 409.414 326.859 409.881 327.542 410.531L326.192 412.656C324.909 411.656 323.667 411.156 322.467 411.156C321.934 411.156 321.459 411.256 321.042 411.456C320.642 411.656 320.442 412.006 320.442 412.506C320.442 412.972 320.634 413.306 321.017 413.506C321.417 413.706 322.017 413.922 322.817 414.156C323.85 414.472 324.725 414.781 325.442 415.081C326.175 415.381 326.725 415.764 327.092 416.231C327.475 416.697 327.667 417.331 327.667 418.131C327.667 419.431 327.192 420.447 326.242 421.181C325.292 421.914 324.017 422.281 322.417 422.281Z" fill="#555555"/>
<defs>
<filter id="filter0_d" x="333" y="158" width="419.341" height="259.075" filterUnits="userSpaceOnUse" color-interpolation-filters="sRGB">
<feFlood flood-opacity="0" result="BackgroundImageFix"/>
<feColorMatrix in="SourceAlpha" type="matrix" values="0 0 0 0 0 0 0 0 0 0 0 0 0 0 0 0 0 0 127 0"/>
<feOffset dx="15" dy="15"/>
<feGaussianBlur stdDeviation="15"/>
<feColorMatrix type="matrix" values="0 0 0 0 0.835294 0 0 0 0 0.835294 0 0 0 0 0.835294 0 0 0 0.5 0"/>
<feBlend mode="normal" in2="BackgroundImageFix" result="effect1_dropShadow"/>
<feBlend mode="normal" in="SourceGraphic" in2="effect1_dropShadow" result="shape"/>
</filter>
<filter id="filter1_d" x="332.719" y="407.961" width="419.341" height="239.671" filterUnits="userSpaceOnUse" color-interpolation-filters="sRGB">
<feFlood flood-opacity="0" result="BackgroundImageFix"/>
<feColorMatrix in="SourceAlpha" type="matrix" values="0 0 0 0 0 0 0 0 0 0 0 0 0 0 0 0 0 0 127 0"/>
<feOffset dx="15" dy="15"/>
<feGaussianBlur stdDeviation="15"/>
<feColorMatrix type="matrix" values="0 0 0 0 0.835294 0 0 0 0 0.835294 0 0 0 0 0.835294 0 0 0 0.5 0"/>
<feBlend mode="normal" in2="BackgroundImageFix" result="effect1_dropShadow"/>
<feBlend mode="normal" in="SourceGraphic" in2="effect1_dropShadow" result="shape"/>
</filter>
<filter id="filter2_d" x="0" y="19.5168" width="453.506" height="670.336" filterUnits="userSpaceOnUse" color-interpolation-filters="sRGB">
<feFlood flood-opacity="0" result="BackgroundImageFix"/>
<feColorMatrix in="SourceAlpha" type="matrix" values="0 0 0 0 0 0 0 0 0 0 0 0 0 0 0 0 0 0 127 0"/>
<feOffset dx="10" dy="10"/>
<feGaussianBlur stdDeviation="15"/>
<feColorMatrix type="matrix" values="0 0 0 0 0.835294 0 0 0 0 0.835294 0 0 0 0 0.835294 0 0 0 0.5 0"/>
<feBlend mode="normal" in2="BackgroundImageFix" result="effect1_dropShadow"/>
<feBlend mode="normal" in="SourceGraphic" in2="effect1_dropShadow" result="shape"/>
</filter>
</defs>
</svg>
