<svg width="672" height="840" viewBox="0 0 672 840" fill="none" xmlns="http://www.w3.org/2000/svg">
<g filter="url(#filter0_d)">
<rect x="96" y="15" width="450" height="789" rx="32" fill="white"/>
</g>
<path d="M129.436 86.88C129.436 85.06 129.758 83.268 130.402 81.504C131.074 79.74 132.04 78.144 133.3 76.716C134.56 75.288 136.1 74.154 137.92 73.314C139.74 72.446 141.812 72.012 144.136 72.012C146.852 72.012 149.218 72.614 151.234 73.818C153.25 75.022 154.748 76.59 155.728 78.522L151.276 81.588C150.772 80.468 150.114 79.586 149.302 78.942C148.49 78.298 147.608 77.836 146.656 77.556C145.732 77.276 144.836 77.136 143.968 77.136C142.512 77.136 141.238 77.43 140.146 78.018C139.082 78.606 138.186 79.376 137.458 80.328C136.73 81.28 136.184 82.344 135.82 83.52C135.484 84.696 135.316 85.872 135.316 87.048C135.316 88.812 135.68 90.464 136.408 92.004C137.136 93.516 138.158 94.748 139.474 95.7C140.79 96.652 142.316 97.128 144.052 97.128C144.948 97.128 145.872 96.974 146.824 96.666C147.804 96.358 148.7 95.868 149.512 95.196C150.324 94.524 150.954 93.656 151.402 92.592L156.148 95.322C155.532 96.806 154.566 98.066 153.25 99.102C151.934 100.11 150.45 100.894 148.798 101.454C147.146 101.986 145.508 102.252 143.884 102.252C141.756 102.252 139.81 101.818 138.046 100.95C136.31 100.054 134.798 98.878 133.51 97.422C132.222 95.938 131.214 94.286 130.486 92.466C129.786 90.618 129.436 88.756 129.436 86.88ZM179.943 102H174.315V89.652C174.315 87.944 173.979 86.67 173.307 85.83C172.663 84.99 171.767 84.57 170.619 84.57C169.919 84.57 169.191 84.766 168.435 85.158C167.707 85.55 167.035 86.096 166.419 86.796C165.831 87.468 165.397 88.252 165.117 89.148V102H159.489V71.34H165.117V84.066C165.929 82.666 167.035 81.574 168.435 80.79C169.835 80.006 171.361 79.614 173.013 79.614C174.889 79.614 176.331 80.034 177.339 80.874C178.347 81.714 179.033 82.792 179.397 84.108C179.761 85.424 179.943 86.81 179.943 88.266V102ZM195.042 102.42C192.662 102.42 190.604 101.902 188.868 100.866C187.16 99.83 185.83 98.458 184.878 96.75C183.926 95.014 183.45 93.138 183.45 91.122C183.45 89.05 183.912 87.146 184.836 85.41C185.788 83.646 187.132 82.246 188.868 81.21C190.604 80.146 192.676 79.614 195.084 79.614C197.492 79.614 199.55 80.146 201.258 81.21C202.966 82.246 204.268 83.632 205.164 85.368C206.088 87.076 206.55 88.924 206.55 90.912C206.55 91.64 206.508 92.27 206.424 92.802H189.414C189.554 94.51 190.184 95.854 191.304 96.834C192.452 97.814 193.768 98.304 195.252 98.304C196.372 98.304 197.422 98.038 198.402 97.506C199.41 96.946 200.096 96.218 200.46 95.322L205.29 96.666C204.478 98.346 203.176 99.732 201.384 100.824C199.592 101.888 197.478 102.42 195.042 102.42ZM189.288 89.232H200.796C200.628 87.58 199.998 86.25 198.906 85.242C197.842 84.206 196.54 83.688 195 83.688C193.488 83.688 192.186 84.206 191.094 85.242C190.03 86.25 189.428 87.58 189.288 89.232ZM220.227 102.42C217.847 102.42 215.789 101.888 214.053 100.824C212.317 99.76 210.973 98.36 210.021 96.624C209.069 94.888 208.593 93.012 208.593 90.996C208.593 88.952 209.055 87.062 209.979 85.326C210.931 83.59 212.275 82.204 214.011 81.168C215.747 80.132 217.805 79.614 220.185 79.614C222.593 79.614 224.637 80.132 226.317 81.168C228.025 82.204 229.299 83.562 230.139 85.242L224.637 86.922C223.657 85.242 222.159 84.402 220.143 84.402C219.051 84.402 218.071 84.682 217.203 85.242C216.335 85.774 215.649 86.544 215.145 87.552C214.641 88.532 214.389 89.68 214.389 90.996C214.389 92.284 214.641 93.432 215.145 94.44C215.677 95.42 216.377 96.204 217.245 96.792C218.113 97.352 219.079 97.632 220.143 97.632C221.151 97.632 222.075 97.394 222.915 96.918C223.783 96.414 224.385 95.784 224.721 95.028L230.223 96.708C229.467 98.36 228.207 99.732 226.443 100.824C224.707 101.888 222.635 102.42 220.227 102.42ZM248.722 102L242.296 92.508L239.314 95.448V102H233.686V71.34H239.314V89.904L248.176 80.034H254.14L245.95 89.358L254.728 102H248.722ZM266.122 102.42C263.714 102.42 261.642 101.902 259.906 100.866C258.198 99.802 256.882 98.402 255.958 96.666C255.034 94.93 254.572 93.054 254.572 91.038C254.572 88.994 255.034 87.104 255.958 85.368C256.91 83.632 258.24 82.246 259.948 81.21C261.684 80.146 263.742 79.614 266.122 79.614C268.502 79.614 270.546 80.146 272.254 81.21C273.99 82.246 275.32 83.632 276.244 85.368C277.168 87.104 277.63 88.994 277.63 91.038C277.63 93.054 277.168 94.93 276.244 96.666C275.32 98.402 273.99 99.802 272.254 100.866C270.546 101.902 268.502 102.42 266.122 102.42ZM260.368 91.038C260.368 92.326 260.62 93.474 261.124 94.482C261.628 95.462 262.314 96.232 263.182 96.792C264.05 97.352 265.03 97.632 266.122 97.632C267.186 97.632 268.152 97.352 269.02 96.792C269.888 96.204 270.574 95.42 271.078 94.44C271.61 93.432 271.876 92.284 271.876 90.996C271.876 89.736 271.61 88.616 271.078 87.636C270.574 86.628 269.888 85.844 269.02 85.284C268.152 84.696 267.186 84.402 266.122 84.402C265.03 84.402 264.05 84.696 263.182 85.284C262.314 85.844 261.628 86.628 261.124 87.636C260.62 88.616 260.368 89.75 260.368 91.038ZM281.218 93.768V79.992H286.846V92.55C286.846 95.938 288.064 97.632 290.5 97.632C291.592 97.632 292.642 97.31 293.65 96.666C294.686 95.994 295.526 94.986 296.17 93.642V79.992H301.798V95.7C301.798 96.316 301.896 96.75 302.092 97.002C302.288 97.226 302.638 97.366 303.142 97.422V102C302.582 102.112 302.106 102.182 301.714 102.21C301.35 102.238 301.014 102.252 300.706 102.252C299.698 102.252 298.872 102.028 298.228 101.58C297.612 101.104 297.248 100.46 297.136 99.648L297.01 97.884C296.03 99.396 294.77 100.53 293.23 101.286C291.69 102.042 289.996 102.42 288.148 102.42C285.88 102.42 284.158 101.692 282.982 100.236C281.806 98.752 281.218 96.596 281.218 93.768ZM320.497 100.866C319.741 101.202 318.803 101.538 317.683 101.874C316.591 102.21 315.457 102.378 314.281 102.378C313.245 102.378 312.293 102.196 311.425 101.832C310.557 101.468 309.857 100.894 309.325 100.11C308.821 99.298 308.569 98.248 308.569 96.96V84.318H305.671V79.992H308.569V72.852H314.197V79.992H318.817V84.318H314.197V95.07C314.197 95.826 314.393 96.372 314.785 96.708C315.205 97.044 315.709 97.212 316.297 97.212C316.885 97.212 317.459 97.114 318.019 96.918C318.579 96.722 319.027 96.554 319.363 96.414L320.497 100.866Z" fill="black"/>
<rect x="128" y="129" width="152" height="152" rx="32" fill="#999999"/>
<rect x="321" y="152" width="184" height="15" rx="7.5" fill="#C5C5C5"/>
<rect x="321" y="192" width="94" height="15" rx="7.5" fill="#C5C5C5"/>
<path d="M354.24 253.854V257H343.788V253.854H347.376V241.842C347.186 242.102 346.848 242.414 346.362 242.778C345.877 243.125 345.34 243.428 344.75 243.688C344.178 243.948 343.658 244.078 343.19 244.078V240.854C343.641 240.854 344.109 240.733 344.594 240.49C345.08 240.247 345.53 239.97 345.946 239.658C346.362 239.329 346.7 239.043 346.96 238.8C347.238 238.54 347.376 238.393 347.376 238.358H350.938V253.854H354.24ZM364.633 238.54L369.209 245.352L373.759 238.54H377.659L371.263 247.9L377.451 257H373.551L369.209 250.448L364.841 257H360.915L367.103 247.9L360.707 238.54H364.633ZM385.485 257V238.54H393.649C394.498 238.54 395.278 238.713 395.989 239.06C396.717 239.407 397.341 239.875 397.861 240.464C398.398 241.053 398.805 241.712 399.083 242.44C399.377 243.168 399.525 243.913 399.525 244.676C399.525 245.855 399.221 246.938 398.615 247.926C398.025 248.914 397.219 249.625 396.197 250.058L400.409 257H396.457L392.661 250.812H389.073V257H385.485ZM389.073 247.666H393.571C394.247 247.666 394.801 247.38 395.235 246.808C395.685 246.219 395.911 245.508 395.911 244.676C395.911 244.104 395.789 243.593 395.547 243.142C395.304 242.691 394.992 242.336 394.611 242.076C394.247 241.816 393.848 241.686 393.415 241.686H389.073V247.666ZM417.83 257V244.884L413.098 253.906H411.096L406.364 244.884V257H402.776V238.54H406.624L412.084 249.044L417.596 238.54H421.418V257H417.83ZM436.588 257.26C435.253 257.26 434.048 256.974 432.974 256.402C431.916 255.813 431.102 255.024 430.53 254.036L432.532 251.956C433.017 252.632 433.624 253.169 434.352 253.568C435.08 253.967 435.834 254.166 436.614 254.166C437.55 254.166 438.312 253.88 438.902 253.308C439.508 252.736 439.812 251.991 439.812 251.072C439.812 250.188 439.526 249.469 438.954 248.914C438.382 248.342 437.671 248.056 436.822 248.056C436.267 248.056 435.738 248.186 435.236 248.446C434.733 248.706 434.334 249.061 434.04 249.512H430.998L433.13 238.54H442.23V241.712H435.652L434.924 245.846C435.132 245.621 435.435 245.439 435.834 245.3C436.232 245.144 436.726 245.066 437.316 245.066C438.477 245.066 439.517 245.317 440.436 245.82C441.354 246.323 442.074 247.025 442.594 247.926C443.131 248.81 443.4 249.833 443.4 250.994C443.4 252.242 443.105 253.334 442.516 254.27C441.926 255.206 441.112 255.943 440.072 256.48C439.049 257 437.888 257.26 436.588 257.26ZM453.496 257.26C452.179 257.243 451.018 256.948 450.012 256.376C449.024 255.804 448.192 255.059 447.516 254.14C446.84 253.204 446.329 252.19 445.982 251.098C445.653 250.006 445.488 248.94 445.488 247.9C445.488 246.791 445.67 245.681 446.034 244.572C446.398 243.463 446.927 242.457 447.62 241.556C448.331 240.637 449.18 239.909 450.168 239.372C451.156 238.817 452.266 238.54 453.496 238.54C454.831 238.54 455.992 238.835 456.98 239.424C457.986 240.013 458.826 240.776 459.502 241.712C460.178 242.648 460.681 243.662 461.01 244.754C461.357 245.846 461.53 246.895 461.53 247.9C461.53 249.027 461.348 250.145 460.984 251.254C460.62 252.346 460.083 253.351 459.372 254.27C458.679 255.171 457.838 255.899 456.85 256.454C455.862 256.991 454.744 257.26 453.496 257.26ZM449.102 247.9C449.12 248.611 449.215 249.33 449.388 250.058C449.579 250.786 449.848 251.453 450.194 252.06C450.558 252.667 451.009 253.161 451.546 253.542C452.101 253.906 452.751 254.088 453.496 254.088C454.276 254.088 454.944 253.889 455.498 253.49C456.053 253.091 456.504 252.58 456.85 251.956C457.214 251.332 457.483 250.665 457.656 249.954C457.83 249.243 457.916 248.559 457.916 247.9C457.916 247.189 457.821 246.47 457.63 245.742C457.44 245.014 457.162 244.347 456.798 243.74C456.434 243.133 455.975 242.648 455.42 242.284C454.866 241.903 454.224 241.712 453.496 241.712C452.734 241.712 452.075 241.911 451.52 242.31C450.966 242.709 450.506 243.22 450.142 243.844C449.778 244.468 449.51 245.144 449.336 245.872C449.18 246.583 449.102 247.259 449.102 247.9ZM464.135 257V253.256H466.995V257H464.135ZM477.567 257.26C476.249 257.243 475.088 256.948 474.083 256.376C473.095 255.804 472.263 255.059 471.587 254.14C470.911 253.204 470.399 252.19 470.053 251.098C469.723 250.006 469.559 248.94 469.559 247.9C469.559 246.791 469.741 245.681 470.105 244.572C470.469 243.463 470.997 242.457 471.691 241.556C472.401 240.637 473.251 239.909 474.239 239.372C475.227 238.817 476.336 238.54 477.567 238.54C478.901 238.54 480.063 238.835 481.051 239.424C482.056 240.013 482.897 240.776 483.573 241.712C484.249 242.648 484.751 243.662 485.081 244.754C485.427 245.846 485.601 246.895 485.601 247.9C485.601 249.027 485.419 250.145 485.055 251.254C484.691 252.346 484.153 253.351 483.443 254.27C482.749 255.171 481.909 255.899 480.921 256.454C479.933 256.991 478.815 257.26 477.567 257.26ZM473.173 247.9C473.19 248.611 473.285 249.33 473.459 250.058C473.649 250.786 473.918 251.453 474.265 252.06C474.629 252.667 475.079 253.161 475.617 253.542C476.171 253.906 476.821 254.088 477.567 254.088C478.347 254.088 479.014 253.889 479.569 253.49C480.123 253.091 480.574 252.58 480.921 251.956C481.285 251.332 481.553 250.665 481.727 249.954C481.9 249.243 481.987 248.559 481.987 247.9C481.987 247.189 481.891 246.47 481.701 245.742C481.51 245.014 481.233 244.347 480.869 243.74C480.505 243.133 480.045 242.648 479.491 242.284C478.936 241.903 478.295 241.712 477.567 241.712C476.804 241.712 476.145 241.911 475.591 242.31C475.036 242.709 474.577 243.22 474.213 243.844C473.849 244.468 473.58 245.144 473.407 245.872C473.251 246.583 473.173 247.259 473.173 247.9ZM495.797 257.26C494.48 257.243 493.319 256.948 492.313 256.376C491.325 255.804 490.493 255.059 489.817 254.14C489.141 253.204 488.63 252.19 488.283 251.098C487.954 250.006 487.789 248.94 487.789 247.9C487.789 246.791 487.971 245.681 488.335 244.572C488.699 243.463 489.228 242.457 489.921 241.556C490.632 240.637 491.481 239.909 492.469 239.372C493.457 238.817 494.567 238.54 495.797 238.54C497.132 238.54 498.293 238.835 499.281 239.424C500.287 240.013 501.127 240.776 501.803 241.712C502.479 242.648 502.982 243.662 503.311 244.754C503.658 245.846 503.831 246.895 503.831 247.9C503.831 249.027 503.649 250.145 503.285 251.254C502.921 252.346 502.384 253.351 501.673 254.27C500.98 255.171 500.139 255.899 499.151 256.454C498.163 256.991 497.045 257.26 495.797 257.26ZM491.403 247.9C491.421 248.611 491.516 249.33 491.689 250.058C491.88 250.786 492.149 251.453 492.495 252.06C492.859 252.667 493.31 253.161 493.847 253.542C494.402 253.906 495.052 254.088 495.797 254.088C496.577 254.088 497.245 253.889 497.799 253.49C498.354 253.091 498.805 252.58 499.151 251.956C499.515 251.332 499.784 250.665 499.957 249.954C500.131 249.243 500.217 248.559 500.217 247.9C500.217 247.189 500.122 246.47 499.931 245.742C499.741 245.014 499.463 244.347 499.099 243.74C498.735 243.133 498.276 242.648 497.721 242.284C497.167 241.903 496.525 241.712 495.797 241.712C495.035 241.712 494.376 241.911 493.821 242.31C493.267 242.709 492.807 243.22 492.443 243.844C492.079 244.468 491.811 245.144 491.637 245.872C491.481 246.583 491.403 247.259 491.403 247.9Z" fill="black"/>
<path d="M141.038 351.376C140.882 351.203 140.553 350.977 140.05 350.7C139.548 350.405 138.941 350.145 138.23 349.92C137.537 349.677 136.818 349.556 136.072 349.556C134.114 349.556 133.134 350.249 133.134 351.636C133.134 352.139 133.29 352.537 133.602 352.832C133.914 353.127 134.382 353.378 135.006 353.586C135.63 353.794 136.41 354.019 137.346 354.262C138.56 354.574 139.608 354.938 140.492 355.354C141.394 355.77 142.078 356.325 142.546 357.018C143.032 357.694 143.274 358.595 143.274 359.722C143.274 361.039 142.954 362.105 142.312 362.92C141.688 363.717 140.856 364.298 139.816 364.662C138.776 365.026 137.65 365.208 136.436 365.208C135.05 365.208 133.672 365 132.302 364.584C130.95 364.151 129.746 363.561 128.688 362.816L130.274 359.722C130.43 359.878 130.708 360.086 131.106 360.346C131.505 360.589 131.99 360.84 132.562 361.1C133.134 361.343 133.758 361.551 134.434 361.724C135.11 361.897 135.795 361.984 136.488 361.984C138.464 361.984 139.452 361.351 139.452 360.086C139.452 359.549 139.253 359.115 138.854 358.786C138.456 358.457 137.892 358.179 137.164 357.954C136.454 357.729 135.622 357.477 134.668 357.2C133.49 356.871 132.51 356.507 131.73 356.108C130.968 355.692 130.396 355.181 130.014 354.574C129.633 353.95 129.442 353.161 129.442 352.208C129.442 350.943 129.737 349.885 130.326 349.036C130.933 348.169 131.748 347.519 132.77 347.086C133.793 346.635 134.928 346.41 136.176 346.41C137.459 346.41 138.655 346.618 139.764 347.034C140.874 347.45 141.827 347.927 142.624 348.464L141.038 351.376ZM145.441 359.904V351.376H148.925V359.15C148.925 361.247 149.679 362.296 151.187 362.296C151.863 362.296 152.513 362.097 153.137 361.698C153.779 361.282 154.299 360.658 154.697 359.826V351.376H158.181V361.1C158.181 361.481 158.242 361.75 158.363 361.906C158.485 362.045 158.701 362.131 159.013 362.166V365C158.667 365.069 158.372 365.113 158.129 365.13C157.904 365.147 157.696 365.156 157.505 365.156C156.881 365.156 156.37 365.017 155.971 364.74C155.59 364.445 155.365 364.047 155.295 363.544L155.217 362.452C154.611 363.388 153.831 364.09 152.877 364.558C151.924 365.026 150.875 365.26 149.731 365.26C148.327 365.26 147.261 364.809 146.533 363.908C145.805 362.989 145.441 361.655 145.441 359.904ZM169.392 365.26C168.352 365.26 167.424 365.026 166.61 364.558C165.795 364.09 165.154 363.449 164.686 362.634V365H161.644V346.02H165.128V353.768C165.613 352.953 166.246 352.312 167.026 351.844C167.823 351.376 168.75 351.142 169.808 351.142C170.986 351.142 172.018 351.471 172.902 352.13C173.803 352.771 174.505 353.629 175.008 354.704C175.51 355.779 175.762 356.957 175.762 358.24C175.762 359.557 175.484 360.745 174.93 361.802C174.375 362.859 173.612 363.7 172.642 364.324C171.688 364.948 170.605 365.26 169.392 365.26ZM168.43 362.296C169.175 362.296 169.825 362.114 170.38 361.75C170.952 361.386 171.394 360.901 171.706 360.294C172.035 359.67 172.2 358.994 172.2 358.266C172.2 357.521 172.044 356.836 171.732 356.212C171.437 355.571 171.021 355.059 170.484 354.678C169.946 354.297 169.331 354.106 168.638 354.106C167.875 354.106 167.173 354.366 166.532 354.886C165.908 355.389 165.44 356.013 165.128 356.758V360.008C165.353 360.684 165.795 361.239 166.454 361.672C167.112 362.088 167.771 362.296 168.43 362.296ZM186.108 364.298C185.64 364.506 185.06 364.714 184.366 364.922C183.69 365.13 182.988 365.234 182.26 365.234C181.619 365.234 181.03 365.121 180.492 364.896C179.955 364.671 179.522 364.315 179.192 363.83C178.88 363.327 178.724 362.677 178.724 361.88V354.054H176.93V351.376H178.724V346.956H182.208V351.376H185.068V354.054H182.208V360.71C182.208 361.178 182.33 361.516 182.572 361.724C182.832 361.932 183.144 362.036 183.508 362.036C183.872 362.036 184.228 361.975 184.574 361.854C184.921 361.733 185.198 361.629 185.406 361.542L186.108 364.298ZM194.037 365.26C192.547 365.26 191.264 364.939 190.189 364.298C189.132 363.639 188.317 362.773 187.745 361.698C187.173 360.623 186.887 359.462 186.887 358.214C186.887 356.949 187.173 355.779 187.745 354.704C188.335 353.629 189.158 352.771 190.215 352.13C191.29 351.471 192.564 351.142 194.037 351.142C195.511 351.142 196.776 351.471 197.833 352.13C198.908 352.771 199.731 353.629 200.303 354.704C200.875 355.779 201.161 356.949 201.161 358.214C201.161 359.462 200.875 360.623 200.303 361.698C199.731 362.773 198.908 363.639 197.833 364.298C196.776 364.939 195.511 365.26 194.037 365.26ZM190.475 358.214C190.475 359.011 190.631 359.722 190.943 360.346C191.255 360.953 191.68 361.429 192.217 361.776C192.755 362.123 193.361 362.296 194.037 362.296C194.696 362.296 195.294 362.123 195.831 361.776C196.369 361.412 196.793 360.927 197.105 360.32C197.435 359.696 197.599 358.985 197.599 358.188C197.599 357.408 197.435 356.715 197.105 356.108C196.793 355.484 196.369 354.999 195.831 354.652C195.294 354.288 194.696 354.106 194.037 354.106C193.361 354.106 192.755 354.288 192.217 354.652C191.68 354.999 191.255 355.484 190.943 356.108C190.631 356.715 190.475 357.417 190.475 358.214ZM211.474 364.298C211.006 364.506 210.425 364.714 209.732 364.922C209.056 365.13 208.354 365.234 207.626 365.234C206.984 365.234 206.395 365.121 205.858 364.896C205.32 364.671 204.887 364.315 204.558 363.83C204.246 363.327 204.09 362.677 204.09 361.88V354.054H202.296V351.376H204.09V346.956H207.574V351.376H210.434V354.054H207.574V360.71C207.574 361.178 207.695 361.516 207.938 361.724C208.198 361.932 208.51 362.036 208.874 362.036C209.238 362.036 209.593 361.975 209.94 361.854C210.286 361.733 210.564 361.629 210.772 361.542L211.474 364.298ZM212.352 360.97C212.352 360.086 212.595 359.315 213.08 358.656C213.583 357.98 214.276 357.46 215.16 357.096C216.044 356.732 217.058 356.55 218.202 356.55C218.774 356.55 219.355 356.602 219.944 356.706C220.533 356.793 221.045 356.923 221.478 357.096V356.368C221.478 355.501 221.218 354.834 220.698 354.366C220.195 353.898 219.441 353.664 218.436 353.664C217.691 353.664 216.98 353.794 216.304 354.054C215.628 354.314 214.917 354.695 214.172 355.198L213.054 352.91C213.955 352.321 214.874 351.879 215.81 351.584C216.763 351.289 217.76 351.142 218.8 351.142C220.741 351.142 222.249 351.627 223.324 352.598C224.416 353.569 224.962 354.955 224.962 356.758V361.1C224.962 361.481 225.023 361.75 225.144 361.906C225.265 362.045 225.482 362.131 225.794 362.166V365C225.482 365.069 225.196 365.113 224.936 365.13C224.693 365.165 224.485 365.182 224.312 365.182C223.619 365.182 223.09 365.026 222.726 364.714C222.362 364.402 222.145 364.021 222.076 363.57L221.998 362.868C221.391 363.648 220.646 364.246 219.762 364.662C218.895 365.061 218.003 365.26 217.084 365.26C216.165 365.26 215.351 365.078 214.64 364.714C213.929 364.333 213.366 363.821 212.95 363.18C212.551 362.521 212.352 361.785 212.352 360.97ZM220.828 361.672C221.261 361.256 221.478 360.857 221.478 360.476V359.098C220.577 358.734 219.667 358.552 218.748 358.552C217.829 358.552 217.084 358.751 216.512 359.15C215.94 359.531 215.654 360.043 215.654 360.684C215.654 361.204 215.862 361.672 216.278 362.088C216.694 362.504 217.292 362.712 218.072 362.712C218.592 362.712 219.095 362.617 219.58 362.426C220.083 362.235 220.499 361.984 220.828 361.672ZM228.192 346.02H231.676V360.632C231.676 361.273 231.78 361.698 231.988 361.906C232.196 362.114 232.482 362.218 232.846 362.218C233.123 362.218 233.409 362.183 233.704 362.114C233.999 362.045 234.259 361.958 234.484 361.854L234.952 364.506C234.484 364.731 233.938 364.905 233.314 365.026C232.69 365.147 232.127 365.208 231.624 365.208C230.532 365.208 229.683 364.922 229.076 364.35C228.487 363.761 228.192 362.929 228.192 361.854V346.02Z" fill="black"/>
<path d="M132.012 403.54L137.004 417.736L141.944 403.54H145.714L138.72 422H135.262L128.242 403.54H132.012ZM151.861 422.26C150.371 422.26 149.088 421.939 148.013 421.298C146.956 420.639 146.141 419.773 145.569 418.698C144.997 417.623 144.711 416.462 144.711 415.214C144.711 413.949 144.997 412.779 145.569 411.704C146.159 410.629 146.982 409.771 148.039 409.13C149.114 408.471 150.388 408.142 151.861 408.142C153.335 408.142 154.6 408.471 155.657 409.13C156.732 409.771 157.555 410.629 158.127 411.704C158.699 412.779 158.985 413.949 158.985 415.214C158.985 416.462 158.699 417.623 158.127 418.698C157.555 419.773 156.732 420.639 155.657 421.298C154.6 421.939 153.335 422.26 151.861 422.26ZM148.299 415.214C148.299 416.011 148.455 416.722 148.767 417.346C149.079 417.953 149.504 418.429 150.041 418.776C150.579 419.123 151.185 419.296 151.861 419.296C152.52 419.296 153.118 419.123 153.655 418.776C154.193 418.412 154.617 417.927 154.929 417.32C155.259 416.696 155.423 415.985 155.423 415.188C155.423 414.408 155.259 413.715 154.929 413.108C154.617 412.484 154.193 411.999 153.655 411.652C153.118 411.288 152.52 411.106 151.861 411.106C151.185 411.106 150.579 411.288 150.041 411.652C149.504 411.999 149.079 412.484 148.767 413.108C148.455 413.715 148.299 414.417 148.299 415.214ZM161.207 416.904V408.376H164.691V416.15C164.691 418.247 165.445 419.296 166.953 419.296C167.629 419.296 168.279 419.097 168.903 418.698C169.544 418.282 170.064 417.658 170.463 416.826V408.376H173.947V418.1C173.947 418.481 174.008 418.75 174.129 418.906C174.25 419.045 174.467 419.131 174.779 419.166V422C174.432 422.069 174.138 422.113 173.895 422.13C173.67 422.147 173.462 422.156 173.271 422.156C172.647 422.156 172.136 422.017 171.737 421.74C171.356 421.445 171.13 421.047 171.061 420.544L170.983 419.452C170.376 420.388 169.596 421.09 168.643 421.558C167.69 422.026 166.641 422.26 165.497 422.26C164.093 422.26 163.027 421.809 162.299 420.908C161.571 419.989 161.207 418.655 161.207 416.904ZM183.753 422.26C182.28 422.26 181.006 421.931 179.931 421.272C178.857 420.613 178.025 419.747 177.435 418.672C176.846 417.597 176.551 416.436 176.551 415.188C176.551 413.923 176.837 412.753 177.409 411.678C177.999 410.603 178.831 409.745 179.905 409.104C180.98 408.463 182.254 408.142 183.727 408.142C185.218 408.142 186.483 408.463 187.523 409.104C188.581 409.745 189.369 410.586 189.889 411.626L186.483 412.666C185.877 411.626 184.949 411.106 183.701 411.106C183.025 411.106 182.419 411.279 181.881 411.626C181.344 411.955 180.919 412.432 180.607 413.056C180.295 413.663 180.139 414.373 180.139 415.188C180.139 415.985 180.295 416.696 180.607 417.32C180.937 417.927 181.37 418.412 181.907 418.776C182.445 419.123 183.043 419.296 183.701 419.296C184.325 419.296 184.897 419.149 185.417 418.854C185.955 418.542 186.327 418.152 186.535 417.684L189.941 418.724C189.473 419.747 188.693 420.596 187.601 421.272C186.527 421.931 185.244 422.26 183.753 422.26ZM204.747 422H201.263V414.356C201.263 413.299 201.055 412.51 200.639 411.99C200.24 411.47 199.686 411.21 198.975 411.21C198.542 411.21 198.091 411.331 197.623 411.574C197.172 411.817 196.756 412.155 196.375 412.588C196.011 413.004 195.742 413.489 195.569 414.044V422H192.085V403.02H195.569V410.898C196.072 410.031 196.756 409.355 197.623 408.87C198.49 408.385 199.434 408.142 200.457 408.142C201.618 408.142 202.511 408.402 203.135 408.922C203.759 409.442 204.184 410.109 204.409 410.924C204.634 411.739 204.747 412.597 204.747 413.498V422ZM214.094 422.26C212.621 422.26 211.347 421.939 210.272 421.298C209.215 420.657 208.392 419.807 207.802 418.75C207.213 417.675 206.918 416.514 206.918 415.266C206.918 413.983 207.204 412.805 207.776 411.73C208.366 410.638 209.198 409.771 210.272 409.13C211.347 408.471 212.63 408.142 214.12 408.142C215.611 408.142 216.885 408.471 217.942 409.13C219 409.771 219.806 410.629 220.36 411.704C220.932 412.761 221.218 413.905 221.218 415.136C221.218 415.587 221.192 415.977 221.14 416.306H210.61C210.697 417.363 211.087 418.195 211.78 418.802C212.491 419.409 213.306 419.712 214.224 419.712C214.918 419.712 215.568 419.547 216.174 419.218C216.798 418.871 217.223 418.421 217.448 417.866L220.438 418.698C219.936 419.738 219.13 420.596 218.02 421.272C216.911 421.931 215.602 422.26 214.094 422.26ZM210.532 414.096H217.656C217.552 413.073 217.162 412.25 216.486 411.626C215.828 410.985 215.022 410.664 214.068 410.664C213.132 410.664 212.326 410.985 211.65 411.626C210.992 412.25 210.619 413.073 210.532 414.096ZM231.453 411.392C230.396 411.392 229.451 411.6 228.619 412.016C227.787 412.415 227.189 412.995 226.825 413.758V422H223.341V408.376H226.539V411.288C227.007 410.352 227.614 409.615 228.359 409.078C229.122 408.541 229.919 408.246 230.751 408.194C231.115 408.194 231.349 408.203 231.453 408.22V411.392Z" fill="black"/>
<path d="M144.101 746.686H138.199V762H134.637V746.686H128.735V743.54H144.101V746.686ZM149.782 762.26C148.292 762.26 147.009 761.939 145.934 761.298C144.877 760.639 144.062 759.773 143.49 758.698C142.918 757.623 142.632 756.462 142.632 755.214C142.632 753.949 142.918 752.779 143.49 751.704C144.08 750.629 144.903 749.771 145.96 749.13C147.035 748.471 148.309 748.142 149.782 748.142C151.256 748.142 152.521 748.471 153.578 749.13C154.653 749.771 155.476 750.629 156.048 751.704C156.62 752.779 156.906 753.949 156.906 755.214C156.906 756.462 156.62 757.623 156.048 758.698C155.476 759.773 154.653 760.639 153.578 761.298C152.521 761.939 151.256 762.26 149.782 762.26ZM146.22 755.214C146.22 756.011 146.376 756.722 146.688 757.346C147 757.953 147.425 758.429 147.962 758.776C148.5 759.123 149.106 759.296 149.782 759.296C150.441 759.296 151.039 759.123 151.576 758.776C152.114 758.412 152.538 757.927 152.85 757.32C153.18 756.696 153.344 755.985 153.344 755.188C153.344 754.408 153.18 753.715 152.85 753.108C152.538 752.484 152.114 751.999 151.576 751.652C151.039 751.288 150.441 751.106 149.782 751.106C149.106 751.106 148.5 751.288 147.962 751.652C147.425 751.999 147 752.484 146.688 753.108C146.376 753.715 146.22 754.417 146.22 755.214ZM167.219 761.298C166.751 761.506 166.17 761.714 165.477 761.922C164.801 762.13 164.099 762.234 163.371 762.234C162.729 762.234 162.14 762.121 161.603 761.896C161.065 761.671 160.632 761.315 160.303 760.83C159.991 760.327 159.835 759.677 159.835 758.88V751.054H158.041V748.376H159.835V743.956H163.319V748.376H166.179V751.054H163.319V757.71C163.319 758.178 163.44 758.516 163.683 758.724C163.943 758.932 164.255 759.036 164.619 759.036C164.983 759.036 165.338 758.975 165.685 758.854C166.031 758.733 166.309 758.629 166.517 758.542L167.219 761.298ZM168.097 757.97C168.097 757.086 168.34 756.315 168.825 755.656C169.328 754.98 170.021 754.46 170.905 754.096C171.789 753.732 172.803 753.55 173.947 753.55C174.519 753.55 175.1 753.602 175.689 753.706C176.279 753.793 176.79 753.923 177.223 754.096V753.368C177.223 752.501 176.963 751.834 176.443 751.366C175.941 750.898 175.187 750.664 174.181 750.664C173.436 750.664 172.725 750.794 172.049 751.054C171.373 751.314 170.663 751.695 169.917 752.198L168.799 749.91C169.701 749.321 170.619 748.879 171.555 748.584C172.509 748.289 173.505 748.142 174.545 748.142C176.487 748.142 177.995 748.627 179.069 749.598C180.161 750.569 180.707 751.955 180.707 753.758V758.1C180.707 758.481 180.768 758.75 180.889 758.906C181.011 759.045 181.227 759.131 181.539 759.166V762C181.227 762.069 180.941 762.113 180.681 762.13C180.439 762.165 180.231 762.182 180.057 762.182C179.364 762.182 178.835 762.026 178.471 761.714C178.107 761.402 177.891 761.021 177.821 760.57L177.743 759.868C177.137 760.648 176.391 761.246 175.507 761.662C174.641 762.061 173.748 762.26 172.829 762.26C171.911 762.26 171.096 762.078 170.385 761.714C169.675 761.333 169.111 760.821 168.695 760.18C168.297 759.521 168.097 758.785 168.097 757.97ZM176.573 758.672C177.007 758.256 177.223 757.857 177.223 757.476V756.098C176.322 755.734 175.412 755.552 174.493 755.552C173.575 755.552 172.829 755.751 172.257 756.15C171.685 756.531 171.399 757.043 171.399 757.684C171.399 758.204 171.607 758.672 172.023 759.088C172.439 759.504 173.037 759.712 173.817 759.712C174.337 759.712 174.84 759.617 175.325 759.426C175.828 759.235 176.244 758.984 176.573 758.672ZM183.937 743.02H187.421V757.632C187.421 758.273 187.525 758.698 187.733 758.906C187.941 759.114 188.227 759.218 188.591 759.218C188.868 759.218 189.154 759.183 189.449 759.114C189.744 759.045 190.004 758.958 190.229 758.854L190.697 761.506C190.229 761.731 189.683 761.905 189.059 762.026C188.435 762.147 187.872 762.208 187.369 762.208C186.277 762.208 185.428 761.922 184.821 761.35C184.232 760.761 183.937 759.929 183.937 758.854V743.02Z" fill="black"/>
<path d="M436.327 365.26C434.992 365.26 433.788 364.974 432.713 364.402C431.656 363.813 430.841 363.024 430.269 362.036L432.271 359.956C432.756 360.632 433.363 361.169 434.091 361.568C434.819 361.967 435.573 362.166 436.353 362.166C437.289 362.166 438.052 361.88 438.641 361.308C439.248 360.736 439.551 359.991 439.551 359.072C439.551 358.188 439.265 357.469 438.693 356.914C438.121 356.342 437.41 356.056 436.561 356.056C436.006 356.056 435.478 356.186 434.975 356.446C434.472 356.706 434.074 357.061 433.779 357.512H430.737L432.869 346.54H441.969V349.712H435.391L434.663 353.846C434.871 353.621 435.174 353.439 435.573 353.3C435.972 353.144 436.466 353.066 437.055 353.066C438.216 353.066 439.256 353.317 440.175 353.82C441.094 354.323 441.813 355.025 442.333 355.926C442.87 356.81 443.139 357.833 443.139 358.994C443.139 360.242 442.844 361.334 442.255 362.27C441.666 363.206 440.851 363.943 439.811 364.48C438.788 365 437.627 365.26 436.327 365.26ZM453.236 365.26C451.918 365.243 450.757 364.948 449.752 364.376C448.764 363.804 447.932 363.059 447.256 362.14C446.58 361.204 446.068 360.19 445.722 359.098C445.392 358.006 445.228 356.94 445.228 355.9C445.228 354.791 445.41 353.681 445.774 352.572C446.138 351.463 446.666 350.457 447.36 349.556C448.07 348.637 448.92 347.909 449.908 347.372C450.896 346.817 452.005 346.54 453.236 346.54C454.57 346.54 455.732 346.835 456.72 347.424C457.725 348.013 458.566 348.776 459.242 349.712C459.918 350.648 460.42 351.662 460.75 352.754C461.096 353.846 461.27 354.895 461.27 355.9C461.27 357.027 461.088 358.145 460.724 359.254C460.36 360.346 459.822 361.351 459.112 362.27C458.418 363.171 457.578 363.899 456.59 364.454C455.602 364.991 454.484 365.26 453.236 365.26ZM448.842 355.9C448.859 356.611 448.954 357.33 449.128 358.058C449.318 358.786 449.587 359.453 449.934 360.06C450.298 360.667 450.748 361.161 451.286 361.542C451.84 361.906 452.49 362.088 453.236 362.088C454.016 362.088 454.683 361.889 455.238 361.49C455.792 361.091 456.243 360.58 456.59 359.956C456.954 359.332 457.222 358.665 457.396 357.954C457.569 357.243 457.656 356.559 457.656 355.9C457.656 355.189 457.56 354.47 457.37 353.742C457.179 353.014 456.902 352.347 456.538 351.74C456.174 351.133 455.714 350.648 455.16 350.284C454.605 349.903 453.964 349.712 453.236 349.712C452.473 349.712 451.814 349.911 451.26 350.31C450.705 350.709 450.246 351.22 449.882 351.844C449.518 352.468 449.249 353.144 449.076 353.872C448.92 354.583 448.842 355.259 448.842 355.9ZM463.874 365V361.256H466.734V365H463.874ZM477.306 365.26C475.989 365.243 474.827 364.948 473.822 364.376C472.834 363.804 472.002 363.059 471.326 362.14C470.65 361.204 470.139 360.19 469.792 359.098C469.463 358.006 469.298 356.94 469.298 355.9C469.298 354.791 469.48 353.681 469.844 352.572C470.208 351.463 470.737 350.457 471.43 349.556C472.141 348.637 472.99 347.909 473.978 347.372C474.966 346.817 476.075 346.54 477.306 346.54C478.641 346.54 479.802 346.835 480.79 347.424C481.795 348.013 482.636 348.776 483.312 349.712C483.988 350.648 484.491 351.662 484.82 352.754C485.167 353.846 485.34 354.895 485.34 355.9C485.34 357.027 485.158 358.145 484.794 359.254C484.43 360.346 483.893 361.351 483.182 362.27C482.489 363.171 481.648 363.899 480.66 364.454C479.672 364.991 478.554 365.26 477.306 365.26ZM472.912 355.9C472.929 356.611 473.025 357.33 473.198 358.058C473.389 358.786 473.657 359.453 474.004 360.06C474.368 360.667 474.819 361.161 475.356 361.542C475.911 361.906 476.561 362.088 477.306 362.088C478.086 362.088 478.753 361.889 479.308 361.49C479.863 361.091 480.313 360.58 480.66 359.956C481.024 359.332 481.293 358.665 481.466 357.954C481.639 357.243 481.726 356.559 481.726 355.9C481.726 355.189 481.631 354.47 481.44 353.742C481.249 353.014 480.972 352.347 480.608 351.74C480.244 351.133 479.785 350.648 479.23 350.284C478.675 349.903 478.034 349.712 477.306 349.712C476.543 349.712 475.885 349.911 475.33 350.31C474.775 350.709 474.316 351.22 473.952 351.844C473.588 352.468 473.319 353.144 473.146 353.872C472.99 354.583 472.912 355.259 472.912 355.9ZM495.537 365.26C494.219 365.243 493.058 364.948 492.053 364.376C491.065 363.804 490.233 363.059 489.557 362.14C488.881 361.204 488.369 360.19 488.023 359.098C487.693 358.006 487.529 356.94 487.529 355.9C487.529 354.791 487.711 353.681 488.075 352.572C488.439 351.463 488.967 350.457 489.661 349.556C490.371 348.637 491.221 347.909 492.209 347.372C493.197 346.817 494.306 346.54 495.537 346.54C496.871 346.54 498.033 346.835 499.021 347.424C500.026 348.013 500.867 348.776 501.543 349.712C502.219 350.648 502.721 351.662 503.051 352.754C503.397 353.846 503.571 354.895 503.571 355.9C503.571 357.027 503.389 358.145 503.025 359.254C502.661 360.346 502.123 361.351 501.413 362.27C500.719 363.171 499.879 363.899 498.891 364.454C497.903 364.991 496.785 365.26 495.537 365.26ZM491.143 355.9C491.16 356.611 491.255 357.33 491.429 358.058C491.619 358.786 491.888 359.453 492.235 360.06C492.599 360.667 493.049 361.161 493.587 361.542C494.141 361.906 494.791 362.088 495.537 362.088C496.317 362.088 496.984 361.889 497.539 361.49C498.093 361.091 498.544 360.58 498.891 359.956C499.255 359.332 499.523 358.665 499.697 357.954C499.87 357.243 499.957 356.559 499.957 355.9C499.957 355.189 499.861 354.47 499.671 353.742C499.48 353.014 499.203 352.347 498.839 351.74C498.475 351.133 498.015 350.648 497.461 350.284C496.906 349.903 496.265 349.712 495.537 349.712C494.774 349.712 494.115 349.911 493.561 350.31C493.006 350.709 492.547 351.22 492.183 351.844C491.819 352.468 491.55 353.144 491.377 353.872C491.221 354.583 491.143 355.259 491.143 355.9Z" fill="black"/>
<path d="M438.416 762.182C436.942 762.182 435.668 761.905 434.594 761.35C433.519 760.778 432.722 759.998 432.202 759.01L434.074 756.644C434.334 757.233 434.819 757.771 435.53 758.256C436.258 758.741 437.176 758.984 438.286 758.984C439.343 758.984 440.184 758.759 440.808 758.308C441.449 757.857 441.77 757.233 441.77 756.436C441.77 755.569 441.371 754.911 440.574 754.46C439.776 753.992 438.624 753.758 437.116 753.758H436.258V751.158H437.168C438.416 751.158 439.412 750.95 440.158 750.534C440.92 750.101 441.302 749.477 441.302 748.662C441.302 747.934 441.016 747.362 440.444 746.946C439.889 746.53 439.222 746.322 438.442 746.322C437.558 746.322 436.786 746.53 436.128 746.946C435.469 747.345 434.966 747.865 434.62 748.506L432.358 745.984C432.739 745.429 433.259 744.961 433.918 744.58C434.576 744.181 435.313 743.869 436.128 743.644C436.96 743.419 437.818 743.306 438.702 743.306C439.932 743.306 441.016 743.523 441.952 743.956C442.905 744.372 443.65 744.944 444.188 745.672C444.742 746.4 445.02 747.232 445.02 748.168C445.02 749.225 444.699 750.127 444.058 750.872C443.434 751.6 442.593 752.085 441.536 752.328C442.68 752.519 443.607 753.056 444.318 753.94C445.028 754.807 445.384 755.829 445.384 757.008C445.384 758.1 445.072 759.036 444.448 759.816C443.841 760.579 443.009 761.168 441.952 761.584C440.912 761.983 439.733 762.182 438.416 762.182ZM453.547 762.26C452.212 762.26 451.007 761.974 449.933 761.402C448.875 760.813 448.061 760.024 447.489 759.036L449.491 756.956C449.976 757.632 450.583 758.169 451.311 758.568C452.039 758.967 452.793 759.166 453.573 759.166C454.509 759.166 455.271 758.88 455.861 758.308C456.467 757.736 456.771 756.991 456.771 756.072C456.771 755.188 456.485 754.469 455.913 753.914C455.341 753.342 454.63 753.056 453.781 753.056C453.226 753.056 452.697 753.186 452.195 753.446C451.692 753.706 451.293 754.061 450.999 754.512H447.957L450.089 743.54H459.189V746.712H452.611L451.883 750.846C452.091 750.621 452.394 750.439 452.793 750.3C453.191 750.144 453.685 750.066 454.275 750.066C455.436 750.066 456.476 750.317 457.395 750.82C458.313 751.323 459.033 752.025 459.553 752.926C460.09 753.81 460.359 754.833 460.359 755.994C460.359 757.242 460.064 758.334 459.475 759.27C458.885 760.206 458.071 760.943 457.031 761.48C456.008 762 454.847 762.26 453.547 762.26ZM462.863 762V758.256H465.723V762H462.863ZM476.295 762.26C474.978 762.243 473.817 761.948 472.811 761.376C471.823 760.804 470.991 760.059 470.315 759.14C469.639 758.204 469.128 757.19 468.781 756.098C468.452 755.006 468.287 753.94 468.287 752.9C468.287 751.791 468.469 750.681 468.833 749.572C469.197 748.463 469.726 747.457 470.419 746.556C471.13 745.637 471.979 744.909 472.967 744.372C473.955 743.817 475.065 743.54 476.295 743.54C477.63 743.54 478.791 743.835 479.779 744.424C480.785 745.013 481.625 745.776 482.301 746.712C482.977 747.648 483.48 748.662 483.809 749.754C484.156 750.846 484.329 751.895 484.329 752.9C484.329 754.027 484.147 755.145 483.783 756.254C483.419 757.346 482.882 758.351 482.171 759.27C481.478 760.171 480.637 760.899 479.649 761.454C478.661 761.991 477.543 762.26 476.295 762.26ZM471.901 752.9C471.919 753.611 472.014 754.33 472.187 755.058C472.378 755.786 472.647 756.453 472.993 757.06C473.357 757.667 473.808 758.161 474.345 758.542C474.9 758.906 475.55 759.088 476.295 759.088C477.075 759.088 477.743 758.889 478.297 758.49C478.852 758.091 479.303 757.58 479.649 756.956C480.013 756.332 480.282 755.665 480.455 754.954C480.629 754.243 480.715 753.559 480.715 752.9C480.715 752.189 480.62 751.47 480.429 750.742C480.239 750.014 479.961 749.347 479.597 748.74C479.233 748.133 478.774 747.648 478.219 747.284C477.665 746.903 477.023 746.712 476.295 746.712C475.533 746.712 474.874 746.911 474.319 747.31C473.765 747.709 473.305 748.22 472.941 748.844C472.577 749.468 472.309 750.144 472.135 750.872C471.979 751.583 471.901 752.259 471.901 752.9ZM494.526 762.26C493.208 762.243 492.047 761.948 491.042 761.376C490.054 760.804 489.222 760.059 488.546 759.14C487.87 758.204 487.358 757.19 487.012 756.098C486.682 755.006 486.518 753.94 486.518 752.9C486.518 751.791 486.7 750.681 487.064 749.572C487.428 748.463 487.956 747.457 488.65 746.556C489.36 745.637 490.21 744.909 491.198 744.372C492.186 743.817 493.295 743.54 494.526 743.54C495.86 743.54 497.022 743.835 498.01 744.424C499.015 745.013 499.856 745.776 500.532 746.712C501.208 747.648 501.71 748.662 502.04 749.754C502.386 750.846 502.56 751.895 502.56 752.9C502.56 754.027 502.378 755.145 502.014 756.254C501.65 757.346 501.112 758.351 500.402 759.27C499.708 760.171 498.868 760.899 497.88 761.454C496.892 761.991 495.774 762.26 494.526 762.26ZM490.132 752.9C490.149 753.611 490.244 754.33 490.418 755.058C490.608 755.786 490.877 756.453 491.224 757.06C491.588 757.667 492.038 758.161 492.576 758.542C493.13 758.906 493.78 759.088 494.526 759.088C495.306 759.088 495.973 758.889 496.528 758.49C497.082 758.091 497.533 757.58 497.88 756.956C498.244 756.332 498.512 755.665 498.686 754.954C498.859 754.243 498.946 753.559 498.946 752.9C498.946 752.189 498.85 751.47 498.66 750.742C498.469 750.014 498.192 749.347 497.828 748.74C497.464 748.133 497.004 747.648 496.45 747.284C495.895 746.903 495.254 746.712 494.526 746.712C493.763 746.712 493.104 746.911 492.55 747.31C491.995 747.709 491.536 748.22 491.172 748.844C490.808 749.468 490.539 750.144 490.366 750.872C490.21 751.583 490.132 752.259 490.132 752.9Z" fill="black"/>
<path d="M128 314L513 314" stroke="#DDDDDD" stroke-width="4" stroke-linecap="round"/>
<path d="M128 717L513 717" stroke="#DDDDDD" stroke-width="4" stroke-linecap="round"/>
<rect x="332.5" y="389.5" width="179" height="47" rx="10.5" stroke="#DDDDDD" stroke-width="3"/>
<path d="M352.732 410.968V421H349.696V405.38H352.116L360.19 415.676V405.402H363.226V421H360.696L352.732 410.968ZM377.322 418.338V421H366.476V405.38H377.124V408.042H369.512V411.804H376.09V414.268H369.512V418.338H377.322ZM385.035 405.424H387.851L389.633 410.594L391.437 405.424H394.231L391.547 412.53L393.527 417.502L397.949 405.38H401.249L395.001 421H392.383L389.633 414.444L386.905 421H384.287L378.061 405.38H381.317L385.761 417.502L387.697 412.53L385.035 405.424ZM402.849 421V405.38H409.471C410.189 405.38 410.849 405.527 411.451 405.82C412.067 406.113 412.595 406.509 413.035 407.008C413.475 407.507 413.819 408.064 414.069 408.68C414.318 409.296 414.443 409.927 414.443 410.572C414.443 411.452 414.237 412.288 413.827 413.08C413.416 413.872 412.844 414.517 412.111 415.016C411.392 415.515 410.549 415.764 409.581 415.764H405.885V421H402.849ZM405.885 413.102H409.405C409.962 413.102 410.424 412.875 410.791 412.42C411.172 411.951 411.363 411.335 411.363 410.572C411.363 409.765 411.15 409.142 410.725 408.702C410.299 408.262 409.815 408.042 409.273 408.042H405.885V413.102ZM419.685 405.38H422.765L428.507 421H425.383L423.931 417.106H418.475L417.045 421H413.921L419.685 405.38ZM423.381 414.972L421.225 408.526L418.981 414.972H423.381ZM436.108 421.11C435.082 421.11 434.121 420.905 433.226 420.494C432.332 420.083 431.54 419.519 430.85 418.8C430.176 418.067 429.648 417.216 429.266 416.248C428.885 415.28 428.694 414.231 428.694 413.102C428.694 412.031 428.885 411.027 429.266 410.088C429.648 409.135 430.183 408.299 430.872 407.58C431.562 406.861 432.368 406.297 433.292 405.886C434.216 405.475 435.221 405.27 436.306 405.27C437.758 405.27 439.012 405.585 440.068 406.216C441.124 406.832 441.916 407.653 442.444 408.68L440.178 410.352C439.782 409.589 439.225 409.003 438.506 408.592C437.802 408.167 437.032 407.954 436.196 407.954C435.316 407.954 434.539 408.196 433.864 408.68C433.204 409.164 432.684 409.802 432.302 410.594C431.936 411.386 431.752 412.251 431.752 413.19C431.752 414.173 431.95 415.06 432.346 415.852C432.742 416.644 433.285 417.275 433.974 417.744C434.678 418.199 435.478 418.426 436.372 418.426C437.883 418.426 439.247 417.715 440.464 416.292V415.192H437.318V412.97H442.972V421H440.464V419.24C439.203 420.487 437.751 421.11 436.108 421.11ZM456.406 418.338V421H445.56V405.38H456.208V408.042H448.596V411.804H455.174V414.268H448.596V418.338H456.406ZM468.079 409.472C467.947 409.325 467.668 409.135 467.243 408.9C466.817 408.651 466.304 408.431 465.703 408.24C465.116 408.035 464.507 407.932 463.877 407.932C462.219 407.932 461.391 408.519 461.391 409.692C461.391 410.117 461.523 410.455 461.787 410.704C462.051 410.953 462.447 411.166 462.975 411.342C463.503 411.518 464.163 411.709 464.955 411.914C465.981 412.178 466.869 412.486 467.617 412.838C468.379 413.19 468.959 413.659 469.355 414.246C469.765 414.818 469.971 415.581 469.971 416.534C469.971 417.649 469.699 418.551 469.157 419.24C468.629 419.915 467.925 420.406 467.045 420.714C466.165 421.022 465.211 421.176 464.185 421.176C463.011 421.176 461.845 421 460.687 420.648C459.543 420.281 458.523 419.783 457.629 419.152L458.971 416.534C459.103 416.666 459.337 416.842 459.675 417.062C460.012 417.267 460.423 417.48 460.907 417.7C461.391 417.905 461.919 418.081 462.491 418.228C463.063 418.375 463.642 418.448 464.229 418.448C465.901 418.448 466.737 417.913 466.737 416.842C466.737 416.387 466.568 416.021 466.231 415.742C465.893 415.463 465.417 415.229 464.801 415.038C464.199 414.847 463.495 414.635 462.689 414.4C461.691 414.121 460.863 413.813 460.203 413.476C459.557 413.124 459.073 412.691 458.751 412.178C458.428 411.65 458.267 410.983 458.267 410.176C458.267 409.105 458.516 408.211 459.015 407.492C459.528 406.759 460.217 406.209 461.083 405.842C461.948 405.461 462.909 405.27 463.965 405.27C465.05 405.27 466.062 405.446 467.001 405.798C467.939 406.15 468.746 406.553 469.421 407.008L468.079 409.472ZM476.621 421.154C475.374 421.154 474.296 420.919 473.387 420.45C472.477 419.966 471.803 419.306 471.363 418.47L472.947 416.468C473.167 416.967 473.577 417.421 474.179 417.832C474.795 418.243 475.572 418.448 476.511 418.448C477.405 418.448 478.117 418.257 478.645 417.876C479.187 417.495 479.459 416.967 479.459 416.292C479.459 415.559 479.121 415.001 478.447 414.62C477.772 414.224 476.797 414.026 475.521 414.026H474.795V411.826H475.565C476.621 411.826 477.464 411.65 478.095 411.298C478.74 410.931 479.063 410.403 479.063 409.714C479.063 409.098 478.821 408.614 478.337 408.262C477.867 407.91 477.303 407.734 476.643 407.734C475.895 407.734 475.242 407.91 474.685 408.262C474.127 408.599 473.702 409.039 473.409 409.582L471.495 407.448C471.817 406.979 472.257 406.583 472.815 406.26C473.372 405.923 473.995 405.659 474.685 405.468C475.389 405.277 476.115 405.182 476.863 405.182C477.904 405.182 478.821 405.365 479.613 405.732C480.419 406.084 481.05 406.568 481.505 407.184C481.974 407.8 482.209 408.504 482.209 409.296C482.209 410.191 481.937 410.953 481.395 411.584C480.867 412.2 480.155 412.611 479.261 412.816C480.229 412.977 481.013 413.432 481.615 414.18C482.216 414.913 482.517 415.779 482.517 416.776C482.517 417.7 482.253 418.492 481.725 419.152C481.211 419.797 480.507 420.296 479.613 420.648C478.733 420.985 477.735 421.154 476.621 421.154ZM491.206 421.22C490.091 421.205 489.109 420.956 488.258 420.472C487.422 419.988 486.718 419.357 486.146 418.58C485.574 417.788 485.141 416.93 484.848 416.006C484.569 415.082 484.43 414.18 484.43 413.3C484.43 412.361 484.584 411.423 484.892 410.484C485.2 409.545 485.647 408.695 486.234 407.932C486.835 407.155 487.554 406.539 488.39 406.084C489.226 405.615 490.165 405.38 491.206 405.38C492.335 405.38 493.318 405.629 494.154 406.128C495.005 406.627 495.716 407.272 496.288 408.064C496.86 408.856 497.285 409.714 497.564 410.638C497.857 411.562 498.004 412.449 498.004 413.3C498.004 414.253 497.85 415.199 497.542 416.138C497.234 417.062 496.779 417.913 496.178 418.69C495.591 419.453 494.88 420.069 494.044 420.538C493.208 420.993 492.262 421.22 491.206 421.22ZM487.488 413.3C487.503 413.901 487.583 414.51 487.73 415.126C487.891 415.742 488.119 416.307 488.412 416.82C488.72 417.333 489.101 417.751 489.556 418.074C490.025 418.382 490.575 418.536 491.206 418.536C491.866 418.536 492.431 418.367 492.9 418.03C493.369 417.693 493.751 417.26 494.044 416.732C494.352 416.204 494.579 415.639 494.726 415.038C494.873 414.437 494.946 413.857 494.946 413.3C494.946 412.699 494.865 412.09 494.704 411.474C494.543 410.858 494.308 410.293 494 409.78C493.692 409.267 493.303 408.856 492.834 408.548C492.365 408.225 491.822 408.064 491.206 408.064C490.561 408.064 490.003 408.233 489.534 408.57C489.065 408.907 488.676 409.34 488.368 409.868C488.06 410.396 487.833 410.968 487.686 411.584C487.554 412.185 487.488 412.757 487.488 413.3Z" fill="black"/>
<g filter="url(#filter1_d)">
<rect x="42.7718" y="461.163" width="556.969" height="231.243" rx="16" fill="#A177B4"/>
<path d="M624.143 584.214L605.562 607.784C602.144 612.12 602.125 618.229 605.518 622.586L614.871 634.596L623.434 645.592C627.177 650.398 626.724 657.247 622.382 661.519L595.027 688.432C587.439 695.897 574.611 690.522 574.611 679.878V474.465C574.611 463.847 587.387 458.461 594.989 465.875L622.269 492.48C626.664 496.767 627.115 503.679 623.315 508.5L605.598 530.973C602.163 535.33 602.163 541.474 605.598 545.832L624.143 569.356C627.578 573.713 627.578 579.857 624.143 584.214Z" fill="#A177B4"/>
<path d="M17.8568 568.882L36.4379 545.312C39.8564 540.976 39.8746 534.867 36.482 530.51L27.1295 518.5L18.7146 507.695C14.909 502.808 15.448 495.827 19.9586 491.583L47.1654 465.98C54.8237 458.773 67.3892 464.202 67.3892 474.718V678.93C67.3892 689.574 54.5607 694.949 46.9734 687.484L19.6641 660.617C15.302 656.325 14.8678 649.439 18.6562 644.633L36.4021 622.123C39.8371 617.766 39.8371 611.622 36.4021 607.265L17.8568 583.74C14.4218 579.383 14.4218 573.239 17.8568 568.882Z" fill="#A177B4"/>
</g>
<rect x="76.5" y="496.5" width="489" height="161" rx="30.5" stroke="white" stroke-width="3"/>
<path d="M138.209 580.392C135.035 580.392 132.291 579.795 129.977 578.6C127.662 577.368 125.945 575.688 124.825 573.56L128.857 568.464C129.417 569.733 130.462 570.891 131.993 571.936C133.561 572.981 135.539 573.504 137.929 573.504C140.206 573.504 142.017 573.019 143.361 572.048C144.742 571.077 145.433 569.733 145.433 568.016C145.433 566.149 144.574 564.731 142.857 563.76C141.139 562.752 138.657 562.248 135.409 562.248H133.561V556.648H135.521C138.209 556.648 140.355 556.2 141.961 555.304C143.603 554.371 144.425 553.027 144.425 551.272C144.425 549.704 143.809 548.472 142.577 547.576C141.382 546.68 139.945 546.232 138.265 546.232C136.361 546.232 134.699 546.68 133.281 547.576C131.862 548.435 130.779 549.555 130.033 550.936L125.161 545.504C125.982 544.309 127.102 543.301 128.521 542.48C129.939 541.621 131.526 540.949 133.281 540.464C135.073 539.979 136.921 539.736 138.825 539.736C141.475 539.736 143.809 540.203 145.825 541.136C147.878 542.032 149.483 543.264 150.641 544.832C151.835 546.4 152.433 548.192 152.433 550.208C152.433 552.485 151.742 554.427 150.361 556.032C149.017 557.6 147.206 558.645 144.929 559.168C147.393 559.579 149.39 560.736 150.921 562.64C152.451 564.507 153.217 566.709 153.217 569.248C153.217 571.6 152.545 573.616 151.201 575.296C149.894 576.939 148.102 578.208 145.825 579.104C143.585 579.963 141.046 580.392 138.209 580.392ZM175.334 580.56C172.497 580.523 169.996 579.888 167.83 578.656C165.702 577.424 163.91 575.819 162.454 573.84C160.998 571.824 159.897 569.64 159.15 567.288C158.441 564.936 158.086 562.64 158.086 560.4C158.086 558.011 158.478 555.621 159.262 553.232C160.046 550.843 161.185 548.677 162.678 546.736C164.209 544.757 166.038 543.189 168.166 542.032C170.294 540.837 172.684 540.24 175.334 540.24C178.209 540.24 180.71 540.875 182.838 542.144C185.004 543.413 186.814 545.056 188.27 547.072C189.726 549.088 190.809 551.272 191.518 553.624C192.265 555.976 192.638 558.235 192.638 560.4C192.638 562.827 192.246 565.235 191.462 567.624C190.678 569.976 189.521 572.141 187.99 574.12C186.497 576.061 184.686 577.629 182.558 578.824C180.43 579.981 178.022 580.56 175.334 580.56ZM165.87 560.4C165.908 561.931 166.113 563.48 166.486 565.048C166.897 566.616 167.476 568.053 168.222 569.36C169.006 570.667 169.977 571.731 171.134 572.552C172.329 573.336 173.729 573.728 175.334 573.728C177.014 573.728 178.452 573.299 179.646 572.44C180.841 571.581 181.812 570.48 182.558 569.136C183.342 567.792 183.921 566.355 184.294 564.824C184.668 563.293 184.854 561.819 184.854 560.4C184.854 558.869 184.649 557.32 184.238 555.752C183.828 554.184 183.23 552.747 182.446 551.44C181.662 550.133 180.673 549.088 179.478 548.304C178.284 547.483 176.902 547.072 175.334 547.072C173.692 547.072 172.273 547.501 171.078 548.36C169.884 549.219 168.894 550.32 168.11 551.664C167.326 553.008 166.748 554.464 166.374 556.032C166.038 557.563 165.87 559.019 165.87 560.4ZM206.2 556.648C204.483 556.648 202.915 556.275 201.496 555.528C200.115 554.744 199.013 553.717 198.192 552.448C197.371 551.141 196.96 549.704 196.96 548.136C196.96 546.568 197.371 545.149 198.192 543.88C199.013 542.611 200.115 541.603 201.496 540.856C202.915 540.072 204.483 539.68 206.2 539.68C207.917 539.68 209.467 540.072 210.848 540.856C212.267 541.603 213.387 542.611 214.208 543.88C215.029 545.149 215.44 546.568 215.44 548.136C215.44 549.704 215.029 551.141 214.208 552.448C213.387 553.717 212.267 554.744 210.848 555.528C209.467 556.275 207.917 556.648 206.2 556.648ZM200.152 577.368L215.888 558.944L230.448 539.792L233.864 542.816L218.52 560.96L203.512 580.392L200.152 577.368ZM206.2 552.896C207.283 552.896 208.216 552.429 209 551.496C209.784 550.525 210.176 549.405 210.176 548.136C210.176 546.867 209.784 545.765 209 544.832C208.216 543.899 207.283 543.432 206.2 543.432C205.117 543.432 204.184 543.899 203.4 544.832C202.616 545.765 202.224 546.867 202.224 548.136C202.224 549.443 202.616 550.563 203.4 551.496C204.184 552.429 205.117 552.896 206.2 552.896ZM227.816 580.56C226.099 580.56 224.549 580.187 223.168 579.44C221.787 578.656 220.667 577.629 219.808 576.36C218.987 575.091 218.576 573.672 218.576 572.104C218.576 570.536 218.987 569.117 219.808 567.848C220.667 566.541 221.787 565.515 223.168 564.768C224.549 563.984 226.099 563.592 227.816 563.592C229.533 563.592 231.083 563.984 232.464 564.768C233.883 565.515 235.003 566.541 235.824 567.848C236.645 569.117 237.056 570.536 237.056 572.104C237.056 573.672 236.645 575.091 235.824 576.36C235.003 577.629 233.883 578.656 232.464 579.44C231.083 580.187 229.533 580.56 227.816 580.56ZM227.816 576.808C228.936 576.808 229.869 576.341 230.616 575.408C231.4 574.475 231.792 573.373 231.792 572.104C231.792 570.797 231.4 569.677 230.616 568.744C229.832 567.811 228.899 567.344 227.816 567.344C226.733 567.344 225.8 567.829 225.016 568.8C224.232 569.733 223.84 570.835 223.84 572.104C223.84 573.373 224.232 574.475 225.016 575.408C225.8 576.341 226.733 576.808 227.816 576.808ZM115.334 609.616C115.334 608.016 115.654 606.555 116.294 605.232C116.934 603.909 117.82 602.864 118.95 602.096C120.081 601.328 121.372 600.944 122.822 600.944C124.06 600.944 125.169 601.253 126.15 601.872C127.153 602.469 127.932 603.237 128.486 604.176V594.64H132.774V613.2C132.774 613.669 132.849 614 132.998 614.192C133.148 614.363 133.404 614.469 133.766 614.512V618C132.998 618.149 132.39 618.224 131.942 618.224C131.174 618.224 130.534 618.032 130.022 617.648C129.532 617.264 129.254 616.763 129.19 616.144L129.126 615.088C128.508 616.133 127.665 616.933 126.598 617.488C125.553 618.043 124.454 618.32 123.302 618.32C121.745 618.32 120.369 617.936 119.174 617.168C117.98 616.379 117.041 615.333 116.358 614.032C115.676 612.709 115.334 611.237 115.334 609.616ZM128.486 611.856V607.856C128.145 606.917 127.558 606.139 126.726 605.52C125.894 604.901 125.041 604.592 124.166 604.592C123.292 604.592 122.524 604.837 121.862 605.328C121.201 605.797 120.689 606.427 120.326 607.216C119.964 607.984 119.782 608.816 119.782 609.712C119.782 610.629 119.985 611.472 120.39 612.24C120.796 612.987 121.34 613.584 122.022 614.032C122.726 614.459 123.526 614.672 124.422 614.672C125.233 614.672 126.033 614.405 126.822 613.872C127.633 613.339 128.188 612.667 128.486 611.856ZM136.983 598.896V594.64H141.271V598.896H136.983ZM136.983 618V601.232H141.271V618H136.983ZM151.316 618.32C149.886 618.32 148.521 618.085 147.22 617.616C145.918 617.147 144.798 616.453 143.86 615.536L145.396 612.752C146.398 613.563 147.38 614.16 148.34 614.544C149.3 614.928 150.238 615.12 151.156 615.12C151.988 615.12 152.649 614.971 153.14 614.672C153.652 614.373 153.908 613.925 153.908 613.328C153.908 612.709 153.598 612.293 152.98 612.08C152.361 611.845 151.497 611.557 150.388 611.216C149.15 610.832 148.116 610.437 147.284 610.032C146.452 609.627 145.822 609.136 145.396 608.56C144.99 607.984 144.788 607.237 144.788 606.32C144.788 604.677 145.406 603.365 146.644 602.384C147.881 601.403 149.524 600.912 151.572 600.912C152.766 600.912 153.897 601.104 154.964 601.488C156.03 601.851 157.001 602.448 157.876 603.28L156.148 606C154.505 604.72 152.916 604.08 151.38 604.08C150.697 604.08 150.089 604.208 149.556 604.464C149.044 604.72 148.788 605.168 148.788 605.808C148.788 606.405 149.033 606.832 149.524 607.088C150.036 607.344 150.804 607.621 151.828 607.92C153.15 608.325 154.27 608.72 155.188 609.104C156.126 609.488 156.83 609.979 157.3 610.576C157.79 611.173 158.036 611.984 158.036 613.008C158.036 614.672 157.428 615.973 156.212 616.912C154.996 617.851 153.364 618.32 151.316 618.32ZM168.76 618.32C166.947 618.32 165.379 617.915 164.056 617.104C162.733 616.293 161.709 615.227 160.984 613.904C160.259 612.581 159.896 611.152 159.896 609.616C159.896 608.059 160.248 606.619 160.952 605.296C161.677 603.973 162.701 602.917 164.024 602.128C165.347 601.339 166.915 600.944 168.728 600.944C170.563 600.944 172.12 601.339 173.4 602.128C174.701 602.917 175.672 603.952 176.312 605.232L172.12 606.512C171.373 605.232 170.232 604.592 168.696 604.592C167.864 604.592 167.117 604.805 166.456 605.232C165.795 605.637 165.272 606.224 164.888 606.992C164.504 607.739 164.312 608.613 164.312 609.616C164.312 610.597 164.504 611.472 164.888 612.24C165.293 612.987 165.827 613.584 166.488 614.032C167.149 614.459 167.885 614.672 168.696 614.672C169.464 614.672 170.168 614.491 170.808 614.128C171.469 613.744 171.928 613.264 172.184 612.688L176.376 613.968C175.8 615.227 174.84 616.272 173.496 617.104C172.173 617.915 170.595 618.32 168.76 618.32ZM186.602 618.32C184.768 618.32 183.189 617.925 181.866 617.136C180.565 616.325 179.562 615.259 178.858 613.936C178.154 612.613 177.802 611.184 177.802 609.648C177.802 608.091 178.154 606.651 178.858 605.328C179.584 604.005 180.597 602.949 181.898 602.16C183.221 601.349 184.789 600.944 186.602 600.944C188.416 600.944 189.973 601.349 191.274 602.16C192.597 602.949 193.61 604.005 194.314 605.328C195.018 606.651 195.37 608.091 195.37 609.648C195.37 611.184 195.018 612.613 194.314 613.936C193.61 615.259 192.597 616.325 191.274 617.136C189.973 617.925 188.416 618.32 186.602 618.32ZM182.218 609.648C182.218 610.629 182.41 611.504 182.794 612.272C183.178 613.019 183.701 613.605 184.362 614.032C185.024 614.459 185.77 614.672 186.602 614.672C187.413 614.672 188.149 614.459 188.81 614.032C189.472 613.584 189.994 612.987 190.378 612.24C190.784 611.472 190.986 610.597 190.986 609.616C190.986 608.656 190.784 607.803 190.378 607.056C189.994 606.288 189.472 605.691 188.81 605.264C188.149 604.816 187.413 604.592 186.602 604.592C185.77 604.592 185.024 604.816 184.362 605.264C183.701 605.691 183.178 606.288 182.794 607.056C182.41 607.803 182.218 608.667 182.218 609.648ZM198.105 611.728V601.232H202.393V610.8C202.393 613.381 203.321 614.672 205.177 614.672C206.009 614.672 206.809 614.427 207.577 613.936C208.366 613.424 209.006 612.656 209.497 611.632V601.232H213.785V613.2C213.785 613.669 213.859 614 214.009 614.192C214.158 614.363 214.425 614.469 214.809 614.512V618C214.382 618.085 214.019 618.139 213.721 618.16C213.443 618.181 213.187 618.192 212.953 618.192C212.185 618.192 211.555 618.021 211.065 617.68C210.595 617.317 210.318 616.827 210.233 616.208L210.137 614.864C209.39 616.016 208.43 616.88 207.257 617.456C206.083 618.032 204.793 618.32 203.385 618.32C201.657 618.32 200.345 617.765 199.449 616.656C198.553 615.525 198.105 613.883 198.105 611.728ZM233.63 618H229.342V608.592C229.342 607.248 229.107 606.267 228.638 605.648C228.168 605.029 227.518 604.72 226.686 604.72C226.11 604.72 225.523 604.869 224.926 605.168C224.35 605.467 223.827 605.883 223.358 606.416C222.888 606.928 222.547 607.525 222.334 608.208V618H218.046V601.232H221.918V604.336C222.536 603.291 223.432 602.469 224.606 601.872C225.779 601.253 227.102 600.944 228.574 600.944C229.619 600.944 230.472 601.136 231.134 601.52C231.795 601.883 232.307 602.384 232.67 603.024C233.032 603.643 233.278 604.347 233.406 605.136C233.555 605.925 233.63 606.725 233.63 607.536V618ZM247.313 617.136C246.737 617.392 246.022 617.648 245.169 617.904C244.337 618.16 243.473 618.288 242.577 618.288C241.787 618.288 241.062 618.149 240.401 617.872C239.739 617.595 239.206 617.157 238.801 616.56C238.417 615.941 238.225 615.141 238.225 614.16V604.528H236.017V601.232H238.225V595.792H242.513V601.232H246.033V604.528H242.513V612.72C242.513 613.296 242.662 613.712 242.961 613.968C243.281 614.224 243.665 614.352 244.113 614.352C244.561 614.352 244.998 614.277 245.425 614.128C245.851 613.979 246.193 613.851 246.449 613.744L247.313 617.136Z" fill="white"/>
<path d="M325.156 556.144C325.156 557.424 324.826 558.501 324.164 559.376C323.503 560.229 322.607 560.88 321.476 561.328C320.367 561.776 319.151 562 317.828 562H306.852V539.28H319.012C320.079 539.28 320.996 539.568 321.764 540.144C322.532 540.699 323.13 541.424 323.556 542.32C323.983 543.216 324.196 544.133 324.196 545.072C324.196 546.181 323.919 547.227 323.364 548.208C322.81 549.168 321.999 549.883 320.932 550.352C322.234 550.736 323.258 551.429 324.004 552.432C324.772 553.435 325.156 554.672 325.156 556.144ZM311.268 543.056V548.784H317.156C317.882 548.784 318.511 548.528 319.044 548.016C319.578 547.504 319.844 546.8 319.844 545.904C319.844 545.051 319.599 544.368 319.108 543.856C318.639 543.323 318.052 543.056 317.348 543.056H311.268ZM320.708 555.312C320.708 554.48 320.452 553.765 319.94 553.168C319.428 552.571 318.799 552.272 318.052 552.272H311.268V558.256H317.828C318.639 558.256 319.322 557.968 319.876 557.392C320.431 556.816 320.708 556.123 320.708 555.312ZM328.32 565.264C329.109 565.477 329.749 565.584 330.24 565.584C330.816 565.584 331.274 565.339 331.616 564.848C331.978 564.379 332.384 563.429 332.832 562L326.208 545.232H330.656L335.168 557.616L339.136 545.232H343.232L336.192 565.328C335.808 566.48 335.114 567.429 334.112 568.176C333.13 568.944 331.914 569.328 330.464 569.328C329.76 569.328 329.045 569.211 328.32 568.976V565.264ZM352.276 555.728V545.232H356.564V554.8C356.564 557.381 357.492 558.672 359.348 558.672C360.18 558.672 360.98 558.427 361.748 557.936C362.538 557.424 363.178 556.656 363.668 555.632V545.232H367.956V557.2C367.956 557.669 368.031 558 368.18 558.192C368.33 558.363 368.596 558.469 368.98 558.512V562C368.554 562.085 368.191 562.139 367.892 562.16C367.615 562.181 367.359 562.192 367.124 562.192C366.356 562.192 365.727 562.021 365.236 561.68C364.767 561.317 364.49 560.827 364.404 560.208L364.308 558.864C363.562 560.016 362.602 560.88 361.428 561.456C360.255 562.032 358.964 562.32 357.556 562.32C355.828 562.32 354.516 561.765 353.62 560.656C352.724 559.525 352.276 557.883 352.276 555.728ZM378.394 562.32C376.964 562.32 375.599 562.085 374.298 561.616C372.996 561.147 371.876 560.453 370.938 559.536L372.474 556.752C373.476 557.563 374.458 558.16 375.418 558.544C376.378 558.928 377.316 559.12 378.234 559.12C379.066 559.12 379.727 558.971 380.218 558.672C380.73 558.373 380.986 557.925 380.986 557.328C380.986 556.709 380.676 556.293 380.058 556.08C379.439 555.845 378.575 555.557 377.466 555.216C376.228 554.832 375.194 554.437 374.362 554.032C373.53 553.627 372.9 553.136 372.474 552.56C372.068 551.984 371.866 551.237 371.866 550.32C371.866 548.677 372.484 547.365 373.722 546.384C374.959 545.403 376.602 544.912 378.65 544.912C379.844 544.912 380.975 545.104 382.042 545.488C383.108 545.851 384.079 546.448 384.954 547.28L383.226 550C381.583 548.72 379.994 548.08 378.458 548.08C377.775 548.08 377.167 548.208 376.634 548.464C376.122 548.72 375.866 549.168 375.866 549.808C375.866 550.405 376.111 550.832 376.602 551.088C377.114 551.344 377.882 551.621 378.906 551.92C380.228 552.325 381.348 552.72 382.266 553.104C383.204 553.488 383.908 553.979 384.378 554.576C384.868 555.173 385.114 555.984 385.114 557.008C385.114 558.672 384.506 559.973 383.29 560.912C382.074 561.851 380.442 562.32 378.394 562.32ZM388.03 542.896V538.64H392.318V542.896H388.03ZM388.03 562V545.232H392.318V562H388.03ZM411.77 562H407.482V552.592C407.482 551.248 407.248 550.267 406.778 549.648C406.309 549.029 405.658 548.72 404.826 548.72C404.25 548.72 403.664 548.869 403.066 549.168C402.49 549.467 401.968 549.883 401.498 550.416C401.029 550.928 400.688 551.525 400.474 552.208V562H396.186V545.232H400.058V548.336C400.677 547.291 401.573 546.469 402.746 545.872C403.92 545.253 405.242 544.944 406.714 544.944C407.76 544.944 408.613 545.136 409.274 545.52C409.936 545.883 410.448 546.384 410.81 547.024C411.173 547.643 411.418 548.347 411.546 549.136C411.696 549.925 411.77 550.725 411.77 551.536V562ZM422.059 562.096C420.566 562.096 419.254 561.712 418.123 560.944C416.992 560.176 416.107 559.152 415.467 557.872C414.827 556.571 414.507 555.152 414.507 553.616C414.507 551.995 414.838 550.533 415.499 549.232C416.16 547.909 417.078 546.864 418.251 546.096C419.424 545.328 420.779 544.944 422.315 544.944C423.616 544.944 424.758 545.243 425.739 545.84C426.72 546.416 427.531 547.195 428.171 548.176V545.232H431.915V561.2C431.915 562.864 431.51 564.283 430.699 565.456C429.91 566.651 428.811 567.557 427.403 568.176C425.995 568.816 424.395 569.136 422.603 569.136C420.768 569.136 419.222 568.827 417.963 568.208C416.726 567.611 415.659 566.757 414.763 565.648L417.099 563.376C417.739 564.165 418.539 564.784 419.499 565.232C420.48 565.68 421.515 565.904 422.603 565.904C423.499 565.904 424.32 565.733 425.067 565.392C425.835 565.072 426.454 564.56 426.923 563.856C427.392 563.173 427.627 562.288 427.627 561.2V559.088C427.072 560.048 426.283 560.795 425.259 561.328C424.256 561.84 423.19 562.096 422.059 562.096ZM423.499 558.672C424.438 558.672 425.28 558.395 426.027 557.84C426.795 557.285 427.328 556.624 427.627 555.856V551.856C427.243 550.875 426.635 550.085 425.803 549.488C424.992 548.891 424.139 548.592 423.243 548.592C422.368 548.592 421.6 548.837 420.939 549.328C420.299 549.819 419.798 550.459 419.435 551.248C419.072 552.016 418.891 552.848 418.891 553.744C418.891 554.661 419.094 555.493 419.499 556.24C419.904 556.987 420.448 557.584 421.131 558.032C421.835 558.459 422.624 558.672 423.499 558.672ZM451.276 562.32C449.462 562.32 447.894 561.915 446.572 561.104C445.249 560.293 444.225 559.227 443.5 557.904C442.774 556.581 442.412 555.152 442.412 553.616C442.412 552.059 442.764 550.619 443.468 549.296C444.193 547.973 445.217 546.917 446.54 546.128C447.862 545.339 449.43 544.944 451.244 544.944C453.078 544.944 454.636 545.339 455.916 546.128C457.217 546.917 458.188 547.952 458.828 549.232L454.636 550.512C453.889 549.232 452.748 548.592 451.212 548.592C450.38 548.592 449.633 548.805 448.972 549.232C448.31 549.637 447.788 550.224 447.404 550.992C447.02 551.739 446.828 552.613 446.828 553.616C446.828 554.597 447.02 555.472 447.404 556.24C447.809 556.987 448.342 557.584 449.004 558.032C449.665 558.459 450.401 558.672 451.212 558.672C451.98 558.672 452.684 558.491 453.324 558.128C453.985 557.744 454.444 557.264 454.7 556.688L458.892 557.968C458.316 559.227 457.356 560.272 456.012 561.104C454.689 561.915 453.11 562.32 451.276 562.32ZM469.118 562.32C467.283 562.32 465.705 561.925 464.382 561.136C463.081 560.325 462.078 559.259 461.374 557.936C460.67 556.613 460.318 555.184 460.318 553.648C460.318 552.091 460.67 550.651 461.374 549.328C462.099 548.005 463.113 546.949 464.414 546.16C465.737 545.349 467.305 544.944 469.118 544.944C470.931 544.944 472.489 545.349 473.79 546.16C475.113 546.949 476.126 548.005 476.83 549.328C477.534 550.651 477.886 552.091 477.886 553.648C477.886 555.184 477.534 556.613 476.83 557.936C476.126 559.259 475.113 560.325 473.79 561.136C472.489 561.925 470.931 562.32 469.118 562.32ZM464.734 553.648C464.734 554.629 464.926 555.504 465.31 556.272C465.694 557.019 466.217 557.605 466.878 558.032C467.539 558.459 468.286 558.672 469.118 558.672C469.929 558.672 470.665 558.459 471.326 558.032C471.987 557.584 472.51 556.987 472.894 556.24C473.299 555.472 473.502 554.597 473.502 553.616C473.502 552.656 473.299 551.803 472.894 551.056C472.51 550.288 471.987 549.691 471.326 549.264C470.665 548.816 469.929 548.592 469.118 548.592C468.286 548.592 467.539 548.816 466.878 549.264C466.217 549.691 465.694 550.288 465.31 551.056C464.926 551.803 464.734 552.667 464.734 553.648ZM479.756 553.616C479.756 552.016 480.076 550.555 480.716 549.232C481.356 547.909 482.241 546.864 483.372 546.096C484.503 545.328 485.793 544.944 487.244 544.944C488.481 544.944 489.591 545.253 490.572 545.872C491.575 546.469 492.353 547.237 492.908 548.176V538.64H497.196V557.2C497.196 557.669 497.271 558 497.42 558.192C497.569 558.363 497.825 558.469 498.188 558.512V562C497.42 562.149 496.812 562.224 496.364 562.224C495.596 562.224 494.956 562.032 494.444 561.648C493.953 561.264 493.676 560.763 493.612 560.144L493.548 559.088C492.929 560.133 492.087 560.933 491.02 561.488C489.975 562.043 488.876 562.32 487.724 562.32C486.167 562.32 484.791 561.936 483.596 561.168C482.401 560.379 481.463 559.333 480.78 558.032C480.097 556.709 479.756 555.237 479.756 553.616ZM492.908 555.856V551.856C492.567 550.917 491.98 550.139 491.148 549.52C490.316 548.901 489.463 548.592 488.588 548.592C487.713 548.592 486.945 548.837 486.284 549.328C485.623 549.797 485.111 550.427 484.748 551.216C484.385 551.984 484.204 552.816 484.204 553.712C484.204 554.629 484.407 555.472 484.812 556.24C485.217 556.987 485.761 557.584 486.444 558.032C487.148 558.459 487.948 558.672 488.844 558.672C489.655 558.672 490.455 558.405 491.244 557.872C492.055 557.339 492.609 556.667 492.908 555.856ZM509.181 562.32C507.368 562.32 505.8 561.925 504.477 561.136C503.176 560.347 502.162 559.301 501.437 558C500.712 556.677 500.349 555.248 500.349 553.712C500.349 552.133 500.701 550.683 501.405 549.36C502.13 548.016 503.154 546.949 504.477 546.16C505.8 545.349 507.378 544.944 509.213 544.944C511.048 544.944 512.616 545.349 513.917 546.16C515.218 546.949 516.21 548.005 516.893 549.328C517.597 550.629 517.949 552.037 517.949 553.552C517.949 554.107 517.917 554.587 517.853 554.992H504.893C505 556.293 505.48 557.317 506.333 558.064C507.208 558.811 508.21 559.184 509.341 559.184C510.194 559.184 510.994 558.981 511.741 558.576C512.509 558.149 513.032 557.595 513.309 556.912L516.989 557.936C516.37 559.216 515.378 560.272 514.013 561.104C512.648 561.915 511.037 562.32 509.181 562.32ZM504.797 552.272H513.565C513.437 551.013 512.957 550 512.125 549.232C511.314 548.443 510.322 548.048 509.149 548.048C507.997 548.048 507.005 548.443 506.173 549.232C505.362 550 504.904 551.013 504.797 552.272ZM520.817 550.032V545.424H524.305V550.032H520.817ZM520.817 562V557.392H524.305V562H520.817ZM312.565 598.408V613H308.149V590.28H311.669L323.413 605.256V590.312H327.829V613H324.149L312.565 598.408ZM348.332 609.128V613H332.556V590.28H348.044V594.152H336.972V599.624H346.54V603.208H336.972V609.128H348.332ZM359.55 590.344H363.646L366.238 597.864L368.862 590.344H372.926L369.022 600.68L371.902 607.912L378.334 590.28H383.134L374.046 613H370.238L366.238 603.464L362.27 613H358.462L349.406 590.28H354.142L360.606 607.912L363.422 600.68L359.55 590.344ZM385.462 613V590.28H395.094C396.139 590.28 397.099 590.493 397.974 590.92C398.87 591.347 399.638 591.923 400.278 592.648C400.918 593.373 401.419 594.184 401.782 595.08C402.144 595.976 402.326 596.893 402.326 597.832C402.326 599.112 402.027 600.328 401.43 601.48C400.832 602.632 400 603.571 398.934 604.296C397.888 605.021 396.662 605.384 395.254 605.384H389.878V613H385.462ZM389.878 601.512H394.998C395.808 601.512 396.48 601.181 397.014 600.52C397.568 599.837 397.846 598.941 397.846 597.832C397.846 596.659 397.536 595.752 396.918 595.112C396.299 594.472 395.595 594.152 394.806 594.152H389.878V601.512ZM409.95 590.28H414.43L422.782 613H418.238L416.126 607.336H408.19L406.11 613H401.566L409.95 590.28ZM415.326 604.232L412.19 594.856L408.926 604.232H415.326ZM433.839 613.16C432.346 613.16 430.949 612.861 429.647 612.264C428.346 611.667 427.194 610.845 426.191 609.8C425.21 608.733 424.442 607.496 423.887 606.088C423.333 604.68 423.055 603.155 423.055 601.512C423.055 599.955 423.333 598.493 423.887 597.128C424.442 595.741 425.221 594.525 426.223 593.48C427.226 592.435 428.399 591.613 429.743 591.016C431.087 590.419 432.549 590.12 434.127 590.12C436.239 590.12 438.063 590.579 439.599 591.496C441.135 592.392 442.287 593.587 443.055 595.08L439.759 597.512C439.183 596.403 438.373 595.549 437.327 594.952C436.303 594.333 435.183 594.024 433.967 594.024C432.687 594.024 431.557 594.376 430.575 595.08C429.615 595.784 428.858 596.712 428.303 597.864C427.77 599.016 427.503 600.275 427.503 601.64C427.503 603.069 427.791 604.36 428.367 605.512C428.943 606.664 429.733 607.581 430.735 608.264C431.759 608.925 432.922 609.256 434.223 609.256C436.421 609.256 438.405 608.221 440.175 606.152V604.552H435.599V601.32H443.823V613H440.175V610.44C438.341 612.253 436.229 613.16 433.839 613.16ZM463.363 609.128V613H447.587V590.28H463.075V594.152H452.003V599.624H461.571V603.208H452.003V609.128H463.363ZM480.342 596.232C480.15 596.019 479.744 595.741 479.126 595.4C478.507 595.037 477.76 594.717 476.886 594.44C476.032 594.141 475.147 593.992 474.23 593.992C471.819 593.992 470.614 594.845 470.614 596.552C470.614 597.171 470.806 597.661 471.19 598.024C471.574 598.387 472.15 598.696 472.918 598.952C473.686 599.208 474.646 599.485 475.798 599.784C477.291 600.168 478.582 600.616 479.67 601.128C480.779 601.64 481.622 602.323 482.198 603.176C482.795 604.008 483.094 605.117 483.094 606.504C483.094 608.125 482.699 609.437 481.91 610.44C481.142 611.421 480.118 612.136 478.838 612.584C477.558 613.032 476.171 613.256 474.678 613.256C472.971 613.256 471.275 613 469.59 612.488C467.926 611.955 466.443 611.229 465.142 610.312L467.094 606.504C467.286 606.696 467.627 606.952 468.118 607.272C468.608 607.571 469.206 607.88 469.91 608.2C470.614 608.499 471.382 608.755 472.214 608.968C473.046 609.181 473.888 609.288 474.742 609.288C477.174 609.288 478.39 608.509 478.39 606.952C478.39 606.291 478.144 605.757 477.654 605.352C477.163 604.947 476.47 604.605 475.574 604.328C474.699 604.051 473.675 603.741 472.502 603.4C471.051 602.995 469.846 602.547 468.886 602.056C467.947 601.544 467.243 600.915 466.774 600.168C466.304 599.4 466.07 598.429 466.07 597.256C466.07 595.699 466.432 594.397 467.158 593.352C467.904 592.285 468.907 591.485 470.166 590.952C471.424 590.397 472.822 590.12 474.358 590.12C475.936 590.12 477.408 590.376 478.774 590.888C480.139 591.4 481.312 591.987 482.294 592.648L480.342 596.232ZM492.767 613.224C490.953 613.224 489.385 612.883 488.062 612.2C486.74 611.496 485.759 610.536 485.118 609.32L487.423 606.408C487.743 607.133 488.34 607.795 489.215 608.392C490.111 608.989 491.241 609.288 492.607 609.288C493.908 609.288 494.943 609.011 495.711 608.456C496.5 607.901 496.895 607.133 496.895 606.152C496.895 605.085 496.404 604.275 495.423 603.72C494.441 603.144 493.023 602.856 491.167 602.856H490.111V599.656H491.231C492.767 599.656 493.993 599.4 494.911 598.888C495.849 598.355 496.319 597.587 496.319 596.584C496.319 595.688 495.967 594.984 495.263 594.472C494.58 593.96 493.759 593.704 492.799 593.704C491.711 593.704 490.761 593.96 489.951 594.472C489.14 594.963 488.521 595.603 488.095 596.392L485.311 593.288C485.78 592.605 486.42 592.029 487.231 591.56C488.041 591.069 488.948 590.685 489.951 590.408C490.975 590.131 492.031 589.992 493.119 589.992C494.633 589.992 495.967 590.259 497.119 590.792C498.292 591.304 499.209 592.008 499.871 592.904C500.553 593.8 500.895 594.824 500.895 595.976C500.895 597.277 500.5 598.387 499.711 599.304C498.943 600.2 497.908 600.797 496.607 601.096C498.015 601.331 499.156 601.992 500.031 603.08C500.905 604.147 501.343 605.405 501.343 606.856C501.343 608.2 500.959 609.352 500.191 610.312C499.444 611.251 498.42 611.976 497.119 612.488C495.839 612.979 494.388 613.224 492.767 613.224ZM513.981 613.32C512.36 613.299 510.931 612.936 509.693 612.232C508.477 611.528 507.453 610.611 506.621 609.48C505.789 608.328 505.16 607.08 504.733 605.736C504.328 604.392 504.125 603.08 504.125 601.8C504.125 600.435 504.349 599.069 504.797 597.704C505.245 596.339 505.896 595.101 506.749 593.992C507.624 592.861 508.669 591.965 509.885 591.304C511.101 590.621 512.467 590.28 513.981 590.28C515.624 590.28 517.053 590.643 518.269 591.368C519.507 592.093 520.541 593.032 521.373 594.184C522.205 595.336 522.824 596.584 523.229 597.928C523.656 599.272 523.869 600.563 523.869 601.8C523.869 603.187 523.645 604.563 523.197 605.928C522.749 607.272 522.088 608.509 521.213 609.64C520.36 610.749 519.325 611.645 518.109 612.328C516.893 612.989 515.517 613.32 513.981 613.32ZM508.573 601.8C508.595 602.675 508.712 603.56 508.925 604.456C509.16 605.352 509.491 606.173 509.917 606.92C510.365 607.667 510.92 608.275 511.581 608.744C512.264 609.192 513.064 609.416 513.981 609.416C514.941 609.416 515.763 609.171 516.445 608.68C517.128 608.189 517.683 607.56 518.109 606.792C518.557 606.024 518.888 605.203 519.101 604.328C519.315 603.453 519.421 602.611 519.421 601.8C519.421 600.925 519.304 600.04 519.069 599.144C518.835 598.248 518.493 597.427 518.045 596.68C517.597 595.933 517.032 595.336 516.349 594.888C515.667 594.419 514.877 594.184 513.981 594.184C513.043 594.184 512.232 594.429 511.549 594.92C510.867 595.411 510.301 596.04 509.853 596.808C509.405 597.576 509.075 598.408 508.861 599.304C508.669 600.179 508.573 601.011 508.573 601.8Z" fill="white"/>
<path d="M273 532V626" stroke="white" stroke-width="3" stroke-linecap="round"/>
<defs>
<filter id="filter0_d" x="81" y="0" width="510" height="849" filterUnits="userSpaceOnUse" color-interpolation-filters="sRGB">
<feFlood flood-opacity="0" result="BackgroundImageFix"/>
<feColorMatrix in="SourceAlpha" type="matrix" values="0 0 0 0 0 0 0 0 0 0 0 0 0 0 0 0 0 0 127 0"/>
<feOffset dx="15" dy="15"/>
<feGaussianBlur stdDeviation="15"/>
<feColorMatrix type="matrix" values="0 0 0 0 0.835294 0 0 0 0 0.835294 0 0 0 0 0.835294 0 0 0 0.5 0"/>
<feBlend mode="normal" in2="BackgroundImageFix" result="effect1_dropShadow"/>
<feBlend mode="normal" in="SourceGraphic" in2="effect1_dropShadow" result="shape"/>
</filter>
<filter id="filter1_d" x="0.280563" y="441.163" width="671.439" height="291.243" filterUnits="userSpaceOnUse" color-interpolation-filters="sRGB">
<feFlood flood-opacity="0" result="BackgroundImageFix"/>
<feColorMatrix in="SourceAlpha" type="matrix" values="0 0 0 0 0 0 0 0 0 0 0 0 0 0 0 0 0 0 127 0"/>
<feOffset dx="15" dy="10"/>
<feGaussianBlur stdDeviation="15"/>
<feColorMatrix type="matrix" values="0 0 0 0 0.835294 0 0 0 0 0.835294 0 0 0 0 0.835294 0 0 0 0.5 0"/>
<feBlend mode="normal" in2="BackgroundImageFix" result="effect1_dropShadow"/>
<feBlend mode="normal" in="SourceGraphic" in2="effect1_dropShadow" result="shape"/>
</filter>
</defs>
</svg>
