<svg width="730" height="679" viewBox="0 0 730 679" fill="none" xmlns="http://www.w3.org/2000/svg">
<g filter="url(#filter0_d)">
<rect x="15" y="366" width="268" height="268" rx="32" fill="white"/>
</g>
<path d="M46.806 404.64C46.806 403.513 47.0053 402.404 47.404 401.312C47.82 400.22 48.418 399.232 49.198 398.348C49.978 397.464 50.9313 396.762 52.058 396.242C53.1847 395.705 54.4673 395.436 55.906 395.436C57.5873 395.436 59.052 395.809 60.3 396.554C61.548 397.299 62.4753 398.27 63.082 399.466L60.326 401.364C60.014 400.671 59.6067 400.125 59.104 399.726C58.6013 399.327 58.0553 399.041 57.466 398.868C56.894 398.695 56.3393 398.608 55.802 398.608C54.9007 398.608 54.112 398.79 53.436 399.154C52.7773 399.518 52.2227 399.995 51.772 400.584C51.3213 401.173 50.9833 401.832 50.758 402.56C50.55 403.288 50.446 404.016 50.446 404.744C50.446 405.836 50.6713 406.859 51.122 407.812C51.5727 408.748 52.2053 409.511 53.02 410.1C53.8347 410.689 54.7793 410.984 55.854 410.984C56.4087 410.984 56.9807 410.889 57.57 410.698C58.1767 410.507 58.7313 410.204 59.234 409.788C59.7367 409.372 60.1267 408.835 60.404 408.176L63.342 409.866C62.9607 410.785 62.3627 411.565 61.548 412.206C60.7333 412.83 59.8147 413.315 58.792 413.662C57.7693 413.991 56.7553 414.156 55.75 414.156C54.4327 414.156 53.228 413.887 52.136 413.35C51.0613 412.795 50.1253 412.067 49.328 411.166C48.5307 410.247 47.9067 409.225 47.456 408.098C47.0227 406.954 46.806 405.801 46.806 404.64ZM65.2802 408.904V400.376H68.7642V408.15C68.7642 410.247 69.5182 411.296 71.0262 411.296C71.7022 411.296 72.3522 411.097 72.9762 410.698C73.6176 410.282 74.1376 409.658 74.5362 408.826V400.376H78.0202V410.1C78.0202 410.481 78.0809 410.75 78.2022 410.906C78.3236 411.045 78.5402 411.131 78.8522 411.166V414C78.5056 414.069 78.2109 414.113 77.9682 414.13C77.7429 414.147 77.5349 414.156 77.3442 414.156C76.7202 414.156 76.2089 414.017 75.8102 413.74C75.4289 413.445 75.2036 413.047 75.1342 412.544L75.0562 411.452C74.4496 412.388 73.6696 413.09 72.7162 413.558C71.7629 414.026 70.7142 414.26 69.5702 414.26C68.1662 414.26 67.1002 413.809 66.3722 412.908C65.6442 411.989 65.2802 410.655 65.2802 408.904ZM86.5005 414.26C85.3392 414.26 84.2298 414.069 83.1725 413.688C82.1152 413.307 81.2052 412.743 80.4425 411.998L81.6905 409.736C82.5052 410.395 83.3025 410.88 84.0825 411.192C84.8625 411.504 85.6252 411.66 86.3705 411.66C87.0465 411.66 87.5838 411.539 87.9825 411.296C88.3985 411.053 88.6065 410.689 88.6065 410.204C88.6065 409.701 88.3552 409.363 87.8525 409.19C87.3498 408.999 86.6478 408.765 85.7465 408.488C84.7412 408.176 83.9005 407.855 83.2245 407.526C82.5485 407.197 82.0372 406.798 81.6905 406.33C81.3612 405.862 81.1965 405.255 81.1965 404.51C81.1965 403.175 81.6992 402.109 82.7045 401.312C83.7098 400.515 85.0445 400.116 86.7085 400.116C87.6792 400.116 88.5978 400.272 89.4645 400.584C90.3312 400.879 91.1198 401.364 91.8305 402.04L90.4265 404.25C89.0918 403.21 87.8005 402.69 86.5525 402.69C85.9978 402.69 85.5038 402.794 85.0705 403.002C84.6545 403.21 84.4465 403.574 84.4465 404.094C84.4465 404.579 84.6458 404.926 85.0445 405.134C85.4605 405.342 86.0845 405.567 86.9165 405.81C87.9912 406.139 88.9012 406.46 89.6465 406.772C90.4092 407.084 90.9812 407.483 91.3625 407.968C91.7612 408.453 91.9605 409.112 91.9605 409.944C91.9605 411.296 91.4665 412.353 90.4785 413.116C89.4905 413.879 88.1645 414.26 86.5005 414.26ZM102.418 413.298C101.95 413.506 101.369 413.714 100.676 413.922C100 414.13 99.298 414.234 98.57 414.234C97.9286 414.234 97.3393 414.121 96.802 413.896C96.2646 413.671 95.8313 413.315 95.502 412.83C95.19 412.327 95.034 411.677 95.034 410.88V403.054H93.24V400.376H95.034V395.956H98.518V400.376H101.378V403.054H98.518V409.71C98.518 410.178 98.6393 410.516 98.882 410.724C99.142 410.932 99.454 411.036 99.818 411.036C100.182 411.036 100.537 410.975 100.884 410.854C101.231 410.733 101.508 410.629 101.716 410.542L102.418 413.298ZM110.347 414.26C108.856 414.26 107.573 413.939 106.499 413.298C105.441 412.639 104.627 411.773 104.055 410.698C103.483 409.623 103.197 408.462 103.197 407.214C103.197 405.949 103.483 404.779 104.055 403.704C104.644 402.629 105.467 401.771 106.525 401.13C107.599 400.471 108.873 400.142 110.347 400.142C111.82 400.142 113.085 400.471 114.143 401.13C115.217 401.771 116.041 402.629 116.613 403.704C117.185 404.779 117.471 405.949 117.471 407.214C117.471 408.462 117.185 409.623 116.613 410.698C116.041 411.773 115.217 412.639 114.143 413.298C113.085 413.939 111.82 414.26 110.347 414.26ZM106.785 407.214C106.785 408.011 106.941 408.722 107.253 409.346C107.565 409.953 107.989 410.429 108.527 410.776C109.064 411.123 109.671 411.296 110.347 411.296C111.005 411.296 111.603 411.123 112.141 410.776C112.678 410.412 113.103 409.927 113.415 409.32C113.744 408.696 113.909 407.985 113.909 407.188C113.909 406.408 113.744 405.715 113.415 405.108C113.103 404.484 112.678 403.999 112.141 403.652C111.603 403.288 111.005 403.106 110.347 403.106C109.671 403.106 109.064 403.288 108.527 403.652C107.989 403.999 107.565 404.484 107.253 405.108C106.941 405.715 106.785 406.417 106.785 407.214ZM140.986 414H137.502V406.356C137.502 405.281 137.312 404.493 136.93 403.99C136.566 403.47 136.055 403.21 135.396 403.21C134.703 403.21 134.053 403.479 133.446 404.016C132.84 404.536 132.406 405.221 132.146 406.07V414H128.662V406.356C128.662 405.264 128.472 404.467 128.09 403.964C127.726 403.461 127.215 403.21 126.556 403.21C125.88 403.21 125.23 403.47 124.606 403.99C124 404.51 123.566 405.195 123.306 406.044V414H119.822V400.376H122.968V402.898C123.471 402.014 124.156 401.338 125.022 400.87C125.906 400.385 126.912 400.142 128.038 400.142C129.165 400.142 130.04 400.419 130.664 400.974C131.306 401.529 131.713 402.213 131.886 403.028C132.424 402.092 133.126 401.381 133.992 400.896C134.859 400.393 135.83 400.142 136.904 400.142C137.754 400.142 138.438 400.298 138.958 400.61C139.496 400.905 139.912 401.312 140.206 401.832C140.501 402.335 140.7 402.907 140.804 403.548C140.926 404.189 140.986 404.839 140.986 405.498V414ZM158.014 414.26C156.974 414.26 156.046 414.026 155.232 413.558C154.417 413.09 153.776 412.449 153.308 411.634V414H150.266V395.02H153.75V402.768C154.235 401.953 154.868 401.312 155.648 400.844C156.445 400.376 157.372 400.142 158.43 400.142C159.608 400.142 160.64 400.471 161.524 401.13C162.425 401.771 163.127 402.629 163.63 403.704C164.132 404.779 164.384 405.957 164.384 407.24C164.384 408.557 164.106 409.745 163.552 410.802C162.997 411.859 162.234 412.7 161.264 413.324C160.31 413.948 159.227 414.26 158.014 414.26ZM157.052 411.296C157.797 411.296 158.447 411.114 159.002 410.75C159.574 410.386 160.016 409.901 160.328 409.294C160.657 408.67 160.822 407.994 160.822 407.266C160.822 406.521 160.666 405.836 160.354 405.212C160.059 404.571 159.643 404.059 159.106 403.678C158.568 403.297 157.953 403.106 157.26 403.106C156.497 403.106 155.795 403.366 155.154 403.886C154.53 404.389 154.062 405.013 153.75 405.758V409.008C153.975 409.684 154.417 410.239 155.076 410.672C155.734 411.088 156.393 411.296 157.052 411.296ZM165.808 409.97C165.808 409.086 166.051 408.315 166.536 407.656C167.039 406.98 167.732 406.46 168.616 406.096C169.5 405.732 170.514 405.55 171.658 405.55C172.23 405.55 172.811 405.602 173.4 405.706C173.99 405.793 174.501 405.923 174.934 406.096V405.368C174.934 404.501 174.674 403.834 174.154 403.366C173.652 402.898 172.898 402.664 171.892 402.664C171.147 402.664 170.436 402.794 169.76 403.054C169.084 403.314 168.374 403.695 167.628 404.198L166.51 401.91C167.412 401.321 168.33 400.879 169.266 400.584C170.22 400.289 171.216 400.142 172.256 400.142C174.198 400.142 175.706 400.627 176.78 401.598C177.872 402.569 178.418 403.955 178.418 405.758V410.1C178.418 410.481 178.479 410.75 178.6 410.906C178.722 411.045 178.938 411.131 179.25 411.166V414C178.938 414.069 178.652 414.113 178.392 414.13C178.15 414.165 177.942 414.182 177.768 414.182C177.075 414.182 176.546 414.026 176.182 413.714C175.818 413.402 175.602 413.021 175.532 412.57L175.454 411.868C174.848 412.648 174.102 413.246 173.218 413.662C172.352 414.061 171.459 414.26 170.54 414.26C169.622 414.26 168.807 414.078 168.096 413.714C167.386 413.333 166.822 412.821 166.406 412.18C166.008 411.521 165.808 410.785 165.808 409.97ZM174.284 410.672C174.718 410.256 174.934 409.857 174.934 409.476V408.098C174.033 407.734 173.123 407.552 172.204 407.552C171.286 407.552 170.54 407.751 169.968 408.15C169.396 408.531 169.11 409.043 169.11 409.684C169.11 410.204 169.318 410.672 169.734 411.088C170.15 411.504 170.748 411.712 171.528 411.712C172.048 411.712 172.551 411.617 173.036 411.426C173.539 411.235 173.955 410.984 174.284 410.672ZM186.692 414.26C185.531 414.26 184.421 414.069 183.364 413.688C182.307 413.307 181.397 412.743 180.634 411.998L181.882 409.736C182.697 410.395 183.494 410.88 184.274 411.192C185.054 411.504 185.817 411.66 186.562 411.66C187.238 411.66 187.775 411.539 188.174 411.296C188.59 411.053 188.798 410.689 188.798 410.204C188.798 409.701 188.547 409.363 188.044 409.19C187.541 408.999 186.839 408.765 185.938 408.488C184.933 408.176 184.092 407.855 183.416 407.526C182.74 407.197 182.229 406.798 181.882 406.33C181.553 405.862 181.388 405.255 181.388 404.51C181.388 403.175 181.891 402.109 182.896 401.312C183.901 400.515 185.236 400.116 186.9 400.116C187.871 400.116 188.789 400.272 189.656 400.584C190.523 400.879 191.311 401.364 192.022 402.04L190.618 404.25C189.283 403.21 187.992 402.69 186.744 402.69C186.189 402.69 185.695 402.794 185.262 403.002C184.846 403.21 184.638 403.574 184.638 404.094C184.638 404.579 184.837 404.926 185.236 405.134C185.652 405.342 186.276 405.567 187.108 405.81C188.183 406.139 189.093 406.46 189.838 406.772C190.601 407.084 191.173 407.483 191.554 407.968C191.953 408.453 192.152 409.112 192.152 409.944C192.152 411.296 191.658 412.353 190.67 413.116C189.682 413.879 188.356 414.26 186.692 414.26ZM200.84 414.26C199.366 414.26 198.092 413.939 197.018 413.298C195.96 412.657 195.137 411.807 194.548 410.75C193.958 409.675 193.664 408.514 193.664 407.266C193.664 405.983 193.95 404.805 194.522 403.73C195.111 402.638 195.943 401.771 197.018 401.13C198.092 400.471 199.375 400.142 200.866 400.142C202.356 400.142 203.63 400.471 204.688 401.13C205.745 401.771 206.551 402.629 207.106 403.704C207.678 404.761 207.964 405.905 207.964 407.136C207.964 407.587 207.938 407.977 207.886 408.306H197.356C197.442 409.363 197.832 410.195 198.526 410.802C199.236 411.409 200.051 411.712 200.97 411.712C201.663 411.712 202.313 411.547 202.92 411.218C203.544 410.871 203.968 410.421 204.194 409.866L207.184 410.698C206.681 411.738 205.875 412.596 204.766 413.272C203.656 413.931 202.348 414.26 200.84 414.26ZM197.278 406.096H204.402C204.298 405.073 203.908 404.25 203.232 403.626C202.573 402.985 201.767 402.664 200.814 402.664C199.878 402.664 199.072 402.985 198.396 403.626C197.737 404.25 197.364 405.073 197.278 406.096ZM209.254 407.188C209.254 405.888 209.514 404.701 210.034 403.626C210.554 402.551 211.273 401.702 212.192 401.078C213.111 400.454 214.159 400.142 215.338 400.142C216.343 400.142 217.245 400.393 218.042 400.896C218.857 401.381 219.489 402.005 219.94 402.768V395.02H223.424V410.1C223.424 410.481 223.485 410.75 223.606 410.906C223.727 411.045 223.935 411.131 224.23 411.166V414C223.606 414.121 223.112 414.182 222.748 414.182C222.124 414.182 221.604 414.026 221.188 413.714C220.789 413.402 220.564 412.995 220.512 412.492L220.46 411.634C219.957 412.483 219.273 413.133 218.406 413.584C217.557 414.035 216.664 414.26 215.728 414.26C214.463 414.26 213.345 413.948 212.374 413.324C211.403 412.683 210.641 411.833 210.086 410.776C209.531 409.701 209.254 408.505 209.254 407.188ZM219.94 409.008V405.758C219.663 404.995 219.186 404.363 218.51 403.86C217.834 403.357 217.141 403.106 216.43 403.106C215.719 403.106 215.095 403.305 214.558 403.704C214.021 404.085 213.605 404.597 213.31 405.238C213.015 405.862 212.868 406.538 212.868 407.266C212.868 408.011 213.033 408.696 213.362 409.32C213.691 409.927 214.133 410.412 214.688 410.776C215.26 411.123 215.91 411.296 216.638 411.296C217.297 411.296 217.947 411.079 218.588 410.646C219.247 410.213 219.697 409.667 219.94 409.008ZM53.878 445.26C52.3873 445.26 51.1047 444.939 50.03 444.298C48.9727 443.639 48.158 442.773 47.586 441.698C47.014 440.623 46.728 439.462 46.728 438.214C46.728 436.949 47.014 435.779 47.586 434.704C48.1753 433.629 48.9987 432.771 50.056 432.13C51.1307 431.471 52.4047 431.142 53.878 431.142C55.3513 431.142 56.6167 431.471 57.674 432.13C58.7487 432.771 59.572 433.629 60.144 434.704C60.716 435.779 61.002 436.949 61.002 438.214C61.002 439.462 60.716 440.623 60.144 441.698C59.572 442.773 58.7487 443.639 57.674 444.298C56.6167 444.939 55.3513 445.26 53.878 445.26ZM50.316 438.214C50.316 439.011 50.472 439.722 50.784 440.346C51.096 440.953 51.5207 441.429 52.058 441.776C52.5953 442.123 53.202 442.296 53.878 442.296C54.5367 442.296 55.1347 442.123 55.672 441.776C56.2093 441.412 56.634 440.927 56.946 440.32C57.2753 439.696 57.44 438.985 57.44 438.188C57.44 437.408 57.2753 436.715 56.946 436.108C56.634 435.484 56.2093 434.999 55.672 434.652C55.1347 434.288 54.5367 434.106 53.878 434.106C53.202 434.106 52.5953 434.288 52.058 434.652C51.5207 434.999 51.096 435.484 50.784 436.108C50.472 436.715 50.316 437.417 50.316 438.214ZM76.0156 445H72.5316V437.356C72.5316 436.264 72.3409 435.467 71.9596 434.964C71.5782 434.461 71.0496 434.21 70.3736 434.21C69.9056 434.21 69.4289 434.331 68.9436 434.574C68.4756 434.817 68.0509 435.155 67.6696 435.588C67.2882 436.004 67.0109 436.489 66.8376 437.044V445H63.3536V431.376H66.4996V433.898C67.0022 433.049 67.7302 432.381 68.6836 431.896C69.6369 431.393 70.7116 431.142 71.9076 431.142C72.7569 431.142 73.4502 431.298 73.9876 431.61C74.5249 431.905 74.9409 432.312 75.2356 432.832C75.5302 433.335 75.7296 433.907 75.8336 434.548C75.9549 435.189 76.0156 435.839 76.0156 436.498V445ZM84.8661 447.652C85.5075 447.825 86.0275 447.912 86.4261 447.912C86.8941 447.912 87.2668 447.713 87.5441 447.314C87.8388 446.933 88.1681 446.161 88.5321 445L83.1501 431.376H86.7641L90.4301 441.438L93.6541 431.376H96.9821L91.2621 447.704C90.9501 448.64 90.3868 449.411 89.5721 450.018C88.7748 450.642 87.7868 450.954 86.6081 450.954C86.0361 450.954 85.4555 450.859 84.8661 450.668V447.652ZM104.71 445.26C103.219 445.26 101.937 444.939 100.862 444.298C99.8047 443.639 98.99 442.773 98.418 441.698C97.846 440.623 97.56 439.462 97.56 438.214C97.56 436.949 97.846 435.779 98.418 434.704C99.0074 433.629 99.8307 432.771 100.888 432.13C101.963 431.471 103.237 431.142 104.71 431.142C106.183 431.142 107.449 431.471 108.506 432.13C109.581 432.771 110.404 433.629 110.976 434.704C111.548 435.779 111.834 436.949 111.834 438.214C111.834 439.462 111.548 440.623 110.976 441.698C110.404 442.773 109.581 443.639 108.506 444.298C107.449 444.939 106.183 445.26 104.71 445.26ZM101.148 438.214C101.148 439.011 101.304 439.722 101.616 440.346C101.928 440.953 102.353 441.429 102.89 441.776C103.427 442.123 104.034 442.296 104.71 442.296C105.369 442.296 105.967 442.123 106.504 441.776C107.041 441.412 107.466 440.927 107.778 440.32C108.107 439.696 108.272 438.985 108.272 438.188C108.272 437.408 108.107 436.715 107.778 436.108C107.466 435.484 107.041 434.999 106.504 434.652C105.967 434.288 105.369 434.106 104.71 434.106C104.034 434.106 103.427 434.288 102.89 434.652C102.353 434.999 101.928 435.484 101.616 436.108C101.304 436.715 101.148 437.417 101.148 438.214ZM114.056 439.904V431.376H117.54V439.15C117.54 441.247 118.294 442.296 119.802 442.296C120.478 442.296 121.128 442.097 121.752 441.698C122.393 441.282 122.913 440.658 123.312 439.826V431.376H126.796V441.1C126.796 441.481 126.856 441.75 126.978 441.906C127.099 442.045 127.316 442.131 127.628 442.166V445C127.281 445.069 126.986 445.113 126.744 445.13C126.518 445.147 126.31 445.156 126.12 445.156C125.496 445.156 124.984 445.017 124.586 444.74C124.204 444.445 123.979 444.047 123.91 443.544L123.832 442.452C123.225 443.388 122.445 444.09 121.492 444.558C120.538 445.026 119.49 445.26 118.346 445.26C116.942 445.26 115.876 444.809 115.148 443.908C114.42 442.989 114.056 441.655 114.056 439.904ZM138.37 434.392C137.313 434.392 136.368 434.6 135.536 435.016C134.704 435.415 134.106 435.995 133.742 436.758V445H130.258V431.376H133.456V434.288C133.924 433.352 134.531 432.615 135.276 432.078C136.039 431.541 136.836 431.246 137.668 431.194C138.032 431.194 138.266 431.203 138.37 431.22V434.392ZM158.637 445H155.153V437.356C155.153 436.264 154.962 435.467 154.581 434.964C154.199 434.461 153.671 434.21 152.995 434.21C152.527 434.21 152.05 434.331 151.565 434.574C151.097 434.817 150.672 435.155 150.291 435.588C149.909 436.004 149.632 436.489 149.459 437.044V445H145.975V431.376H149.121V433.898C149.623 433.049 150.351 432.381 151.305 431.896C152.258 431.393 153.333 431.142 154.529 431.142C155.378 431.142 156.071 431.298 156.609 431.61C157.146 431.905 157.562 432.312 157.857 432.832C158.151 433.335 158.351 433.907 158.455 434.548C158.576 435.189 158.637 435.839 158.637 436.498V445ZM167.984 445.26C166.511 445.26 165.237 444.939 164.162 444.298C163.105 443.657 162.281 442.807 161.692 441.75C161.103 440.675 160.808 439.514 160.808 438.266C160.808 436.983 161.094 435.805 161.666 434.73C162.255 433.638 163.087 432.771 164.162 432.13C165.237 431.471 166.519 431.142 168.01 431.142C169.501 431.142 170.775 431.471 171.832 432.13C172.889 432.771 173.695 433.629 174.25 434.704C174.822 435.761 175.108 436.905 175.108 438.136C175.108 438.587 175.082 438.977 175.03 439.306H164.5C164.587 440.363 164.977 441.195 165.67 441.802C166.381 442.409 167.195 442.712 168.114 442.712C168.807 442.712 169.457 442.547 170.064 442.218C170.688 441.871 171.113 441.421 171.338 440.866L174.328 441.698C173.825 442.738 173.019 443.596 171.91 444.272C170.801 444.931 169.492 445.26 167.984 445.26ZM164.422 437.096H171.546C171.442 436.073 171.052 435.25 170.376 434.626C169.717 433.985 168.911 433.664 167.958 433.664C167.022 433.664 166.216 433.985 165.54 434.626C164.881 435.25 164.509 436.073 164.422 437.096ZM183.549 445.26C182.075 445.26 180.801 444.939 179.727 444.298C178.669 443.657 177.846 442.807 177.257 441.75C176.667 440.675 176.373 439.514 176.373 438.266C176.373 436.983 176.659 435.805 177.231 434.73C177.82 433.638 178.652 432.771 179.727 432.13C180.801 431.471 182.084 431.142 183.575 431.142C185.065 431.142 186.339 431.471 187.397 432.13C188.454 432.771 189.26 433.629 189.815 434.704C190.387 435.761 190.673 436.905 190.673 438.136C190.673 438.587 190.647 438.977 190.595 439.306H180.065C180.151 440.363 180.541 441.195 181.235 441.802C181.945 442.409 182.76 442.712 183.679 442.712C184.372 442.712 185.022 442.547 185.629 442.218C186.253 441.871 186.677 441.421 186.903 440.866L189.893 441.698C189.39 442.738 188.584 443.596 187.475 444.272C186.365 444.931 185.057 445.26 183.549 445.26ZM179.987 437.096H187.111C187.007 436.073 186.617 435.25 185.941 434.626C185.282 433.985 184.476 433.664 183.523 433.664C182.587 433.664 181.781 433.985 181.105 434.626C180.446 435.25 180.073 436.073 179.987 437.096ZM191.963 438.188C191.963 436.888 192.223 435.701 192.743 434.626C193.263 433.551 193.982 432.702 194.901 432.078C195.82 431.454 196.868 431.142 198.047 431.142C199.052 431.142 199.954 431.393 200.751 431.896C201.566 432.381 202.198 433.005 202.649 433.768V426.02H206.133V441.1C206.133 441.481 206.194 441.75 206.315 441.906C206.436 442.045 206.644 442.131 206.939 442.166V445C206.315 445.121 205.821 445.182 205.457 445.182C204.833 445.182 204.313 445.026 203.897 444.714C203.498 444.402 203.273 443.995 203.221 443.492L203.169 442.634C202.666 443.483 201.982 444.133 201.115 444.584C200.266 445.035 199.373 445.26 198.437 445.26C197.172 445.26 196.054 444.948 195.083 444.324C194.112 443.683 193.35 442.833 192.795 441.776C192.24 440.701 191.963 439.505 191.963 438.188ZM202.649 440.008V436.758C202.372 435.995 201.895 435.363 201.219 434.86C200.543 434.357 199.85 434.106 199.139 434.106C198.428 434.106 197.804 434.305 197.267 434.704C196.73 435.085 196.314 435.597 196.019 436.238C195.724 436.862 195.577 437.538 195.577 438.266C195.577 439.011 195.742 439.696 196.071 440.32C196.4 440.927 196.842 441.412 197.397 441.776C197.969 442.123 198.619 442.296 199.347 442.296C200.006 442.296 200.656 442.079 201.297 441.646C201.956 441.213 202.406 440.667 202.649 440.008ZM209.761 435.276V431.532H212.595V435.276H209.761ZM209.761 445V441.256H212.595V445H209.761Z" fill="#333333"/>
<rect x="86" y="478" width="111" height="6" rx="3" fill="#A177B4"/>
<rect x="55.5" y="471.5" width="18" height="18" rx="1.5" fill="#A177B4" stroke="#A177B4" stroke-width="3"/>
<path d="M59 481L62.5328 484.283C62.9523 484.673 63.6128 484.631 63.9804 484.192L70 477" stroke="white" stroke-width="3.5" stroke-linecap="round"/>
<rect x="86" y="554" width="72" height="6" rx="3" fill="#A177B4"/>
<rect x="55.5" y="547.5" width="18" height="18" rx="1.5" fill="#A177B4" stroke="#A177B4" stroke-width="3"/>
<path d="M59 557L62.5328 560.283C62.9523 560.673 63.6128 560.631 63.9804 560.192L70 553" stroke="white" stroke-width="3.5" stroke-linecap="round"/>
<rect x="86" y="592" width="152" height="6" rx="3" fill="#DDDDDD"/>
<rect x="55.5" y="585.5" width="18" height="18" rx="1.5" stroke="#DDDDDD" stroke-width="3"/>
<rect x="86" y="516" width="111" height="6" rx="3" fill="#A177B4"/>
<rect x="55.5" y="509.5" width="18" height="18" rx="1.5" fill="#A177B4" stroke="#A177B4" stroke-width="3"/>
<path d="M59 519L62.5328 522.283C62.9523 522.673 63.6128 522.631 63.9804 522.192L70 515" stroke="white" stroke-width="3.5" stroke-linecap="round"/>
<g filter="url(#filter1_d)">
<rect x="236" y="225" width="240" height="240" rx="32" fill="#C4C4C4"/>
</g>
<g filter="url(#filter2_d)">
<rect x="417" y="355" width="268" height="193" rx="32" fill="#A177B4"/>
</g>
<path d="M459.922 393.376C459.766 393.203 459.437 392.977 458.934 392.7C458.431 392.405 457.825 392.145 457.114 391.92C456.421 391.677 455.701 391.556 454.956 391.556C452.997 391.556 452.018 392.249 452.018 393.636C452.018 394.139 452.174 394.537 452.486 394.832C452.798 395.127 453.266 395.378 453.89 395.586C454.514 395.794 455.294 396.019 456.23 396.262C457.443 396.574 458.492 396.938 459.376 397.354C460.277 397.77 460.962 398.325 461.43 399.018C461.915 399.694 462.158 400.595 462.158 401.722C462.158 403.039 461.837 404.105 461.196 404.92C460.572 405.717 459.74 406.298 458.7 406.662C457.66 407.026 456.533 407.208 455.32 407.208C453.933 407.208 452.555 407 451.186 406.584C449.834 406.151 448.629 405.561 447.572 404.816L449.158 401.722C449.314 401.878 449.591 402.086 449.99 402.346C450.389 402.589 450.874 402.84 451.446 403.1C452.018 403.343 452.642 403.551 453.318 403.724C453.994 403.897 454.679 403.984 455.372 403.984C457.348 403.984 458.336 403.351 458.336 402.086C458.336 401.549 458.137 401.115 457.738 400.786C457.339 400.457 456.776 400.179 456.048 399.954C455.337 399.729 454.505 399.477 453.552 399.2C452.373 398.871 451.394 398.507 450.614 398.108C449.851 397.692 449.279 397.181 448.898 396.574C448.517 395.95 448.326 395.161 448.326 394.208C448.326 392.943 448.621 391.885 449.21 391.036C449.817 390.169 450.631 389.519 451.654 389.086C452.677 388.635 453.812 388.41 455.06 388.41C456.343 388.41 457.539 388.618 458.648 389.034C459.757 389.45 460.711 389.927 461.508 390.464L459.922 393.376ZM472.619 407.26C471.544 407.26 470.608 407.017 469.811 406.532C469.014 406.047 468.39 405.405 467.939 404.608V412.538H464.455V393.376H467.497V395.716C468 394.919 468.65 394.295 469.447 393.844C470.262 393.376 471.18 393.142 472.203 393.142C473.434 393.142 474.526 393.463 475.479 394.104C476.432 394.728 477.186 395.577 477.741 396.652C478.296 397.709 478.573 398.879 478.573 400.162C478.573 401.497 478.313 402.701 477.793 403.776C477.29 404.833 476.588 405.683 475.687 406.324C474.803 406.948 473.78 407.26 472.619 407.26ZM471.449 404.296C472.16 404.296 472.775 404.105 473.295 403.724C473.832 403.325 474.248 402.814 474.543 402.19C474.855 401.549 475.011 400.873 475.011 400.162C475.011 399.399 474.846 398.715 474.517 398.108C474.188 397.484 473.737 396.999 473.165 396.652C472.61 396.288 471.969 396.106 471.241 396.106C470.582 396.106 469.924 396.323 469.265 396.756C468.606 397.189 468.164 397.735 467.939 398.394V401.592C468.251 402.355 468.728 402.996 469.369 403.516C470.01 404.036 470.704 404.296 471.449 404.296ZM487.252 407.26C485.778 407.26 484.504 406.939 483.43 406.298C482.372 405.657 481.549 404.807 480.96 403.75C480.37 402.675 480.076 401.514 480.076 400.266C480.076 398.983 480.362 397.805 480.934 396.73C481.523 395.638 482.355 394.771 483.43 394.13C484.504 393.471 485.787 393.142 487.278 393.142C488.768 393.142 490.042 393.471 491.1 394.13C492.157 394.771 492.963 395.629 493.518 396.704C494.09 397.761 494.376 398.905 494.376 400.136C494.376 400.587 494.35 400.977 494.298 401.306H483.768C483.854 402.363 484.244 403.195 484.938 403.802C485.648 404.409 486.463 404.712 487.382 404.712C488.075 404.712 488.725 404.547 489.332 404.218C489.956 403.871 490.38 403.421 490.606 402.866L493.596 403.698C493.093 404.738 492.287 405.596 491.178 406.272C490.068 406.931 488.76 407.26 487.252 407.26ZM483.69 399.096H490.814C490.71 398.073 490.32 397.25 489.644 396.626C488.985 395.985 488.179 395.664 487.226 395.664C486.29 395.664 485.484 395.985 484.808 396.626C484.149 397.25 483.776 398.073 483.69 399.096ZM502.842 407.26C501.369 407.26 500.095 406.931 499.02 406.272C497.945 405.613 497.113 404.747 496.524 403.672C495.935 402.597 495.64 401.436 495.64 400.188C495.64 398.923 495.926 397.753 496.498 396.678C497.087 395.603 497.919 394.745 498.994 394.104C500.069 393.463 501.343 393.142 502.816 393.142C504.307 393.142 505.572 393.463 506.612 394.104C507.669 394.745 508.458 395.586 508.978 396.626L505.572 397.666C504.965 396.626 504.038 396.106 502.79 396.106C502.114 396.106 501.507 396.279 500.97 396.626C500.433 396.955 500.008 397.432 499.696 398.056C499.384 398.663 499.228 399.373 499.228 400.188C499.228 400.985 499.384 401.696 499.696 402.32C500.025 402.927 500.459 403.412 500.996 403.776C501.533 404.123 502.131 404.296 502.79 404.296C503.414 404.296 503.986 404.149 504.506 403.854C505.043 403.542 505.416 403.152 505.624 402.684L509.03 403.724C508.562 404.747 507.782 405.596 506.69 406.272C505.615 406.931 504.333 407.26 502.842 407.26ZM511.174 391.478V388.02H514.658V391.478H511.174ZM511.174 407V393.376H514.658V407H511.174ZM516.865 402.97C516.865 402.086 517.108 401.315 517.593 400.656C518.096 399.98 518.789 399.46 519.673 399.096C520.557 398.732 521.571 398.55 522.715 398.55C523.287 398.55 523.868 398.602 524.457 398.706C525.046 398.793 525.558 398.923 525.991 399.096V398.368C525.991 397.501 525.731 396.834 525.211 396.366C524.708 395.898 523.954 395.664 522.949 395.664C522.204 395.664 521.493 395.794 520.817 396.054C520.141 396.314 519.43 396.695 518.685 397.198L517.567 394.91C518.468 394.321 519.387 393.879 520.323 393.584C521.276 393.289 522.273 393.142 523.313 393.142C525.254 393.142 526.762 393.627 527.837 394.598C528.929 395.569 529.475 396.955 529.475 398.758V403.1C529.475 403.481 529.536 403.75 529.657 403.906C529.778 404.045 529.995 404.131 530.307 404.166V407C529.995 407.069 529.709 407.113 529.449 407.13C529.206 407.165 528.998 407.182 528.825 407.182C528.132 407.182 527.603 407.026 527.239 406.714C526.875 406.402 526.658 406.021 526.589 405.57L526.511 404.868C525.904 405.648 525.159 406.246 524.275 406.662C523.408 407.061 522.516 407.26 521.597 407.26C520.678 407.26 519.864 407.078 519.153 406.714C518.442 406.333 517.879 405.821 517.463 405.18C517.064 404.521 516.865 403.785 516.865 402.97ZM525.341 403.672C525.774 403.256 525.991 402.857 525.991 402.476V401.098C525.09 400.734 524.18 400.552 523.261 400.552C522.342 400.552 521.597 400.751 521.025 401.15C520.453 401.531 520.167 402.043 520.167 402.684C520.167 403.204 520.375 403.672 520.791 404.088C521.207 404.504 521.805 404.712 522.585 404.712C523.105 404.712 523.608 404.617 524.093 404.426C524.596 404.235 525.012 403.984 525.341 403.672ZM532.705 388.02H536.189V402.632C536.189 403.273 536.293 403.698 536.501 403.906C536.709 404.114 536.995 404.218 537.359 404.218C537.636 404.218 537.922 404.183 538.217 404.114C538.511 404.045 538.771 403.958 538.997 403.854L539.465 406.506C538.997 406.731 538.451 406.905 537.827 407.026C537.203 407.147 536.639 407.208 536.137 407.208C535.045 407.208 534.195 406.922 533.589 406.35C532.999 405.761 532.705 404.929 532.705 403.854V388.02ZM546.856 407V388.54H555.02C555.869 388.54 556.649 388.713 557.36 389.06C558.088 389.407 558.712 389.875 559.232 390.464C559.769 391.053 560.176 391.712 560.454 392.44C560.748 393.168 560.896 393.913 560.896 394.676C560.896 395.855 560.592 396.938 559.986 397.926C559.396 398.914 558.59 399.625 557.568 400.058L561.78 407H557.828L554.032 400.812H550.444V407H546.856ZM550.444 397.666H554.942C555.618 397.666 556.172 397.38 556.606 396.808C557.056 396.219 557.282 395.508 557.282 394.676C557.282 394.104 557.16 393.593 556.918 393.142C556.675 392.691 556.363 392.336 555.982 392.076C555.618 391.816 555.219 391.686 554.786 391.686H550.444V397.666ZM569.67 407.26C568.196 407.26 566.922 406.939 565.848 406.298C564.79 405.657 563.967 404.807 563.378 403.75C562.788 402.675 562.494 401.514 562.494 400.266C562.494 398.983 562.78 397.805 563.352 396.73C563.941 395.638 564.773 394.771 565.848 394.13C566.922 393.471 568.205 393.142 569.696 393.142C571.186 393.142 572.46 393.471 573.518 394.13C574.575 394.771 575.381 395.629 575.936 396.704C576.508 397.761 576.794 398.905 576.794 400.136C576.794 400.587 576.768 400.977 576.716 401.306H566.186C566.272 402.363 566.662 403.195 567.356 403.802C568.066 404.409 568.881 404.712 569.8 404.712C570.493 404.712 571.143 404.547 571.75 404.218C572.374 403.871 572.798 403.421 573.024 402.866L576.014 403.698C575.511 404.738 574.705 405.596 573.596 406.272C572.486 406.931 571.178 407.26 569.67 407.26ZM566.108 399.096H573.232C573.128 398.073 572.738 397.25 572.062 396.626C571.403 395.985 570.597 395.664 569.644 395.664C568.708 395.664 567.902 395.985 567.226 396.626C566.567 397.25 566.194 398.073 566.108 399.096ZM584.064 407.26C582.903 407.26 581.871 406.939 580.97 406.298C580.069 405.657 579.367 404.799 578.864 403.724C578.361 402.649 578.11 401.462 578.11 400.162C578.11 398.862 578.387 397.683 578.942 396.626C579.497 395.551 580.251 394.702 581.204 394.078C582.175 393.454 583.267 393.142 584.48 393.142C585.52 393.142 586.439 393.385 587.236 393.87C588.033 394.338 588.683 394.962 589.186 395.742V393.376H592.228V412.538H588.744V404.608C587.704 406.376 586.144 407.26 584.064 407.26ZM585.364 404.296C586.109 404.296 586.759 404.088 587.314 403.672C587.886 403.256 588.363 402.719 588.744 402.06V398.836C588.623 398.316 588.38 397.857 588.016 397.458C587.652 397.042 587.227 396.713 586.742 396.47C586.274 396.227 585.797 396.106 585.312 396.106C584.601 396.106 583.969 396.305 583.414 396.704C582.877 397.085 582.452 397.597 582.14 398.238C581.828 398.862 581.672 399.538 581.672 400.266C581.672 401.011 581.828 401.696 582.14 402.32C582.452 402.927 582.885 403.412 583.44 403.776C583.995 404.123 584.636 404.296 585.364 404.296ZM595.265 401.904V393.376H598.749V401.15C598.749 403.247 599.503 404.296 601.011 404.296C601.687 404.296 602.337 404.097 602.961 403.698C603.602 403.282 604.122 402.658 604.521 401.826V393.376H608.005V403.1C608.005 403.481 608.065 403.75 608.187 403.906C608.308 404.045 608.525 404.131 608.837 404.166V407C608.49 407.069 608.195 407.113 607.953 407.13C607.727 407.147 607.519 407.156 607.329 407.156C606.705 407.156 606.193 407.017 605.795 406.74C605.413 406.445 605.188 406.047 605.119 405.544L605.041 404.452C604.434 405.388 603.654 406.09 602.701 406.558C601.747 407.026 600.699 407.26 599.555 407.26C598.151 407.26 597.085 406.809 596.357 405.908C595.629 404.989 595.265 403.655 595.265 401.904ZM617.785 407.26C616.312 407.26 615.038 406.939 613.963 406.298C612.906 405.657 612.082 404.807 611.493 403.75C610.904 402.675 610.609 401.514 610.609 400.266C610.609 398.983 610.895 397.805 611.467 396.73C612.056 395.638 612.888 394.771 613.963 394.13C615.038 393.471 616.32 393.142 617.811 393.142C619.302 393.142 620.576 393.471 621.633 394.13C622.69 394.771 623.496 395.629 624.051 396.704C624.623 397.761 624.909 398.905 624.909 400.136C624.909 400.587 624.883 400.977 624.831 401.306H614.301C614.388 402.363 614.778 403.195 615.471 403.802C616.182 404.409 616.996 404.712 617.915 404.712C618.608 404.712 619.258 404.547 619.865 404.218C620.489 403.871 620.914 403.421 621.139 402.866L624.129 403.698C623.626 404.738 622.82 405.596 621.711 406.272C620.602 406.931 619.293 407.26 617.785 407.26ZM614.223 399.096H621.347C621.243 398.073 620.853 397.25 620.177 396.626C619.518 395.985 618.712 395.664 617.759 395.664C616.823 395.664 616.017 395.985 615.341 396.626C614.682 397.25 614.31 398.073 614.223 399.096ZM632.049 407.26C630.888 407.26 629.779 407.069 628.721 406.688C627.664 406.307 626.754 405.743 625.991 404.998L627.239 402.736C628.054 403.395 628.851 403.88 629.631 404.192C630.411 404.504 631.174 404.66 631.919 404.66C632.595 404.66 633.133 404.539 633.531 404.296C633.947 404.053 634.155 403.689 634.155 403.204C634.155 402.701 633.904 402.363 633.401 402.19C632.899 401.999 632.197 401.765 631.295 401.488C630.29 401.176 629.449 400.855 628.773 400.526C628.097 400.197 627.586 399.798 627.239 399.33C626.91 398.862 626.745 398.255 626.745 397.51C626.745 396.175 627.248 395.109 628.253 394.312C629.259 393.515 630.593 393.116 632.257 393.116C633.228 393.116 634.147 393.272 635.013 393.584C635.88 393.879 636.669 394.364 637.379 395.04L635.975 397.25C634.641 396.21 633.349 395.69 632.101 395.69C631.547 395.69 631.053 395.794 630.619 396.002C630.203 396.21 629.995 396.574 629.995 397.094C629.995 397.579 630.195 397.926 630.593 398.134C631.009 398.342 631.633 398.567 632.465 398.81C633.54 399.139 634.45 399.46 635.195 399.772C635.958 400.084 636.53 400.483 636.911 400.968C637.31 401.453 637.509 402.112 637.509 402.944C637.509 404.296 637.015 405.353 636.027 406.116C635.039 406.879 633.713 407.26 632.049 407.26ZM647.967 406.298C647.499 406.506 646.918 406.714 646.225 406.922C645.549 407.13 644.847 407.234 644.119 407.234C643.477 407.234 642.888 407.121 642.351 406.896C641.813 406.671 641.38 406.315 641.051 405.83C640.739 405.327 640.583 404.677 640.583 403.88V396.054H638.789V393.376H640.583V388.956H644.067V393.376H646.927V396.054H644.067V402.71C644.067 403.178 644.188 403.516 644.431 403.724C644.691 403.932 645.003 404.036 645.367 404.036C645.731 404.036 646.086 403.975 646.433 403.854C646.779 403.733 647.057 403.629 647.265 403.542L647.967 406.298ZM649.989 397.276V393.532H652.823V397.276H649.989ZM649.989 407V403.256H652.823V407H649.989Z" fill="white"/>
<path d="M473.734 453.424H476.55L478.332 458.594L480.136 453.424H482.93L480.246 460.53L482.226 465.502L486.648 453.38H489.948L483.7 469H481.082L478.332 462.444L475.604 469H472.986L466.76 453.38H470.016L474.46 465.502L476.396 460.53L473.734 453.424ZM497.159 460.024C496.265 460.024 495.465 460.2 494.761 460.552C494.057 460.889 493.551 461.381 493.243 462.026V469H490.295V457.472H493.001V459.936C493.397 459.144 493.911 458.521 494.541 458.066C495.187 457.611 495.861 457.362 496.565 457.318C496.873 457.318 497.071 457.325 497.159 457.34V460.024ZM498.803 455.866V452.94H501.751V455.866H498.803ZM498.803 469V457.472H501.751V469H498.803ZM511.319 468.406C510.923 468.582 510.431 468.758 509.845 468.934C509.273 469.11 508.679 469.198 508.063 469.198C507.52 469.198 507.021 469.103 506.567 468.912C506.112 468.721 505.745 468.421 505.467 468.01C505.203 467.585 505.071 467.035 505.071 466.36V459.738H503.553V457.472H505.071V453.732H508.019V457.472H510.439V459.738H508.019V465.37C508.019 465.766 508.121 466.052 508.327 466.228C508.547 466.404 508.811 466.492 509.119 466.492C509.427 466.492 509.727 466.441 510.021 466.338C510.314 466.235 510.549 466.147 510.725 466.074L511.319 468.406ZM518.05 469.22C516.803 469.22 515.725 468.949 514.816 468.406C513.921 467.863 513.224 467.145 512.726 466.25C512.227 465.341 511.978 464.358 511.978 463.302C511.978 462.217 512.22 461.219 512.704 460.31C513.202 459.386 513.906 458.653 514.816 458.11C515.725 457.553 516.81 457.274 518.072 457.274C519.333 457.274 520.411 457.553 521.306 458.11C522.2 458.653 522.882 459.379 523.352 460.288C523.836 461.183 524.078 462.151 524.078 463.192C524.078 463.573 524.056 463.903 524.012 464.182H515.102C515.175 465.077 515.505 465.781 516.092 466.294C516.693 466.807 517.382 467.064 518.16 467.064C518.746 467.064 519.296 466.925 519.81 466.646C520.338 466.353 520.697 465.971 520.888 465.502L523.418 466.206C522.992 467.086 522.31 467.812 521.372 468.384C520.433 468.941 519.326 469.22 518.05 469.22ZM515.036 462.312H521.064C520.976 461.447 520.646 460.75 520.074 460.222C519.516 459.679 518.834 459.408 518.028 459.408C517.236 459.408 516.554 459.679 515.982 460.222C515.424 460.75 515.109 461.447 515.036 462.312ZM530.455 463.236C530.455 462.136 530.675 461.131 531.115 460.222C531.555 459.313 532.163 458.594 532.941 458.066C533.718 457.538 534.605 457.274 535.603 457.274C536.453 457.274 537.216 457.487 537.891 457.912C538.58 458.323 539.115 458.851 539.497 459.496V452.94H542.445V465.7C542.445 466.023 542.496 466.25 542.599 466.382C542.701 466.499 542.877 466.573 543.127 466.602V469C542.599 469.103 542.181 469.154 541.873 469.154C541.345 469.154 540.905 469.022 540.553 468.758C540.215 468.494 540.025 468.149 539.981 467.724L539.937 466.998C539.511 467.717 538.932 468.267 538.199 468.648C537.48 469.029 536.725 469.22 535.933 469.22C534.862 469.22 533.916 468.956 533.095 468.428C532.273 467.885 531.628 467.167 531.159 466.272C530.689 465.363 530.455 464.351 530.455 463.236ZM539.497 464.776V462.026C539.262 461.381 538.859 460.845 538.287 460.42C537.715 459.995 537.128 459.782 536.527 459.782C535.925 459.782 535.397 459.951 534.943 460.288C534.488 460.611 534.136 461.043 533.887 461.586C533.637 462.114 533.513 462.686 533.513 463.302C533.513 463.933 533.652 464.512 533.931 465.04C534.209 465.553 534.583 465.964 535.053 466.272C535.537 466.565 536.087 466.712 536.703 466.712C537.26 466.712 537.81 466.529 538.353 466.162C538.91 465.795 539.291 465.333 539.497 464.776ZM550.662 469.22C549.401 469.22 548.316 468.949 547.406 468.406C546.512 467.849 545.822 467.115 545.338 466.206C544.854 465.297 544.612 464.314 544.612 463.258C544.612 462.187 544.854 461.197 545.338 460.288C545.837 459.379 546.534 458.653 547.428 458.11C548.338 457.553 549.416 457.274 550.662 457.274C551.909 457.274 552.98 457.553 553.874 458.11C554.784 458.653 555.48 459.379 555.964 460.288C556.448 461.197 556.69 462.187 556.69 463.258C556.69 464.314 556.448 465.297 555.964 466.206C555.48 467.115 554.784 467.849 553.874 468.406C552.98 468.949 551.909 469.22 550.662 469.22ZM547.648 463.258C547.648 463.933 547.78 464.534 548.044 465.062C548.308 465.575 548.668 465.979 549.122 466.272C549.577 466.565 550.09 466.712 550.662 466.712C551.22 466.712 551.726 466.565 552.18 466.272C552.635 465.964 552.994 465.553 553.258 465.04C553.537 464.512 553.676 463.911 553.676 463.236C553.676 462.576 553.537 461.989 553.258 461.476C552.994 460.948 552.635 460.537 552.18 460.244C551.726 459.936 551.22 459.782 550.662 459.782C550.09 459.782 549.577 459.936 549.122 460.244C548.668 460.537 548.308 460.948 548.044 461.476C547.78 461.989 547.648 462.583 547.648 463.258ZM572.593 457.472H575.387L570.569 469H568.105L566.169 464.05L564.277 469H561.791L556.995 457.472H559.767L563.199 466.184L564.541 462.422L562.539 457.494H564.981L566.169 461.014L567.379 457.494H569.821L567.819 462.422L569.183 466.184L572.593 457.472ZM587.462 469H584.514V462.532C584.514 461.608 584.353 460.933 584.03 460.508C583.708 460.083 583.26 459.87 582.688 459.87C582.292 459.87 581.889 459.973 581.478 460.178C581.082 460.383 580.723 460.669 580.4 461.036C580.078 461.388 579.843 461.799 579.696 462.268V469H576.748V457.472H579.41V459.606C579.836 458.887 580.452 458.323 581.258 457.912C582.065 457.487 582.974 457.274 583.986 457.274C584.705 457.274 585.292 457.406 585.746 457.67C586.201 457.919 586.553 458.264 586.802 458.704C587.052 459.129 587.22 459.613 587.308 460.156C587.411 460.699 587.462 461.249 587.462 461.806V469ZM468.344 497.244C468.887 497.391 469.327 497.464 469.664 497.464C470.06 497.464 470.375 497.295 470.61 496.958C470.859 496.635 471.138 495.983 471.446 495L466.892 483.472H469.95L473.052 491.986L475.78 483.472H478.596L473.756 497.288C473.492 498.08 473.015 498.733 472.326 499.246C471.651 499.774 470.815 500.038 469.818 500.038C469.334 500.038 468.843 499.957 468.344 499.796V497.244ZM485.135 495.22C483.874 495.22 482.788 494.949 481.879 494.406C480.984 493.849 480.295 493.115 479.811 492.206C479.327 491.297 479.085 490.314 479.085 489.258C479.085 488.187 479.327 487.197 479.811 486.288C480.31 485.379 481.006 484.653 481.901 484.11C482.81 483.553 483.888 483.274 485.135 483.274C486.382 483.274 487.452 483.553 488.347 484.11C489.256 484.653 489.953 485.379 490.437 486.288C490.921 487.197 491.163 488.187 491.163 489.258C491.163 490.314 490.921 491.297 490.437 492.206C489.953 493.115 489.256 493.849 488.347 494.406C487.452 494.949 486.382 495.22 485.135 495.22ZM482.121 489.258C482.121 489.933 482.253 490.534 482.517 491.062C482.781 491.575 483.14 491.979 483.595 492.272C484.05 492.565 484.563 492.712 485.135 492.712C485.692 492.712 486.198 492.565 486.653 492.272C487.108 491.964 487.467 491.553 487.731 491.04C488.01 490.512 488.149 489.911 488.149 489.236C488.149 488.576 488.01 487.989 487.731 487.476C487.467 486.948 487.108 486.537 486.653 486.244C486.198 485.936 485.692 485.782 485.135 485.782C484.563 485.782 484.05 485.936 483.595 486.244C483.14 486.537 482.781 486.948 482.517 487.476C482.253 487.989 482.121 488.583 482.121 489.258ZM493.043 490.688V483.472H495.991V490.05C495.991 491.825 496.629 492.712 497.905 492.712C498.477 492.712 499.027 492.543 499.555 492.206C500.097 491.854 500.537 491.326 500.875 490.622V483.472H503.823V491.7C503.823 492.023 503.874 492.25 503.977 492.382C504.079 492.499 504.263 492.573 504.527 492.602V495C504.233 495.059 503.984 495.095 503.779 495.11C503.588 495.125 503.412 495.132 503.251 495.132C502.723 495.132 502.29 495.015 501.953 494.78C501.63 494.531 501.439 494.193 501.381 493.768L501.315 492.844C500.801 493.636 500.141 494.23 499.335 494.626C498.528 495.022 497.641 495.22 496.673 495.22C495.485 495.22 494.583 494.839 493.967 494.076C493.351 493.299 493.043 492.169 493.043 490.688ZM513.616 486.024C512.722 486.024 511.922 486.2 511.218 486.552C510.514 486.889 510.008 487.381 509.7 488.026V495H506.752V483.472H509.458V485.936C509.854 485.144 510.368 484.521 510.998 484.066C511.644 483.611 512.318 483.362 513.022 483.318C513.33 483.318 513.528 483.325 513.616 483.34V486.024ZM526.915 486.024C526.021 486.024 525.221 486.2 524.517 486.552C523.813 486.889 523.307 487.381 522.999 488.026V495H520.051V483.472H522.757V485.936C523.153 485.144 523.667 484.521 524.297 484.066C524.943 483.611 525.617 483.362 526.321 483.318C526.629 483.318 526.827 483.325 526.915 483.34V486.024ZM533.755 495.22C532.508 495.22 531.43 494.949 530.521 494.406C529.626 493.863 528.929 493.145 528.431 492.25C527.932 491.341 527.683 490.358 527.683 489.302C527.683 488.217 527.925 487.219 528.409 486.31C528.907 485.386 529.611 484.653 530.521 484.11C531.43 483.553 532.515 483.274 533.777 483.274C535.038 483.274 536.116 483.553 537.011 484.11C537.905 484.653 538.587 485.379 539.057 486.288C539.541 487.183 539.783 488.151 539.783 489.192C539.783 489.573 539.761 489.903 539.717 490.182H530.807C530.88 491.077 531.21 491.781 531.797 492.294C532.398 492.807 533.087 493.064 533.865 493.064C534.451 493.064 535.001 492.925 535.515 492.646C536.043 492.353 536.402 491.971 536.593 491.502L539.123 492.206C538.697 493.086 538.015 493.812 537.077 494.384C536.138 494.941 535.031 495.22 533.755 495.22ZM530.741 488.312H536.769C536.681 487.447 536.351 486.75 535.779 486.222C535.221 485.679 534.539 485.408 533.733 485.408C532.941 485.408 532.259 485.679 531.687 486.222C531.129 486.75 530.814 487.447 530.741 488.312ZM545.935 495.22C544.952 495.22 544.079 494.949 543.317 494.406C542.554 493.863 541.96 493.137 541.535 492.228C541.109 491.319 540.897 490.314 540.897 489.214C540.897 488.114 541.131 487.117 541.601 486.222C542.07 485.313 542.708 484.594 543.515 484.066C544.336 483.538 545.26 483.274 546.287 483.274C547.167 483.274 547.944 483.479 548.619 483.89C549.293 484.286 549.843 484.814 550.269 485.474V483.472H552.843V499.686H549.895V492.976C549.015 494.472 547.695 495.22 545.935 495.22ZM547.035 492.712C547.665 492.712 548.215 492.536 548.685 492.184C549.169 491.832 549.572 491.377 549.895 490.82V488.092C549.792 487.652 549.587 487.263 549.279 486.926C548.971 486.574 548.611 486.295 548.201 486.09C547.805 485.885 547.401 485.782 546.991 485.782C546.389 485.782 545.854 485.951 545.385 486.288C544.93 486.611 544.571 487.043 544.307 487.586C544.043 488.114 543.911 488.686 543.911 489.302C543.911 489.933 544.043 490.512 544.307 491.04C544.571 491.553 544.937 491.964 545.407 492.272C545.876 492.565 546.419 492.712 547.035 492.712ZM555.412 490.688V483.472H558.36V490.05C558.36 491.825 558.998 492.712 560.274 492.712C560.846 492.712 561.396 492.543 561.924 492.206C562.467 491.854 562.907 491.326 563.244 490.622V483.472H566.192V491.7C566.192 492.023 566.243 492.25 566.346 492.382C566.449 492.499 566.632 492.573 566.896 492.602V495C566.603 495.059 566.353 495.095 566.148 495.11C565.957 495.125 565.781 495.132 565.62 495.132C565.092 495.132 564.659 495.015 564.322 494.78C563.999 494.531 563.809 494.193 563.75 493.768L563.684 492.844C563.171 493.636 562.511 494.23 561.704 494.626C560.897 495.022 560.01 495.22 559.042 495.22C557.854 495.22 556.952 494.839 556.336 494.076C555.72 493.299 555.412 492.169 555.412 490.688ZM574.468 495.22C573.221 495.22 572.143 494.949 571.234 494.406C570.339 493.863 569.642 493.145 569.144 492.25C568.645 491.341 568.396 490.358 568.396 489.302C568.396 488.217 568.638 487.219 569.122 486.31C569.62 485.386 570.324 484.653 571.234 484.11C572.143 483.553 573.228 483.274 574.49 483.274C575.751 483.274 576.829 483.553 577.724 484.11C578.618 484.653 579.3 485.379 579.77 486.288C580.254 487.183 580.496 488.151 580.496 489.192C580.496 489.573 580.474 489.903 580.43 490.182H571.52C571.593 491.077 571.923 491.781 572.51 492.294C573.111 492.807 573.8 493.064 574.578 493.064C575.164 493.064 575.714 492.925 576.228 492.646C576.756 492.353 577.115 491.971 577.306 491.502L579.836 492.206C579.41 493.086 578.728 493.812 577.79 494.384C576.851 494.941 575.744 495.22 574.468 495.22ZM571.454 488.312H577.482C577.394 487.447 577.064 486.75 576.492 486.222C575.934 485.679 575.252 485.408 574.446 485.408C573.654 485.408 572.972 485.679 572.4 486.222C571.842 486.75 571.527 487.447 571.454 488.312ZM586.537 495.22C585.555 495.22 584.616 495.059 583.721 494.736C582.827 494.413 582.057 493.937 581.411 493.306L582.467 491.392C583.157 491.949 583.831 492.36 584.491 492.624C585.151 492.888 585.797 493.02 586.427 493.02C586.999 493.02 587.454 492.917 587.791 492.712C588.143 492.507 588.319 492.199 588.319 491.788C588.319 491.363 588.107 491.077 587.681 490.93C587.256 490.769 586.662 490.571 585.899 490.336C585.049 490.072 584.337 489.801 583.765 489.522C583.193 489.243 582.761 488.906 582.467 488.51C582.189 488.114 582.049 487.601 582.049 486.97C582.049 485.841 582.475 484.939 583.325 484.264C584.176 483.589 585.305 483.252 586.713 483.252C587.535 483.252 588.312 483.384 589.045 483.648C589.779 483.897 590.446 484.308 591.047 484.88L589.859 486.75C588.73 485.87 587.637 485.43 586.581 485.43C586.112 485.43 585.694 485.518 585.327 485.694C584.975 485.87 584.799 486.178 584.799 486.618C584.799 487.029 584.968 487.322 585.305 487.498C585.657 487.674 586.185 487.865 586.889 488.07C587.799 488.349 588.569 488.62 589.199 488.884C589.845 489.148 590.329 489.485 590.651 489.896C590.989 490.307 591.157 490.864 591.157 491.568C591.157 492.712 590.739 493.607 589.903 494.252C589.067 494.897 587.945 495.22 586.537 495.22ZM600.006 494.406C599.61 494.582 599.119 494.758 598.532 494.934C597.96 495.11 597.366 495.198 596.75 495.198C596.207 495.198 595.709 495.103 595.254 494.912C594.799 494.721 594.433 494.421 594.154 494.01C593.89 493.585 593.758 493.035 593.758 492.36V485.738H592.24V483.472H593.758V479.732H596.706V483.472H599.126V485.738H596.706V491.37C596.706 491.766 596.809 492.052 597.014 492.228C597.234 492.404 597.498 492.492 597.806 492.492C598.114 492.492 598.415 492.441 598.708 492.338C599.001 492.235 599.236 492.147 599.412 492.074L600.006 494.406ZM605.787 495.22C604.805 495.22 603.866 495.059 602.971 494.736C602.077 494.413 601.307 493.937 600.661 493.306L601.717 491.392C602.407 491.949 603.081 492.36 603.741 492.624C604.401 492.888 605.047 493.02 605.677 493.02C606.249 493.02 606.704 492.917 607.041 492.712C607.393 492.507 607.569 492.199 607.569 491.788C607.569 491.363 607.357 491.077 606.931 490.93C606.506 490.769 605.912 490.571 605.149 490.336C604.299 490.072 603.587 489.801 603.015 489.522C602.443 489.243 602.011 488.906 601.717 488.51C601.439 488.114 601.299 487.601 601.299 486.97C601.299 485.841 601.725 484.939 602.575 484.264C603.426 483.589 604.555 483.252 605.963 483.252C606.785 483.252 607.562 483.384 608.295 483.648C609.029 483.897 609.696 484.308 610.297 484.88L609.109 486.75C607.98 485.87 606.887 485.43 605.831 485.43C605.362 485.43 604.944 485.518 604.577 485.694C604.225 485.87 604.049 486.178 604.049 486.618C604.049 487.029 604.218 487.322 604.555 487.498C604.907 487.674 605.435 487.865 606.139 488.07C607.049 488.349 607.819 488.62 608.449 488.884C609.095 489.148 609.579 489.485 609.901 489.896C610.239 490.307 610.407 490.864 610.407 491.568C610.407 492.712 609.989 493.607 609.153 494.252C608.317 494.897 607.195 495.22 605.787 495.22ZM617.632 495V491.832H620.052V495H617.632ZM622.573 495V491.832H624.993V495H622.573ZM627.515 495V491.832H629.935V495H627.515Z" fill="white"/>
<path d="M448.5 447C448.5 438.992 454.992 432.5 463 432.5H639C647.008 432.5 653.5 438.992 653.5 447V503C653.5 511.008 647.008 517.5 639 517.5H463C454.992 517.5 448.5 511.008 448.5 503V447Z" stroke="white" stroke-width="3"/>
<path d="M392.924 121V102.54H400.75C401.599 102.54 402.379 102.713 403.09 103.06C403.818 103.407 404.442 103.875 404.962 104.464C405.482 105.053 405.889 105.712 406.184 106.44C406.479 107.168 406.626 107.913 406.626 108.676C406.626 109.716 406.383 110.704 405.898 111.64C405.413 112.576 404.737 113.339 403.87 113.928C403.021 114.517 402.024 114.812 400.88 114.812H396.512V121H392.924ZM396.512 111.666H400.672C401.331 111.666 401.877 111.397 402.31 110.86C402.761 110.305 402.986 109.577 402.986 108.676C402.986 107.723 402.735 106.986 402.232 106.466C401.729 105.946 401.157 105.686 400.516 105.686H396.512V111.666ZM416.897 110.392C415.84 110.392 414.895 110.6 414.063 111.016C413.231 111.415 412.633 111.995 412.269 112.758V121H408.785V107.376H411.983V110.288C412.451 109.352 413.058 108.615 413.803 108.078C414.566 107.541 415.363 107.246 416.195 107.194C416.559 107.194 416.793 107.203 416.897 107.22V110.392ZM424.954 121.26C423.464 121.26 422.181 120.939 421.106 120.298C420.049 119.639 419.234 118.773 418.662 117.698C418.09 116.623 417.804 115.462 417.804 114.214C417.804 112.949 418.09 111.779 418.662 110.704C419.252 109.629 420.075 108.771 421.132 108.13C422.207 107.471 423.481 107.142 424.954 107.142C426.428 107.142 427.693 107.471 428.75 108.13C429.825 108.771 430.648 109.629 431.22 110.704C431.792 111.779 432.078 112.949 432.078 114.214C432.078 115.462 431.792 116.623 431.22 117.698C430.648 118.773 429.825 119.639 428.75 120.298C427.693 120.939 426.428 121.26 424.954 121.26ZM421.392 114.214C421.392 115.011 421.548 115.722 421.86 116.346C422.172 116.953 422.597 117.429 423.134 117.776C423.672 118.123 424.278 118.296 424.954 118.296C425.613 118.296 426.211 118.123 426.748 117.776C427.286 117.412 427.71 116.927 428.022 116.32C428.352 115.696 428.516 114.985 428.516 114.188C428.516 113.408 428.352 112.715 428.022 112.108C427.71 111.484 427.286 110.999 426.748 110.652C426.211 110.288 425.613 110.106 424.954 110.106C424.278 110.106 423.672 110.288 423.134 110.652C422.597 110.999 422.172 111.484 421.86 112.108C421.548 112.715 421.392 113.417 421.392 114.214ZM433.598 114.188C433.598 112.888 433.858 111.701 434.378 110.626C434.898 109.551 435.617 108.702 436.536 108.078C437.454 107.454 438.503 107.142 439.682 107.142C440.687 107.142 441.588 107.393 442.386 107.896C443.2 108.381 443.833 109.005 444.284 109.768V102.02H447.768V117.1C447.768 117.481 447.828 117.75 447.95 117.906C448.071 118.045 448.279 118.131 448.574 118.166V121C447.95 121.121 447.456 121.182 447.092 121.182C446.468 121.182 445.948 121.026 445.532 120.714C445.133 120.402 444.908 119.995 444.856 119.492L444.804 118.634C444.301 119.483 443.616 120.133 442.75 120.584C441.9 121.035 441.008 121.26 440.072 121.26C438.806 121.26 437.688 120.948 436.718 120.324C435.747 119.683 434.984 118.833 434.43 117.776C433.875 116.701 433.598 115.505 433.598 114.188ZM444.284 116.008V112.758C444.006 111.995 443.53 111.363 442.854 110.86C442.178 110.357 441.484 110.106 440.774 110.106C440.063 110.106 439.439 110.305 438.902 110.704C438.364 111.085 437.948 111.597 437.654 112.238C437.359 112.862 437.212 113.538 437.212 114.266C437.212 115.011 437.376 115.696 437.706 116.32C438.035 116.927 438.477 117.412 439.032 117.776C439.604 118.123 440.254 118.296 440.982 118.296C441.64 118.296 442.29 118.079 442.932 117.646C443.59 117.213 444.041 116.667 444.284 116.008ZM451.058 115.904V107.376H454.542V115.15C454.542 117.247 455.296 118.296 456.804 118.296C457.48 118.296 458.13 118.097 458.754 117.698C459.395 117.282 459.915 116.658 460.314 115.826V107.376H463.798V117.1C463.798 117.481 463.858 117.75 463.98 117.906C464.101 118.045 464.318 118.131 464.63 118.166V121C464.283 121.069 463.988 121.113 463.746 121.13C463.52 121.147 463.312 121.156 463.122 121.156C462.498 121.156 461.986 121.017 461.588 120.74C461.206 120.445 460.981 120.047 460.912 119.544L460.834 118.452C460.227 119.388 459.447 120.09 458.494 120.558C457.54 121.026 456.492 121.26 455.348 121.26C453.944 121.26 452.878 120.809 452.15 119.908C451.422 118.989 451.058 117.655 451.058 115.904ZM473.604 121.26C472.13 121.26 470.856 120.931 469.782 120.272C468.707 119.613 467.875 118.747 467.286 117.672C466.696 116.597 466.402 115.436 466.402 114.188C466.402 112.923 466.688 111.753 467.26 110.678C467.849 109.603 468.681 108.745 469.756 108.104C470.83 107.463 472.104 107.142 473.578 107.142C475.068 107.142 476.334 107.463 477.374 108.104C478.431 108.745 479.22 109.586 479.74 110.626L476.334 111.666C475.727 110.626 474.8 110.106 473.552 110.106C472.876 110.106 472.269 110.279 471.732 110.626C471.194 110.955 470.77 111.432 470.458 112.056C470.146 112.663 469.99 113.373 469.99 114.188C469.99 114.985 470.146 115.696 470.458 116.32C470.787 116.927 471.22 117.412 471.758 117.776C472.295 118.123 472.893 118.296 473.552 118.296C474.176 118.296 474.748 118.149 475.268 117.854C475.805 117.542 476.178 117.152 476.386 116.684L479.792 117.724C479.324 118.747 478.544 119.596 477.452 120.272C476.377 120.931 475.094 121.26 473.604 121.26ZM490.1 120.298C489.632 120.506 489.051 120.714 488.358 120.922C487.682 121.13 486.98 121.234 486.252 121.234C485.61 121.234 485.021 121.121 484.484 120.896C483.946 120.671 483.513 120.315 483.184 119.83C482.872 119.327 482.716 118.677 482.716 117.88V110.054H480.922V107.376H482.716V102.956H486.2V107.376H489.06V110.054H486.2V116.71C486.2 117.178 486.321 117.516 486.564 117.724C486.824 117.932 487.136 118.036 487.5 118.036C487.864 118.036 488.219 117.975 488.566 117.854C488.912 117.733 489.19 117.629 489.398 117.542L490.1 120.298ZM391.806 142.64C391.806 141.513 392.005 140.404 392.404 139.312C392.82 138.22 393.418 137.232 394.198 136.348C394.978 135.464 395.931 134.762 397.058 134.242C398.185 133.705 399.467 133.436 400.906 133.436C402.587 133.436 404.052 133.809 405.3 134.554C406.548 135.299 407.475 136.27 408.082 137.466L405.326 139.364C405.014 138.671 404.607 138.125 404.104 137.726C403.601 137.327 403.055 137.041 402.466 136.868C401.894 136.695 401.339 136.608 400.802 136.608C399.901 136.608 399.112 136.79 398.436 137.154C397.777 137.518 397.223 137.995 396.772 138.584C396.321 139.173 395.983 139.832 395.758 140.56C395.55 141.288 395.446 142.016 395.446 142.744C395.446 143.836 395.671 144.859 396.122 145.812C396.573 146.748 397.205 147.511 398.02 148.1C398.835 148.689 399.779 148.984 400.854 148.984C401.409 148.984 401.981 148.889 402.57 148.698C403.177 148.507 403.731 148.204 404.234 147.788C404.737 147.372 405.127 146.835 405.404 146.176L408.342 147.866C407.961 148.785 407.363 149.565 406.548 150.206C405.733 150.83 404.815 151.315 403.792 151.662C402.769 151.991 401.755 152.156 400.75 152.156C399.433 152.156 398.228 151.887 397.136 151.35C396.061 150.795 395.125 150.067 394.328 149.166C393.531 148.247 392.907 147.225 392.456 146.098C392.023 144.954 391.806 143.801 391.806 142.64ZM410.28 146.904V138.376H413.764V146.15C413.764 148.247 414.518 149.296 416.026 149.296C416.702 149.296 417.352 149.097 417.976 148.698C418.618 148.282 419.138 147.658 419.536 146.826V138.376H423.02V148.1C423.02 148.481 423.081 148.75 423.202 148.906C423.324 149.045 423.54 149.131 423.852 149.166V152C423.506 152.069 423.211 152.113 422.968 152.13C422.743 152.147 422.535 152.156 422.344 152.156C421.72 152.156 421.209 152.017 420.81 151.74C420.429 151.445 420.204 151.047 420.134 150.544L420.056 149.452C419.45 150.388 418.67 151.09 417.716 151.558C416.763 152.026 415.714 152.26 414.57 152.26C413.166 152.26 412.1 151.809 411.372 150.908C410.644 149.989 410.28 148.655 410.28 146.904ZM431.5 152.26C430.339 152.26 429.23 152.069 428.172 151.688C427.115 151.307 426.205 150.743 425.442 149.998L426.69 147.736C427.505 148.395 428.302 148.88 429.082 149.192C429.862 149.504 430.625 149.66 431.37 149.66C432.046 149.66 432.584 149.539 432.982 149.296C433.398 149.053 433.606 148.689 433.606 148.204C433.606 147.701 433.355 147.363 432.852 147.19C432.35 146.999 431.648 146.765 430.746 146.488C429.741 146.176 428.9 145.855 428.224 145.526C427.548 145.197 427.037 144.798 426.69 144.33C426.361 143.862 426.196 143.255 426.196 142.51C426.196 141.175 426.699 140.109 427.704 139.312C428.71 138.515 430.044 138.116 431.708 138.116C432.679 138.116 433.598 138.272 434.464 138.584C435.331 138.879 436.12 139.364 436.83 140.04L435.426 142.25C434.092 141.21 432.8 140.69 431.552 140.69C430.998 140.69 430.504 140.794 430.07 141.002C429.654 141.21 429.446 141.574 429.446 142.094C429.446 142.579 429.646 142.926 430.044 143.134C430.46 143.342 431.084 143.567 431.916 143.81C432.991 144.139 433.901 144.46 434.646 144.772C435.409 145.084 435.981 145.483 436.362 145.968C436.761 146.453 436.96 147.112 436.96 147.944C436.96 149.296 436.466 150.353 435.478 151.116C434.49 151.879 433.164 152.26 431.5 152.26ZM447.418 151.298C446.95 151.506 446.369 151.714 445.676 151.922C445 152.13 444.298 152.234 443.57 152.234C442.929 152.234 442.339 152.121 441.802 151.896C441.265 151.671 440.831 151.315 440.502 150.83C440.19 150.327 440.034 149.677 440.034 148.88V141.054H438.24V138.376H440.034V133.956H443.518V138.376H446.378V141.054H443.518V147.71C443.518 148.178 443.639 148.516 443.882 148.724C444.142 148.932 444.454 149.036 444.818 149.036C445.182 149.036 445.537 148.975 445.884 148.854C446.231 148.733 446.508 148.629 446.716 148.542L447.418 151.298ZM455.347 152.26C453.856 152.26 452.573 151.939 451.499 151.298C450.441 150.639 449.627 149.773 449.055 148.698C448.483 147.623 448.197 146.462 448.197 145.214C448.197 143.949 448.483 142.779 449.055 141.704C449.644 140.629 450.467 139.771 451.525 139.13C452.599 138.471 453.873 138.142 455.347 138.142C456.82 138.142 458.085 138.471 459.143 139.13C460.217 139.771 461.041 140.629 461.613 141.704C462.185 142.779 462.471 143.949 462.471 145.214C462.471 146.462 462.185 147.623 461.613 148.698C461.041 149.773 460.217 150.639 459.143 151.298C458.085 151.939 456.82 152.26 455.347 152.26ZM451.785 145.214C451.785 146.011 451.941 146.722 452.253 147.346C452.565 147.953 452.989 148.429 453.527 148.776C454.064 149.123 454.671 149.296 455.347 149.296C456.005 149.296 456.603 149.123 457.141 148.776C457.678 148.412 458.103 147.927 458.415 147.32C458.744 146.696 458.909 145.985 458.909 145.188C458.909 144.408 458.744 143.715 458.415 143.108C458.103 142.484 457.678 141.999 457.141 141.652C456.603 141.288 456.005 141.106 455.347 141.106C454.671 141.106 454.064 141.288 453.527 141.652C452.989 141.999 452.565 142.484 452.253 143.108C451.941 143.715 451.785 144.417 451.785 145.214ZM485.986 152H482.502V144.356C482.502 143.281 482.312 142.493 481.93 141.99C481.566 141.47 481.055 141.21 480.396 141.21C479.703 141.21 479.053 141.479 478.446 142.016C477.84 142.536 477.406 143.221 477.146 144.07V152H473.662V144.356C473.662 143.264 473.472 142.467 473.09 141.964C472.726 141.461 472.215 141.21 471.556 141.21C470.88 141.21 470.23 141.47 469.606 141.99C469 142.51 468.566 143.195 468.306 144.044V152H464.822V138.376H467.968V140.898C468.471 140.014 469.156 139.338 470.022 138.87C470.906 138.385 471.912 138.142 473.038 138.142C474.165 138.142 475.04 138.419 475.664 138.974C476.306 139.529 476.713 140.213 476.886 141.028C477.424 140.092 478.126 139.381 478.992 138.896C479.859 138.393 480.83 138.142 481.904 138.142C482.754 138.142 483.438 138.298 483.958 138.61C484.496 138.905 484.912 139.312 485.206 139.832C485.501 140.335 485.7 140.907 485.804 141.548C485.926 142.189 485.986 142.839 485.986 143.498V152ZM489.02 136.478V133.02H492.504V136.478H489.02ZM489.02 152V138.376H492.504V152H489.02ZM494.737 149.868L502.251 140.82H495.049V138.376H505.995V140.508L498.533 149.556H506.125V152H494.737V149.868ZM507.533 147.97C507.533 147.086 507.775 146.315 508.261 145.656C508.763 144.98 509.457 144.46 510.341 144.096C511.225 143.732 512.239 143.55 513.383 143.55C513.955 143.55 514.535 143.602 515.125 143.706C515.714 143.793 516.225 143.923 516.659 144.096V143.368C516.659 142.501 516.399 141.834 515.879 141.366C515.376 140.898 514.622 140.664 513.617 140.664C512.871 140.664 512.161 140.794 511.485 141.054C510.809 141.314 510.098 141.695 509.353 142.198L508.235 139.91C509.136 139.321 510.055 138.879 510.991 138.584C511.944 138.289 512.941 138.142 513.981 138.142C515.922 138.142 517.43 138.627 518.505 139.598C519.597 140.569 520.143 141.955 520.143 143.758V148.1C520.143 148.481 520.203 148.75 520.325 148.906C520.446 149.045 520.663 149.131 520.975 149.166V152C520.663 152.069 520.377 152.113 520.117 152.13C519.874 152.165 519.666 152.182 519.493 152.182C518.799 152.182 518.271 152.026 517.907 151.714C517.543 151.402 517.326 151.021 517.257 150.57L517.179 149.868C516.572 150.648 515.827 151.246 514.943 151.662C514.076 152.061 513.183 152.26 512.265 152.26C511.346 152.26 510.531 152.078 509.821 151.714C509.11 151.333 508.547 150.821 508.131 150.18C507.732 149.521 507.533 148.785 507.533 147.97ZM516.009 148.672C516.442 148.256 516.659 147.857 516.659 147.476V146.098C515.757 145.734 514.847 145.552 513.929 145.552C513.01 145.552 512.265 145.751 511.693 146.15C511.121 146.531 510.835 147.043 510.835 147.684C510.835 148.204 511.043 148.672 511.459 149.088C511.875 149.504 512.473 149.712 513.253 149.712C513.773 149.712 514.275 149.617 514.761 149.426C515.263 149.235 515.679 148.984 516.009 148.672ZM531.436 151.298C530.968 151.506 530.387 151.714 529.694 151.922C529.018 152.13 528.316 152.234 527.588 152.234C526.946 152.234 526.357 152.121 525.82 151.896C525.282 151.671 524.849 151.315 524.52 150.83C524.208 150.327 524.052 149.677 524.052 148.88V141.054H522.258V138.376H524.052V133.956H527.536V138.376H530.396V141.054H527.536V147.71C527.536 148.178 527.657 148.516 527.9 148.724C528.16 148.932 528.472 149.036 528.836 149.036C529.2 149.036 529.555 148.975 529.902 148.854C530.248 148.733 530.526 148.629 530.734 148.542L531.436 151.298ZM533.25 136.478V133.02H536.734V136.478H533.25ZM533.25 152V138.376H536.734V152H533.25ZM546.169 152.26C544.678 152.26 543.396 151.939 542.321 151.298C541.264 150.639 540.449 149.773 539.877 148.698C539.305 147.623 539.019 146.462 539.019 145.214C539.019 143.949 539.305 142.779 539.877 141.704C540.466 140.629 541.29 139.771 542.347 139.13C543.422 138.471 544.696 138.142 546.169 138.142C547.642 138.142 548.908 138.471 549.965 139.13C551.04 139.771 551.863 140.629 552.435 141.704C553.007 142.779 553.293 143.949 553.293 145.214C553.293 146.462 553.007 147.623 552.435 148.698C551.863 149.773 551.04 150.639 549.965 151.298C548.908 151.939 547.642 152.26 546.169 152.26ZM542.607 145.214C542.607 146.011 542.763 146.722 543.075 147.346C543.387 147.953 543.812 148.429 544.349 148.776C544.886 149.123 545.493 149.296 546.169 149.296C546.828 149.296 547.426 149.123 547.963 148.776C548.5 148.412 548.925 147.927 549.237 147.32C549.566 146.696 549.731 145.985 549.731 145.188C549.731 144.408 549.566 143.715 549.237 143.108C548.925 142.484 548.5 141.999 547.963 141.652C547.426 141.288 546.828 141.106 546.169 141.106C545.493 141.106 544.886 141.288 544.349 141.652C543.812 141.999 543.387 142.484 543.075 143.108C542.763 143.715 542.607 144.417 542.607 145.214ZM568.307 152H564.823V144.356C564.823 143.264 564.632 142.467 564.251 141.964C563.869 141.461 563.341 141.21 562.665 141.21C562.197 141.21 561.72 141.331 561.235 141.574C560.767 141.817 560.342 142.155 559.961 142.588C559.579 143.004 559.302 143.489 559.129 144.044V152H555.645V138.376H558.791V140.898C559.293 140.049 560.021 139.381 560.975 138.896C561.928 138.393 563.003 138.142 564.199 138.142C565.048 138.142 565.741 138.298 566.279 138.61C566.816 138.905 567.232 139.312 567.527 139.832C567.821 140.335 568.021 140.907 568.125 141.548C568.246 142.189 568.307 142.839 568.307 143.498V152ZM571.258 152V148.256H574.118V152H571.258Z" fill="#333333"/>
<g filter="url(#filter3_d)">
<rect x="79" y="15" width="268" height="268" rx="32" fill="white"/>
</g>
<path d="M122.922 49.376C122.766 49.2027 122.437 48.9773 121.934 48.7C121.431 48.4053 120.825 48.1453 120.114 47.92C119.421 47.6773 118.701 47.556 117.956 47.556C115.997 47.556 115.018 48.2493 115.018 49.636C115.018 50.1387 115.174 50.5373 115.486 50.832C115.798 51.1267 116.266 51.378 116.89 51.586C117.514 51.794 118.294 52.0193 119.23 52.262C120.443 52.574 121.492 52.938 122.376 53.354C123.277 53.77 123.962 54.3247 124.43 55.018C124.915 55.694 125.158 56.5953 125.158 57.722C125.158 59.0393 124.837 60.1053 124.196 60.92C123.572 61.7173 122.74 62.298 121.7 62.662C120.66 63.026 119.533 63.208 118.32 63.208C116.933 63.208 115.555 63 114.186 62.584C112.834 62.1507 111.629 61.5613 110.572 60.816L112.158 57.722C112.314 57.878 112.591 58.086 112.99 58.346C113.389 58.5887 113.874 58.84 114.446 59.1C115.018 59.3427 115.642 59.5507 116.318 59.724C116.994 59.8973 117.679 59.984 118.372 59.984C120.348 59.984 121.336 59.3513 121.336 58.086C121.336 57.5487 121.137 57.1153 120.738 56.786C120.339 56.4567 119.776 56.1793 119.048 55.954C118.337 55.7287 117.505 55.4773 116.552 55.2C115.373 54.8707 114.394 54.5067 113.614 54.108C112.851 53.692 112.279 53.1807 111.898 52.574C111.517 51.95 111.326 51.1613 111.326 50.208C111.326 48.9427 111.621 47.8853 112.21 47.036C112.817 46.1693 113.631 45.5193 114.654 45.086C115.677 44.6353 116.812 44.41 118.06 44.41C119.343 44.41 120.539 44.618 121.648 45.034C122.757 45.45 123.711 45.9267 124.508 46.464L122.922 49.376ZM133.849 63.26C132.376 63.26 131.102 62.9393 130.027 62.298C128.97 61.6567 128.147 60.8073 127.557 59.75C126.968 58.6753 126.673 57.514 126.673 56.266C126.673 54.9833 126.959 53.8047 127.531 52.73C128.121 51.638 128.953 50.7713 130.027 50.13C131.102 49.4713 132.385 49.142 133.875 49.142C135.366 49.142 136.64 49.4713 137.697 50.13C138.755 50.7713 139.561 51.6293 140.115 52.704C140.687 53.7613 140.973 54.9053 140.973 56.136C140.973 56.5867 140.947 56.9767 140.895 57.306H130.365C130.452 58.3633 130.842 59.1953 131.535 59.802C132.246 60.4087 133.061 60.712 133.979 60.712C134.673 60.712 135.323 60.5473 135.929 60.218C136.553 59.8713 136.978 59.4207 137.203 58.866L140.193 59.698C139.691 60.738 138.885 61.596 137.775 62.272C136.666 62.9307 135.357 63.26 133.849 63.26ZM130.287 55.096H137.411C137.307 54.0733 136.917 53.25 136.241 52.626C135.583 51.9847 134.777 51.664 133.823 51.664C132.887 51.664 132.081 51.9847 131.405 52.626C130.747 53.25 130.374 54.0733 130.287 55.096ZM143.07 44.02H146.554V58.632C146.554 59.2733 146.658 59.698 146.866 59.906C147.074 60.114 147.36 60.218 147.724 60.218C148.001 60.218 148.287 60.1833 148.582 60.114C148.876 60.0447 149.136 59.958 149.362 59.854L149.83 62.506C149.362 62.7313 148.816 62.9047 148.192 63.026C147.568 63.1473 147.004 63.208 146.502 63.208C145.41 63.208 144.56 62.922 143.954 62.35C143.364 61.7607 143.07 60.9287 143.07 59.854V44.02ZM157.666 63.26C156.192 63.26 154.918 62.9393 153.844 62.298C152.786 61.6567 151.963 60.8073 151.374 59.75C150.784 58.6753 150.49 57.514 150.49 56.266C150.49 54.9833 150.776 53.8047 151.348 52.73C151.937 51.638 152.769 50.7713 153.844 50.13C154.918 49.4713 156.201 49.142 157.692 49.142C159.182 49.142 160.456 49.4713 161.514 50.13C162.571 50.7713 163.377 51.6293 163.932 52.704C164.504 53.7613 164.79 54.9053 164.79 56.136C164.79 56.5867 164.764 56.9767 164.712 57.306H154.182C154.268 58.3633 154.658 59.1953 155.352 59.802C156.062 60.4087 156.877 60.712 157.796 60.712C158.489 60.712 159.139 60.5473 159.746 60.218C160.37 59.8713 160.794 59.4207 161.02 58.866L164.01 59.698C163.507 60.738 162.701 61.596 161.592 62.272C160.482 62.9307 159.174 63.26 157.666 63.26ZM154.104 55.096H161.228C161.124 54.0733 160.734 53.25 160.058 52.626C159.399 51.9847 158.593 51.664 157.64 51.664C156.704 51.664 155.898 51.9847 155.222 52.626C154.563 53.25 154.19 54.0733 154.104 55.096ZM173.256 63.26C171.783 63.26 170.509 62.9307 169.434 62.272C168.36 61.6133 167.528 60.7467 166.938 59.672C166.349 58.5973 166.054 57.436 166.054 56.188C166.054 54.9227 166.34 53.7527 166.912 52.678C167.502 51.6033 168.334 50.7453 169.408 50.104C170.483 49.4627 171.757 49.142 173.23 49.142C174.721 49.142 175.986 49.4627 177.026 50.104C178.084 50.7453 178.872 51.586 179.392 52.626L175.986 53.666C175.38 52.626 174.452 52.106 173.204 52.106C172.528 52.106 171.922 52.2793 171.384 52.626C170.847 52.9553 170.422 53.432 170.11 54.056C169.798 54.6627 169.642 55.3733 169.642 56.188C169.642 56.9853 169.798 57.696 170.11 58.32C170.44 58.9267 170.873 59.412 171.41 59.776C171.948 60.1227 172.546 60.296 173.204 60.296C173.828 60.296 174.4 60.1487 174.92 59.854C175.458 59.542 175.83 59.152 176.038 58.684L179.444 59.724C178.976 60.7467 178.196 61.596 177.104 62.272C176.03 62.9307 174.747 63.26 173.256 63.26ZM189.752 62.298C189.284 62.506 188.703 62.714 188.01 62.922C187.334 63.13 186.632 63.234 185.904 63.234C185.263 63.234 184.673 63.1213 184.136 62.896C183.599 62.6707 183.165 62.3153 182.836 61.83C182.524 61.3273 182.368 60.6773 182.368 59.88V52.054H180.574V49.376H182.368V44.956H185.852V49.376H188.712V52.054H185.852V58.71C185.852 59.178 185.973 59.516 186.216 59.724C186.476 59.932 186.788 60.036 187.152 60.036C187.516 60.036 187.871 59.9753 188.218 59.854C188.565 59.7327 188.842 59.6287 189.05 59.542L189.752 62.298ZM204.105 63.26C202.614 63.26 201.331 62.9393 200.257 62.298C199.199 61.6393 198.385 60.7727 197.813 59.698C197.241 58.6233 196.955 57.462 196.955 56.214C196.955 54.9487 197.241 53.7787 197.813 52.704C198.402 51.6293 199.225 50.7713 200.283 50.13C201.357 49.4713 202.631 49.142 204.105 49.142C205.578 49.142 206.843 49.4713 207.901 50.13C208.975 50.7713 209.799 51.6293 210.371 52.704C210.943 53.7787 211.229 54.9487 211.229 56.214C211.229 57.462 210.943 58.6233 210.371 59.698C209.799 60.7727 208.975 61.6393 207.901 62.298C206.843 62.9393 205.578 63.26 204.105 63.26ZM200.543 56.214C200.543 57.0113 200.699 57.722 201.011 58.346C201.323 58.9527 201.747 59.4293 202.285 59.776C202.822 60.1227 203.429 60.296 204.105 60.296C204.763 60.296 205.361 60.1227 205.899 59.776C206.436 59.412 206.861 58.9267 207.173 58.32C207.502 57.696 207.667 56.9853 207.667 56.188C207.667 55.408 207.502 54.7147 207.173 54.108C206.861 53.484 206.436 52.9987 205.899 52.652C205.361 52.288 204.763 52.106 204.105 52.106C203.429 52.106 202.822 52.288 202.285 52.652C201.747 52.9987 201.323 53.484 201.011 54.108C200.699 54.7147 200.543 55.4167 200.543 56.214ZM221.744 63.26C220.669 63.26 219.733 63.0173 218.936 62.532C218.139 62.0467 217.515 61.4053 217.064 60.608V68.538H213.58V49.376H216.622V51.716C217.125 50.9187 217.775 50.2947 218.572 49.844C219.387 49.376 220.305 49.142 221.328 49.142C222.559 49.142 223.651 49.4627 224.604 50.104C225.557 50.728 226.311 51.5773 226.866 52.652C227.421 53.7093 227.698 54.8793 227.698 56.162C227.698 57.4967 227.438 58.7013 226.918 59.776C226.415 60.8333 225.713 61.6827 224.812 62.324C223.928 62.948 222.905 63.26 221.744 63.26ZM220.574 60.296C221.285 60.296 221.9 60.1053 222.42 59.724C222.957 59.3253 223.373 58.814 223.668 58.19C223.98 57.5487 224.136 56.8727 224.136 56.162C224.136 55.3993 223.971 54.7147 223.642 54.108C223.313 53.484 222.862 52.9987 222.29 52.652C221.735 52.288 221.094 52.106 220.366 52.106C219.707 52.106 219.049 52.3227 218.39 52.756C217.731 53.1893 217.289 53.7353 217.064 54.394V57.592C217.376 58.3547 217.853 58.996 218.494 59.516C219.135 60.036 219.829 60.296 220.574 60.296ZM238.045 62.298C237.577 62.506 236.996 62.714 236.303 62.922C235.627 63.13 234.925 63.234 234.197 63.234C233.556 63.234 232.966 63.1213 232.429 62.896C231.892 62.6707 231.458 62.3153 231.129 61.83C230.817 61.3273 230.661 60.6773 230.661 59.88V52.054H228.867V49.376H230.661V44.956H234.145V49.376H237.005V52.054H234.145V58.71C234.145 59.178 234.266 59.516 234.509 59.724C234.769 59.932 235.081 60.036 235.445 60.036C235.809 60.036 236.164 59.9753 236.511 59.854C236.858 59.7327 237.135 59.6287 237.343 59.542L238.045 62.298ZM239.859 47.478V44.02H243.343V47.478H239.859ZM239.859 63V49.376H243.343V63H239.859ZM252.778 63.26C251.288 63.26 250.005 62.9393 248.93 62.298C247.873 61.6393 247.058 60.7727 246.486 59.698C245.914 58.6233 245.628 57.462 245.628 56.214C245.628 54.9487 245.914 53.7787 246.486 52.704C247.076 51.6293 247.899 50.7713 248.956 50.13C250.031 49.4713 251.305 49.142 252.778 49.142C254.252 49.142 255.517 49.4713 256.574 50.13C257.649 50.7713 258.472 51.6293 259.044 52.704C259.616 53.7787 259.902 54.9487 259.902 56.214C259.902 57.462 259.616 58.6233 259.044 59.698C258.472 60.7727 257.649 61.6393 256.574 62.298C255.517 62.9393 254.252 63.26 252.778 63.26ZM249.216 56.214C249.216 57.0113 249.372 57.722 249.684 58.346C249.996 58.9527 250.421 59.4293 250.958 59.776C251.496 60.1227 252.102 60.296 252.778 60.296C253.437 60.296 254.035 60.1227 254.572 59.776C255.11 59.412 255.534 58.9267 255.846 58.32C256.176 57.696 256.34 56.9853 256.34 56.188C256.34 55.408 256.176 54.7147 255.846 54.108C255.534 53.484 255.11 52.9987 254.572 52.652C254.035 52.288 253.437 52.106 252.778 52.106C252.102 52.106 251.496 52.288 250.958 52.652C250.421 52.9987 249.996 53.484 249.684 54.108C249.372 54.7147 249.216 55.4167 249.216 56.214ZM274.916 63H271.432V55.356C271.432 54.264 271.241 53.4667 270.86 52.964C270.479 52.4613 269.95 52.21 269.274 52.21C268.806 52.21 268.329 52.3313 267.844 52.574C267.376 52.8167 266.951 53.1547 266.57 53.588C266.189 54.004 265.911 54.4893 265.738 55.044V63H262.254V49.376H265.4V51.898C265.903 51.0487 266.631 50.3813 267.584 49.896C268.537 49.3933 269.612 49.142 270.808 49.142C271.657 49.142 272.351 49.298 272.888 49.61C273.425 49.9047 273.841 50.312 274.136 50.832C274.431 51.3347 274.63 51.9067 274.734 52.548C274.855 53.1893 274.916 53.8393 274.916 54.498V63ZM111.872 96.652C112.513 96.8253 113.033 96.912 113.432 96.912C113.9 96.912 114.273 96.7127 114.55 96.314C114.845 95.9327 115.174 95.1613 115.538 94L110.156 80.376H113.77L117.436 90.438L120.66 80.376H123.988L118.268 96.704C117.956 97.64 117.393 98.4113 116.578 99.018C115.781 99.642 114.793 99.954 113.614 99.954C113.042 99.954 112.461 99.8587 111.872 99.668V96.652ZM131.716 94.26C130.225 94.26 128.943 93.9393 127.868 93.298C126.811 92.6393 125.996 91.7727 125.424 90.698C124.852 89.6233 124.566 88.462 124.566 87.214C124.566 85.9487 124.852 84.7787 125.424 83.704C126.013 82.6293 126.837 81.7713 127.894 81.13C128.969 80.4713 130.243 80.142 131.716 80.142C133.189 80.142 134.455 80.4713 135.512 81.13C136.587 81.7713 137.41 82.6293 137.982 83.704C138.554 84.7787 138.84 85.9487 138.84 87.214C138.84 88.462 138.554 89.6233 137.982 90.698C137.41 91.7727 136.587 92.6393 135.512 93.298C134.455 93.9393 133.189 94.26 131.716 94.26ZM128.154 87.214C128.154 88.0113 128.31 88.722 128.622 89.346C128.934 89.9527 129.359 90.4293 129.896 90.776C130.433 91.1227 131.04 91.296 131.716 91.296C132.375 91.296 132.973 91.1227 133.51 90.776C134.047 90.412 134.472 89.9267 134.784 89.32C135.113 88.696 135.278 87.9853 135.278 87.188C135.278 86.408 135.113 85.7147 134.784 85.108C134.472 84.484 134.047 83.9987 133.51 83.652C132.973 83.288 132.375 83.106 131.716 83.106C131.04 83.106 130.433 83.288 129.896 83.652C129.359 83.9987 128.934 84.484 128.622 85.108C128.31 85.7147 128.154 86.4167 128.154 87.214ZM141.061 88.904V80.376H144.545V88.15C144.545 90.2473 145.299 91.296 146.807 91.296C147.483 91.296 148.133 91.0967 148.757 90.698C149.399 90.282 149.919 89.658 150.317 88.826V80.376H153.801V90.1C153.801 90.4813 153.862 90.75 153.983 90.906C154.105 91.0447 154.321 91.1313 154.633 91.166V94C154.287 94.0693 153.992 94.1127 153.749 94.13C153.524 94.1473 153.316 94.156 153.125 94.156C152.501 94.156 151.99 94.0173 151.591 93.74C151.21 93.4453 150.985 93.0467 150.915 92.544L150.837 91.452C150.231 92.388 149.451 93.09 148.497 93.558C147.544 94.026 146.495 94.26 145.351 94.26C143.947 94.26 142.881 93.8093 142.153 92.908C141.425 91.9893 141.061 90.6547 141.061 88.904ZM163.484 75.02H166.968V89.632C166.968 90.2733 167.072 90.698 167.28 90.906C167.488 91.114 167.774 91.218 168.138 91.218C168.415 91.218 168.701 91.1833 168.996 91.114C169.29 91.0447 169.55 90.958 169.776 90.854L170.244 93.506C169.776 93.7313 169.23 93.9047 168.606 94.026C167.982 94.1473 167.418 94.208 166.916 94.208C165.824 94.208 164.974 93.922 164.368 93.35C163.778 92.7607 163.484 91.9287 163.484 90.854V75.02ZM171.762 78.478V75.02H175.246V78.478H171.762ZM171.762 94V80.376H175.246V94H171.762ZM187.697 94L183.719 88.124L181.873 89.944V94H178.389V75.02H181.873V86.512L187.359 80.402H191.051L185.981 86.174L191.415 94H187.697ZM198.494 94.26C197.021 94.26 195.747 93.9393 194.672 93.298C193.615 92.6567 192.791 91.8073 192.202 90.75C191.613 89.6753 191.318 88.514 191.318 87.266C191.318 85.9833 191.604 84.8047 192.176 83.73C192.765 82.638 193.597 81.7713 194.672 81.13C195.747 80.4713 197.029 80.142 198.52 80.142C200.011 80.142 201.285 80.4713 202.342 81.13C203.399 81.7713 204.205 82.6293 204.76 83.704C205.332 84.7613 205.618 85.9053 205.618 87.136C205.618 87.5867 205.592 87.9767 205.54 88.306H195.01C195.097 89.3633 195.487 90.1953 196.18 90.802C196.891 91.4087 197.705 91.712 198.624 91.712C199.317 91.712 199.967 91.5473 200.574 91.218C201.198 90.8713 201.623 90.4207 201.848 89.866L204.838 90.698C204.335 91.738 203.529 92.596 202.42 93.272C201.311 93.9307 200.002 94.26 198.494 94.26ZM194.932 86.096H202.056C201.952 85.0733 201.562 84.25 200.886 83.626C200.227 82.9847 199.421 82.664 198.468 82.664C197.532 82.664 196.726 82.9847 196.05 83.626C195.391 84.25 195.019 85.0733 194.932 86.096ZM207.948 84.276V80.532H210.782V84.276H207.948ZM207.948 94V90.256H210.782V94H207.948Z" fill="#333333"/>
<circle cx="124.5" cy="130.5" r="9" stroke="#DDDDDD" stroke-width="3"/>
<rect x="148" y="127" width="156" height="6" rx="3" fill="#DDDDDD"/>
<circle cx="124.5" cy="206.5" r="9" stroke="#DDDDDD" stroke-width="3"/>
<rect x="148" y="203" width="133" height="6" rx="3" fill="#DDDDDD"/>
<circle cx="124.5" cy="244.5" r="9" stroke="#DDDDDD" stroke-width="3"/>
<rect x="148" y="241" width="81" height="6" rx="3" fill="#DDDDDD"/>
<circle cx="124.5" cy="168.5" r="9" stroke="#A177B4" stroke-width="3"/>
<rect x="148" y="165" width="111" height="6" rx="3" fill="#A177B4"/>
<circle cx="124.5" cy="168.5" r="5" fill="#A177B4"/>
<defs>
<filter id="filter0_d" x="0" y="351" width="328" height="328" filterUnits="userSpaceOnUse" color-interpolation-filters="sRGB">
<feFlood flood-opacity="0" result="BackgroundImageFix"/>
<feColorMatrix in="SourceAlpha" type="matrix" values="0 0 0 0 0 0 0 0 0 0 0 0 0 0 0 0 0 0 127 0"/>
<feOffset dx="15" dy="15"/>
<feGaussianBlur stdDeviation="15"/>
<feColorMatrix type="matrix" values="0 0 0 0 0.835294 0 0 0 0 0.835294 0 0 0 0 0.835294 0 0 0 0.5 0"/>
<feBlend mode="normal" in2="BackgroundImageFix" result="effect1_dropShadow"/>
<feBlend mode="normal" in="SourceGraphic" in2="effect1_dropShadow" result="shape"/>
</filter>
<filter id="filter1_d" x="221" y="210" width="300" height="300" filterUnits="userSpaceOnUse" color-interpolation-filters="sRGB">
<feFlood flood-opacity="0" result="BackgroundImageFix"/>
<feColorMatrix in="SourceAlpha" type="matrix" values="0 0 0 0 0 0 0 0 0 0 0 0 0 0 0 0 0 0 127 0"/>
<feOffset dx="15" dy="15"/>
<feGaussianBlur stdDeviation="15"/>
<feColorMatrix type="matrix" values="0 0 0 0 0.835294 0 0 0 0 0.835294 0 0 0 0 0.835294 0 0 0 0.5 0"/>
<feBlend mode="normal" in2="BackgroundImageFix" result="effect1_dropShadow"/>
<feBlend mode="normal" in="SourceGraphic" in2="effect1_dropShadow" result="shape"/>
</filter>
<filter id="filter2_d" x="402" y="340" width="328" height="253" filterUnits="userSpaceOnUse" color-interpolation-filters="sRGB">
<feFlood flood-opacity="0" result="BackgroundImageFix"/>
<feColorMatrix in="SourceAlpha" type="matrix" values="0 0 0 0 0 0 0 0 0 0 0 0 0 0 0 0 0 0 127 0"/>
<feOffset dx="15" dy="15"/>
<feGaussianBlur stdDeviation="15"/>
<feColorMatrix type="matrix" values="0 0 0 0 0.835294 0 0 0 0 0.835294 0 0 0 0 0.835294 0 0 0 0.5 0"/>
<feBlend mode="normal" in2="BackgroundImageFix" result="effect1_dropShadow"/>
<feBlend mode="normal" in="SourceGraphic" in2="effect1_dropShadow" result="shape"/>
</filter>
<filter id="filter3_d" x="64" y="0" width="328" height="328" filterUnits="userSpaceOnUse" color-interpolation-filters="sRGB">
<feFlood flood-opacity="0" result="BackgroundImageFix"/>
<feColorMatrix in="SourceAlpha" type="matrix" values="0 0 0 0 0 0 0 0 0 0 0 0 0 0 0 0 0 0 127 0"/>
<feOffset dx="15" dy="15"/>
<feGaussianBlur stdDeviation="15"/>
<feColorMatrix type="matrix" values="0 0 0 0 0.835294 0 0 0 0 0.835294 0 0 0 0 0.835294 0 0 0 0.5 0"/>
<feBlend mode="normal" in2="BackgroundImageFix" result="effect1_dropShadow"/>
<feBlend mode="normal" in="SourceGraphic" in2="effect1_dropShadow" result="shape"/>
</filter>
</defs>
</svg>
