<svg width="487" height="690" viewBox="0 0 487 690" fill="none" xmlns="http://www.w3.org/2000/svg">
<g filter="url(#filter0_d)">
<rect x="90" y="48" width="352" height="564" rx="32" fill="white"/>
</g>
<g filter="url(#filter1_d)">
<rect x="15" y="15" width="393.376" height="630" rx="32" fill="white"/>
</g>
<path d="M280 267.5V529" stroke="#EEEEEE" stroke-width="2"/>
<path d="M50 304.5H372.5" stroke="#EEEEEE" stroke-width="2"/>
<path d="M48 476H370.5" stroke="#EEEEEE" stroke-width="2"/>
<rect x="46" y="272" width="118" height="15" rx="7.5" fill="#C5C5C5"/>
<rect x="46" y="322" width="180" height="15" rx="7.5" fill="#C5C5C5"/>
<rect x="45" y="361" width="99" height="15" rx="7.5" fill="#C5C5C5"/>
<rect x="46" y="400" width="145" height="15" rx="7.5" fill="#C5C5C5"/>
<rect x="44" y="439" width="120" height="15" rx="7.5" fill="#C5C5C5"/>
<rect x="305" y="272" width="66" height="15" rx="7.5" fill="#C5C5C5"/>
<rect x="305" y="322" width="66" height="15" rx="7.5" fill="#C5C5C5"/>
<rect x="305" y="361" width="66" height="15" rx="7.5" fill="#C5C5C5"/>
<rect x="305" y="400" width="66" height="15" rx="7.5" fill="#C5C5C5"/>
<rect x="305" y="439" width="66" height="15" rx="7.5" fill="#C5C5C5"/>
<rect x="305" y="498" width="66" height="15" rx="7.5" fill="#C5C5C5"/>
<rect x="253" y="48" width="118" height="15" rx="7.5" fill="#C5C5C5"/>
<rect x="253" y="83" width="118" height="15" rx="7.5" fill="#C5C5C5"/>
<rect x="253" y="118" width="118" height="15" rx="7.5" fill="#C5C5C5"/>
<circle cx="212" cy="586" r="29" fill="#A177B4"/>
<path d="M199 590L207.421 597.158C208.284 597.891 209.583 597.763 210.285 596.875L226 577" stroke="white" stroke-width="9" stroke-linecap="round"/>
<path d="M63.18 180.128H59.092L58.196 183.964H61.864V186.764H57.524L56.236 192H53.212L54.528 186.764H51.168L49.908 192H46.884L48.172 186.764H45.036V183.964H48.844L49.768 180.128H46.352V177.496H50.412L51.728 172.12H54.752L53.408 177.496H56.768L58.056 172.12H61.08L59.764 177.496H63.18V180.128ZM55.2 183.964L56.096 180.128H52.764L51.84 183.964H55.2ZM66.2517 192V172.12H70.1157V192H66.2517ZM78.1274 179.232V192H74.2634V172.12H77.3434L87.6194 185.224V172.148H91.4834V192H88.2634L78.1274 179.232ZM97.6629 172.12L103.039 187.408L108.359 172.12H112.419L104.887 192H101.163L93.6029 172.12H97.6629ZM122.269 192.28C120.85 192.261 119.599 191.944 118.517 191.328C117.453 190.712 116.557 189.909 115.829 188.92C115.101 187.912 114.55 186.82 114.177 185.644C113.822 184.468 113.645 183.32 113.645 182.2C113.645 181.005 113.841 179.811 114.233 178.616C114.625 177.421 115.194 176.339 115.941 175.368C116.706 174.379 117.621 173.595 118.685 173.016C119.749 172.419 120.943 172.12 122.269 172.12C123.706 172.12 124.957 172.437 126.021 173.072C127.103 173.707 128.009 174.528 128.737 175.536C129.465 176.544 130.006 177.636 130.361 178.812C130.734 179.988 130.921 181.117 130.921 182.2C130.921 183.413 130.725 184.617 130.333 185.812C129.941 186.988 129.362 188.071 128.597 189.06C127.85 190.031 126.945 190.815 125.881 191.412C124.817 191.991 123.613 192.28 122.269 192.28ZM117.537 182.2C117.555 182.965 117.658 183.74 117.845 184.524C118.05 185.308 118.339 186.027 118.713 186.68C119.105 187.333 119.59 187.865 120.169 188.276C120.766 188.668 121.466 188.864 122.269 188.864C123.109 188.864 123.827 188.649 124.425 188.22C125.022 187.791 125.507 187.24 125.881 186.568C126.273 185.896 126.562 185.177 126.749 184.412C126.935 183.647 127.029 182.909 127.029 182.2C127.029 181.435 126.926 180.66 126.721 179.876C126.515 179.092 126.217 178.373 125.825 177.72C125.433 177.067 124.938 176.544 124.341 176.152C123.743 175.741 123.053 175.536 122.269 175.536C121.447 175.536 120.738 175.751 120.141 176.18C119.543 176.609 119.049 177.16 118.657 177.832C118.265 178.504 117.975 179.232 117.789 180.016C117.621 180.781 117.537 181.509 117.537 182.2ZM141.902 192.28C140.483 192.261 139.232 191.944 138.15 191.328C137.086 190.712 136.19 189.909 135.462 188.92C134.734 187.912 134.183 186.82 133.81 185.644C133.455 184.468 133.278 183.32 133.278 182.2C133.278 181.005 133.474 179.811 133.866 178.616C134.258 177.421 134.827 176.339 135.574 175.368C136.339 174.379 137.254 173.595 138.318 173.016C139.382 172.419 140.576 172.12 141.902 172.12C143.339 172.12 144.59 172.437 145.654 173.072C146.736 173.707 147.642 174.528 148.37 175.536C149.098 176.544 149.639 177.636 149.994 178.812C150.367 179.988 150.554 181.117 150.554 182.2C150.554 183.413 150.358 184.617 149.966 185.812C149.574 186.988 148.995 188.071 148.23 189.06C147.483 190.031 146.578 190.815 145.514 191.412C144.45 191.991 143.246 192.28 141.902 192.28ZM137.17 182.2C137.188 182.965 137.291 183.74 137.478 184.524C137.683 185.308 137.972 186.027 138.346 186.68C138.738 187.333 139.223 187.865 139.802 188.276C140.399 188.668 141.099 188.864 141.902 188.864C142.742 188.864 143.46 188.649 144.058 188.22C144.655 187.791 145.14 187.24 145.514 186.568C145.906 185.896 146.195 185.177 146.382 184.412C146.568 183.647 146.662 182.909 146.662 182.2C146.662 181.435 146.559 180.66 146.354 179.876C146.148 179.092 145.85 178.373 145.458 177.72C145.066 177.067 144.571 176.544 143.974 176.152C143.376 175.741 142.686 175.536 141.902 175.536C141.08 175.536 140.371 175.751 139.774 176.18C139.176 176.609 138.682 177.16 138.29 177.832C137.898 178.504 137.608 179.232 137.422 180.016C137.254 180.781 137.17 181.509 137.17 182.2ZM164.838 188.612V192H153.582V188.612H157.446V175.676C157.241 175.956 156.877 176.292 156.354 176.684C155.832 177.057 155.253 177.384 154.618 177.664C154.002 177.944 153.442 178.084 152.938 178.084V174.612C153.424 174.612 153.928 174.481 154.45 174.22C154.973 173.959 155.458 173.66 155.906 173.324C156.354 172.969 156.718 172.661 156.998 172.4C157.297 172.12 157.446 171.961 157.446 171.924H161.282V188.612H164.838Z" fill="black"/>
<path d="M58.104 235.612V239H46.848V235.612H50.712V222.676C50.5067 222.956 50.1427 223.292 49.62 223.684C49.0973 224.057 48.5187 224.384 47.884 224.664C47.268 224.944 46.708 225.084 46.204 225.084V221.612C46.6893 221.612 47.1933 221.481 47.716 221.22C48.2387 220.959 48.724 220.66 49.172 220.324C49.62 219.969 49.984 219.661 50.264 219.4C50.5627 219.12 50.712 218.961 50.712 218.924H54.548V235.612H58.104ZM67.8266 239V234.492H59.4546V231.132L69.0026 219.12H71.5786V231.104H74.0426V234.492H71.5786V239H67.8266ZM63.2346 231.104H68.2466V224.776L63.2346 231.104ZM82.1578 234.94C82.4004 235.108 82.8298 235.313 83.4458 235.556C84.0618 235.78 84.7898 235.892 85.6298 235.892C86.6191 235.892 87.3658 235.677 87.8698 235.248C88.3738 234.8 88.7098 234.109 88.8778 233.176C89.0458 232.243 89.1298 231.029 89.1298 229.536V219.12H92.9938V229.228C92.9938 230.721 92.9098 232.084 92.7418 233.316C92.5738 234.548 92.2471 235.612 91.7618 236.508C91.2764 237.404 90.5391 238.095 89.5498 238.58C88.5791 239.065 87.2818 239.308 85.6578 239.308C84.7618 239.308 83.9591 239.205 83.2498 239C82.5404 238.795 81.8871 238.487 81.2898 238.076L82.1578 234.94ZM96.2243 233.512V224.328H99.9763V232.7C99.9763 234.959 100.788 236.088 102.412 236.088C103.14 236.088 103.84 235.873 104.512 235.444C105.203 234.996 105.763 234.324 106.192 233.428V224.328H109.944V234.8C109.944 235.211 110.01 235.5 110.14 235.668C110.271 235.817 110.504 235.911 110.84 235.948V239C110.467 239.075 110.15 239.121 109.888 239.14C109.646 239.159 109.422 239.168 109.216 239.168C108.544 239.168 107.994 239.019 107.564 238.72C107.154 238.403 106.911 237.973 106.836 237.432L106.752 236.256C106.099 237.264 105.259 238.02 104.232 238.524C103.206 239.028 102.076 239.28 100.844 239.28C99.3323 239.28 98.1843 238.795 97.4003 237.824C96.6163 236.835 96.2243 235.397 96.2243 233.512ZM127.309 239H123.557V230.768C123.557 229.592 123.352 228.733 122.941 228.192C122.53 227.651 121.961 227.38 121.233 227.38C120.729 227.38 120.216 227.511 119.693 227.772C119.189 228.033 118.732 228.397 118.321 228.864C117.91 229.312 117.612 229.835 117.425 230.432V239H113.673V224.328H117.061V227.044C117.602 226.129 118.386 225.411 119.413 224.888C120.44 224.347 121.597 224.076 122.885 224.076C123.8 224.076 124.546 224.244 125.125 224.58C125.704 224.897 126.152 225.336 126.469 225.896C126.786 226.437 127.001 227.053 127.113 227.744C127.244 228.435 127.309 229.135 127.309 229.844V239ZM137.375 239.28C135.789 239.28 134.417 238.935 133.259 238.244C132.121 237.553 131.234 236.639 130.599 235.5C129.965 234.343 129.647 233.092 129.647 231.748C129.647 230.367 129.955 229.097 130.571 227.94C131.206 226.764 132.102 225.831 133.259 225.14C134.417 224.431 135.798 224.076 137.403 224.076C139.009 224.076 140.381 224.431 141.519 225.14C142.658 225.831 143.526 226.755 144.123 227.912C144.739 229.051 145.047 230.283 145.047 231.608C145.047 232.093 145.019 232.513 144.963 232.868H133.623C133.717 234.007 134.137 234.903 134.883 235.556C135.649 236.209 136.526 236.536 137.515 236.536C138.262 236.536 138.962 236.359 139.615 236.004C140.287 235.631 140.745 235.145 140.987 234.548L144.207 235.444C143.666 236.564 142.798 237.488 141.603 238.216C140.409 238.925 138.999 239.28 137.375 239.28ZM133.539 230.488H141.211C141.099 229.387 140.679 228.5 139.951 227.828C139.242 227.137 138.374 226.792 137.347 226.792C136.339 226.792 135.471 227.137 134.743 227.828C134.034 228.5 133.633 229.387 133.539 230.488ZM153.5 239C153.5 237.488 153.63 236.209 153.892 235.164C154.172 234.1 154.61 233.195 155.208 232.448C155.824 231.683 156.636 230.992 157.644 230.376C158.297 229.984 158.969 229.62 159.66 229.284C160.369 228.929 161.022 228.565 161.62 228.192C162.236 227.8 162.73 227.352 163.104 226.848C163.496 226.325 163.692 225.7 163.692 224.972C163.692 224.151 163.43 223.497 162.908 223.012C162.404 222.508 161.685 222.256 160.752 222.256C160.042 222.256 159.38 222.387 158.764 222.648C158.166 222.891 157.625 223.199 157.14 223.572C156.673 223.927 156.272 224.281 155.936 224.636L153.584 222.172C153.92 221.78 154.433 221.332 155.124 220.828C155.833 220.305 156.701 219.848 157.728 219.456C158.754 219.064 159.921 218.868 161.228 218.868C162.684 218.868 163.906 219.129 164.896 219.652C165.885 220.156 166.632 220.856 167.136 221.752C167.658 222.629 167.92 223.647 167.92 224.804C167.92 225.924 167.677 226.876 167.192 227.66C166.725 228.425 166.118 229.079 165.372 229.62C164.625 230.161 163.85 230.665 163.048 231.132C161.76 231.823 160.78 232.411 160.108 232.896C159.454 233.381 158.988 233.839 158.708 234.268C158.428 234.679 158.204 235.127 158.036 235.612H167.948V239H153.5ZM179.187 239.28C177.768 239.261 176.517 238.944 175.435 238.328C174.371 237.712 173.475 236.909 172.747 235.92C172.019 234.912 171.468 233.82 171.095 232.644C170.74 231.468 170.563 230.32 170.563 229.2C170.563 228.005 170.759 226.811 171.151 225.616C171.543 224.421 172.112 223.339 172.859 222.368C173.624 221.379 174.539 220.595 175.603 220.016C176.667 219.419 177.861 219.12 179.187 219.12C180.624 219.12 181.875 219.437 182.939 220.072C184.021 220.707 184.927 221.528 185.655 222.536C186.383 223.544 186.924 224.636 187.279 225.812C187.652 226.988 187.839 228.117 187.839 229.2C187.839 230.413 187.643 231.617 187.251 232.812C186.859 233.988 186.28 235.071 185.515 236.06C184.768 237.031 183.863 237.815 182.799 238.412C181.735 238.991 180.531 239.28 179.187 239.28ZM174.455 229.2C174.473 229.965 174.576 230.74 174.763 231.524C174.968 232.308 175.257 233.027 175.631 233.68C176.023 234.333 176.508 234.865 177.087 235.276C177.684 235.668 178.384 235.864 179.187 235.864C180.027 235.864 180.745 235.649 181.343 235.22C181.94 234.791 182.425 234.24 182.799 233.568C183.191 232.896 183.48 232.177 183.667 231.412C183.853 230.647 183.947 229.909 183.947 229.2C183.947 228.435 183.844 227.66 183.639 226.876C183.433 226.092 183.135 225.373 182.743 224.72C182.351 224.067 181.856 223.544 181.259 223.152C180.661 222.741 179.971 222.536 179.187 222.536C178.365 222.536 177.656 222.751 177.059 223.18C176.461 223.609 175.967 224.16 175.575 224.832C175.183 225.504 174.893 226.232 174.707 227.016C174.539 227.781 174.455 228.509 174.455 229.2ZM190.168 239C190.168 237.488 190.298 236.209 190.56 235.164C190.84 234.1 191.278 233.195 191.876 232.448C192.492 231.683 193.304 230.992 194.312 230.376C194.965 229.984 195.637 229.62 196.328 229.284C197.037 228.929 197.69 228.565 198.288 228.192C198.904 227.8 199.398 227.352 199.772 226.848C200.164 226.325 200.36 225.7 200.36 224.972C200.36 224.151 200.098 223.497 199.576 223.012C199.072 222.508 198.353 222.256 197.42 222.256C196.71 222.256 196.048 222.387 195.432 222.648C194.834 222.891 194.293 223.199 193.808 223.572C193.341 223.927 192.94 224.281 192.604 224.636L190.252 222.172C190.588 221.78 191.101 221.332 191.792 220.828C192.501 220.305 193.369 219.848 194.396 219.456C195.422 219.064 196.589 218.868 197.896 218.868C199.352 218.868 200.574 219.129 201.564 219.652C202.553 220.156 203.3 220.856 203.804 221.752C204.326 222.629 204.588 223.647 204.588 224.804C204.588 225.924 204.345 226.876 203.86 227.66C203.393 228.425 202.786 229.079 202.04 229.62C201.293 230.161 200.518 230.665 199.716 231.132C198.428 231.823 197.448 232.411 196.776 232.896C196.122 233.381 195.656 233.839 195.376 234.268C195.096 234.679 194.872 235.127 194.704 235.612H204.616V239H190.168ZM215.855 239.28C214.436 239.261 213.185 238.944 212.103 238.328C211.039 237.712 210.143 236.909 209.415 235.92C208.687 234.912 208.136 233.82 207.763 232.644C207.408 231.468 207.231 230.32 207.231 229.2C207.231 228.005 207.427 226.811 207.819 225.616C208.211 224.421 208.78 223.339 209.527 222.368C210.292 221.379 211.207 220.595 212.271 220.016C213.335 219.419 214.529 219.12 215.855 219.12C217.292 219.12 218.543 219.437 219.607 220.072C220.689 220.707 221.595 221.528 222.323 222.536C223.051 223.544 223.592 224.636 223.947 225.812C224.32 226.988 224.507 228.117 224.507 229.2C224.507 230.413 224.311 231.617 223.919 232.812C223.527 233.988 222.948 235.071 222.183 236.06C221.436 237.031 220.531 237.815 219.467 238.412C218.403 238.991 217.199 239.28 215.855 239.28ZM211.123 229.2C211.141 229.965 211.244 230.74 211.431 231.524C211.636 232.308 211.925 233.027 212.299 233.68C212.691 234.333 213.176 234.865 213.755 235.276C214.352 235.668 215.052 235.864 215.855 235.864C216.695 235.864 217.413 235.649 218.011 235.22C218.608 234.791 219.093 234.24 219.467 233.568C219.859 232.896 220.148 232.177 220.335 231.412C220.521 230.647 220.615 229.909 220.615 229.2C220.615 228.435 220.512 227.66 220.307 226.876C220.101 226.092 219.803 225.373 219.411 224.72C219.019 224.067 218.524 223.544 217.927 223.152C217.329 222.741 216.639 222.536 215.855 222.536C215.033 222.536 214.324 222.751 213.727 223.18C213.129 223.609 212.635 224.16 212.243 224.832C211.851 225.504 211.561 226.232 211.375 227.016C211.207 227.781 211.123 228.509 211.123 229.2Z" fill="black"/>
<defs>
<filter id="filter0_d" x="75" y="33" width="412" height="624" filterUnits="userSpaceOnUse" color-interpolation-filters="sRGB">
<feFlood flood-opacity="0" result="BackgroundImageFix"/>
<feColorMatrix in="SourceAlpha" type="matrix" values="0 0 0 0 0 0 0 0 0 0 0 0 0 0 0 0 0 0 127 0"/>
<feOffset dx="15" dy="15"/>
<feGaussianBlur stdDeviation="15"/>
<feColorMatrix type="matrix" values="0 0 0 0 0.835294 0 0 0 0 0.835294 0 0 0 0 0.835294 0 0 0 0.5 0"/>
<feBlend mode="normal" in2="BackgroundImageFix" result="effect1_dropShadow"/>
<feBlend mode="normal" in="SourceGraphic" in2="effect1_dropShadow" result="shape"/>
</filter>
<filter id="filter1_d" x="0" y="0" width="453.376" height="690" filterUnits="userSpaceOnUse" color-interpolation-filters="sRGB">
<feFlood flood-opacity="0" result="BackgroundImageFix"/>
<feColorMatrix in="SourceAlpha" type="matrix" values="0 0 0 0 0 0 0 0 0 0 0 0 0 0 0 0 0 0 127 0"/>
<feOffset dx="15" dy="15"/>
<feGaussianBlur stdDeviation="15"/>
<feColorMatrix type="matrix" values="0 0 0 0 0.835294 0 0 0 0 0.835294 0 0 0 0 0.835294 0 0 0 0.5 0"/>
<feBlend mode="normal" in2="BackgroundImageFix" result="effect1_dropShadow"/>
<feBlend mode="normal" in="SourceGraphic" in2="effect1_dropShadow" result="shape"/>
</filter>
</defs>
</svg>
