<svg width="562" height="708" viewBox="0 0 562 708" fill="none" xmlns="http://www.w3.org/2000/svg">
<rect width="315" height="315" rx="32" fill="#C4C4C4"/>
<path d="M28.1951 358.48C28.1951 357.093 28.4405 355.728 28.9311 354.384C29.4431 353.04 30.1791 351.824 31.1391 350.736C32.0991 349.648 33.2725 348.784 34.6591 348.144C36.0458 347.483 37.6245 347.152 39.3951 347.152C41.4645 347.152 43.2671 347.611 44.8031 348.528C46.3391 349.445 47.4805 350.64 48.2271 352.112L44.8351 354.448C44.4511 353.595 43.9498 352.923 43.3311 352.432C42.7125 351.941 42.0405 351.589 41.3151 351.376C40.6111 351.163 39.9285 351.056 39.2671 351.056C38.1578 351.056 37.1871 351.28 36.3551 351.728C35.5445 352.176 34.8618 352.763 34.3071 353.488C33.7525 354.213 33.3365 355.024 33.0591 355.92C32.8031 356.816 32.6751 357.712 32.6751 358.608C32.6751 359.952 32.9525 361.211 33.5071 362.384C34.0618 363.536 34.8405 364.475 35.8431 365.2C36.8458 365.925 38.0085 366.288 39.3311 366.288C40.0138 366.288 40.7178 366.171 41.4431 365.936C42.1898 365.701 42.8725 365.328 43.4911 364.816C44.1098 364.304 44.5898 363.643 44.9311 362.832L48.5471 364.912C48.0778 366.043 47.3418 367.003 46.3391 367.792C45.3365 368.56 44.2058 369.157 42.9471 369.584C41.6885 369.989 40.4405 370.192 39.2031 370.192C37.5818 370.192 36.0991 369.861 34.7551 369.2C33.4325 368.517 32.2805 367.621 31.2991 366.512C30.3178 365.381 29.5498 364.123 28.9951 362.736C28.4618 361.328 28.1951 359.909 28.1951 358.48ZM66.6766 370H62.3886V360.592C62.3886 359.291 62.1326 358.32 61.6206 357.68C61.13 357.04 60.4473 356.72 59.5726 356.72C59.0393 356.72 58.4846 356.869 57.9086 357.168C57.354 357.467 56.842 357.883 56.3726 358.416C55.9246 358.928 55.594 359.525 55.3806 360.208V370H51.0926V346.64H55.3806V356.336C55.9993 355.269 56.842 354.437 57.9086 353.84C58.9753 353.243 60.138 352.944 61.3966 352.944C62.826 352.944 63.9246 353.264 64.6926 353.904C65.4606 354.544 65.9833 355.365 66.2606 356.368C66.538 357.371 66.6766 358.427 66.6766 359.536V370ZM78.1811 370.32C76.3678 370.32 74.7998 369.925 73.4771 369.136C72.1758 368.347 71.1625 367.301 70.4371 366C69.7118 364.677 69.3491 363.248 69.3491 361.712C69.3491 360.133 69.7011 358.683 70.4051 357.36C71.1305 356.016 72.1545 354.949 73.4771 354.16C74.7998 353.349 76.3785 352.944 78.2131 352.944C80.0478 352.944 81.6158 353.349 82.9171 354.16C84.2185 354.949 85.2105 356.005 85.8931 357.328C86.5971 358.629 86.9491 360.037 86.9491 361.552C86.9491 362.107 86.9171 362.587 86.8531 362.992H73.8931C73.9998 364.293 74.4798 365.317 75.3331 366.064C76.2078 366.811 77.2105 367.184 78.3411 367.184C79.1945 367.184 79.9945 366.981 80.7411 366.576C81.5091 366.149 82.0318 365.595 82.3091 364.912L85.9891 365.936C85.3705 367.216 84.3785 368.272 83.0131 369.104C81.6478 369.915 80.0371 370.32 78.1811 370.32ZM73.7971 360.272H82.5651C82.4371 359.013 81.9571 358 81.1251 357.232C80.3145 356.443 79.3225 356.048 78.1491 356.048C76.9971 356.048 76.0051 356.443 75.1731 357.232C74.3625 358 73.9038 359.013 73.7971 360.272ZM88.4094 365.04C88.4094 363.952 88.708 363.003 89.3054 362.192C89.924 361.36 90.7774 360.72 91.8654 360.272C92.9534 359.824 94.2014 359.6 95.6094 359.6C96.3134 359.6 97.028 359.664 97.7534 359.792C98.4787 359.899 99.108 360.059 99.6414 360.272V359.376C99.6414 358.309 99.3214 357.488 98.6814 356.912C98.0627 356.336 97.1347 356.048 95.8974 356.048C94.98 356.048 94.1054 356.208 93.2734 356.528C92.4414 356.848 91.5667 357.317 90.6494 357.936L89.2734 355.12C90.3827 354.395 91.5134 353.851 92.6654 353.488C93.8387 353.125 95.0654 352.944 96.3454 352.944C98.7347 352.944 100.591 353.541 101.913 354.736C103.257 355.931 103.929 357.637 103.929 359.856V365.2C103.929 365.669 104.004 366 104.153 366.192C104.303 366.363 104.569 366.469 104.953 366.512V370C104.569 370.085 104.217 370.139 103.897 370.16C103.599 370.203 103.343 370.224 103.129 370.224C102.276 370.224 101.625 370.032 101.177 369.648C100.729 369.264 100.463 368.795 100.377 368.24L100.281 367.376C99.5347 368.336 98.6174 369.072 97.5294 369.584C96.4627 370.075 95.364 370.32 94.2334 370.32C93.1027 370.32 92.1 370.096 91.2254 369.648C90.3507 369.179 89.6574 368.549 89.1454 367.76C88.6547 366.949 88.4094 366.043 88.4094 365.04ZM98.8414 365.904C99.3747 365.392 99.6414 364.901 99.6414 364.432V362.736C98.532 362.288 97.412 362.064 96.2814 362.064C95.1507 362.064 94.2334 362.309 93.5294 362.8C92.8254 363.269 92.4734 363.899 92.4734 364.688C92.4734 365.328 92.7294 365.904 93.2414 366.416C93.7534 366.928 94.4894 367.184 95.4494 367.184C96.0894 367.184 96.708 367.067 97.3054 366.832C97.924 366.597 98.436 366.288 98.8414 365.904ZM117.984 370.32C116.662 370.32 115.51 370.021 114.528 369.424C113.547 368.827 112.779 368.037 112.224 367.056V376.816H107.936V353.232H111.68V356.112C112.299 355.131 113.099 354.363 114.08 353.808C115.083 353.232 116.214 352.944 117.472 352.944C118.987 352.944 120.331 353.339 121.504 354.128C122.678 354.896 123.606 355.941 124.288 357.264C124.971 358.565 125.312 360.005 125.312 361.584C125.312 363.227 124.992 364.709 124.352 366.032C123.734 367.333 122.87 368.379 121.76 369.168C120.672 369.936 119.414 370.32 117.984 370.32ZM116.544 366.672C117.419 366.672 118.176 366.437 118.816 365.968C119.478 365.477 119.99 364.848 120.352 364.08C120.736 363.291 120.928 362.459 120.928 361.584C120.928 360.645 120.726 359.803 120.32 359.056C119.915 358.288 119.36 357.691 118.656 357.264C117.974 356.816 117.184 356.592 116.288 356.592C115.478 356.592 114.667 356.859 113.856 357.392C113.046 357.925 112.502 358.597 112.224 359.408V363.344C112.608 364.283 113.195 365.072 113.984 365.712C114.774 366.352 115.627 366.672 116.544 366.672ZM135.994 370.32C134.18 370.32 132.612 369.925 131.29 369.136C129.988 368.347 128.975 367.301 128.25 366C127.524 364.677 127.162 363.248 127.162 361.712C127.162 360.133 127.514 358.683 128.218 357.36C128.943 356.016 129.967 354.949 131.29 354.16C132.612 353.349 134.191 352.944 136.026 352.944C137.86 352.944 139.428 353.349 140.73 354.16C142.031 354.949 143.023 356.005 143.706 357.328C144.41 358.629 144.762 360.037 144.762 361.552C144.762 362.107 144.73 362.587 144.666 362.992H131.706C131.812 364.293 132.292 365.317 133.146 366.064C134.02 366.811 135.023 367.184 136.154 367.184C137.007 367.184 137.807 366.981 138.554 366.576C139.322 366.149 139.844 365.595 140.122 364.912L143.802 365.936C143.183 367.216 142.191 368.272 140.826 369.104C139.46 369.915 137.85 370.32 135.994 370.32ZM131.61 360.272H140.378C140.25 359.013 139.77 358 138.938 357.232C138.127 356.443 137.135 356.048 135.962 356.048C134.81 356.048 133.818 356.443 132.986 357.232C132.175 358 131.716 359.013 131.61 360.272ZM157.358 356.944C156.057 356.944 154.894 357.2 153.87 357.712C152.846 358.203 152.11 358.917 151.662 359.856V370H147.374V353.232H151.31V356.816C151.886 355.664 152.633 354.757 153.55 354.096C154.489 353.435 155.47 353.072 156.494 353.008C156.942 353.008 157.23 353.019 157.358 353.04V356.944Z" fill="#A177B4"/>
<path opacity="0.66" d="M28.1951 393.48C28.1951 392.093 28.4405 390.728 28.9311 389.384C29.4431 388.04 30.1791 386.824 31.1391 385.736C32.0991 384.648 33.2725 383.784 34.6591 383.144C36.0458 382.483 37.6245 382.152 39.3951 382.152C41.4645 382.152 43.2671 382.611 44.8031 383.528C46.3391 384.445 47.4805 385.64 48.2271 387.112L44.8351 389.448C44.4511 388.595 43.9498 387.923 43.3311 387.432C42.7125 386.941 42.0405 386.589 41.3151 386.376C40.6111 386.163 39.9285 386.056 39.2671 386.056C38.1578 386.056 37.1871 386.28 36.3551 386.728C35.5445 387.176 34.8618 387.763 34.3071 388.488C33.7525 389.213 33.3365 390.024 33.0591 390.92C32.8031 391.816 32.6751 392.712 32.6751 393.608C32.6751 394.952 32.9525 396.211 33.5071 397.384C34.0618 398.536 34.8405 399.475 35.8431 400.2C36.8458 400.925 38.0085 401.288 39.3311 401.288C40.0138 401.288 40.7178 401.171 41.4431 400.936C42.1898 400.701 42.8725 400.328 43.4911 399.816C44.1098 399.304 44.5898 398.643 44.9311 397.832L48.5471 399.912C48.0778 401.043 47.3418 402.003 46.3391 402.792C45.3365 403.56 44.2058 404.157 42.9471 404.584C41.6885 404.989 40.4405 405.192 39.2031 405.192C37.5818 405.192 36.0991 404.861 34.7551 404.2C33.4325 403.517 32.2805 402.621 31.2991 401.512C30.3178 400.381 29.5498 399.123 28.9951 397.736C28.4618 396.328 28.1951 394.909 28.1951 393.48ZM66.6766 405H62.3886V395.592C62.3886 394.291 62.1326 393.32 61.6206 392.68C61.13 392.04 60.4473 391.72 59.5726 391.72C59.0393 391.72 58.4846 391.869 57.9086 392.168C57.354 392.467 56.842 392.883 56.3726 393.416C55.9246 393.928 55.594 394.525 55.3806 395.208V405H51.0926V381.64H55.3806V391.336C55.9993 390.269 56.842 389.437 57.9086 388.84C58.9753 388.243 60.138 387.944 61.3966 387.944C62.826 387.944 63.9246 388.264 64.6926 388.904C65.4606 389.544 65.9833 390.365 66.2606 391.368C66.538 392.371 66.6766 393.427 66.6766 394.536V405ZM78.1811 405.32C76.3678 405.32 74.7998 404.925 73.4771 404.136C72.1758 403.347 71.1625 402.301 70.4371 401C69.7118 399.677 69.3491 398.248 69.3491 396.712C69.3491 395.133 69.7011 393.683 70.4051 392.36C71.1305 391.016 72.1545 389.949 73.4771 389.16C74.7998 388.349 76.3785 387.944 78.2131 387.944C80.0478 387.944 81.6158 388.349 82.9171 389.16C84.2185 389.949 85.2105 391.005 85.8931 392.328C86.5971 393.629 86.9491 395.037 86.9491 396.552C86.9491 397.107 86.9171 397.587 86.8531 397.992H73.8931C73.9998 399.293 74.4798 400.317 75.3331 401.064C76.2078 401.811 77.2105 402.184 78.3411 402.184C79.1945 402.184 79.9945 401.981 80.7411 401.576C81.5091 401.149 82.0318 400.595 82.3091 399.912L85.9891 400.936C85.3705 402.216 84.3785 403.272 83.0131 404.104C81.6478 404.915 80.0371 405.32 78.1811 405.32ZM73.7971 395.272H82.5651C82.4371 394.013 81.9571 393 81.1251 392.232C80.3145 391.443 79.3225 391.048 78.1491 391.048C76.9971 391.048 76.0051 391.443 75.1731 392.232C74.3625 393 73.9038 394.013 73.7971 395.272ZM88.4094 400.04C88.4094 398.952 88.708 398.003 89.3054 397.192C89.924 396.36 90.7774 395.72 91.8654 395.272C92.9534 394.824 94.2014 394.6 95.6094 394.6C96.3134 394.6 97.028 394.664 97.7534 394.792C98.4787 394.899 99.108 395.059 99.6414 395.272V394.376C99.6414 393.309 99.3214 392.488 98.6814 391.912C98.0627 391.336 97.1347 391.048 95.8974 391.048C94.98 391.048 94.1054 391.208 93.2734 391.528C92.4414 391.848 91.5667 392.317 90.6494 392.936L89.2734 390.12C90.3827 389.395 91.5134 388.851 92.6654 388.488C93.8387 388.125 95.0654 387.944 96.3454 387.944C98.7347 387.944 100.591 388.541 101.913 389.736C103.257 390.931 103.929 392.637 103.929 394.856V400.2C103.929 400.669 104.004 401 104.153 401.192C104.303 401.363 104.569 401.469 104.953 401.512V405C104.569 405.085 104.217 405.139 103.897 405.16C103.599 405.203 103.343 405.224 103.129 405.224C102.276 405.224 101.625 405.032 101.177 404.648C100.729 404.264 100.463 403.795 100.377 403.24L100.281 402.376C99.5347 403.336 98.6174 404.072 97.5294 404.584C96.4627 405.075 95.364 405.32 94.2334 405.32C93.1027 405.32 92.1 405.096 91.2254 404.648C90.3507 404.179 89.6574 403.549 89.1454 402.76C88.6547 401.949 88.4094 401.043 88.4094 400.04ZM98.8414 400.904C99.3747 400.392 99.6414 399.901 99.6414 399.432V397.736C98.532 397.288 97.412 397.064 96.2814 397.064C95.1507 397.064 94.2334 397.309 93.5294 397.8C92.8254 398.269 92.4734 398.899 92.4734 399.688C92.4734 400.328 92.7294 400.904 93.2414 401.416C93.7534 401.928 94.4894 402.184 95.4494 402.184C96.0894 402.184 96.708 402.067 97.3054 401.832C97.924 401.597 98.436 401.288 98.8414 400.904ZM117.984 405.32C116.662 405.32 115.51 405.021 114.528 404.424C113.547 403.827 112.779 403.037 112.224 402.056V411.816H107.936V388.232H111.68V391.112C112.299 390.131 113.099 389.363 114.08 388.808C115.083 388.232 116.214 387.944 117.472 387.944C118.987 387.944 120.331 388.339 121.504 389.128C122.678 389.896 123.606 390.941 124.288 392.264C124.971 393.565 125.312 395.005 125.312 396.584C125.312 398.227 124.992 399.709 124.352 401.032C123.734 402.333 122.87 403.379 121.76 404.168C120.672 404.936 119.414 405.32 117.984 405.32ZM116.544 401.672C117.419 401.672 118.176 401.437 118.816 400.968C119.478 400.477 119.99 399.848 120.352 399.08C120.736 398.291 120.928 397.459 120.928 396.584C120.928 395.645 120.726 394.803 120.32 394.056C119.915 393.288 119.36 392.691 118.656 392.264C117.974 391.816 117.184 391.592 116.288 391.592C115.478 391.592 114.667 391.859 113.856 392.392C113.046 392.925 112.502 393.597 112.224 394.408V398.344C112.608 399.283 113.195 400.072 113.984 400.712C114.774 401.352 115.627 401.672 116.544 401.672ZM135.994 405.32C134.18 405.32 132.612 404.925 131.29 404.136C129.988 403.347 128.975 402.301 128.25 401C127.524 399.677 127.162 398.248 127.162 396.712C127.162 395.133 127.514 393.683 128.218 392.36C128.943 391.016 129.967 389.949 131.29 389.16C132.612 388.349 134.191 387.944 136.026 387.944C137.86 387.944 139.428 388.349 140.73 389.16C142.031 389.949 143.023 391.005 143.706 392.328C144.41 393.629 144.762 395.037 144.762 396.552C144.762 397.107 144.73 397.587 144.666 397.992H131.706C131.812 399.293 132.292 400.317 133.146 401.064C134.02 401.811 135.023 402.184 136.154 402.184C137.007 402.184 137.807 401.981 138.554 401.576C139.322 401.149 139.844 400.595 140.122 399.912L143.802 400.936C143.183 402.216 142.191 403.272 140.826 404.104C139.46 404.915 137.85 405.32 135.994 405.32ZM131.61 395.272H140.378C140.25 394.013 139.77 393 138.938 392.232C138.127 391.443 137.135 391.048 135.962 391.048C134.81 391.048 133.818 391.443 132.986 392.232C132.175 393 131.716 394.013 131.61 395.272ZM157.358 391.944C156.057 391.944 154.894 392.2 153.87 392.712C152.846 393.203 152.11 393.917 151.662 394.856V405H147.374V388.232H151.31V391.816C151.886 390.664 152.633 389.757 153.55 389.096C154.489 388.435 155.47 388.072 156.494 388.008C156.942 388.008 157.23 388.019 157.358 388.04V391.944Z" fill="#A177B4"/>
<path opacity="0.33" d="M28.1951 427.48C28.1951 426.093 28.4405 424.728 28.9311 423.384C29.4431 422.04 30.1791 420.824 31.1391 419.736C32.0991 418.648 33.2725 417.784 34.6591 417.144C36.0458 416.483 37.6245 416.152 39.3951 416.152C41.4645 416.152 43.2671 416.611 44.8031 417.528C46.3391 418.445 47.4805 419.64 48.2271 421.112L44.8351 423.448C44.4511 422.595 43.9498 421.923 43.3311 421.432C42.7125 420.941 42.0405 420.589 41.3151 420.376C40.6111 420.163 39.9285 420.056 39.2671 420.056C38.1578 420.056 37.1871 420.28 36.3551 420.728C35.5445 421.176 34.8618 421.763 34.3071 422.488C33.7525 423.213 33.3365 424.024 33.0591 424.92C32.8031 425.816 32.6751 426.712 32.6751 427.608C32.6751 428.952 32.9525 430.211 33.5071 431.384C34.0618 432.536 34.8405 433.475 35.8431 434.2C36.8458 434.925 38.0085 435.288 39.3311 435.288C40.0138 435.288 40.7178 435.171 41.4431 434.936C42.1898 434.701 42.8725 434.328 43.4911 433.816C44.1098 433.304 44.5898 432.643 44.9311 431.832L48.5471 433.912C48.0778 435.043 47.3418 436.003 46.3391 436.792C45.3365 437.56 44.2058 438.157 42.9471 438.584C41.6885 438.989 40.4405 439.192 39.2031 439.192C37.5818 439.192 36.0991 438.861 34.7551 438.2C33.4325 437.517 32.2805 436.621 31.2991 435.512C30.3178 434.381 29.5498 433.123 28.9951 431.736C28.4618 430.328 28.1951 428.909 28.1951 427.48ZM66.6766 439H62.3886V429.592C62.3886 428.291 62.1326 427.32 61.6206 426.68C61.13 426.04 60.4473 425.72 59.5726 425.72C59.0393 425.72 58.4846 425.869 57.9086 426.168C57.354 426.467 56.842 426.883 56.3726 427.416C55.9246 427.928 55.594 428.525 55.3806 429.208V439H51.0926V415.64H55.3806V425.336C55.9993 424.269 56.842 423.437 57.9086 422.84C58.9753 422.243 60.138 421.944 61.3966 421.944C62.826 421.944 63.9246 422.264 64.6926 422.904C65.4606 423.544 65.9833 424.365 66.2606 425.368C66.538 426.371 66.6766 427.427 66.6766 428.536V439ZM78.1811 439.32C76.3678 439.32 74.7998 438.925 73.4771 438.136C72.1758 437.347 71.1625 436.301 70.4371 435C69.7118 433.677 69.3491 432.248 69.3491 430.712C69.3491 429.133 69.7011 427.683 70.4051 426.36C71.1305 425.016 72.1545 423.949 73.4771 423.16C74.7998 422.349 76.3785 421.944 78.2131 421.944C80.0478 421.944 81.6158 422.349 82.9171 423.16C84.2185 423.949 85.2105 425.005 85.8931 426.328C86.5971 427.629 86.9491 429.037 86.9491 430.552C86.9491 431.107 86.9171 431.587 86.8531 431.992H73.8931C73.9998 433.293 74.4798 434.317 75.3331 435.064C76.2078 435.811 77.2105 436.184 78.3411 436.184C79.1945 436.184 79.9945 435.981 80.7411 435.576C81.5091 435.149 82.0318 434.595 82.3091 433.912L85.9891 434.936C85.3705 436.216 84.3785 437.272 83.0131 438.104C81.6478 438.915 80.0371 439.32 78.1811 439.32ZM73.7971 429.272H82.5651C82.4371 428.013 81.9571 427 81.1251 426.232C80.3145 425.443 79.3225 425.048 78.1491 425.048C76.9971 425.048 76.0051 425.443 75.1731 426.232C74.3625 427 73.9038 428.013 73.7971 429.272ZM88.4094 434.04C88.4094 432.952 88.708 432.003 89.3054 431.192C89.924 430.36 90.7774 429.72 91.8654 429.272C92.9534 428.824 94.2014 428.6 95.6094 428.6C96.3134 428.6 97.028 428.664 97.7534 428.792C98.4787 428.899 99.108 429.059 99.6414 429.272V428.376C99.6414 427.309 99.3214 426.488 98.6814 425.912C98.0627 425.336 97.1347 425.048 95.8974 425.048C94.98 425.048 94.1054 425.208 93.2734 425.528C92.4414 425.848 91.5667 426.317 90.6494 426.936L89.2734 424.12C90.3827 423.395 91.5134 422.851 92.6654 422.488C93.8387 422.125 95.0654 421.944 96.3454 421.944C98.7347 421.944 100.591 422.541 101.913 423.736C103.257 424.931 103.929 426.637 103.929 428.856V434.2C103.929 434.669 104.004 435 104.153 435.192C104.303 435.363 104.569 435.469 104.953 435.512V439C104.569 439.085 104.217 439.139 103.897 439.16C103.599 439.203 103.343 439.224 103.129 439.224C102.276 439.224 101.625 439.032 101.177 438.648C100.729 438.264 100.463 437.795 100.377 437.24L100.281 436.376C99.5347 437.336 98.6174 438.072 97.5294 438.584C96.4627 439.075 95.364 439.32 94.2334 439.32C93.1027 439.32 92.1 439.096 91.2254 438.648C90.3507 438.179 89.6574 437.549 89.1454 436.76C88.6547 435.949 88.4094 435.043 88.4094 434.04ZM98.8414 434.904C99.3747 434.392 99.6414 433.901 99.6414 433.432V431.736C98.532 431.288 97.412 431.064 96.2814 431.064C95.1507 431.064 94.2334 431.309 93.5294 431.8C92.8254 432.269 92.4734 432.899 92.4734 433.688C92.4734 434.328 92.7294 434.904 93.2414 435.416C93.7534 435.928 94.4894 436.184 95.4494 436.184C96.0894 436.184 96.708 436.067 97.3054 435.832C97.924 435.597 98.436 435.288 98.8414 434.904ZM117.984 439.32C116.662 439.32 115.51 439.021 114.528 438.424C113.547 437.827 112.779 437.037 112.224 436.056V445.816H107.936V422.232H111.68V425.112C112.299 424.131 113.099 423.363 114.08 422.808C115.083 422.232 116.214 421.944 117.472 421.944C118.987 421.944 120.331 422.339 121.504 423.128C122.678 423.896 123.606 424.941 124.288 426.264C124.971 427.565 125.312 429.005 125.312 430.584C125.312 432.227 124.992 433.709 124.352 435.032C123.734 436.333 122.87 437.379 121.76 438.168C120.672 438.936 119.414 439.32 117.984 439.32ZM116.544 435.672C117.419 435.672 118.176 435.437 118.816 434.968C119.478 434.477 119.99 433.848 120.352 433.08C120.736 432.291 120.928 431.459 120.928 430.584C120.928 429.645 120.726 428.803 120.32 428.056C119.915 427.288 119.36 426.691 118.656 426.264C117.974 425.816 117.184 425.592 116.288 425.592C115.478 425.592 114.667 425.859 113.856 426.392C113.046 426.925 112.502 427.597 112.224 428.408V432.344C112.608 433.283 113.195 434.072 113.984 434.712C114.774 435.352 115.627 435.672 116.544 435.672ZM135.994 439.32C134.18 439.32 132.612 438.925 131.29 438.136C129.988 437.347 128.975 436.301 128.25 435C127.524 433.677 127.162 432.248 127.162 430.712C127.162 429.133 127.514 427.683 128.218 426.36C128.943 425.016 129.967 423.949 131.29 423.16C132.612 422.349 134.191 421.944 136.026 421.944C137.86 421.944 139.428 422.349 140.73 423.16C142.031 423.949 143.023 425.005 143.706 426.328C144.41 427.629 144.762 429.037 144.762 430.552C144.762 431.107 144.73 431.587 144.666 431.992H131.706C131.812 433.293 132.292 434.317 133.146 435.064C134.02 435.811 135.023 436.184 136.154 436.184C137.007 436.184 137.807 435.981 138.554 435.576C139.322 435.149 139.844 434.595 140.122 433.912L143.802 434.936C143.183 436.216 142.191 437.272 140.826 438.104C139.46 438.915 137.85 439.32 135.994 439.32ZM131.61 429.272H140.378C140.25 428.013 139.77 427 138.938 426.232C138.127 425.443 137.135 425.048 135.962 425.048C134.81 425.048 133.818 425.443 132.986 426.232C132.175 427 131.716 428.013 131.61 429.272ZM157.358 425.944C156.057 425.944 154.894 426.2 153.87 426.712C152.846 427.203 152.11 427.917 151.662 428.856V439H147.374V422.232H151.31V425.816C151.886 424.664 152.633 423.757 153.55 423.096C154.489 422.435 155.47 422.072 156.494 422.008C156.942 422.008 157.23 422.019 157.358 422.04V425.944Z" fill="#A177B4"/>
<g filter="url(#filter0_d)">
<rect x="175" y="134" width="342" height="529" rx="32" fill="white"/>
</g>
<path d="M222.778 174.928H227.13L229.884 182.918L232.672 174.928H236.99L232.842 185.91L235.902 193.594L242.736 174.86H247.836L238.18 199H234.134L229.884 188.868L225.668 199H221.622L212 174.86H217.032L223.9 193.594L226.892 185.91L222.778 174.928ZM266.425 199H261.869V189.004C261.869 187.621 261.597 186.59 261.053 185.91C260.532 185.23 259.806 184.89 258.877 184.89C258.31 184.89 257.721 185.049 257.109 185.366C256.52 185.683 255.976 186.125 255.477 186.692C255.001 187.236 254.65 187.871 254.423 188.596V199H249.867V174.18H254.423V184.482C255.08 183.349 255.976 182.465 257.109 181.83C258.242 181.195 259.478 180.878 260.815 180.878C262.334 180.878 263.501 181.218 264.317 181.898C265.133 182.578 265.688 183.451 265.983 184.516C266.278 185.581 266.425 186.703 266.425 187.882V199ZM278.615 199.34C276.665 199.34 274.988 198.921 273.583 198.082C272.2 197.221 271.135 196.087 270.387 194.682C269.639 193.277 269.265 191.758 269.265 190.126C269.265 188.471 269.639 186.941 270.387 185.536C271.157 184.131 272.234 183.009 273.617 182.17C275.022 181.309 276.688 180.878 278.615 180.878C280.541 180.878 282.196 181.309 283.579 182.17C284.984 183.009 286.061 184.131 286.809 185.536C287.557 186.941 287.931 188.471 287.931 190.126C287.931 191.758 287.557 193.277 286.809 194.682C286.061 196.087 284.984 197.221 283.579 198.082C282.196 198.921 280.541 199.34 278.615 199.34ZM273.957 190.126C273.957 191.169 274.161 192.098 274.569 192.914C274.977 193.707 275.532 194.331 276.235 194.784C276.937 195.237 277.731 195.464 278.615 195.464C279.476 195.464 280.258 195.237 280.961 194.784C281.663 194.308 282.219 193.673 282.627 192.88C283.057 192.064 283.273 191.135 283.273 190.092C283.273 189.072 283.057 188.165 282.627 187.372C282.219 186.556 281.663 185.921 280.961 185.468C280.258 184.992 279.476 184.754 278.615 184.754C277.731 184.754 276.937 184.992 276.235 185.468C275.532 185.921 274.977 186.556 274.569 187.372C274.161 188.165 273.957 189.083 273.957 190.126ZM290.972 174.18H295.528V193.288C295.528 194.127 295.664 194.682 295.936 194.954C296.208 195.226 296.582 195.362 297.058 195.362C297.42 195.362 297.794 195.317 298.18 195.226C298.565 195.135 298.905 195.022 299.2 194.886L299.812 198.354C299.2 198.649 298.486 198.875 297.67 199.034C296.854 199.193 296.117 199.272 295.46 199.272C294.032 199.272 292.921 198.898 292.128 198.15C291.357 197.379 290.972 196.291 290.972 194.886V174.18ZM310.059 199.34C308.132 199.34 306.466 198.921 305.061 198.082C303.678 197.243 302.601 196.133 301.831 194.75C301.06 193.345 300.675 191.826 300.675 190.194C300.675 188.517 301.049 186.975 301.797 185.57C302.567 184.142 303.655 183.009 305.061 182.17C306.466 181.309 308.143 180.878 310.093 180.878C312.042 180.878 313.708 181.309 315.091 182.17C316.473 183.009 317.527 184.131 318.253 185.536C319.001 186.919 319.375 188.415 319.375 190.024C319.375 190.613 319.341 191.123 319.273 191.554H305.503C305.616 192.937 306.126 194.025 307.033 194.818C307.962 195.611 309.027 196.008 310.229 196.008C311.135 196.008 311.985 195.793 312.779 195.362C313.595 194.909 314.15 194.319 314.445 193.594L318.355 194.682C317.697 196.042 316.643 197.164 315.193 198.048C313.742 198.909 312.031 199.34 310.059 199.34ZM305.401 188.664H314.717C314.581 187.327 314.071 186.25 313.187 185.434C312.325 184.595 311.271 184.176 310.025 184.176C308.801 184.176 307.747 184.595 306.863 185.434C306.001 186.25 305.514 187.327 305.401 188.664ZM328.712 199.34C327.194 199.34 325.743 199.091 324.36 198.592C322.978 198.093 321.788 197.357 320.79 196.382L322.422 193.424C323.488 194.285 324.53 194.92 325.55 195.328C326.57 195.736 327.568 195.94 328.542 195.94C329.426 195.94 330.129 195.781 330.65 195.464C331.194 195.147 331.466 194.671 331.466 194.036C331.466 193.379 331.138 192.937 330.48 192.71C329.823 192.461 328.905 192.155 327.726 191.792C326.412 191.384 325.312 190.965 324.428 190.534C323.544 190.103 322.876 189.582 322.422 188.97C321.992 188.358 321.776 187.565 321.776 186.59C321.776 184.845 322.434 183.451 323.748 182.408C325.063 181.365 326.808 180.844 328.984 180.844C330.254 180.844 331.455 181.048 332.588 181.456C333.722 181.841 334.753 182.476 335.682 183.36L333.846 186.25C332.101 184.89 330.412 184.21 328.78 184.21C328.055 184.21 327.409 184.346 326.842 184.618C326.298 184.89 326.026 185.366 326.026 186.046C326.026 186.681 326.287 187.134 326.808 187.406C327.352 187.678 328.168 187.973 329.256 188.29C330.662 188.721 331.852 189.14 332.826 189.548C333.824 189.956 334.572 190.477 335.07 191.112C335.592 191.747 335.852 192.608 335.852 193.696C335.852 195.464 335.206 196.847 333.914 197.844C332.622 198.841 330.888 199.34 328.712 199.34ZM337.727 193.73C337.727 192.574 338.044 191.565 338.679 190.704C339.336 189.82 340.243 189.14 341.399 188.664C342.555 188.188 343.881 187.95 345.377 187.95C346.125 187.95 346.884 188.018 347.655 188.154C348.426 188.267 349.094 188.437 349.661 188.664V187.712C349.661 186.579 349.321 185.706 348.641 185.094C347.984 184.482 346.998 184.176 345.683 184.176C344.708 184.176 343.779 184.346 342.895 184.686C342.011 185.026 341.082 185.525 340.107 186.182L338.645 183.19C339.824 182.419 341.025 181.841 342.249 181.456C343.496 181.071 344.799 180.878 346.159 180.878C348.698 180.878 350.67 181.513 352.075 182.782C353.503 184.051 354.217 185.865 354.217 188.222V193.9C354.217 194.399 354.296 194.75 354.455 194.954C354.614 195.135 354.897 195.249 355.305 195.294V199C354.897 199.091 354.523 199.147 354.183 199.17C353.866 199.215 353.594 199.238 353.367 199.238C352.46 199.238 351.769 199.034 351.293 198.626C350.817 198.218 350.534 197.719 350.443 197.13L350.341 196.212C349.548 197.232 348.573 198.014 347.417 198.558C346.284 199.079 345.116 199.34 343.915 199.34C342.714 199.34 341.648 199.102 340.719 198.626C339.79 198.127 339.053 197.459 338.509 196.62C337.988 195.759 337.727 194.795 337.727 193.73ZM348.811 194.648C349.378 194.104 349.661 193.583 349.661 193.084V191.282C348.482 190.806 347.292 190.568 346.091 190.568C344.89 190.568 343.915 190.829 343.167 191.35C342.419 191.849 342.045 192.517 342.045 193.356C342.045 194.036 342.317 194.648 342.861 195.192C343.405 195.736 344.187 196.008 345.207 196.008C345.887 196.008 346.544 195.883 347.179 195.634C347.836 195.385 348.38 195.056 348.811 194.648ZM358.44 174.18H362.996V193.288C362.996 194.127 363.132 194.682 363.404 194.954C363.676 195.226 364.05 195.362 364.526 195.362C364.889 195.362 365.263 195.317 365.648 195.226C366.034 195.135 366.374 195.022 366.668 194.886L367.28 198.354C366.668 198.649 365.954 198.875 365.138 199.034C364.322 199.193 363.586 199.272 362.928 199.272C361.5 199.272 360.39 198.898 359.596 198.15C358.826 197.379 358.44 196.291 358.44 194.886V174.18ZM377.527 199.34C375.601 199.34 373.935 198.921 372.529 198.082C371.147 197.243 370.07 196.133 369.299 194.75C368.529 193.345 368.143 191.826 368.143 190.194C368.143 188.517 368.517 186.975 369.265 185.57C370.036 184.142 371.124 183.009 372.529 182.17C373.935 181.309 375.612 180.878 377.561 180.878C379.511 180.878 381.177 181.309 382.559 182.17C383.942 183.009 384.996 184.131 385.721 185.536C386.469 186.919 386.843 188.415 386.843 190.024C386.843 190.613 386.809 191.123 386.741 191.554H372.971C373.085 192.937 373.595 194.025 374.501 194.818C375.431 195.611 376.496 196.008 377.697 196.008C378.604 196.008 379.454 195.793 380.247 195.362C381.063 194.909 381.619 194.319 381.913 193.594L385.823 194.682C385.166 196.042 384.112 197.164 382.661 198.048C381.211 198.909 379.499 199.34 377.527 199.34ZM372.869 188.664H382.185C382.049 187.327 381.539 186.25 380.655 185.434C379.794 184.595 378.74 184.176 377.493 184.176C376.269 184.176 375.215 184.595 374.331 185.434C373.47 186.25 372.983 187.327 372.869 188.664ZM398.229 199V174.86H408.463C409.574 174.86 410.594 175.087 411.523 175.54C412.475 175.993 413.291 176.605 413.971 177.376C414.651 178.147 415.184 179.008 415.569 179.96C415.954 180.912 416.147 181.887 416.147 182.884C416.147 184.244 415.83 185.536 415.195 186.76C414.56 187.984 413.676 188.981 412.543 189.752C411.432 190.523 410.129 190.908 408.633 190.908H402.921V199H398.229ZM402.921 186.794H408.361C409.222 186.794 409.936 186.443 410.503 185.74C411.092 185.015 411.387 184.063 411.387 182.884C411.387 181.637 411.058 180.674 410.401 179.994C409.744 179.314 408.996 178.974 408.157 178.974H402.921V186.794ZM429.578 185.128C428.196 185.128 426.96 185.4 425.872 185.944C424.784 186.465 424.002 187.225 423.526 188.222V199H418.97V181.184H423.152V184.992C423.764 183.768 424.558 182.805 425.532 182.102C426.53 181.399 427.572 181.014 428.66 180.946C429.136 180.946 429.442 180.957 429.578 180.98V185.128ZM432.119 178.702V174.18H436.675V178.702H432.119ZM432.119 199V181.184H436.675V199H432.119ZM449.081 199.34C447.154 199.34 445.488 198.909 444.083 198.048C442.678 197.187 441.59 196.053 440.819 194.648C440.048 193.243 439.663 191.724 439.663 190.092C439.663 188.437 440.037 186.907 440.785 185.502C441.556 184.097 442.644 182.975 444.049 182.136C445.454 181.297 447.12 180.878 449.047 180.878C450.996 180.878 452.651 181.297 454.011 182.136C455.394 182.975 456.425 184.074 457.105 185.434L452.651 186.794C451.858 185.434 450.645 184.754 449.013 184.754C448.129 184.754 447.336 184.981 446.633 185.434C445.93 185.865 445.375 186.488 444.967 187.304C444.559 188.097 444.355 189.027 444.355 190.092C444.355 191.135 444.559 192.064 444.967 192.88C445.398 193.673 445.964 194.308 446.667 194.784C447.37 195.237 448.152 195.464 449.013 195.464C449.829 195.464 450.577 195.271 451.257 194.886C451.96 194.478 452.447 193.968 452.719 193.356L457.173 194.716C456.561 196.053 455.541 197.164 454.113 198.048C452.708 198.909 451.03 199.34 449.081 199.34ZM468.072 199.34C466.146 199.34 464.48 198.921 463.074 198.082C461.692 197.243 460.615 196.133 459.844 194.75C459.074 193.345 458.688 191.826 458.688 190.194C458.688 188.517 459.062 186.975 459.81 185.57C460.581 184.142 461.669 183.009 463.074 182.17C464.48 181.309 466.157 180.878 468.106 180.878C470.056 180.878 471.722 181.309 473.104 182.17C474.487 183.009 475.541 184.131 476.266 185.536C477.014 186.919 477.388 188.415 477.388 190.024C477.388 190.613 477.354 191.123 477.286 191.554H463.516C463.63 192.937 464.14 194.025 465.046 194.818C465.976 195.611 467.041 196.008 468.242 196.008C469.149 196.008 469.999 195.793 470.792 195.362C471.608 194.909 472.164 194.319 472.458 193.594L476.368 194.682C475.711 196.042 474.657 197.164 473.206 198.048C471.756 198.909 470.044 199.34 468.072 199.34ZM463.414 188.664H472.73C472.594 187.327 472.084 186.25 471.2 185.434C470.339 184.595 469.285 184.176 468.038 184.176C466.814 184.176 465.76 184.595 464.876 185.434C464.015 186.25 463.528 187.327 463.414 188.664Z" fill="#333333"/>
<path d="M218 220.5H476.5" stroke="#D5D5D5" stroke-width="3" stroke-linecap="round"/>
<path d="M259.52 248.864H254.072V263H250.784V248.864H245.336V245.96H259.52V248.864ZM261.323 248.672V245.48H264.539V248.672H261.323ZM261.323 263V250.424H264.539V263H261.323ZM273.273 263.24C271.913 263.24 270.737 262.944 269.745 262.352C268.769 261.76 268.009 260.976 267.465 260C266.921 259.008 266.649 257.936 266.649 256.784C266.649 255.6 266.913 254.512 267.441 253.52C267.985 252.512 268.753 251.712 269.745 251.12C270.737 250.512 271.921 250.208 273.297 250.208C274.673 250.208 275.849 250.512 276.825 251.12C277.801 251.712 278.545 252.504 279.057 253.496C279.585 254.472 279.849 255.528 279.849 256.664C279.849 257.08 279.825 257.44 279.777 257.744H270.057C270.137 258.72 270.497 259.488 271.137 260.048C271.793 260.608 272.545 260.888 273.393 260.888C274.033 260.888 274.633 260.736 275.193 260.432C275.769 260.112 276.161 259.696 276.369 259.184L279.129 259.952C278.665 260.912 277.921 261.704 276.897 262.328C275.873 262.936 274.665 263.24 273.273 263.24ZM269.985 255.704H276.561C276.465 254.76 276.105 254 275.481 253.424C274.873 252.832 274.129 252.536 273.249 252.536C272.385 252.536 271.641 252.832 271.017 253.424C270.409 254 270.065 254.76 269.985 255.704ZM289.296 253.208C288.32 253.208 287.448 253.4 286.68 253.784C285.912 254.152 285.36 254.688 285.024 255.392V263H281.808V250.424H284.76V253.112C285.192 252.248 285.752 251.568 286.44 251.072C287.144 250.576 287.88 250.304 288.648 250.256C288.984 250.256 289.2 250.264 289.296 250.28V253.208ZM306.084 260.096V263H296.436V260.096H299.748V249.008C299.572 249.248 299.26 249.536 298.812 249.872C298.364 250.192 297.868 250.472 297.324 250.712C296.796 250.952 296.316 251.072 295.884 251.072V248.096C296.3 248.096 296.732 247.984 297.18 247.76C297.628 247.536 298.044 247.28 298.428 246.992C298.812 246.688 299.124 246.424 299.364 246.2C299.62 245.96 299.748 245.824 299.748 245.792H303.036V260.096H306.084Z" fill="#A177B4"/>
<path d="M230.294 302.11C229.15 302.11 228.109 301.89 227.17 301.45C226.246 300.995 225.447 300.394 224.772 299.646C224.112 298.898 223.599 298.055 223.232 297.116C222.865 296.163 222.682 295.187 222.682 294.19C222.682 293.149 222.873 292.159 223.254 291.22C223.635 290.267 224.171 289.423 224.86 288.69C225.549 287.942 226.356 287.355 227.28 286.93C228.219 286.49 229.245 286.27 230.36 286.27C231.489 286.27 232.516 286.497 233.44 286.952C234.379 287.407 235.178 288.015 235.838 288.778C236.513 289.541 237.026 290.399 237.378 291.352C237.745 292.291 237.928 293.251 237.928 294.234C237.928 295.231 237.745 296.199 237.378 297.138C237.026 298.062 236.527 298.883 235.882 299.602L238.016 302H235.156L234.232 300.988C233.675 301.34 233.059 301.619 232.384 301.824C231.724 302.015 231.027 302.11 230.294 302.11ZM230.316 299.426C230.712 299.426 231.079 299.382 231.416 299.294C231.768 299.191 232.091 299.059 232.384 298.898L230.008 296.214H232.868L233.946 297.424C234.239 296.955 234.467 296.441 234.628 295.884C234.789 295.327 234.87 294.762 234.87 294.19C234.87 293.281 234.687 292.43 234.32 291.638C233.953 290.846 233.425 290.201 232.736 289.702C232.061 289.203 231.255 288.954 230.316 288.954C229.333 288.954 228.505 289.211 227.83 289.724C227.155 290.237 226.642 290.897 226.29 291.704C225.938 292.511 225.762 293.339 225.762 294.19C225.762 295.099 225.938 295.95 226.29 296.742C226.657 297.534 227.177 298.179 227.852 298.678C228.541 299.177 229.363 299.426 230.316 299.426ZM239.839 297.688V290.472H242.787V297.05C242.787 298.825 243.425 299.712 244.701 299.712C245.273 299.712 245.823 299.543 246.351 299.206C246.894 298.854 247.334 298.326 247.671 297.622V290.472H250.619V298.7C250.619 299.023 250.671 299.25 250.773 299.382C250.876 299.499 251.059 299.573 251.323 299.602V302C251.03 302.059 250.781 302.095 250.575 302.11C250.385 302.125 250.209 302.132 250.047 302.132C249.519 302.132 249.087 302.015 248.749 301.78C248.427 301.531 248.236 301.193 248.177 300.768L248.111 299.844C247.598 300.636 246.938 301.23 246.131 301.626C245.325 302.022 244.437 302.22 243.469 302.22C242.281 302.22 241.379 301.839 240.763 301.076C240.147 300.299 239.839 299.169 239.839 297.688ZM252.757 298.59C252.757 297.842 252.962 297.189 253.373 296.632C253.798 296.06 254.385 295.62 255.133 295.312C255.881 295.004 256.739 294.85 257.707 294.85C258.191 294.85 258.682 294.894 259.181 294.982C259.68 295.055 260.112 295.165 260.479 295.312V294.696C260.479 293.963 260.259 293.398 259.819 293.002C259.394 292.606 258.756 292.408 257.905 292.408C257.274 292.408 256.673 292.518 256.101 292.738C255.529 292.958 254.928 293.281 254.297 293.706L253.351 291.77C254.114 291.271 254.891 290.897 255.683 290.648C256.49 290.399 257.333 290.274 258.213 290.274C259.856 290.274 261.132 290.685 262.041 291.506C262.965 292.327 263.427 293.501 263.427 295.026V298.7C263.427 299.023 263.478 299.25 263.581 299.382C263.684 299.499 263.867 299.573 264.131 299.602V302C263.867 302.059 263.625 302.095 263.405 302.11C263.2 302.139 263.024 302.154 262.877 302.154C262.29 302.154 261.843 302.022 261.535 301.758C261.227 301.494 261.044 301.171 260.985 300.79L260.919 300.196C260.406 300.856 259.775 301.362 259.027 301.714C258.294 302.051 257.538 302.22 256.761 302.22C255.984 302.22 255.294 302.066 254.693 301.758C254.092 301.435 253.615 301.003 253.263 300.46C252.926 299.903 252.757 299.279 252.757 298.59ZM259.929 299.184C260.296 298.832 260.479 298.495 260.479 298.172V297.006C259.716 296.698 258.946 296.544 258.169 296.544C257.392 296.544 256.761 296.713 256.277 297.05C255.793 297.373 255.551 297.805 255.551 298.348C255.551 298.788 255.727 299.184 256.079 299.536C256.431 299.888 256.937 300.064 257.597 300.064C258.037 300.064 258.462 299.983 258.873 299.822C259.298 299.661 259.65 299.448 259.929 299.184ZM276.896 302H273.948V295.532C273.948 294.608 273.787 293.933 273.464 293.508C273.141 293.083 272.694 292.87 272.122 292.87C271.726 292.87 271.323 292.973 270.912 293.178C270.516 293.383 270.157 293.669 269.834 294.036C269.511 294.388 269.277 294.799 269.13 295.268V302H266.182V290.472H268.844V292.606C269.269 291.887 269.885 291.323 270.692 290.912C271.499 290.487 272.408 290.274 273.42 290.274C274.139 290.274 274.725 290.406 275.18 290.67C275.635 290.919 275.987 291.264 276.236 291.704C276.485 292.129 276.654 292.613 276.742 293.156C276.845 293.699 276.896 294.249 276.896 294.806V302ZM286.303 301.406C285.907 301.582 285.415 301.758 284.829 301.934C284.257 302.11 283.663 302.198 283.047 302.198C282.504 302.198 282.005 302.103 281.551 301.912C281.096 301.721 280.729 301.421 280.451 301.01C280.187 300.585 280.055 300.035 280.055 299.36V292.738H278.537V290.472H280.055V286.732H283.003V290.472H285.423V292.738H283.003V298.37C283.003 298.766 283.105 299.052 283.311 299.228C283.531 299.404 283.795 299.492 284.103 299.492C284.411 299.492 284.711 299.441 285.005 299.338C285.298 299.235 285.533 299.147 285.709 299.074L286.303 301.406ZM287.838 288.866V285.94H290.786V288.866H287.838ZM287.838 302V290.472H290.786V302H287.838ZM300.354 301.406C299.958 301.582 299.466 301.758 298.88 301.934C298.308 302.11 297.714 302.198 297.098 302.198C296.555 302.198 296.056 302.103 295.602 301.912C295.147 301.721 294.78 301.421 294.502 301.01C294.238 300.585 294.106 300.035 294.106 299.36V292.738H292.588V290.472H294.106V286.732H297.054V290.472H299.474V292.738H297.054V298.37C297.054 298.766 297.156 299.052 297.362 299.228C297.582 299.404 297.846 299.492 298.154 299.492C298.462 299.492 298.762 299.441 299.056 299.338C299.349 299.235 299.584 299.147 299.76 299.074L300.354 301.406ZM302.088 304.244C302.631 304.391 303.071 304.464 303.408 304.464C303.804 304.464 304.119 304.295 304.354 303.958C304.603 303.635 304.882 302.983 305.19 302L300.636 290.472H303.694L306.796 298.986L309.524 290.472H312.34L307.5 304.288C307.236 305.08 306.759 305.733 306.07 306.246C305.395 306.774 304.559 307.038 303.562 307.038C303.078 307.038 302.587 306.957 302.088 306.796V304.244Z" fill="#333333"/>
<path d="M230.25 340.11C229.003 340.11 227.94 339.905 227.06 339.494C226.195 339.069 225.491 338.489 224.948 337.756C224.42 337.023 224.031 336.194 223.782 335.27C223.533 334.331 223.408 333.356 223.408 332.344V324.38H226.444V332.344C226.444 333.209 226.561 334.031 226.796 334.808C227.031 335.585 227.427 336.216 227.984 336.7C228.541 337.184 229.289 337.426 230.228 337.426C231.196 337.426 231.959 337.184 232.516 336.7C233.073 336.201 233.469 335.563 233.704 334.786C233.939 334.009 234.056 333.195 234.056 332.344V324.38H237.07V332.344C237.07 333.415 236.938 334.419 236.674 335.358C236.425 336.297 236.021 337.125 235.464 337.844C234.921 338.548 234.217 339.105 233.352 339.516C232.487 339.912 231.453 340.11 230.25 340.11ZM250.363 340H247.415V333.532C247.415 332.608 247.253 331.933 246.931 331.508C246.608 331.083 246.161 330.87 245.589 330.87C245.193 330.87 244.789 330.973 244.379 331.178C243.983 331.383 243.623 331.669 243.301 332.036C242.978 332.388 242.743 332.799 242.597 333.268V340H239.649V328.472H242.311V330.606C242.736 329.887 243.352 329.323 244.159 328.912C244.965 328.487 245.875 328.274 246.887 328.274C247.605 328.274 248.192 328.406 248.647 328.67C249.101 328.919 249.453 329.264 249.703 329.704C249.952 330.129 250.121 330.613 250.209 331.156C250.311 331.699 250.363 332.249 250.363 332.806V340ZM252.926 326.866V323.94H255.874V326.866H252.926ZM252.926 340V328.472H255.874V340H252.926ZM265.441 339.406C265.045 339.582 264.554 339.758 263.967 339.934C263.395 340.11 262.801 340.198 262.185 340.198C261.643 340.198 261.144 340.103 260.689 339.912C260.235 339.721 259.868 339.421 259.589 339.01C259.325 338.585 259.193 338.035 259.193 337.36V330.738H257.675V328.472H259.193V324.732H262.141V328.472H264.561V330.738H262.141V336.37C262.141 336.766 262.244 337.052 262.449 337.228C262.669 337.404 262.933 337.492 263.241 337.492C263.549 337.492 263.85 337.441 264.143 337.338C264.437 337.235 264.671 337.147 264.847 337.074L265.441 339.406ZM272.548 340V324.38H279.17C279.889 324.38 280.549 324.527 281.15 324.82C281.766 325.113 282.294 325.509 282.734 326.008C283.174 326.507 283.519 327.064 283.768 327.68C284.017 328.296 284.142 328.927 284.142 329.572C284.142 330.452 283.937 331.288 283.526 332.08C283.115 332.872 282.543 333.517 281.81 334.016C281.091 334.515 280.248 334.764 279.28 334.764H275.584V340H272.548ZM275.584 332.102H279.104C279.661 332.102 280.123 331.875 280.49 331.42C280.871 330.951 281.062 330.335 281.062 329.572C281.062 328.765 280.849 328.142 280.424 327.702C279.999 327.262 279.515 327.042 278.972 327.042H275.584V332.102ZM292.833 331.024C291.938 331.024 291.139 331.2 290.435 331.552C289.731 331.889 289.225 332.381 288.917 333.026V340H285.969V328.472H288.675V330.936C289.071 330.144 289.584 329.521 290.215 329.066C290.86 328.611 291.535 328.362 292.239 328.318C292.547 328.318 292.745 328.325 292.833 328.34V331.024ZM294.477 326.866V323.94H297.425V326.866H294.477ZM294.477 340V328.472H297.425V340H294.477ZM305.452 340.22C304.206 340.22 303.128 339.941 302.218 339.384C301.309 338.827 300.605 338.093 300.106 337.184C299.608 336.275 299.358 335.292 299.358 334.236C299.358 333.165 299.6 332.175 300.084 331.266C300.583 330.357 301.287 329.631 302.196 329.088C303.106 328.545 304.184 328.274 305.43 328.274C306.692 328.274 307.762 328.545 308.642 329.088C309.537 329.631 310.204 330.342 310.644 331.222L307.762 332.102C307.249 331.222 306.464 330.782 305.408 330.782C304.836 330.782 304.323 330.929 303.868 331.222C303.414 331.501 303.054 331.904 302.79 332.432C302.526 332.945 302.394 333.547 302.394 334.236C302.394 334.911 302.526 335.512 302.79 336.04C303.069 336.553 303.436 336.964 303.89 337.272C304.345 337.565 304.851 337.712 305.408 337.712C305.936 337.712 306.42 337.587 306.86 337.338C307.315 337.074 307.63 336.744 307.806 336.348L310.688 337.228C310.292 338.093 309.632 338.812 308.708 339.384C307.799 339.941 306.714 340.22 305.452 340.22ZM317.741 340.22C316.494 340.22 315.416 339.949 314.507 339.406C313.612 338.863 312.915 338.145 312.417 337.25C311.918 336.341 311.669 335.358 311.669 334.302C311.669 333.217 311.911 332.219 312.395 331.31C312.893 330.386 313.597 329.653 314.507 329.11C315.416 328.553 316.501 328.274 317.763 328.274C319.024 328.274 320.102 328.553 320.997 329.11C321.891 329.653 322.573 330.379 323.043 331.288C323.527 332.183 323.769 333.151 323.769 334.192C323.769 334.573 323.747 334.903 323.703 335.182H314.793C314.866 336.077 315.196 336.781 315.783 337.294C316.384 337.807 317.073 338.064 317.851 338.064C318.437 338.064 318.987 337.925 319.501 337.646C320.029 337.353 320.388 336.971 320.579 336.502L323.109 337.206C322.683 338.086 322.001 338.812 321.063 339.384C320.124 339.941 319.017 340.22 317.741 340.22ZM314.727 333.312H320.755C320.667 332.447 320.337 331.75 319.765 331.222C319.207 330.679 318.525 330.408 317.719 330.408C316.927 330.408 316.245 330.679 315.673 331.222C315.115 331.75 314.8 332.447 314.727 333.312Z" fill="#333333"/>
<path d="M438.474 296.786C438.474 297.798 438.217 298.715 437.704 299.536C437.205 300.357 436.523 301.01 435.658 301.494C434.807 301.978 433.839 302.22 432.754 302.22C431.581 302.22 430.561 301.934 429.696 301.362C428.831 300.79 428.163 299.969 427.694 298.898C427.239 297.827 427.012 296.544 427.012 295.048C427.012 292.203 427.555 290.032 428.64 288.536C429.74 287.025 431.214 286.27 433.062 286.27C434.045 286.27 434.947 286.483 435.768 286.908C436.604 287.333 437.308 287.942 437.88 288.734L436.186 290.582C435.834 290.039 435.379 289.614 434.822 289.306C434.265 288.983 433.663 288.822 433.018 288.822C432.035 288.822 431.251 289.218 430.664 290.01C430.077 290.787 429.769 291.88 429.74 293.288C430.048 292.76 430.488 292.342 431.06 292.034C431.632 291.726 432.285 291.572 433.018 291.572C434.045 291.572 434.969 291.807 435.79 292.276C436.611 292.731 437.264 293.354 437.748 294.146C438.232 294.923 438.474 295.803 438.474 296.786ZM432.776 299.734C433.289 299.734 433.766 299.602 434.206 299.338C434.646 299.059 434.998 298.7 435.262 298.26C435.526 297.805 435.658 297.314 435.658 296.786C435.658 296.258 435.526 295.781 435.262 295.356C434.998 294.916 434.646 294.571 434.206 294.322C433.766 294.058 433.289 293.926 432.776 293.926C432.248 293.926 431.764 294.058 431.324 294.322C430.884 294.571 430.532 294.916 430.268 295.356C430.019 295.781 429.894 296.258 429.894 296.786C429.894 297.314 430.026 297.805 430.29 298.26C430.554 298.7 430.899 299.059 431.324 299.338C431.764 299.602 432.248 299.734 432.776 299.734ZM440.639 297.292V294.63H447.305V297.292H440.639ZM458.855 299.338V302H450.011V299.338H453.047V289.174C452.885 289.394 452.599 289.658 452.189 289.966C451.778 290.259 451.323 290.516 450.825 290.736C450.341 290.956 449.901 291.066 449.505 291.066V288.338C449.886 288.338 450.282 288.235 450.693 288.03C451.103 287.825 451.485 287.59 451.837 287.326C452.189 287.047 452.475 286.805 452.695 286.6C452.929 286.38 453.047 286.255 453.047 286.226H456.061V299.338H458.855ZM467.044 302.22C465.929 302.205 464.946 301.956 464.096 301.472C463.26 300.988 462.556 300.357 461.984 299.58C461.412 298.788 460.979 297.93 460.686 297.006C460.407 296.082 460.268 295.18 460.268 294.3C460.268 293.361 460.422 292.423 460.73 291.484C461.038 290.545 461.485 289.695 462.072 288.932C462.673 288.155 463.392 287.539 464.228 287.084C465.064 286.615 466.002 286.38 467.044 286.38C468.173 286.38 469.156 286.629 469.992 287.128C470.842 287.627 471.554 288.272 472.126 289.064C472.698 289.856 473.123 290.714 473.402 291.638C473.695 292.562 473.842 293.449 473.842 294.3C473.842 295.253 473.688 296.199 473.38 297.138C473.072 298.062 472.617 298.913 472.016 299.69C471.429 300.453 470.718 301.069 469.882 301.538C469.046 301.993 468.1 302.22 467.044 302.22ZM463.326 294.3C463.34 294.901 463.421 295.51 463.568 296.126C463.729 296.742 463.956 297.307 464.25 297.82C464.558 298.333 464.939 298.751 465.394 299.074C465.863 299.382 466.413 299.536 467.044 299.536C467.704 299.536 468.268 299.367 468.738 299.03C469.207 298.693 469.588 298.26 469.882 297.732C470.19 297.204 470.417 296.639 470.564 296.038C470.71 295.437 470.784 294.857 470.784 294.3C470.784 293.699 470.703 293.09 470.542 292.474C470.38 291.858 470.146 291.293 469.838 290.78C469.53 290.267 469.141 289.856 468.672 289.548C468.202 289.225 467.66 289.064 467.044 289.064C466.398 289.064 465.841 289.233 465.372 289.57C464.902 289.907 464.514 290.34 464.206 290.868C463.898 291.396 463.67 291.968 463.524 292.584C463.392 293.185 463.326 293.757 463.326 294.3Z" fill="#333333"/>
<path d="M378.628 340V324.38H385.536C386.255 324.38 386.915 324.527 387.516 324.82C388.132 325.113 388.66 325.509 389.1 326.008C389.555 326.507 389.899 327.064 390.134 327.68C390.383 328.296 390.508 328.927 390.508 329.572C390.508 330.569 390.251 331.486 389.738 332.322C389.239 333.158 388.557 333.759 387.692 334.126L391.256 340H387.912L384.7 334.764H381.664V340H378.628ZM381.664 332.102H385.47C386.042 332.102 386.511 331.86 386.878 331.376C387.259 330.877 387.45 330.276 387.45 329.572C387.45 329.088 387.347 328.655 387.142 328.274C386.937 327.893 386.673 327.592 386.35 327.372C386.042 327.152 385.705 327.042 385.338 327.042H381.664V332.102ZM405.997 340V329.748L401.993 337.382H400.299L396.295 329.748V340H393.259V324.38H396.515L401.135 333.268L405.799 324.38H409.033V340H405.997ZM426.247 337.338V340H417.403V337.338H420.439V327.174C420.278 327.394 419.992 327.658 419.581 327.966C419.171 328.259 418.716 328.516 418.217 328.736C417.733 328.956 417.293 329.066 416.897 329.066V326.338C417.279 326.338 417.675 326.235 418.085 326.03C418.496 325.825 418.877 325.59 419.229 325.326C419.581 325.047 419.867 324.805 420.087 324.6C420.322 324.38 420.439 324.255 420.439 324.226H423.453V337.338H426.247ZM427.616 329.704C427.616 328.692 427.866 327.775 428.364 326.954C428.878 326.133 429.56 325.48 430.41 324.996C431.276 324.512 432.251 324.27 433.336 324.27C434.51 324.27 435.529 324.556 436.394 325.128C437.26 325.685 437.92 326.499 438.374 327.57C438.844 328.641 439.078 329.924 439.078 331.42C439.078 334.265 438.528 336.443 437.428 337.954C436.343 339.465 434.876 340.22 433.028 340.22C432.046 340.22 431.136 340.007 430.3 339.582C429.479 339.142 428.782 338.526 428.21 337.734L429.904 335.886C430.256 336.429 430.711 336.861 431.268 337.184C431.826 337.492 432.427 337.646 433.072 337.646C434.055 337.646 434.84 337.257 435.426 336.48C436.013 335.703 436.321 334.603 436.35 333.18C436.042 333.708 435.602 334.126 435.03 334.434C434.458 334.742 433.806 334.896 433.072 334.896C432.046 334.896 431.122 334.669 430.3 334.214C429.479 333.745 428.826 333.121 428.342 332.344C427.858 331.552 427.616 330.672 427.616 329.704ZM433.314 326.734C432.801 326.734 432.324 326.873 431.884 327.152C431.444 327.416 431.092 327.775 430.828 328.23C430.579 328.67 430.454 329.154 430.454 329.682C430.454 330.21 430.579 330.694 430.828 331.134C431.092 331.559 431.444 331.904 431.884 332.168C432.324 332.417 432.808 332.542 433.336 332.542C433.864 332.542 434.341 332.417 434.766 332.168C435.206 331.904 435.558 331.559 435.822 331.134C436.086 330.694 436.218 330.217 436.218 329.704C436.218 329.176 436.086 328.685 435.822 328.23C435.558 327.775 435.206 327.416 434.766 327.152C434.326 326.873 433.842 326.734 433.314 326.734ZM441.376 340V336.832H443.796V340H441.376ZM445.921 329.704C445.921 328.692 446.17 327.775 446.669 326.954C447.182 326.133 447.864 325.48 448.715 324.996C449.58 324.512 450.556 324.27 451.641 324.27C452.814 324.27 453.834 324.556 454.699 325.128C455.564 325.685 456.224 326.499 456.679 327.57C457.148 328.641 457.383 329.924 457.383 331.42C457.383 334.265 456.833 336.443 455.733 337.954C454.648 339.465 453.181 340.22 451.333 340.22C450.35 340.22 449.441 340.007 448.605 339.582C447.784 339.142 447.087 338.526 446.515 337.734L448.209 335.886C448.561 336.429 449.016 336.861 449.573 337.184C450.13 337.492 450.732 337.646 451.377 337.646C452.36 337.646 453.144 337.257 453.731 336.48C454.318 335.703 454.626 334.603 454.655 333.18C454.347 333.708 453.907 334.126 453.335 334.434C452.763 334.742 452.11 334.896 451.377 334.896C450.35 334.896 449.426 334.669 448.605 334.214C447.784 333.745 447.131 333.121 446.647 332.344C446.163 331.552 445.921 330.672 445.921 329.704ZM451.619 326.734C451.106 326.734 450.629 326.873 450.189 327.152C449.749 327.416 449.397 327.775 449.133 328.23C448.884 328.67 448.759 329.154 448.759 329.682C448.759 330.21 448.884 330.694 449.133 331.134C449.397 331.559 449.749 331.904 450.189 332.168C450.629 332.417 451.113 332.542 451.641 332.542C452.169 332.542 452.646 332.417 453.071 332.168C453.511 331.904 453.863 331.559 454.127 331.134C454.391 330.694 454.523 330.217 454.523 329.704C454.523 329.176 454.391 328.685 454.127 328.23C453.863 327.775 453.511 327.416 453.071 327.152C452.631 326.873 452.147 326.734 451.619 326.734ZM466.104 340.22C464.99 340.205 464.007 339.956 463.156 339.472C462.32 338.988 461.616 338.357 461.044 337.58C460.472 336.788 460.04 335.93 459.746 335.006C459.468 334.082 459.328 333.18 459.328 332.3C459.328 331.361 459.482 330.423 459.79 329.484C460.098 328.545 460.546 327.695 461.132 326.932C461.734 326.155 462.452 325.539 463.288 325.084C464.124 324.615 465.063 324.38 466.104 324.38C467.234 324.38 468.216 324.629 469.052 325.128C469.903 325.627 470.614 326.272 471.186 327.064C471.758 327.856 472.184 328.714 472.462 329.638C472.756 330.562 472.902 331.449 472.902 332.3C472.902 333.253 472.748 334.199 472.44 335.138C472.132 336.062 471.678 336.913 471.076 337.69C470.49 338.453 469.778 339.069 468.942 339.538C468.106 339.993 467.16 340.22 466.104 340.22ZM462.386 332.3C462.401 332.901 462.482 333.51 462.628 334.126C462.79 334.742 463.017 335.307 463.31 335.82C463.618 336.333 464 336.751 464.454 337.074C464.924 337.382 465.474 337.536 466.104 337.536C466.764 337.536 467.329 337.367 467.798 337.03C468.268 336.693 468.649 336.26 468.942 335.732C469.25 335.204 469.478 334.639 469.624 334.038C469.771 333.437 469.844 332.857 469.844 332.3C469.844 331.699 469.764 331.09 469.602 330.474C469.441 329.858 469.206 329.293 468.898 328.78C468.59 328.267 468.202 327.856 467.732 327.548C467.263 327.225 466.72 327.064 466.104 327.064C465.459 327.064 464.902 327.233 464.432 327.57C463.963 327.907 463.574 328.34 463.266 328.868C462.958 329.396 462.731 329.968 462.584 330.584C462.452 331.185 462.386 331.757 462.386 332.3Z" fill="#333333"/>
<path fill-rule="evenodd" clip-rule="evenodd" d="M222 246C220.343 246 219 247.343 219 249V260C219 261.657 220.343 263 222 263H233C234.657 263 236 261.657 236 260V249C236 247.343 234.657 246 233 246H229.737V254.053L227.5 251.95L225.263 254.053V246H222Z" fill="#A177B4"/>
<path d="M276.52 383.864H271.072V398H267.784V383.864H262.336V380.96H276.52V383.864ZM278.323 383.672V380.48H281.539V383.672H278.323ZM278.323 398V385.424H281.539V398H278.323ZM290.273 398.24C288.913 398.24 287.737 397.944 286.745 397.352C285.769 396.76 285.009 395.976 284.465 395C283.921 394.008 283.649 392.936 283.649 391.784C283.649 390.6 283.913 389.512 284.441 388.52C284.985 387.512 285.753 386.712 286.745 386.12C287.737 385.512 288.921 385.208 290.297 385.208C291.673 385.208 292.849 385.512 293.825 386.12C294.801 386.712 295.545 387.504 296.057 388.496C296.585 389.472 296.849 390.528 296.849 391.664C296.849 392.08 296.825 392.44 296.777 392.744H287.057C287.137 393.72 287.497 394.488 288.137 395.048C288.793 395.608 289.545 395.888 290.393 395.888C291.033 395.888 291.633 395.736 292.193 395.432C292.769 395.112 293.161 394.696 293.369 394.184L296.129 394.952C295.665 395.912 294.921 396.704 293.897 397.328C292.873 397.936 291.665 398.24 290.273 398.24ZM286.985 390.704H293.561C293.465 389.76 293.105 389 292.481 388.424C291.873 387.832 291.129 387.536 290.249 387.536C289.385 387.536 288.641 387.832 288.017 388.424C287.409 389 287.065 389.76 286.985 390.704ZM306.296 388.208C305.32 388.208 304.448 388.4 303.68 388.784C302.912 389.152 302.36 389.688 302.024 390.392V398H298.808V385.424H301.76V388.112C302.192 387.248 302.752 386.568 303.44 386.072C304.144 385.576 304.88 385.304 305.648 385.256C305.984 385.256 306.2 385.264 306.296 385.28V388.208ZM312.836 398C312.836 396.704 312.948 395.608 313.172 394.712C313.412 393.8 313.788 393.024 314.3 392.384C314.828 391.728 315.524 391.136 316.388 390.608C316.948 390.272 317.524 389.96 318.116 389.672C318.724 389.368 319.284 389.056 319.796 388.736C320.324 388.4 320.748 388.016 321.068 387.584C321.404 387.136 321.572 386.6 321.572 385.976C321.572 385.272 321.348 384.712 320.9 384.296C320.468 383.864 319.852 383.648 319.052 383.648C318.444 383.648 317.876 383.76 317.348 383.984C316.836 384.192 316.372 384.456 315.956 384.776C315.556 385.08 315.212 385.384 314.924 385.688L312.908 383.576C313.196 383.24 313.636 382.856 314.228 382.424C314.836 381.976 315.58 381.584 316.46 381.248C317.34 380.912 318.34 380.744 319.46 380.744C320.708 380.744 321.756 380.968 322.604 381.416C323.452 381.848 324.092 382.448 324.524 383.216C324.972 383.968 325.196 384.84 325.196 385.832C325.196 386.792 324.988 387.608 324.572 388.28C324.172 388.936 323.652 389.496 323.012 389.96C322.372 390.424 321.708 390.856 321.02 391.256C319.916 391.848 319.076 392.352 318.5 392.768C317.94 393.184 317.54 393.576 317.3 393.944C317.06 394.296 316.868 394.68 316.724 395.096H325.22V398H312.836Z" fill="#A177B4"/>
<path d="M228.294 437.11C227.15 437.11 226.109 436.89 225.17 436.45C224.246 435.995 223.447 435.394 222.772 434.646C222.112 433.898 221.599 433.055 221.232 432.116C220.865 431.163 220.682 430.187 220.682 429.19C220.682 428.149 220.873 427.159 221.254 426.22C221.635 425.267 222.171 424.423 222.86 423.69C223.549 422.942 224.356 422.355 225.28 421.93C226.219 421.49 227.245 421.27 228.36 421.27C229.489 421.27 230.516 421.497 231.44 421.952C232.379 422.407 233.178 423.015 233.838 423.778C234.513 424.541 235.026 425.399 235.378 426.352C235.745 427.291 235.928 428.251 235.928 429.234C235.928 430.231 235.745 431.199 235.378 432.138C235.026 433.062 234.527 433.883 233.882 434.602L236.016 437H233.156L232.232 435.988C231.675 436.34 231.059 436.619 230.384 436.824C229.724 437.015 229.027 437.11 228.294 437.11ZM228.316 434.426C228.712 434.426 229.079 434.382 229.416 434.294C229.768 434.191 230.091 434.059 230.384 433.898L228.008 431.214H230.868L231.946 432.424C232.239 431.955 232.467 431.441 232.628 430.884C232.789 430.327 232.87 429.762 232.87 429.19C232.87 428.281 232.687 427.43 232.32 426.638C231.953 425.846 231.425 425.201 230.736 424.702C230.061 424.203 229.255 423.954 228.316 423.954C227.333 423.954 226.505 424.211 225.83 424.724C225.155 425.237 224.642 425.897 224.29 426.704C223.938 427.511 223.762 428.339 223.762 429.19C223.762 430.099 223.938 430.95 224.29 431.742C224.657 432.534 225.177 433.179 225.852 433.678C226.541 434.177 227.363 434.426 228.316 434.426ZM237.839 432.688V425.472H240.787V432.05C240.787 433.825 241.425 434.712 242.701 434.712C243.273 434.712 243.823 434.543 244.351 434.206C244.894 433.854 245.334 433.326 245.671 432.622V425.472H248.619V433.7C248.619 434.023 248.671 434.25 248.773 434.382C248.876 434.499 249.059 434.573 249.323 434.602V437C249.03 437.059 248.781 437.095 248.575 437.11C248.385 437.125 248.209 437.132 248.047 437.132C247.519 437.132 247.087 437.015 246.749 436.78C246.427 436.531 246.236 436.193 246.177 435.768L246.111 434.844C245.598 435.636 244.938 436.23 244.131 436.626C243.325 437.022 242.437 437.22 241.469 437.22C240.281 437.22 239.379 436.839 238.763 436.076C238.147 435.299 237.839 434.169 237.839 432.688ZM250.757 433.59C250.757 432.842 250.962 432.189 251.373 431.632C251.798 431.06 252.385 430.62 253.133 430.312C253.881 430.004 254.739 429.85 255.707 429.85C256.191 429.85 256.682 429.894 257.181 429.982C257.68 430.055 258.112 430.165 258.479 430.312V429.696C258.479 428.963 258.259 428.398 257.819 428.002C257.394 427.606 256.756 427.408 255.905 427.408C255.274 427.408 254.673 427.518 254.101 427.738C253.529 427.958 252.928 428.281 252.297 428.706L251.351 426.77C252.114 426.271 252.891 425.897 253.683 425.648C254.49 425.399 255.333 425.274 256.213 425.274C257.856 425.274 259.132 425.685 260.041 426.506C260.965 427.327 261.427 428.501 261.427 430.026V433.7C261.427 434.023 261.478 434.25 261.581 434.382C261.684 434.499 261.867 434.573 262.131 434.602V437C261.867 437.059 261.625 437.095 261.405 437.11C261.2 437.139 261.024 437.154 260.877 437.154C260.29 437.154 259.843 437.022 259.535 436.758C259.227 436.494 259.044 436.171 258.985 435.79L258.919 435.196C258.406 435.856 257.775 436.362 257.027 436.714C256.294 437.051 255.538 437.22 254.761 437.22C253.984 437.22 253.294 437.066 252.693 436.758C252.092 436.435 251.615 436.003 251.263 435.46C250.926 434.903 250.757 434.279 250.757 433.59ZM257.929 434.184C258.296 433.832 258.479 433.495 258.479 433.172V432.006C257.716 431.698 256.946 431.544 256.169 431.544C255.392 431.544 254.761 431.713 254.277 432.05C253.793 432.373 253.551 432.805 253.551 433.348C253.551 433.788 253.727 434.184 254.079 434.536C254.431 434.888 254.937 435.064 255.597 435.064C256.037 435.064 256.462 434.983 256.873 434.822C257.298 434.661 257.65 434.448 257.929 434.184ZM274.896 437H271.948V430.532C271.948 429.608 271.787 428.933 271.464 428.508C271.141 428.083 270.694 427.87 270.122 427.87C269.726 427.87 269.323 427.973 268.912 428.178C268.516 428.383 268.157 428.669 267.834 429.036C267.511 429.388 267.277 429.799 267.13 430.268V437H264.182V425.472H266.844V427.606C267.269 426.887 267.885 426.323 268.692 425.912C269.499 425.487 270.408 425.274 271.42 425.274C272.139 425.274 272.725 425.406 273.18 425.67C273.635 425.919 273.987 426.264 274.236 426.704C274.485 427.129 274.654 427.613 274.742 428.156C274.845 428.699 274.896 429.249 274.896 429.806V437ZM284.303 436.406C283.907 436.582 283.415 436.758 282.829 436.934C282.257 437.11 281.663 437.198 281.047 437.198C280.504 437.198 280.005 437.103 279.551 436.912C279.096 436.721 278.729 436.421 278.451 436.01C278.187 435.585 278.055 435.035 278.055 434.36V427.738H276.537V425.472H278.055V421.732H281.003V425.472H283.423V427.738H281.003V433.37C281.003 433.766 281.105 434.052 281.311 434.228C281.531 434.404 281.795 434.492 282.103 434.492C282.411 434.492 282.711 434.441 283.005 434.338C283.298 434.235 283.533 434.147 283.709 434.074L284.303 436.406ZM285.838 423.866V420.94H288.786V423.866H285.838ZM285.838 437V425.472H288.786V437H285.838ZM298.354 436.406C297.958 436.582 297.466 436.758 296.88 436.934C296.308 437.11 295.714 437.198 295.098 437.198C294.555 437.198 294.056 437.103 293.602 436.912C293.147 436.721 292.78 436.421 292.502 436.01C292.238 435.585 292.106 435.035 292.106 434.36V427.738H290.588V425.472H292.106V421.732H295.054V425.472H297.474V427.738H295.054V433.37C295.054 433.766 295.156 434.052 295.362 434.228C295.582 434.404 295.846 434.492 296.154 434.492C296.462 434.492 296.762 434.441 297.056 434.338C297.349 434.235 297.584 434.147 297.76 434.074L298.354 436.406ZM300.088 439.244C300.631 439.391 301.071 439.464 301.408 439.464C301.804 439.464 302.119 439.295 302.354 438.958C302.603 438.635 302.882 437.983 303.19 437L298.636 425.472H301.694L304.796 433.986L307.524 425.472H310.34L305.5 439.288C305.236 440.08 304.759 440.733 304.07 441.246C303.395 441.774 302.559 442.038 301.562 442.038C301.078 442.038 300.587 441.957 300.088 441.796V439.244Z" fill="#333333"/>
<path d="M228.25 475.11C227.003 475.11 225.94 474.905 225.06 474.494C224.195 474.069 223.491 473.489 222.948 472.756C222.42 472.023 222.031 471.194 221.782 470.27C221.533 469.331 221.408 468.356 221.408 467.344V459.38H224.444V467.344C224.444 468.209 224.561 469.031 224.796 469.808C225.031 470.585 225.427 471.216 225.984 471.7C226.541 472.184 227.289 472.426 228.228 472.426C229.196 472.426 229.959 472.184 230.516 471.7C231.073 471.201 231.469 470.563 231.704 469.786C231.939 469.009 232.056 468.195 232.056 467.344V459.38H235.07V467.344C235.07 468.415 234.938 469.419 234.674 470.358C234.425 471.297 234.021 472.125 233.464 472.844C232.921 473.548 232.217 474.105 231.352 474.516C230.487 474.912 229.453 475.11 228.25 475.11ZM248.363 475H245.415V468.532C245.415 467.608 245.253 466.933 244.931 466.508C244.608 466.083 244.161 465.87 243.589 465.87C243.193 465.87 242.789 465.973 242.379 466.178C241.983 466.383 241.623 466.669 241.301 467.036C240.978 467.388 240.743 467.799 240.597 468.268V475H237.649V463.472H240.311V465.606C240.736 464.887 241.352 464.323 242.159 463.912C242.965 463.487 243.875 463.274 244.887 463.274C245.605 463.274 246.192 463.406 246.647 463.67C247.101 463.919 247.453 464.264 247.703 464.704C247.952 465.129 248.121 465.613 248.209 466.156C248.311 466.699 248.363 467.249 248.363 467.806V475ZM250.926 461.866V458.94H253.874V461.866H250.926ZM250.926 475V463.472H253.874V475H250.926ZM263.441 474.406C263.045 474.582 262.554 474.758 261.967 474.934C261.395 475.11 260.801 475.198 260.185 475.198C259.643 475.198 259.144 475.103 258.689 474.912C258.235 474.721 257.868 474.421 257.589 474.01C257.325 473.585 257.193 473.035 257.193 472.36V465.738H255.675V463.472H257.193V459.732H260.141V463.472H262.561V465.738H260.141V471.37C260.141 471.766 260.244 472.052 260.449 472.228C260.669 472.404 260.933 472.492 261.241 472.492C261.549 472.492 261.85 472.441 262.143 472.338C262.437 472.235 262.671 472.147 262.847 472.074L263.441 474.406ZM270.548 475V459.38H277.17C277.889 459.38 278.549 459.527 279.15 459.82C279.766 460.113 280.294 460.509 280.734 461.008C281.174 461.507 281.519 462.064 281.768 462.68C282.017 463.296 282.142 463.927 282.142 464.572C282.142 465.452 281.937 466.288 281.526 467.08C281.115 467.872 280.543 468.517 279.81 469.016C279.091 469.515 278.248 469.764 277.28 469.764H273.584V475H270.548ZM273.584 467.102H277.104C277.661 467.102 278.123 466.875 278.49 466.42C278.871 465.951 279.062 465.335 279.062 464.572C279.062 463.765 278.849 463.142 278.424 462.702C277.999 462.262 277.515 462.042 276.972 462.042H273.584V467.102ZM290.833 466.024C289.938 466.024 289.139 466.2 288.435 466.552C287.731 466.889 287.225 467.381 286.917 468.026V475H283.969V463.472H286.675V465.936C287.071 465.144 287.584 464.521 288.215 464.066C288.86 463.611 289.535 463.362 290.239 463.318C290.547 463.318 290.745 463.325 290.833 463.34V466.024ZM292.477 461.866V458.94H295.425V461.866H292.477ZM292.477 475V463.472H295.425V475H292.477ZM303.452 475.22C302.206 475.22 301.128 474.941 300.218 474.384C299.309 473.827 298.605 473.093 298.106 472.184C297.608 471.275 297.358 470.292 297.358 469.236C297.358 468.165 297.6 467.175 298.084 466.266C298.583 465.357 299.287 464.631 300.196 464.088C301.106 463.545 302.184 463.274 303.43 463.274C304.692 463.274 305.762 463.545 306.642 464.088C307.537 464.631 308.204 465.342 308.644 466.222L305.762 467.102C305.249 466.222 304.464 465.782 303.408 465.782C302.836 465.782 302.323 465.929 301.868 466.222C301.414 466.501 301.054 466.904 300.79 467.432C300.526 467.945 300.394 468.547 300.394 469.236C300.394 469.911 300.526 470.512 300.79 471.04C301.069 471.553 301.436 471.964 301.89 472.272C302.345 472.565 302.851 472.712 303.408 472.712C303.936 472.712 304.42 472.587 304.86 472.338C305.315 472.074 305.63 471.744 305.806 471.348L308.688 472.228C308.292 473.093 307.632 473.812 306.708 474.384C305.799 474.941 304.714 475.22 303.452 475.22ZM315.741 475.22C314.494 475.22 313.416 474.949 312.507 474.406C311.612 473.863 310.915 473.145 310.417 472.25C309.918 471.341 309.669 470.358 309.669 469.302C309.669 468.217 309.911 467.219 310.395 466.31C310.893 465.386 311.597 464.653 312.507 464.11C313.416 463.553 314.501 463.274 315.763 463.274C317.024 463.274 318.102 463.553 318.997 464.11C319.891 464.653 320.573 465.379 321.043 466.288C321.527 467.183 321.769 468.151 321.769 469.192C321.769 469.573 321.747 469.903 321.703 470.182H312.793C312.866 471.077 313.196 471.781 313.783 472.294C314.384 472.807 315.073 473.064 315.851 473.064C316.437 473.064 316.987 472.925 317.501 472.646C318.029 472.353 318.388 471.971 318.579 471.502L321.109 472.206C320.683 473.086 320.001 473.812 319.063 474.384C318.124 474.941 317.017 475.22 315.741 475.22ZM312.727 468.312H318.755C318.667 467.447 318.337 466.75 317.765 466.222C317.207 465.679 316.525 465.408 315.719 465.408C314.927 465.408 314.245 465.679 313.673 466.222C313.115 466.75 312.8 467.447 312.727 468.312Z" fill="#333333"/>
<path d="M429.296 434.338V437H420.452V434.338H423.488V424.174C423.327 424.394 423.041 424.658 422.63 424.966C422.219 425.259 421.765 425.516 421.266 425.736C420.782 425.956 420.342 426.066 419.946 426.066V423.338C420.327 423.338 420.723 423.235 421.134 423.03C421.545 422.825 421.926 422.59 422.278 422.326C422.63 422.047 422.916 421.805 423.136 421.6C423.371 421.38 423.488 421.255 423.488 421.226H426.502V434.338H429.296ZM440.081 434.338V437H431.237V434.338H434.273V424.174C434.112 424.394 433.826 424.658 433.415 424.966C433.004 425.259 432.55 425.516 432.051 425.736C431.567 425.956 431.127 426.066 430.731 426.066V423.338C431.112 423.338 431.508 423.235 431.919 423.03C432.33 422.825 432.711 422.59 433.063 422.326C433.415 422.047 433.701 421.805 433.921 421.6C434.156 421.38 434.273 421.255 434.273 421.226H437.287V434.338H440.081ZM441.846 432.292V429.63H448.512V432.292H441.846ZM460.062 434.338V437H451.218V434.338H454.254V424.174C454.092 424.394 453.806 424.658 453.396 424.966C452.985 425.259 452.53 425.516 452.032 425.736C451.548 425.956 451.108 426.066 450.712 426.066V423.338C451.093 423.338 451.489 423.235 451.9 423.03C452.31 422.825 452.692 422.59 453.044 422.326C453.396 422.047 453.682 421.805 453.902 421.6C454.136 421.38 454.254 421.255 454.254 421.226H457.268V434.338H460.062ZM466.469 437.22C465.339 437.22 464.32 436.978 463.411 436.494C462.516 435.995 461.827 435.328 461.343 434.492L463.037 432.732C463.447 433.304 463.961 433.759 464.577 434.096C465.193 434.433 465.831 434.602 466.491 434.602C467.283 434.602 467.928 434.36 468.427 433.876C468.94 433.392 469.197 432.761 469.197 431.984C469.197 431.236 468.955 430.627 468.471 430.158C467.987 429.674 467.385 429.432 466.667 429.432C466.197 429.432 465.75 429.542 465.325 429.762C464.899 429.982 464.562 430.283 464.313 430.664H461.739L463.543 421.38H471.243V424.064H465.677L465.061 427.562C465.237 427.371 465.493 427.217 465.831 427.1C466.168 426.968 466.586 426.902 467.085 426.902C468.067 426.902 468.947 427.115 469.725 427.54C470.502 427.965 471.111 428.559 471.551 429.322C472.005 430.07 472.233 430.935 472.233 431.918C472.233 432.974 471.983 433.898 471.485 434.69C470.986 435.482 470.297 436.105 469.417 436.56C468.551 437 467.569 437.22 466.469 437.22Z" fill="#333333"/>
<path d="M381.628 475V459.38H388.536C389.255 459.38 389.915 459.527 390.516 459.82C391.132 460.113 391.66 460.509 392.1 461.008C392.555 461.507 392.899 462.064 393.134 462.68C393.383 463.296 393.508 463.927 393.508 464.572C393.508 465.569 393.251 466.486 392.738 467.322C392.239 468.158 391.557 468.759 390.692 469.126L394.256 475H390.912L387.7 469.764H384.664V475H381.628ZM384.664 467.102H388.47C389.042 467.102 389.511 466.86 389.878 466.376C390.259 465.877 390.45 465.276 390.45 464.572C390.45 464.088 390.347 463.655 390.142 463.274C389.937 462.893 389.673 462.592 389.35 462.372C389.042 462.152 388.705 462.042 388.338 462.042H384.664V467.102ZM408.997 475V464.748L404.993 472.382H403.299L399.295 464.748V475H396.259V459.38H399.515L404.135 468.268L408.799 459.38H412.033V475H408.997ZM429.247 472.338V475H420.403V472.338H423.439V462.174C423.278 462.394 422.992 462.658 422.581 462.966C422.171 463.259 421.716 463.516 421.217 463.736C420.733 463.956 420.293 464.066 419.897 464.066V461.338C420.279 461.338 420.675 461.235 421.085 461.03C421.496 460.825 421.877 460.59 422.229 460.326C422.581 460.047 422.867 459.805 423.087 459.6C423.322 459.38 423.439 459.255 423.439 459.226H426.453V472.338H429.247ZM437.568 462.064H430.484V459.38H442.232L434.466 475H431.122L437.568 462.064ZM441.883 475V471.832H444.303V475H441.883ZM446.429 464.704C446.429 463.692 446.678 462.775 447.177 461.954C447.69 461.133 448.372 460.48 449.223 459.996C450.088 459.512 451.063 459.27 452.149 459.27C453.322 459.27 454.341 459.556 455.207 460.128C456.072 460.685 456.732 461.499 457.187 462.57C457.656 463.641 457.891 464.924 457.891 466.42C457.891 469.265 457.341 471.443 456.241 472.954C455.155 474.465 453.689 475.22 451.841 475.22C450.858 475.22 449.949 475.007 449.113 474.582C448.291 474.142 447.595 473.526 447.023 472.734L448.717 470.886C449.069 471.429 449.523 471.861 450.081 472.184C450.638 472.492 451.239 472.646 451.885 472.646C452.867 472.646 453.652 472.257 454.239 471.48C454.825 470.703 455.133 469.603 455.163 468.18C454.855 468.708 454.415 469.126 453.843 469.434C453.271 469.742 452.618 469.896 451.885 469.896C450.858 469.896 449.934 469.669 449.113 469.214C448.291 468.745 447.639 468.121 447.155 467.344C446.671 466.552 446.429 465.672 446.429 464.704ZM452.127 461.734C451.613 461.734 451.137 461.873 450.697 462.152C450.257 462.416 449.905 462.775 449.641 463.23C449.391 463.67 449.267 464.154 449.267 464.682C449.267 465.21 449.391 465.694 449.641 466.134C449.905 466.559 450.257 466.904 450.697 467.168C451.137 467.417 451.621 467.542 452.149 467.542C452.677 467.542 453.153 467.417 453.579 467.168C454.019 466.904 454.371 466.559 454.635 466.134C454.899 465.694 455.031 465.217 455.031 464.704C455.031 464.176 454.899 463.685 454.635 463.23C454.371 462.775 454.019 462.416 453.579 462.152C453.139 461.873 452.655 461.734 452.127 461.734ZM466.612 475.22C465.497 475.205 464.515 474.956 463.664 474.472C462.828 473.988 462.124 473.357 461.552 472.58C460.98 471.788 460.547 470.93 460.254 470.006C459.975 469.082 459.836 468.18 459.836 467.3C459.836 466.361 459.99 465.423 460.298 464.484C460.606 463.545 461.053 462.695 461.64 461.932C462.241 461.155 462.96 460.539 463.796 460.084C464.632 459.615 465.571 459.38 466.612 459.38C467.741 459.38 468.724 459.629 469.56 460.128C470.411 460.627 471.122 461.272 471.694 462.064C472.266 462.856 472.691 463.714 472.97 464.638C473.263 465.562 473.41 466.449 473.41 467.3C473.41 468.253 473.256 469.199 472.948 470.138C472.64 471.062 472.185 471.913 471.584 472.69C470.997 473.453 470.286 474.069 469.45 474.538C468.614 474.993 467.668 475.22 466.612 475.22ZM462.894 467.3C462.909 467.901 462.989 468.51 463.136 469.126C463.297 469.742 463.525 470.307 463.818 470.82C464.126 471.333 464.507 471.751 464.962 472.074C465.431 472.382 465.981 472.536 466.612 472.536C467.272 472.536 467.837 472.367 468.306 472.03C468.775 471.693 469.157 471.26 469.45 470.732C469.758 470.204 469.985 469.639 470.132 469.038C470.279 468.437 470.352 467.857 470.352 467.3C470.352 466.699 470.271 466.09 470.11 465.474C469.949 464.858 469.714 464.293 469.406 463.78C469.098 463.267 468.709 462.856 468.24 462.548C467.771 462.225 467.228 462.064 466.612 462.064C465.967 462.064 465.409 462.233 464.94 462.57C464.471 462.907 464.082 463.34 463.774 463.868C463.466 464.396 463.239 464.968 463.092 465.584C462.96 466.185 462.894 466.757 462.894 467.3Z" fill="#333333"/>
<path fill-rule="evenodd" clip-rule="evenodd" d="M220 382C218.343 382 217 383.343 217 385V396C217 397.657 218.343 399 220 399H231C232.657 399 234 397.657 234 396V385C234 383.343 232.657 382 231 382H227.737V390.053L225.5 387.95L223.263 390.053V382H220Z" fill="#A177B4"/>
<path fill-rule="evenodd" clip-rule="evenodd" d="M240 382C238.343 382 237 383.343 237 385V396C237 397.657 238.343 399 240 399H251C252.657 399 254 397.657 254 396V385C254 383.343 252.657 382 251 382H247.737V390.053L245.5 387.95L243.263 390.053V382H240Z" fill="#A177B4"/>
<path d="M277.52 525.864H272.072V540H268.784V525.864H263.336V522.96H277.52V525.864ZM279.323 525.672V522.48H282.539V525.672H279.323ZM279.323 540V527.424H282.539V540H279.323ZM291.273 540.24C289.913 540.24 288.737 539.944 287.745 539.352C286.769 538.76 286.009 537.976 285.465 537C284.921 536.008 284.649 534.936 284.649 533.784C284.649 532.6 284.913 531.512 285.441 530.52C285.985 529.512 286.753 528.712 287.745 528.12C288.737 527.512 289.921 527.208 291.297 527.208C292.673 527.208 293.849 527.512 294.825 528.12C295.801 528.712 296.545 529.504 297.057 530.496C297.585 531.472 297.849 532.528 297.849 533.664C297.849 534.08 297.825 534.44 297.777 534.744H288.057C288.137 535.72 288.497 536.488 289.137 537.048C289.793 537.608 290.545 537.888 291.393 537.888C292.033 537.888 292.633 537.736 293.193 537.432C293.769 537.112 294.161 536.696 294.369 536.184L297.129 536.952C296.665 537.912 295.921 538.704 294.897 539.328C293.873 539.936 292.665 540.24 291.273 540.24ZM287.985 532.704H294.561C294.465 531.76 294.105 531 293.481 530.424C292.873 529.832 292.129 529.536 291.249 529.536C290.385 529.536 289.641 529.832 289.017 530.424C288.409 531 288.065 531.76 287.985 532.704ZM307.296 530.208C306.32 530.208 305.448 530.4 304.68 530.784C303.912 531.152 303.36 531.688 303.024 532.392V540H299.808V527.424H302.76V530.112C303.192 529.248 303.752 528.568 304.44 528.072C305.144 527.576 305.88 527.304 306.648 527.256C306.984 527.256 307.2 527.264 307.296 527.28V530.208ZM319.38 540.168C318.02 540.168 316.844 539.912 315.852 539.4C314.86 538.872 314.124 538.152 313.644 537.24L315.372 535.056C315.612 535.6 316.06 536.096 316.716 536.544C317.388 536.992 318.236 537.216 319.26 537.216C320.236 537.216 321.012 537.008 321.588 536.592C322.18 536.176 322.476 535.6 322.476 534.864C322.476 534.064 322.108 533.456 321.372 533.04C320.636 532.608 319.572 532.392 318.18 532.392H317.388V529.992H318.228C319.38 529.992 320.3 529.8 320.988 529.416C321.692 529.016 322.044 528.44 322.044 527.688C322.044 527.016 321.78 526.488 321.252 526.104C320.74 525.72 320.124 525.528 319.404 525.528C318.588 525.528 317.876 525.72 317.268 526.104C316.66 526.472 316.196 526.952 315.876 527.544L313.788 525.216C314.14 524.704 314.62 524.272 315.228 523.92C315.836 523.552 316.516 523.264 317.268 523.056C318.036 522.848 318.828 522.744 319.644 522.744C320.78 522.744 321.78 522.944 322.644 523.344C323.524 523.728 324.212 524.256 324.708 524.928C325.22 525.6 325.476 526.368 325.476 527.232C325.476 528.208 325.18 529.04 324.588 529.728C324.012 530.4 323.236 530.848 322.26 531.072C323.316 531.248 324.172 531.744 324.828 532.56C325.484 533.36 325.812 534.304 325.812 535.392C325.812 536.4 325.524 537.264 324.948 537.984C324.388 538.688 323.62 539.232 322.644 539.616C321.684 539.984 320.596 540.168 319.38 540.168Z" fill="#A177B4"/>
<path d="M228.294 584.11C227.15 584.11 226.109 583.89 225.17 583.45C224.246 582.995 223.447 582.394 222.772 581.646C222.112 580.898 221.599 580.055 221.232 579.116C220.865 578.163 220.682 577.187 220.682 576.19C220.682 575.149 220.873 574.159 221.254 573.22C221.635 572.267 222.171 571.423 222.86 570.69C223.549 569.942 224.356 569.355 225.28 568.93C226.219 568.49 227.245 568.27 228.36 568.27C229.489 568.27 230.516 568.497 231.44 568.952C232.379 569.407 233.178 570.015 233.838 570.778C234.513 571.541 235.026 572.399 235.378 573.352C235.745 574.291 235.928 575.251 235.928 576.234C235.928 577.231 235.745 578.199 235.378 579.138C235.026 580.062 234.527 580.883 233.882 581.602L236.016 584H233.156L232.232 582.988C231.675 583.34 231.059 583.619 230.384 583.824C229.724 584.015 229.027 584.11 228.294 584.11ZM228.316 581.426C228.712 581.426 229.079 581.382 229.416 581.294C229.768 581.191 230.091 581.059 230.384 580.898L228.008 578.214H230.868L231.946 579.424C232.239 578.955 232.467 578.441 232.628 577.884C232.789 577.327 232.87 576.762 232.87 576.19C232.87 575.281 232.687 574.43 232.32 573.638C231.953 572.846 231.425 572.201 230.736 571.702C230.061 571.203 229.255 570.954 228.316 570.954C227.333 570.954 226.505 571.211 225.83 571.724C225.155 572.237 224.642 572.897 224.29 573.704C223.938 574.511 223.762 575.339 223.762 576.19C223.762 577.099 223.938 577.95 224.29 578.742C224.657 579.534 225.177 580.179 225.852 580.678C226.541 581.177 227.363 581.426 228.316 581.426ZM237.839 579.688V572.472H240.787V579.05C240.787 580.825 241.425 581.712 242.701 581.712C243.273 581.712 243.823 581.543 244.351 581.206C244.894 580.854 245.334 580.326 245.671 579.622V572.472H248.619V580.7C248.619 581.023 248.671 581.25 248.773 581.382C248.876 581.499 249.059 581.573 249.323 581.602V584C249.03 584.059 248.781 584.095 248.575 584.11C248.385 584.125 248.209 584.132 248.047 584.132C247.519 584.132 247.087 584.015 246.749 583.78C246.427 583.531 246.236 583.193 246.177 582.768L246.111 581.844C245.598 582.636 244.938 583.23 244.131 583.626C243.325 584.022 242.437 584.22 241.469 584.22C240.281 584.22 239.379 583.839 238.763 583.076C238.147 582.299 237.839 581.169 237.839 579.688ZM250.757 580.59C250.757 579.842 250.962 579.189 251.373 578.632C251.798 578.06 252.385 577.62 253.133 577.312C253.881 577.004 254.739 576.85 255.707 576.85C256.191 576.85 256.682 576.894 257.181 576.982C257.68 577.055 258.112 577.165 258.479 577.312V576.696C258.479 575.963 258.259 575.398 257.819 575.002C257.394 574.606 256.756 574.408 255.905 574.408C255.274 574.408 254.673 574.518 254.101 574.738C253.529 574.958 252.928 575.281 252.297 575.706L251.351 573.77C252.114 573.271 252.891 572.897 253.683 572.648C254.49 572.399 255.333 572.274 256.213 572.274C257.856 572.274 259.132 572.685 260.041 573.506C260.965 574.327 261.427 575.501 261.427 577.026V580.7C261.427 581.023 261.478 581.25 261.581 581.382C261.684 581.499 261.867 581.573 262.131 581.602V584C261.867 584.059 261.625 584.095 261.405 584.11C261.2 584.139 261.024 584.154 260.877 584.154C260.29 584.154 259.843 584.022 259.535 583.758C259.227 583.494 259.044 583.171 258.985 582.79L258.919 582.196C258.406 582.856 257.775 583.362 257.027 583.714C256.294 584.051 255.538 584.22 254.761 584.22C253.984 584.22 253.294 584.066 252.693 583.758C252.092 583.435 251.615 583.003 251.263 582.46C250.926 581.903 250.757 581.279 250.757 580.59ZM257.929 581.184C258.296 580.832 258.479 580.495 258.479 580.172V579.006C257.716 578.698 256.946 578.544 256.169 578.544C255.392 578.544 254.761 578.713 254.277 579.05C253.793 579.373 253.551 579.805 253.551 580.348C253.551 580.788 253.727 581.184 254.079 581.536C254.431 581.888 254.937 582.064 255.597 582.064C256.037 582.064 256.462 581.983 256.873 581.822C257.298 581.661 257.65 581.448 257.929 581.184ZM274.896 584H271.948V577.532C271.948 576.608 271.787 575.933 271.464 575.508C271.141 575.083 270.694 574.87 270.122 574.87C269.726 574.87 269.323 574.973 268.912 575.178C268.516 575.383 268.157 575.669 267.834 576.036C267.511 576.388 267.277 576.799 267.13 577.268V584H264.182V572.472H266.844V574.606C267.269 573.887 267.885 573.323 268.692 572.912C269.499 572.487 270.408 572.274 271.42 572.274C272.139 572.274 272.725 572.406 273.18 572.67C273.635 572.919 273.987 573.264 274.236 573.704C274.485 574.129 274.654 574.613 274.742 575.156C274.845 575.699 274.896 576.249 274.896 576.806V584ZM284.303 583.406C283.907 583.582 283.415 583.758 282.829 583.934C282.257 584.11 281.663 584.198 281.047 584.198C280.504 584.198 280.005 584.103 279.551 583.912C279.096 583.721 278.729 583.421 278.451 583.01C278.187 582.585 278.055 582.035 278.055 581.36V574.738H276.537V572.472H278.055V568.732H281.003V572.472H283.423V574.738H281.003V580.37C281.003 580.766 281.105 581.052 281.311 581.228C281.531 581.404 281.795 581.492 282.103 581.492C282.411 581.492 282.711 581.441 283.005 581.338C283.298 581.235 283.533 581.147 283.709 581.074L284.303 583.406ZM285.838 570.866V567.94H288.786V570.866H285.838ZM285.838 584V572.472H288.786V584H285.838ZM298.354 583.406C297.958 583.582 297.466 583.758 296.88 583.934C296.308 584.11 295.714 584.198 295.098 584.198C294.555 584.198 294.056 584.103 293.602 583.912C293.147 583.721 292.78 583.421 292.502 583.01C292.238 582.585 292.106 582.035 292.106 581.36V574.738H290.588V572.472H292.106V568.732H295.054V572.472H297.474V574.738H295.054V580.37C295.054 580.766 295.156 581.052 295.362 581.228C295.582 581.404 295.846 581.492 296.154 581.492C296.462 581.492 296.762 581.441 297.056 581.338C297.349 581.235 297.584 581.147 297.76 581.074L298.354 583.406ZM300.088 586.244C300.631 586.391 301.071 586.464 301.408 586.464C301.804 586.464 302.119 586.295 302.354 585.958C302.603 585.635 302.882 584.983 303.19 584L298.636 572.472H301.694L304.796 580.986L307.524 572.472H310.34L305.5 586.288C305.236 587.08 304.759 587.733 304.07 588.246C303.395 588.774 302.559 589.038 301.562 589.038C301.078 589.038 300.587 588.957 300.088 588.796V586.244Z" fill="#333333"/>
<path d="M228.25 622.11C227.003 622.11 225.94 621.905 225.06 621.494C224.195 621.069 223.491 620.489 222.948 619.756C222.42 619.023 222.031 618.194 221.782 617.27C221.533 616.331 221.408 615.356 221.408 614.344V606.38H224.444V614.344C224.444 615.209 224.561 616.031 224.796 616.808C225.031 617.585 225.427 618.216 225.984 618.7C226.541 619.184 227.289 619.426 228.228 619.426C229.196 619.426 229.959 619.184 230.516 618.7C231.073 618.201 231.469 617.563 231.704 616.786C231.939 616.009 232.056 615.195 232.056 614.344V606.38H235.07V614.344C235.07 615.415 234.938 616.419 234.674 617.358C234.425 618.297 234.021 619.125 233.464 619.844C232.921 620.548 232.217 621.105 231.352 621.516C230.487 621.912 229.453 622.11 228.25 622.11ZM248.363 622H245.415V615.532C245.415 614.608 245.253 613.933 244.931 613.508C244.608 613.083 244.161 612.87 243.589 612.87C243.193 612.87 242.789 612.973 242.379 613.178C241.983 613.383 241.623 613.669 241.301 614.036C240.978 614.388 240.743 614.799 240.597 615.268V622H237.649V610.472H240.311V612.606C240.736 611.887 241.352 611.323 242.159 610.912C242.965 610.487 243.875 610.274 244.887 610.274C245.605 610.274 246.192 610.406 246.647 610.67C247.101 610.919 247.453 611.264 247.703 611.704C247.952 612.129 248.121 612.613 248.209 613.156C248.311 613.699 248.363 614.249 248.363 614.806V622ZM250.926 608.866V605.94H253.874V608.866H250.926ZM250.926 622V610.472H253.874V622H250.926ZM263.441 621.406C263.045 621.582 262.554 621.758 261.967 621.934C261.395 622.11 260.801 622.198 260.185 622.198C259.643 622.198 259.144 622.103 258.689 621.912C258.235 621.721 257.868 621.421 257.589 621.01C257.325 620.585 257.193 620.035 257.193 619.36V612.738H255.675V610.472H257.193V606.732H260.141V610.472H262.561V612.738H260.141V618.37C260.141 618.766 260.244 619.052 260.449 619.228C260.669 619.404 260.933 619.492 261.241 619.492C261.549 619.492 261.85 619.441 262.143 619.338C262.437 619.235 262.671 619.147 262.847 619.074L263.441 621.406ZM270.548 622V606.38H277.17C277.889 606.38 278.549 606.527 279.15 606.82C279.766 607.113 280.294 607.509 280.734 608.008C281.174 608.507 281.519 609.064 281.768 609.68C282.017 610.296 282.142 610.927 282.142 611.572C282.142 612.452 281.937 613.288 281.526 614.08C281.115 614.872 280.543 615.517 279.81 616.016C279.091 616.515 278.248 616.764 277.28 616.764H273.584V622H270.548ZM273.584 614.102H277.104C277.661 614.102 278.123 613.875 278.49 613.42C278.871 612.951 279.062 612.335 279.062 611.572C279.062 610.765 278.849 610.142 278.424 609.702C277.999 609.262 277.515 609.042 276.972 609.042H273.584V614.102ZM290.833 613.024C289.938 613.024 289.139 613.2 288.435 613.552C287.731 613.889 287.225 614.381 286.917 615.026V622H283.969V610.472H286.675V612.936C287.071 612.144 287.584 611.521 288.215 611.066C288.86 610.611 289.535 610.362 290.239 610.318C290.547 610.318 290.745 610.325 290.833 610.34V613.024ZM292.477 608.866V605.94H295.425V608.866H292.477ZM292.477 622V610.472H295.425V622H292.477ZM303.452 622.22C302.206 622.22 301.128 621.941 300.218 621.384C299.309 620.827 298.605 620.093 298.106 619.184C297.608 618.275 297.358 617.292 297.358 616.236C297.358 615.165 297.6 614.175 298.084 613.266C298.583 612.357 299.287 611.631 300.196 611.088C301.106 610.545 302.184 610.274 303.43 610.274C304.692 610.274 305.762 610.545 306.642 611.088C307.537 611.631 308.204 612.342 308.644 613.222L305.762 614.102C305.249 613.222 304.464 612.782 303.408 612.782C302.836 612.782 302.323 612.929 301.868 613.222C301.414 613.501 301.054 613.904 300.79 614.432C300.526 614.945 300.394 615.547 300.394 616.236C300.394 616.911 300.526 617.512 300.79 618.04C301.069 618.553 301.436 618.964 301.89 619.272C302.345 619.565 302.851 619.712 303.408 619.712C303.936 619.712 304.42 619.587 304.86 619.338C305.315 619.074 305.63 618.744 305.806 618.348L308.688 619.228C308.292 620.093 307.632 620.812 306.708 621.384C305.799 621.941 304.714 622.22 303.452 622.22ZM315.741 622.22C314.494 622.22 313.416 621.949 312.507 621.406C311.612 620.863 310.915 620.145 310.417 619.25C309.918 618.341 309.669 617.358 309.669 616.302C309.669 615.217 309.911 614.219 310.395 613.31C310.893 612.386 311.597 611.653 312.507 611.11C313.416 610.553 314.501 610.274 315.763 610.274C317.024 610.274 318.102 610.553 318.997 611.11C319.891 611.653 320.573 612.379 321.043 613.288C321.527 614.183 321.769 615.151 321.769 616.192C321.769 616.573 321.747 616.903 321.703 617.182H312.793C312.866 618.077 313.196 618.781 313.783 619.294C314.384 619.807 315.073 620.064 315.851 620.064C316.437 620.064 316.987 619.925 317.501 619.646C318.029 619.353 318.388 618.971 318.579 618.502L321.109 619.206C320.683 620.086 320.001 620.812 319.063 621.384C318.124 621.941 317.017 622.22 315.741 622.22ZM312.727 615.312H318.755C318.667 614.447 318.337 613.75 317.765 613.222C317.207 612.679 316.525 612.408 315.719 612.408C314.927 612.408 314.245 612.679 313.673 613.222C313.115 613.75 312.8 614.447 312.727 615.312Z" fill="#333333"/>
<path d="M421.296 581.338V584H412.452V581.338H415.488V571.174C415.327 571.394 415.041 571.658 414.63 571.966C414.219 572.259 413.765 572.516 413.266 572.736C412.782 572.956 412.342 573.066 411.946 573.066V570.338C412.327 570.338 412.723 570.235 413.134 570.03C413.545 569.825 413.926 569.59 414.278 569.326C414.63 569.047 414.916 568.805 415.136 568.6C415.371 568.38 415.488 568.255 415.488 568.226H418.502V581.338H421.296ZM434.259 578.786C434.259 579.798 434.002 580.715 433.489 581.536C432.99 582.357 432.308 583.01 431.443 583.494C430.592 583.978 429.624 584.22 428.539 584.22C427.366 584.22 426.346 583.934 425.481 583.362C424.616 582.79 423.948 581.969 423.479 580.898C423.024 579.827 422.797 578.544 422.797 577.048C422.797 574.203 423.34 572.032 424.425 570.536C425.525 569.025 426.999 568.27 428.847 568.27C429.83 568.27 430.732 568.483 431.553 568.908C432.389 569.333 433.093 569.942 433.665 570.734L431.971 572.582C431.619 572.039 431.164 571.614 430.607 571.306C430.05 570.983 429.448 570.822 428.803 570.822C427.82 570.822 427.036 571.218 426.449 572.01C425.862 572.787 425.554 573.88 425.525 575.288C425.833 574.76 426.273 574.342 426.845 574.034C427.417 573.726 428.07 573.572 428.803 573.572C429.83 573.572 430.754 573.807 431.575 574.276C432.396 574.731 433.049 575.354 433.533 576.146C434.017 576.923 434.259 577.803 434.259 578.786ZM428.561 581.734C429.074 581.734 429.551 581.602 429.991 581.338C430.431 581.059 430.783 580.7 431.047 580.26C431.311 579.805 431.443 579.314 431.443 578.786C431.443 578.258 431.311 577.781 431.047 577.356C430.783 576.916 430.431 576.571 429.991 576.322C429.551 576.058 429.074 575.926 428.561 575.926C428.033 575.926 427.549 576.058 427.109 576.322C426.669 576.571 426.317 576.916 426.053 577.356C425.804 577.781 425.679 578.258 425.679 578.786C425.679 579.314 425.811 579.805 426.075 580.26C426.339 580.7 426.684 581.059 427.109 581.338C427.549 581.602 428.033 581.734 428.561 581.734ZM436.424 579.292V576.63H443.09V579.292H436.424ZM445.246 584C445.246 582.812 445.348 581.807 445.554 580.986C445.774 580.15 446.118 579.439 446.588 578.852C447.072 578.251 447.71 577.708 448.502 577.224C449.015 576.916 449.543 576.63 450.086 576.366C450.643 576.087 451.156 575.801 451.626 575.508C452.11 575.2 452.498 574.848 452.792 574.452C453.1 574.041 453.254 573.55 453.254 572.978C453.254 572.333 453.048 571.819 452.638 571.438C452.242 571.042 451.677 570.844 450.944 570.844C450.386 570.844 449.866 570.947 449.382 571.152C448.912 571.343 448.487 571.585 448.106 571.878C447.739 572.157 447.424 572.435 447.16 572.714L445.312 570.778C445.576 570.47 445.979 570.118 446.522 569.722C447.079 569.311 447.761 568.952 448.568 568.644C449.374 568.336 450.291 568.182 451.318 568.182C452.462 568.182 453.422 568.387 454.2 568.798C454.977 569.194 455.564 569.744 455.96 570.448C456.37 571.137 456.576 571.937 456.576 572.846C456.576 573.726 456.385 574.474 456.004 575.09C455.637 575.691 455.16 576.205 454.574 576.63C453.987 577.055 453.378 577.451 452.748 577.818C451.736 578.361 450.966 578.823 450.438 579.204C449.924 579.585 449.558 579.945 449.338 580.282C449.118 580.605 448.942 580.957 448.81 581.338H456.598V584H445.246ZM465.429 584.22C464.314 584.205 463.331 583.956 462.481 583.472C461.645 582.988 460.941 582.357 460.369 581.58C459.797 580.788 459.364 579.93 459.071 579.006C458.792 578.082 458.653 577.18 458.653 576.3C458.653 575.361 458.807 574.423 459.115 573.484C459.423 572.545 459.87 571.695 460.457 570.932C461.058 570.155 461.777 569.539 462.613 569.084C463.449 568.615 464.387 568.38 465.429 568.38C466.558 568.38 467.541 568.629 468.377 569.128C469.227 569.627 469.939 570.272 470.511 571.064C471.083 571.856 471.508 572.714 471.787 573.638C472.08 574.562 472.227 575.449 472.227 576.3C472.227 577.253 472.073 578.199 471.765 579.138C471.457 580.062 471.002 580.913 470.401 581.69C469.814 582.453 469.103 583.069 468.267 583.538C467.431 583.993 466.485 584.22 465.429 584.22ZM461.711 576.3C461.725 576.901 461.806 577.51 461.953 578.126C462.114 578.742 462.341 579.307 462.635 579.82C462.943 580.333 463.324 580.751 463.779 581.074C464.248 581.382 464.798 581.536 465.429 581.536C466.089 581.536 466.653 581.367 467.123 581.03C467.592 580.693 467.973 580.26 468.267 579.732C468.575 579.204 468.802 578.639 468.949 578.038C469.095 577.437 469.169 576.857 469.169 576.3C469.169 575.699 469.088 575.09 468.927 574.474C468.765 573.858 468.531 573.293 468.223 572.78C467.915 572.267 467.526 571.856 467.057 571.548C466.587 571.225 466.045 571.064 465.429 571.064C464.783 571.064 464.226 571.233 463.757 571.57C463.287 571.907 462.899 572.34 462.591 572.868C462.283 573.396 462.055 573.968 461.909 574.584C461.777 575.185 461.711 575.757 461.711 576.3Z" fill="#333333"/>
<path d="M379.628 622V606.38H386.536C387.255 606.38 387.915 606.527 388.516 606.82C389.132 607.113 389.66 607.509 390.1 608.008C390.555 608.507 390.899 609.064 391.134 609.68C391.383 610.296 391.508 610.927 391.508 611.572C391.508 612.569 391.251 613.486 390.738 614.322C390.239 615.158 389.557 615.759 388.692 616.126L392.256 622H388.912L385.7 616.764H382.664V622H379.628ZM382.664 614.102H386.47C387.042 614.102 387.511 613.86 387.878 613.376C388.259 612.877 388.45 612.276 388.45 611.572C388.45 611.088 388.347 610.655 388.142 610.274C387.937 609.893 387.673 609.592 387.35 609.372C387.042 609.152 386.705 609.042 386.338 609.042H382.664V614.102ZM406.997 622V611.748L402.993 619.382H401.299L397.295 611.748V622H394.259V606.38H397.515L402.135 615.268L406.799 606.38H410.033V622H406.997ZM427.247 619.338V622H418.403V619.338H421.439V609.174C421.278 609.394 420.992 609.658 420.581 609.966C420.171 610.259 419.716 610.516 419.217 610.736C418.733 610.956 418.293 611.066 417.897 611.066V608.338C418.279 608.338 418.675 608.235 419.085 608.03C419.496 607.825 419.877 607.59 420.229 607.326C420.581 607.047 420.867 606.805 421.087 606.6C421.322 606.38 421.439 606.255 421.439 606.226H424.453V619.338H427.247ZM433.654 622.22C432.525 622.22 431.506 621.978 430.596 621.494C429.702 620.995 429.012 620.328 428.528 619.492L430.222 617.732C430.633 618.304 431.146 618.759 431.762 619.096C432.378 619.433 433.016 619.602 433.676 619.602C434.468 619.602 435.114 619.36 435.612 618.876C436.126 618.392 436.382 617.761 436.382 616.984C436.382 616.236 436.14 615.627 435.656 615.158C435.172 614.674 434.571 614.432 433.852 614.432C433.383 614.432 432.936 614.542 432.51 614.762C432.085 614.982 431.748 615.283 431.498 615.664H428.924L430.728 606.38H438.428V609.064H432.862L432.246 612.562C432.422 612.371 432.679 612.217 433.016 612.1C433.354 611.968 433.772 611.902 434.27 611.902C435.253 611.902 436.133 612.115 436.91 612.54C437.688 612.965 438.296 613.559 438.736 614.322C439.191 615.07 439.418 615.935 439.418 616.918C439.418 617.974 439.169 618.898 438.67 619.69C438.172 620.482 437.482 621.105 436.602 621.56C435.737 622 434.754 622.22 433.654 622.22ZM441.538 622V618.832H443.958V622H441.538ZM446.083 611.704C446.083 610.692 446.332 609.775 446.831 608.954C447.344 608.133 448.026 607.48 448.877 606.996C449.742 606.512 450.718 606.27 451.803 606.27C452.976 606.27 453.996 606.556 454.861 607.128C455.726 607.685 456.386 608.499 456.841 609.57C457.31 610.641 457.545 611.924 457.545 613.42C457.545 616.265 456.995 618.443 455.895 619.954C454.81 621.465 453.343 622.22 451.495 622.22C450.512 622.22 449.603 622.007 448.767 621.582C447.946 621.142 447.249 620.526 446.677 619.734L448.371 617.886C448.723 618.429 449.178 618.861 449.735 619.184C450.292 619.492 450.894 619.646 451.539 619.646C452.522 619.646 453.306 619.257 453.893 618.48C454.48 617.703 454.788 616.603 454.817 615.18C454.509 615.708 454.069 616.126 453.497 616.434C452.925 616.742 452.272 616.896 451.539 616.896C450.512 616.896 449.588 616.669 448.767 616.214C447.946 615.745 447.293 615.121 446.809 614.344C446.325 613.552 446.083 612.672 446.083 611.704ZM451.781 608.734C451.268 608.734 450.791 608.873 450.351 609.152C449.911 609.416 449.559 609.775 449.295 610.23C449.046 610.67 448.921 611.154 448.921 611.682C448.921 612.21 449.046 612.694 449.295 613.134C449.559 613.559 449.911 613.904 450.351 614.168C450.791 614.417 451.275 614.542 451.803 614.542C452.331 614.542 452.808 614.417 453.233 614.168C453.673 613.904 454.025 613.559 454.289 613.134C454.553 612.694 454.685 612.217 454.685 611.704C454.685 611.176 454.553 610.685 454.289 610.23C454.025 609.775 453.673 609.416 453.233 609.152C452.793 608.873 452.309 608.734 451.781 608.734ZM466.266 622.22C465.152 622.205 464.169 621.956 463.318 621.472C462.482 620.988 461.778 620.357 461.206 619.58C460.634 618.788 460.202 617.93 459.908 617.006C459.63 616.082 459.49 615.18 459.49 614.3C459.49 613.361 459.644 612.423 459.952 611.484C460.26 610.545 460.708 609.695 461.294 608.932C461.896 608.155 462.614 607.539 463.45 607.084C464.286 606.615 465.225 606.38 466.266 606.38C467.396 606.38 468.378 606.629 469.214 607.128C470.065 607.627 470.776 608.272 471.348 609.064C471.92 609.856 472.346 610.714 472.624 611.638C472.918 612.562 473.064 613.449 473.064 614.3C473.064 615.253 472.91 616.199 472.602 617.138C472.294 618.062 471.84 618.913 471.238 619.69C470.652 620.453 469.94 621.069 469.104 621.538C468.268 621.993 467.322 622.22 466.266 622.22ZM462.548 614.3C462.563 614.901 462.644 615.51 462.79 616.126C462.952 616.742 463.179 617.307 463.472 617.82C463.78 618.333 464.162 618.751 464.616 619.074C465.086 619.382 465.636 619.536 466.266 619.536C466.926 619.536 467.491 619.367 467.96 619.03C468.43 618.693 468.811 618.26 469.104 617.732C469.412 617.204 469.64 616.639 469.786 616.038C469.933 615.437 470.006 614.857 470.006 614.3C470.006 613.699 469.926 613.09 469.764 612.474C469.603 611.858 469.368 611.293 469.06 610.78C468.752 610.267 468.364 609.856 467.894 609.548C467.425 609.225 466.882 609.064 466.266 609.064C465.621 609.064 465.064 609.233 464.594 609.57C464.125 609.907 463.736 610.34 463.428 610.868C463.12 611.396 462.893 611.968 462.746 612.584C462.614 613.185 462.548 613.757 462.548 614.3Z" fill="#333333"/>
<path fill-rule="evenodd" clip-rule="evenodd" d="M221 532C219.343 532 218 533.343 218 535V546C218 547.657 219.343 549 221 549H232C233.657 549 235 547.657 235 546V535C235 533.343 233.657 532 232 532H228.737V540.053L226.5 537.95L224.263 540.053V532H221Z" fill="#A177B4"/>
<path fill-rule="evenodd" clip-rule="evenodd" d="M242 532C240.343 532 239 533.343 239 535V546C239 547.657 240.343 549 242 549H253C254.657 549 256 547.657 256 546V535C256 533.343 254.657 532 253 532H249.737V540.053L247.5 537.95L245.263 540.053V532H242Z" fill="#A177B4"/>
<path fill-rule="evenodd" clip-rule="evenodd" d="M231 511C229.343 511 228 512.343 228 514V525C228 526.657 229.343 528 231 528H242C243.657 528 245 526.657 245 525V514C245 512.343 243.657 511 242 511H238.737V519.053L236.5 516.95L234.263 519.053V511H231Z" fill="#A177B4"/>
<defs>
<filter id="filter0_d" x="160" y="119" width="402" height="589" filterUnits="userSpaceOnUse" color-interpolation-filters="sRGB">
<feFlood flood-opacity="0" result="BackgroundImageFix"/>
<feColorMatrix in="SourceAlpha" type="matrix" values="0 0 0 0 0 0 0 0 0 0 0 0 0 0 0 0 0 0 127 0"/>
<feOffset dx="15" dy="15"/>
<feGaussianBlur stdDeviation="15"/>
<feColorMatrix type="matrix" values="0 0 0 0 0.835294 0 0 0 0 0.835294 0 0 0 0 0.835294 0 0 0 0.5 0"/>
<feBlend mode="normal" in2="BackgroundImageFix" result="effect1_dropShadow"/>
<feBlend mode="normal" in="SourceGraphic" in2="effect1_dropShadow" result="shape"/>
</filter>
</defs>
</svg>
