<svg width="1009" height="812" viewBox="0 0 1009 812" fill="none" xmlns="http://www.w3.org/2000/svg">
<g filter="url(#filter0_d)">
<rect x="15" y="15" width="616" height="752" rx="32" fill="white"/>
</g>
<path d="M227.756 319.24C226.38 319.24 225.196 318.944 224.204 318.352C223.228 317.744 222.476 316.944 221.948 315.952C221.42 314.96 221.156 313.888 221.156 312.736C221.156 311.568 221.42 310.488 221.948 309.496C222.492 308.504 223.252 307.712 224.228 307.12C225.22 306.512 226.396 306.208 227.756 306.208C229.116 306.208 230.284 306.512 231.26 307.12C232.252 307.712 233.012 308.504 233.54 309.496C234.068 310.488 234.332 311.568 234.332 312.736C234.332 313.888 234.068 314.96 233.54 315.952C233.012 316.944 232.252 317.744 231.26 318.352C230.284 318.944 229.116 319.24 227.756 319.24ZM224.468 312.736C224.468 313.472 224.612 314.128 224.9 314.704C225.188 315.264 225.58 315.704 226.076 316.024C226.572 316.344 227.132 316.504 227.756 316.504C228.364 316.504 228.916 316.344 229.412 316.024C229.908 315.688 230.3 315.24 230.588 314.68C230.892 314.104 231.044 313.448 231.044 312.712C231.044 311.992 230.892 311.352 230.588 310.792C230.3 310.216 229.908 309.768 229.412 309.448C228.916 309.112 228.364 308.944 227.756 308.944C227.132 308.944 226.572 309.112 226.076 309.448C225.58 309.768 225.188 310.216 224.9 310.792C224.612 311.352 224.468 312 224.468 312.736ZM248.191 319H244.975V311.944C244.975 310.936 244.799 310.2 244.447 309.736C244.095 309.272 243.607 309.04 242.983 309.04C242.551 309.04 242.111 309.152 241.663 309.376C241.231 309.6 240.839 309.912 240.487 310.312C240.135 310.696 239.879 311.144 239.719 311.656V319H236.503V306.424H239.407V308.752C239.871 307.968 240.543 307.352 241.423 306.904C242.303 306.44 243.295 306.208 244.399 306.208C245.183 306.208 245.823 306.352 246.319 306.64C246.815 306.912 247.199 307.288 247.471 307.768C247.743 308.232 247.927 308.76 248.023 309.352C248.135 309.944 248.191 310.544 248.191 311.152V319ZM256.819 319.24C255.459 319.24 254.283 318.944 253.291 318.352C252.315 317.76 251.555 316.976 251.011 316C250.467 315.008 250.195 313.936 250.195 312.784C250.195 311.6 250.459 310.512 250.987 309.52C251.531 308.512 252.299 307.712 253.291 307.12C254.283 306.512 255.467 306.208 256.843 306.208C258.219 306.208 259.395 306.512 260.371 307.12C261.347 307.712 262.091 308.504 262.603 309.496C263.131 310.472 263.395 311.528 263.395 312.664C263.395 313.08 263.371 313.44 263.323 313.744H253.603C253.683 314.72 254.043 315.488 254.683 316.048C255.339 316.608 256.091 316.888 256.939 316.888C257.579 316.888 258.179 316.736 258.739 316.432C259.315 316.112 259.707 315.696 259.915 315.184L262.675 315.952C262.211 316.912 261.467 317.704 260.443 318.328C259.419 318.936 258.211 319.24 256.819 319.24ZM253.531 311.704H260.107C260.011 310.76 259.651 310 259.027 309.424C258.419 308.832 257.675 308.536 256.795 308.536C255.931 308.536 255.187 308.832 254.563 309.424C253.955 310 253.611 310.76 253.531 311.704ZM269.987 319.24C268.915 319.24 267.891 319.064 266.915 318.712C265.939 318.36 265.099 317.84 264.395 317.152L265.547 315.064C266.299 315.672 267.035 316.12 267.755 316.408C268.475 316.696 269.179 316.84 269.867 316.84C270.491 316.84 270.987 316.728 271.355 316.504C271.739 316.28 271.931 315.944 271.931 315.496C271.931 315.032 271.699 314.72 271.235 314.56C270.771 314.384 270.123 314.168 269.291 313.912C268.363 313.624 267.587 313.328 266.963 313.024C266.339 312.72 265.867 312.352 265.547 311.92C265.243 311.488 265.091 310.928 265.091 310.24C265.091 309.008 265.555 308.024 266.483 307.288C267.411 306.552 268.643 306.184 270.179 306.184C271.075 306.184 271.923 306.328 272.723 306.616C273.523 306.888 274.251 307.336 274.907 307.96L273.611 310C272.379 309.04 271.187 308.56 270.035 308.56C269.523 308.56 269.067 308.656 268.667 308.848C268.283 309.04 268.091 309.376 268.091 309.856C268.091 310.304 268.275 310.624 268.643 310.816C269.027 311.008 269.603 311.216 270.371 311.44C271.363 311.744 272.203 312.04 272.891 312.328C273.595 312.616 274.123 312.984 274.475 313.432C274.843 313.88 275.027 314.488 275.027 315.256C275.027 316.504 274.571 317.48 273.659 318.184C272.747 318.888 271.523 319.24 269.987 319.24ZM277.15 321.448C277.742 321.608 278.222 321.688 278.59 321.688C279.022 321.688 279.366 321.504 279.622 321.136C279.894 320.784 280.198 320.072 280.534 319L275.566 306.424H278.902L282.286 315.712L285.262 306.424H288.334L283.054 321.496C282.766 322.36 282.246 323.072 281.494 323.632C280.758 324.208 279.846 324.496 278.758 324.496C278.23 324.496 277.694 324.408 277.15 324.232V321.448ZM301.769 319H298.553V311.944C298.553 310.936 298.377 310.2 298.025 309.736C297.673 309.272 297.185 309.04 296.561 309.04C296.129 309.04 295.689 309.152 295.241 309.376C294.809 309.6 294.417 309.912 294.065 310.312C293.713 310.696 293.457 311.144 293.297 311.656V319H290.081V306.424H292.985V308.752C293.449 307.968 294.121 307.352 295.001 306.904C295.881 306.44 296.873 306.208 297.977 306.208C298.761 306.208 299.401 306.352 299.897 306.64C300.393 306.912 300.777 307.288 301.049 307.768C301.321 308.232 301.505 308.76 301.601 309.352C301.713 309.944 301.769 310.544 301.769 311.152V319ZM310.422 319.24C309.062 319.24 307.886 318.936 306.894 318.328C305.902 317.72 305.134 316.92 304.59 315.928C304.046 314.936 303.774 313.864 303.774 312.712C303.774 311.544 304.038 310.464 304.566 309.472C305.11 308.48 305.878 307.688 306.87 307.096C307.862 306.504 309.038 306.208 310.398 306.208C311.774 306.208 312.942 306.504 313.902 307.096C314.878 307.688 315.606 308.464 316.086 309.424L312.942 310.384C312.382 309.424 311.526 308.944 310.374 308.944C309.75 308.944 309.19 309.104 308.694 309.424C308.198 309.728 307.806 310.168 307.518 310.744C307.23 311.304 307.086 311.96 307.086 312.712C307.086 313.448 307.23 314.104 307.518 314.68C307.822 315.24 308.222 315.688 308.718 316.024C309.214 316.344 309.766 316.504 310.374 316.504C310.95 316.504 311.478 316.368 311.958 316.096C312.454 315.808 312.798 315.448 312.99 315.016L316.134 315.976C315.702 316.92 314.982 317.704 313.974 318.328C312.982 318.936 311.798 319.24 310.422 319.24ZM318.04 319V315.544H320.68V319H318.04ZM331.039 319.24C330.047 319.24 329.183 319.016 328.447 318.568C327.711 318.12 327.135 317.528 326.719 316.792V324.112H323.503V306.424H326.311V308.584C326.775 307.848 327.375 307.272 328.111 306.856C328.863 306.424 329.711 306.208 330.655 306.208C331.791 306.208 332.799 306.504 333.679 307.096C334.559 307.672 335.255 308.456 335.767 309.448C336.279 310.424 336.535 311.504 336.535 312.688C336.535 313.92 336.295 315.032 335.815 316.024C335.351 317 334.703 317.784 333.871 318.376C333.055 318.952 332.111 319.24 331.039 319.24ZM329.959 316.504C330.615 316.504 331.183 316.328 331.663 315.976C332.159 315.608 332.543 315.136 332.815 314.56C333.103 313.968 333.247 313.344 333.247 312.688C333.247 311.984 333.095 311.352 332.791 310.792C332.487 310.216 332.071 309.768 331.543 309.448C331.031 309.112 330.439 308.944 329.767 308.944C329.159 308.944 328.551 309.144 327.943 309.544C327.335 309.944 326.927 310.448 326.719 311.056V314.008C327.007 314.712 327.447 315.304 328.039 315.784C328.631 316.264 329.271 316.504 329.959 316.504ZM338.69 301.48H341.906V314.968C341.906 315.56 342.002 315.952 342.194 316.144C342.386 316.336 342.65 316.432 342.986 316.432C343.242 316.432 343.506 316.4 343.778 316.336C344.05 316.272 344.29 316.192 344.498 316.096L344.93 318.544C344.498 318.752 343.994 318.912 343.418 319.024C342.842 319.136 342.322 319.192 341.858 319.192C340.85 319.192 340.066 318.928 339.506 318.4C338.962 317.856 338.69 317.088 338.69 316.096V301.48ZM345.467 315.28C345.467 314.464 345.691 313.752 346.139 313.144C346.603 312.52 347.243 312.04 348.059 311.704C348.875 311.368 349.811 311.2 350.867 311.2C351.395 311.2 351.931 311.248 352.475 311.344C353.019 311.424 353.491 311.544 353.891 311.704V311.032C353.891 310.232 353.651 309.616 353.171 309.184C352.707 308.752 352.011 308.536 351.083 308.536C350.395 308.536 349.739 308.656 349.115 308.896C348.491 309.136 347.835 309.488 347.147 309.952L346.115 307.84C346.947 307.296 347.795 306.888 348.659 306.616C349.539 306.344 350.459 306.208 351.419 306.208C353.211 306.208 354.603 306.656 355.595 307.552C356.603 308.448 357.107 309.728 357.107 311.392V315.4C357.107 315.752 357.163 316 357.275 316.144C357.387 316.272 357.587 316.352 357.875 316.384V319C357.587 319.064 357.323 319.104 357.083 319.12C356.859 319.152 356.667 319.168 356.507 319.168C355.867 319.168 355.379 319.024 355.043 318.736C354.707 318.448 354.507 318.096 354.443 317.68L354.371 317.032C353.811 317.752 353.123 318.304 352.307 318.688C351.507 319.056 350.683 319.24 349.835 319.24C348.987 319.24 348.235 319.072 347.579 318.736C346.923 318.384 346.403 317.912 346.019 317.32C345.651 316.712 345.467 316.032 345.467 315.28ZM353.291 315.928C353.691 315.544 353.891 315.176 353.891 314.824V313.552C353.059 313.216 352.219 313.048 351.371 313.048C350.523 313.048 349.835 313.232 349.307 313.6C348.779 313.952 348.515 314.424 348.515 315.016C348.515 315.496 348.707 315.928 349.091 316.312C349.475 316.696 350.027 316.888 350.747 316.888C351.227 316.888 351.691 316.8 352.139 316.624C352.603 316.448 352.987 316.216 353.291 315.928ZM367.531 318.352C367.099 318.544 366.563 318.736 365.923 318.928C365.299 319.12 364.651 319.216 363.979 319.216C363.387 319.216 362.843 319.112 362.347 318.904C361.851 318.696 361.451 318.368 361.147 317.92C360.859 317.456 360.715 316.856 360.715 316.12V308.896H359.059V306.424H360.715V302.344H363.931V306.424H366.571V308.896H363.931V315.04C363.931 315.472 364.043 315.784 364.267 315.976C364.507 316.168 364.795 316.264 365.131 316.264C365.467 316.264 365.795 316.208 366.115 316.096C366.435 315.984 366.691 315.888 366.883 315.808L367.531 318.352ZM369.206 304.672V301.48H372.422V304.672H369.206ZM369.206 319V306.424H372.422V319H369.206ZM387.011 319H383.795V311.944C383.795 310.936 383.619 310.2 383.267 309.736C382.915 309.272 382.427 309.04 381.803 309.04C381.371 309.04 380.931 309.152 380.483 309.376C380.051 309.6 379.659 309.912 379.307 310.312C378.955 310.696 378.699 311.144 378.539 311.656V319H375.323V306.424H378.227V308.752C378.691 307.968 379.363 307.352 380.243 306.904C381.123 306.44 382.115 306.208 383.219 306.208C384.003 306.208 384.643 306.352 385.139 306.64C385.635 306.912 386.019 307.288 386.291 307.768C386.563 308.232 386.747 308.76 386.843 309.352C386.955 309.944 387.011 310.544 387.011 311.152V319ZM389.688 314.296V306.424H392.904V313.6C392.904 315.536 393.6 316.504 394.992 316.504C395.616 316.504 396.216 316.32 396.792 315.952C397.384 315.568 397.864 314.992 398.232 314.224V306.424H401.448V315.4C401.448 315.752 401.504 316 401.616 316.144C401.728 316.272 401.928 316.352 402.216 316.384V319C401.896 319.064 401.624 319.104 401.4 319.12C401.192 319.136 401 319.144 400.824 319.144C400.248 319.144 399.776 319.016 399.408 318.76C399.056 318.488 398.848 318.12 398.784 317.656L398.712 316.648C398.152 317.512 397.432 318.16 396.552 318.592C395.672 319.024 394.704 319.24 393.648 319.24C392.352 319.24 391.368 318.824 390.696 317.992C390.024 317.144 389.688 315.912 389.688 314.296ZM424.18 319H420.964V311.944C420.964 310.952 420.788 310.224 420.436 309.76C420.1 309.28 419.628 309.04 419.02 309.04C418.38 309.04 417.78 309.288 417.22 309.784C416.66 310.264 416.26 310.896 416.02 311.68V319H412.804V311.944C412.804 310.936 412.628 310.2 412.276 309.736C411.94 309.272 411.468 309.04 410.86 309.04C410.236 309.04 409.636 309.28 409.06 309.76C408.5 310.24 408.1 310.872 407.86 311.656V319H404.644V306.424H407.548V308.752C408.012 307.936 408.644 307.312 409.444 306.88C410.26 306.432 411.188 306.208 412.228 306.208C413.268 306.208 414.076 306.464 414.652 306.976C415.244 307.488 415.62 308.12 415.78 308.872C416.276 308.008 416.924 307.352 417.724 306.904C418.524 306.44 419.42 306.208 420.412 306.208C421.196 306.208 421.828 306.352 422.308 306.64C422.804 306.912 423.188 307.288 423.46 307.768C423.732 308.232 423.916 308.76 424.012 309.352C424.124 309.944 424.18 310.544 424.18 311.152V319Z" fill="black"/>
<path d="M146.217 142V122.12H150.081V142H146.217ZM167.5 142H163.748V133.768C163.748 132.592 163.543 131.733 163.132 131.192C162.722 130.651 162.152 130.38 161.424 130.38C160.92 130.38 160.407 130.511 159.884 130.772C159.38 131.033 158.923 131.397 158.512 131.864C158.102 132.312 157.803 132.835 157.616 133.432V142H153.864V127.328H157.252V130.044C157.794 129.129 158.578 128.411 159.604 127.888C160.631 127.347 161.788 127.076 163.076 127.076C163.991 127.076 164.738 127.244 165.316 127.58C165.895 127.897 166.343 128.336 166.66 128.896C166.978 129.437 167.192 130.053 167.304 130.744C167.435 131.435 167.5 132.135 167.5 132.844V142ZM176.167 142.28C174.916 142.28 173.721 142.075 172.583 141.664C171.444 141.253 170.464 140.647 169.643 139.844L170.987 137.408C171.864 138.117 172.723 138.64 173.563 138.976C174.403 139.312 175.224 139.48 176.027 139.48C176.755 139.48 177.333 139.349 177.763 139.088C178.211 138.827 178.435 138.435 178.435 137.912C178.435 137.371 178.164 137.007 177.623 136.82C177.081 136.615 176.325 136.363 175.355 136.064C174.272 135.728 173.367 135.383 172.639 135.028C171.911 134.673 171.36 134.244 170.987 133.74C170.632 133.236 170.455 132.583 170.455 131.78C170.455 130.343 170.996 129.195 172.079 128.336C173.161 127.477 174.599 127.048 176.391 127.048C177.436 127.048 178.425 127.216 179.359 127.552C180.292 127.869 181.141 128.392 181.907 129.12L180.395 131.5C178.957 130.38 177.567 129.82 176.223 129.82C175.625 129.82 175.093 129.932 174.627 130.156C174.179 130.38 173.955 130.772 173.955 131.332C173.955 131.855 174.169 132.228 174.599 132.452C175.047 132.676 175.719 132.919 176.615 133.18C177.772 133.535 178.752 133.88 179.555 134.216C180.376 134.552 180.992 134.981 181.403 135.504C181.832 136.027 182.047 136.736 182.047 137.632C182.047 139.088 181.515 140.227 180.451 141.048C179.387 141.869 177.959 142.28 176.167 142.28ZM193.309 141.244C192.805 141.468 192.179 141.692 191.433 141.916C190.705 142.14 189.949 142.252 189.165 142.252C188.474 142.252 187.839 142.131 187.261 141.888C186.682 141.645 186.215 141.263 185.861 140.74C185.525 140.199 185.357 139.499 185.357 138.64V130.212H183.425V127.328H185.357V122.568H189.109V127.328H192.189V130.212H189.109V137.38C189.109 137.884 189.239 138.248 189.501 138.472C189.781 138.696 190.117 138.808 190.509 138.808C190.901 138.808 191.283 138.743 191.657 138.612C192.03 138.481 192.329 138.369 192.553 138.276L193.309 141.244ZM194.255 137.66C194.255 136.708 194.516 135.877 195.039 135.168C195.58 134.44 196.327 133.88 197.279 133.488C198.231 133.096 199.323 132.9 200.555 132.9C201.171 132.9 201.796 132.956 202.431 133.068C203.065 133.161 203.616 133.301 204.083 133.488V132.704C204.083 131.771 203.803 131.052 203.243 130.548C202.701 130.044 201.889 129.792 200.807 129.792C200.004 129.792 199.239 129.932 198.511 130.212C197.783 130.492 197.017 130.903 196.215 131.444L195.011 128.98C195.981 128.345 196.971 127.869 197.979 127.552C199.005 127.235 200.079 127.076 201.199 127.076C203.289 127.076 204.913 127.599 206.071 128.644C207.247 129.689 207.835 131.183 207.835 133.124V137.8C207.835 138.211 207.9 138.5 208.031 138.668C208.161 138.817 208.395 138.911 208.731 138.948V142C208.395 142.075 208.087 142.121 207.807 142.14C207.545 142.177 207.321 142.196 207.135 142.196C206.388 142.196 205.819 142.028 205.427 141.692C205.035 141.356 204.801 140.945 204.727 140.46L204.643 139.704C203.989 140.544 203.187 141.188 202.235 141.636C201.301 142.065 200.34 142.28 199.351 142.28C198.361 142.28 197.484 142.084 196.719 141.692C195.953 141.281 195.347 140.731 194.899 140.04C194.469 139.331 194.255 138.537 194.255 137.66ZM203.383 138.416C203.849 137.968 204.083 137.539 204.083 137.128V135.644C203.112 135.252 202.132 135.056 201.143 135.056C200.153 135.056 199.351 135.271 198.735 135.7C198.119 136.111 197.811 136.661 197.811 137.352C197.811 137.912 198.035 138.416 198.483 138.864C198.931 139.312 199.575 139.536 200.415 139.536C200.975 139.536 201.516 139.433 202.039 139.228C202.58 139.023 203.028 138.752 203.383 138.416ZM217.081 142.084C215.774 142.084 214.626 141.748 213.637 141.076C212.647 140.404 211.873 139.508 211.313 138.388C210.753 137.249 210.473 136.008 210.473 134.664C210.473 133.245 210.762 131.967 211.341 130.828C211.919 129.671 212.722 128.756 213.749 128.084C214.775 127.412 215.961 127.076 217.305 127.076C218.443 127.076 219.442 127.337 220.301 127.86C221.159 128.364 221.869 129.045 222.429 129.904V127.328H225.705V141.3C225.705 142.756 225.35 143.997 224.641 145.024C223.95 146.069 222.989 146.863 221.757 147.404C220.525 147.964 219.125 148.244 217.557 148.244C215.951 148.244 214.598 147.973 213.497 147.432C212.414 146.909 211.481 146.163 210.697 145.192L212.741 143.204C213.301 143.895 214.001 144.436 214.841 144.828C215.699 145.22 216.605 145.416 217.557 145.416C218.341 145.416 219.059 145.267 219.713 144.968C220.385 144.688 220.926 144.24 221.337 143.624C221.747 143.027 221.953 142.252 221.953 141.3V139.452C221.467 140.292 220.777 140.945 219.881 141.412C219.003 141.86 218.07 142.084 217.081 142.084ZM218.341 139.088C219.162 139.088 219.899 138.845 220.553 138.36C221.225 137.875 221.691 137.296 221.953 136.624V133.124C221.617 132.265 221.085 131.575 220.357 131.052C219.647 130.529 218.901 130.268 218.117 130.268C217.351 130.268 216.679 130.483 216.101 130.912C215.541 131.341 215.102 131.901 214.785 132.592C214.467 133.264 214.309 133.992 214.309 134.776C214.309 135.579 214.486 136.307 214.841 136.96C215.195 137.613 215.671 138.136 216.269 138.528C216.885 138.901 217.575 139.088 218.341 139.088ZM237.823 130.576C236.684 130.576 235.667 130.8 234.771 131.248C233.875 131.677 233.231 132.303 232.839 133.124V142H229.087V127.328H232.531V130.464C233.035 129.456 233.688 128.663 234.491 128.084C235.312 127.505 236.171 127.188 237.067 127.132C237.459 127.132 237.711 127.141 237.823 127.16V130.576ZM238.825 137.66C238.825 136.708 239.086 135.877 239.609 135.168C240.15 134.44 240.897 133.88 241.849 133.488C242.801 133.096 243.893 132.9 245.125 132.9C245.741 132.9 246.366 132.956 247.001 133.068C247.636 133.161 248.186 133.301 248.653 133.488V132.704C248.653 131.771 248.373 131.052 247.813 130.548C247.272 130.044 246.46 129.792 245.377 129.792C244.574 129.792 243.809 129.932 243.081 130.212C242.353 130.492 241.588 130.903 240.785 131.444L239.581 128.98C240.552 128.345 241.541 127.869 242.549 127.552C243.576 127.235 244.649 127.076 245.769 127.076C247.86 127.076 249.484 127.599 250.641 128.644C251.817 129.689 252.405 131.183 252.405 133.124V137.8C252.405 138.211 252.47 138.5 252.601 138.668C252.732 138.817 252.965 138.911 253.301 138.948V142C252.965 142.075 252.657 142.121 252.377 142.14C252.116 142.177 251.892 142.196 251.705 142.196C250.958 142.196 250.389 142.028 249.997 141.692C249.605 141.356 249.372 140.945 249.297 140.46L249.213 139.704C248.56 140.544 247.757 141.188 246.805 141.636C245.872 142.065 244.91 142.28 243.921 142.28C242.932 142.28 242.054 142.084 241.289 141.692C240.524 141.281 239.917 140.731 239.469 140.04C239.04 139.331 238.825 138.537 238.825 137.66ZM247.953 138.416C248.42 137.968 248.653 137.539 248.653 137.128V135.644C247.682 135.252 246.702 135.056 245.713 135.056C244.724 135.056 243.921 135.271 243.305 135.7C242.689 136.111 242.381 136.661 242.381 137.352C242.381 137.912 242.605 138.416 243.053 138.864C243.501 139.312 244.145 139.536 244.985 139.536C245.545 139.536 246.086 139.433 246.609 139.228C247.15 139.023 247.598 138.752 247.953 138.416ZM278.703 142H274.951V133.768C274.951 132.611 274.746 131.761 274.335 131.22C273.943 130.66 273.392 130.38 272.683 130.38C271.936 130.38 271.236 130.669 270.583 131.248C269.93 131.808 269.463 132.545 269.183 133.46V142H265.431V133.768C265.431 132.592 265.226 131.733 264.815 131.192C264.423 130.651 263.872 130.38 263.163 130.38C262.435 130.38 261.735 130.66 261.063 131.22C260.41 131.78 259.943 132.517 259.663 133.432V142H255.911V127.328H259.299V130.044C259.84 129.092 260.578 128.364 261.511 127.86C262.463 127.337 263.546 127.076 264.759 127.076C265.972 127.076 266.915 127.375 267.587 127.972C268.278 128.569 268.716 129.307 268.903 130.184C269.482 129.176 270.238 128.411 271.171 127.888C272.104 127.347 273.15 127.076 274.307 127.076C275.222 127.076 275.959 127.244 276.519 127.58C277.098 127.897 277.546 128.336 277.863 128.896C278.18 129.437 278.395 130.053 278.507 130.744C278.638 131.435 278.703 132.135 278.703 132.844V142ZM300.904 127.328C300.736 127.141 300.382 126.899 299.84 126.6C299.299 126.283 298.646 126.003 297.88 125.76C297.134 125.499 296.359 125.368 295.556 125.368C293.447 125.368 292.392 126.115 292.392 127.608C292.392 128.149 292.56 128.579 292.896 128.896C293.232 129.213 293.736 129.484 294.408 129.708C295.08 129.932 295.92 130.175 296.928 130.436C298.235 130.772 299.364 131.164 300.316 131.612C301.287 132.06 302.024 132.657 302.528 133.404C303.051 134.132 303.312 135.103 303.312 136.316C303.312 137.735 302.967 138.883 302.276 139.76C301.604 140.619 300.708 141.244 299.588 141.636C298.468 142.028 297.255 142.224 295.948 142.224C294.455 142.224 292.971 142 291.496 141.552C290.04 141.085 288.743 140.451 287.604 139.648L289.312 136.316C289.48 136.484 289.779 136.708 290.208 136.988C290.638 137.249 291.16 137.52 291.776 137.8C292.392 138.061 293.064 138.285 293.792 138.472C294.52 138.659 295.258 138.752 296.004 138.752C298.132 138.752 299.196 138.071 299.196 136.708C299.196 136.129 298.982 135.663 298.552 135.308C298.123 134.953 297.516 134.655 296.732 134.412C295.967 134.169 295.071 133.899 294.044 133.6C292.775 133.245 291.72 132.853 290.88 132.424C290.059 131.976 289.443 131.425 289.032 130.772C288.622 130.1 288.416 129.251 288.416 128.224C288.416 126.861 288.734 125.723 289.368 124.808C290.022 123.875 290.899 123.175 292 122.708C293.102 122.223 294.324 121.98 295.668 121.98C297.05 121.98 298.338 122.204 299.532 122.652C300.727 123.1 301.754 123.613 302.612 124.192L300.904 127.328ZM305.711 144.856C306.402 145.043 306.962 145.136 307.391 145.136C307.895 145.136 308.297 144.921 308.595 144.492C308.913 144.081 309.267 143.251 309.659 142L303.863 127.328H307.755L311.703 138.164L315.175 127.328H318.759L312.599 144.912C312.263 145.92 311.657 146.751 310.779 147.404C309.921 148.076 308.857 148.412 307.587 148.412C306.971 148.412 306.346 148.309 305.711 148.104V144.856ZM334.434 142H330.682V133.768C330.682 132.592 330.477 131.733 330.066 131.192C329.655 130.651 329.086 130.38 328.358 130.38C327.854 130.38 327.341 130.511 326.818 130.772C326.314 131.033 325.857 131.397 325.446 131.864C325.035 132.312 324.737 132.835 324.55 133.432V142H320.798V127.328H324.186V130.044C324.727 129.129 325.511 128.411 326.538 127.888C327.565 127.347 328.722 127.076 330.01 127.076C330.925 127.076 331.671 127.244 332.25 127.58C332.829 127.897 333.277 128.336 333.594 128.896C333.911 129.437 334.126 130.053 334.238 130.744C334.369 131.435 334.434 132.135 334.434 132.844V142ZM344.528 142.28C342.942 142.28 341.57 141.925 340.412 141.216C339.255 140.507 338.359 139.573 337.724 138.416C337.09 137.259 336.772 136.008 336.772 134.664C336.772 133.301 337.08 132.041 337.696 130.884C338.331 129.727 339.227 128.803 340.384 128.112C341.542 127.421 342.914 127.076 344.5 127.076C346.106 127.076 347.468 127.421 348.588 128.112C349.727 128.803 350.576 129.708 351.136 130.828L347.468 131.948C346.815 130.828 345.816 130.268 344.472 130.268C343.744 130.268 343.091 130.455 342.512 130.828C341.934 131.183 341.476 131.696 341.14 132.368C340.804 133.021 340.636 133.787 340.636 134.664C340.636 135.523 340.804 136.288 341.14 136.96C341.495 137.613 341.962 138.136 342.54 138.528C343.119 138.901 343.763 139.088 344.472 139.088C345.144 139.088 345.76 138.929 346.32 138.612C346.899 138.276 347.3 137.856 347.524 137.352L351.192 138.472C350.688 139.573 349.848 140.488 348.672 141.216C347.515 141.925 346.134 142.28 344.528 142.28ZM367.137 142H363.385V133.768C363.385 132.629 363.161 131.78 362.713 131.22C362.284 130.66 361.686 130.38 360.921 130.38C360.454 130.38 359.969 130.511 359.465 130.772C358.98 131.033 358.532 131.397 358.121 131.864C357.729 132.312 357.44 132.835 357.253 133.432V142H353.501V121.56H357.253V130.044C357.794 129.111 358.532 128.383 359.465 127.86C360.398 127.337 361.416 127.076 362.517 127.076C363.768 127.076 364.729 127.356 365.401 127.916C366.073 128.476 366.53 129.195 366.773 130.072C367.016 130.949 367.137 131.873 367.137 132.844V142ZM379.135 130.576C377.997 130.576 376.979 130.8 376.083 131.248C375.187 131.677 374.543 132.303 374.151 133.124V142H370.399V127.328H373.843V130.464C374.347 129.456 375.001 128.663 375.803 128.084C376.625 127.505 377.483 127.188 378.379 127.132C378.771 127.132 379.023 127.141 379.135 127.16V130.576ZM387.812 142.28C386.207 142.28 384.825 141.935 383.668 141.244C382.529 140.535 381.652 139.601 381.036 138.444C380.42 137.287 380.112 136.036 380.112 134.692C380.112 133.329 380.42 132.069 381.036 130.912C381.671 129.755 382.557 128.831 383.696 128.14C384.853 127.431 386.225 127.076 387.812 127.076C389.399 127.076 390.761 127.431 391.9 128.14C393.057 128.831 393.944 129.755 394.56 130.912C395.176 132.069 395.484 133.329 395.484 134.692C395.484 136.036 395.176 137.287 394.56 138.444C393.944 139.601 393.057 140.535 391.9 141.244C390.761 141.935 389.399 142.28 387.812 142.28ZM383.976 134.692C383.976 135.551 384.144 136.316 384.48 136.988C384.816 137.641 385.273 138.155 385.852 138.528C386.431 138.901 387.084 139.088 387.812 139.088C388.521 139.088 389.165 138.901 389.744 138.528C390.323 138.136 390.78 137.613 391.116 136.96C391.471 136.288 391.648 135.523 391.648 134.664C391.648 133.824 391.471 133.077 391.116 132.424C390.78 131.752 390.323 131.229 389.744 130.856C389.165 130.464 388.521 130.268 387.812 130.268C387.084 130.268 386.431 130.464 385.852 130.856C385.273 131.229 384.816 131.752 384.48 132.424C384.144 133.077 383.976 133.833 383.976 134.692ZM411.653 142H407.901V133.768C407.901 132.592 407.695 131.733 407.285 131.192C406.874 130.651 406.305 130.38 405.577 130.38C405.073 130.38 404.559 130.511 404.037 130.772C403.533 131.033 403.075 131.397 402.665 131.864C402.254 132.312 401.955 132.835 401.769 133.432V142H398.017V127.328H401.405V130.044C401.946 129.129 402.73 128.411 403.757 127.888C404.783 127.347 405.941 127.076 407.229 127.076C408.143 127.076 408.89 127.244 409.469 127.58C410.047 127.897 410.495 128.336 410.813 128.896C411.13 129.437 411.345 130.053 411.457 130.744C411.587 131.435 411.653 132.135 411.653 132.844V142ZM414.915 125.284V121.56H418.667V125.284H414.915ZM414.915 142V127.328H418.667V142H414.915ZM421.072 139.704L429.164 129.96H421.408V127.328H433.196V129.624L425.16 139.368H433.336V142H421.072V139.704ZM434.852 137.66C434.852 136.708 435.114 135.877 435.636 135.168C436.178 134.44 436.924 133.88 437.876 133.488C438.828 133.096 439.92 132.9 441.152 132.9C441.768 132.9 442.394 132.956 443.028 133.068C443.663 133.161 444.214 133.301 444.68 133.488V132.704C444.68 131.771 444.4 131.052 443.84 130.548C443.299 130.044 442.487 129.792 441.404 129.792C440.602 129.792 439.836 129.932 439.108 130.212C438.38 130.492 437.615 130.903 436.812 131.444L435.608 128.98C436.579 128.345 437.568 127.869 438.576 127.552C439.603 127.235 440.676 127.076 441.796 127.076C443.887 127.076 445.511 127.599 446.668 128.644C447.844 129.689 448.432 131.183 448.432 133.124V137.8C448.432 138.211 448.498 138.5 448.628 138.668C448.759 138.817 448.992 138.911 449.328 138.948V142C448.992 142.075 448.684 142.121 448.404 142.14C448.143 142.177 447.919 142.196 447.732 142.196C446.986 142.196 446.416 142.028 446.024 141.692C445.632 141.356 445.399 140.945 445.324 140.46L445.24 139.704C444.587 140.544 443.784 141.188 442.832 141.636C441.899 142.065 440.938 142.28 439.948 142.28C438.959 142.28 438.082 142.084 437.316 141.692C436.551 141.281 435.944 140.731 435.496 140.04C435.067 139.331 434.852 138.537 434.852 137.66ZM443.98 138.416C444.447 137.968 444.68 137.539 444.68 137.128V135.644C443.71 135.252 442.73 135.056 441.74 135.056C440.751 135.056 439.948 135.271 439.332 135.7C438.716 136.111 438.408 136.661 438.408 137.352C438.408 137.912 438.632 138.416 439.08 138.864C439.528 139.312 440.172 139.536 441.012 139.536C441.572 139.536 442.114 139.433 442.636 139.228C443.178 139.023 443.626 138.752 443.98 138.416ZM460.594 141.244C460.09 141.468 459.464 141.692 458.718 141.916C457.99 142.14 457.234 142.252 456.45 142.252C455.759 142.252 455.124 142.131 454.546 141.888C453.967 141.645 453.5 141.263 453.146 140.74C452.81 140.199 452.642 139.499 452.642 138.64V130.212H450.71V127.328H452.642V122.568H456.394V127.328H459.474V130.212H456.394V137.38C456.394 137.884 456.524 138.248 456.786 138.472C457.066 138.696 457.402 138.808 457.794 138.808C458.186 138.808 458.568 138.743 458.942 138.612C459.315 138.481 459.614 138.369 459.838 138.276L460.594 141.244ZM462.548 125.284V121.56H466.3V125.284H462.548ZM462.548 142V127.328H466.3V142H462.548ZM476.461 142.28C474.855 142.28 473.474 141.935 472.317 141.244C471.178 140.535 470.301 139.601 469.685 138.444C469.069 137.287 468.761 136.036 468.761 134.692C468.761 133.329 469.069 132.069 469.685 130.912C470.319 129.755 471.206 128.831 472.345 128.14C473.502 127.431 474.874 127.076 476.461 127.076C478.047 127.076 479.41 127.431 480.549 128.14C481.706 128.831 482.593 129.755 483.209 130.912C483.825 132.069 484.133 133.329 484.133 134.692C484.133 136.036 483.825 137.287 483.209 138.444C482.593 139.601 481.706 140.535 480.549 141.244C479.41 141.935 478.047 142.28 476.461 142.28ZM472.625 134.692C472.625 135.551 472.793 136.316 473.129 136.988C473.465 137.641 473.922 138.155 474.501 138.528C475.079 138.901 475.733 139.088 476.461 139.088C477.17 139.088 477.814 138.901 478.393 138.528C478.971 138.136 479.429 137.613 479.765 136.96C480.119 136.288 480.297 135.523 480.297 134.664C480.297 133.824 480.119 133.077 479.765 132.424C479.429 131.752 478.971 131.229 478.393 130.856C477.814 130.464 477.17 130.268 476.461 130.268C475.733 130.268 475.079 130.464 474.501 130.856C473.922 131.229 473.465 131.752 473.129 132.424C472.793 133.077 472.625 133.833 472.625 134.692ZM500.301 142H496.549V133.768C496.549 132.592 496.344 131.733 495.933 131.192C495.522 130.651 494.953 130.38 494.225 130.38C493.721 130.38 493.208 130.511 492.685 130.772C492.181 131.033 491.724 131.397 491.313 131.864C490.902 132.312 490.604 132.835 490.417 133.432V142H486.665V127.328H490.053V130.044C490.594 129.129 491.378 128.411 492.405 127.888C493.432 127.347 494.589 127.076 495.877 127.076C496.792 127.076 497.538 127.244 498.117 127.58C498.696 127.897 499.144 128.336 499.461 128.896C499.778 129.437 499.993 130.053 500.105 130.744C500.236 131.435 500.301 132.135 500.301 132.844V142Z" fill="black"/>
<rect x="162" y="53" width="430" height="38" rx="19" fill="white" stroke="#D5D5D5" stroke-width="2"/>
<path d="M64 64L54.1554 68.9223C51.2072 70.3964 51.2072 74.6036 54.1554 76.0777L64 81" stroke="#D5D5D5" stroke-width="3" stroke-linecap="round"/>
<path d="M90 81L99.8446 76.0777C102.793 74.6036 102.793 70.3964 99.8446 68.9223L90 64" stroke="#D5D5D5" stroke-width="3" stroke-linecap="round"/>
<path d="M187.569 68.5625C186.984 64.8998 185.605 62.3281 184 62.3281C182.395 62.3281 181.016 64.8998 180.431 68.5625H187.569ZM180.129 72.5C180.129 73.4105 180.177 74.2842 180.262 75.125H187.734C187.819 74.2842 187.867 73.4105 187.867 72.5C187.867 71.5895 187.819 70.7158 187.734 69.875H180.262C180.177 70.7158 180.129 71.5895 180.129 72.5ZM193.222 68.5625C192.069 65.7775 189.734 63.6242 186.851 62.7547C187.835 64.141 188.512 66.2287 188.867 68.5625H193.222ZM181.145 62.7547C178.266 63.6242 175.927 65.7775 174.778 68.5625H179.133C179.484 66.2287 180.161 64.141 181.145 62.7547V62.7547ZM193.653 69.875H189.028C189.113 70.7363 189.161 71.6182 189.161 72.5C189.161 73.3818 189.113 74.2637 189.028 75.125H193.649C193.871 74.2842 193.996 73.4105 193.996 72.5C193.996 71.5895 193.871 70.7158 193.653 69.875ZM178.839 72.5C178.839 71.6182 178.887 70.7363 178.972 69.875H174.347C174.129 70.7158 174 71.5895 174 72.5C174 73.4105 174.129 74.2842 174.347 75.125H178.968C178.887 74.2637 178.839 73.3818 178.839 72.5V72.5ZM180.431 76.4375C181.016 80.1002 182.395 82.6719 184 82.6719C185.605 82.6719 186.984 80.1002 187.569 76.4375H180.431ZM186.855 82.2453C189.734 81.3758 192.073 79.2225 193.226 76.4375H188.871C188.516 78.7713 187.839 80.859 186.855 82.2453ZM174.778 76.4375C175.931 79.2225 178.266 81.3758 181.149 82.2453C180.165 80.859 179.488 78.7713 179.133 76.4375H174.778V76.4375Z" fill="#D5D5D5"/>
<g clip-path="url(#clip0)">
<path d="M143.544 63H141.692C141.629 62.9999 141.566 63.0128 141.507 63.0377C141.449 63.0626 141.396 63.0992 141.353 63.1451C141.309 63.191 141.275 63.2453 141.252 63.3048C141.23 63.3643 141.22 63.4276 141.223 63.491L141.38 66.7238C140.471 65.6533 139.34 64.7936 138.066 64.2045C136.792 63.6153 135.404 63.311 134 63.3125C128.662 63.3125 124.309 67.6691 124.312 73.0074C124.316 78.3543 128.652 82.6875 134 82.6875C136.399 82.6909 138.713 81.8009 140.491 80.191C140.539 80.1485 140.577 80.0967 140.604 80.0389C140.631 79.9811 140.646 79.9184 140.647 79.8546C140.649 79.7909 140.638 79.7275 140.614 79.6682C140.591 79.609 140.555 79.5552 140.51 79.5102L139.182 78.182C139.098 78.098 138.985 78.049 138.866 78.045C138.748 78.0411 138.632 78.0823 138.542 78.1605C137.493 79.0838 136.187 79.6653 134.798 79.8275C133.41 79.9896 132.005 79.7248 130.771 79.0682C129.537 78.4116 128.533 77.3944 127.892 76.1524C127.251 74.9103 127.003 73.5023 127.183 72.1161C127.362 70.7299 127.96 69.4313 128.896 68.3935C129.833 67.3557 131.063 66.628 132.424 66.3073C133.784 65.9866 135.21 66.0882 136.511 66.5986C137.813 67.109 138.927 68.0039 139.707 69.1641L135.741 68.9738C135.678 68.9708 135.614 68.9807 135.555 69.0029C135.495 69.0251 135.441 69.0592 135.395 69.103C135.349 69.1468 135.313 69.1995 135.288 69.2579C135.263 69.3163 135.25 69.3791 135.25 69.4426V71.2945C135.25 71.4189 135.299 71.5381 135.387 71.626C135.475 71.7139 135.594 71.7633 135.719 71.7633H143.544C143.668 71.7633 143.788 71.7139 143.876 71.626C143.963 71.5381 144.013 71.4189 144.013 71.2945V63.4688C144.013 63.3444 143.963 63.2252 143.876 63.1373C143.788 63.0494 143.668 63 143.544 63V63Z" fill="#D5D5D5"/>
</g>
<path d="M223.419 68.52H225.959L221.579 79H219.339L217.579 74.5L215.859 79H213.599L209.239 68.52H211.759L214.879 76.44L216.099 73.02L214.279 68.54H216.499L217.579 71.74L218.679 68.54H220.899L219.079 73.02L220.319 76.44L223.419 68.52ZM240.197 68.52H242.737L238.357 79H236.117L234.357 74.5L232.637 79H230.377L226.017 68.52H228.537L231.657 76.44L232.877 73.02L231.057 68.54H233.277L234.357 71.74L235.457 68.54H237.677L235.857 73.02L237.097 76.44L240.197 68.52ZM256.974 68.52H259.514L255.134 79H252.894L251.134 74.5L249.414 79H247.154L242.794 68.52H245.314L248.434 76.44L249.654 73.02L247.834 68.54H250.054L251.134 71.74L252.234 68.54H254.454L252.634 73.02L253.874 76.44L256.974 68.52ZM259.324 79V76.12H261.524V79H259.324ZM273.616 79H270.936V73.12C270.936 72.28 270.79 71.6667 270.496 71.28C270.203 70.8933 269.796 70.7 269.276 70.7C268.916 70.7 268.55 70.7933 268.176 70.98C267.816 71.1667 267.49 71.4267 267.196 71.76C266.903 72.08 266.69 72.4533 266.556 72.88V79H263.876V68.52H266.296V70.46C266.683 69.8067 267.243 69.2933 267.976 68.92C268.71 68.5333 269.536 68.34 270.456 68.34C271.11 68.34 271.643 68.46 272.056 68.7C272.47 68.9267 272.79 69.24 273.016 69.64C273.243 70.0267 273.396 70.4667 273.476 70.96C273.57 71.4533 273.616 71.9533 273.616 72.46V79ZM280.807 79.2C279.673 79.2 278.693 78.9533 277.867 78.46C277.053 77.9667 276.42 77.3133 275.967 76.5C275.513 75.6733 275.287 74.78 275.287 73.82C275.287 72.8333 275.507 71.9267 275.947 71.1C276.4 70.26 277.04 69.5933 277.867 69.1C278.693 68.5933 279.68 68.34 280.827 68.34C281.973 68.34 282.953 68.5933 283.767 69.1C284.58 69.5933 285.2 70.2533 285.627 71.08C286.067 71.8933 286.287 72.7733 286.287 73.72C286.287 74.0667 286.267 74.3667 286.227 74.62H278.127C278.193 75.4333 278.493 76.0733 279.027 76.54C279.573 77.0067 280.2 77.24 280.907 77.24C281.44 77.24 281.94 77.1133 282.407 76.86C282.887 76.5933 283.213 76.2467 283.387 75.82L285.687 76.46C285.3 77.26 284.68 77.92 283.827 78.44C282.973 78.9467 281.967 79.2 280.807 79.2ZM278.067 72.92H283.547C283.467 72.1333 283.167 71.5 282.647 71.02C282.14 70.5267 281.52 70.28 280.787 70.28C280.067 70.28 279.447 70.5267 278.927 71.02C278.42 71.5 278.133 72.1333 278.067 72.92ZM300.626 68.52H303.166L298.786 79H296.546L294.786 74.5L293.066 79H290.806L286.446 68.52H288.966L292.086 76.44L293.306 73.02L291.486 68.54H293.706L294.786 71.74L295.886 68.54H298.106L296.286 73.02L297.526 76.44L300.626 68.52ZM310.684 79.2C309.857 79.2 309.137 79.0133 308.524 78.64C307.91 78.2667 307.43 77.7733 307.084 77.16V83.26H304.404V68.52H306.744V70.32C307.13 69.7067 307.63 69.2267 308.244 68.88C308.87 68.52 309.577 68.34 310.364 68.34C311.31 68.34 312.15 68.5867 312.884 69.08C313.617 69.56 314.197 70.2133 314.624 71.04C315.05 71.8533 315.264 72.7533 315.264 73.74C315.264 74.7667 315.064 75.6933 314.664 76.52C314.277 77.3333 313.737 77.9867 313.044 78.48C312.364 78.96 311.577 79.2 310.684 79.2ZM309.784 76.92C310.33 76.92 310.804 76.7733 311.204 76.48C311.617 76.1733 311.937 75.78 312.164 75.3C312.404 74.8067 312.524 74.2867 312.524 73.74C312.524 73.1533 312.397 72.6267 312.144 72.16C311.89 71.68 311.544 71.3067 311.104 71.04C310.677 70.76 310.184 70.62 309.624 70.62C309.117 70.62 308.61 70.7867 308.104 71.12C307.597 71.4533 307.257 71.8733 307.084 72.38V74.84C307.324 75.4267 307.69 75.92 308.184 76.32C308.677 76.72 309.21 76.92 309.784 76.92ZM316.359 75.9C316.359 75.22 316.546 74.6267 316.919 74.12C317.306 73.6 317.839 73.2 318.519 72.92C319.199 72.64 319.979 72.5 320.859 72.5C321.299 72.5 321.746 72.54 322.199 72.62C322.653 72.6867 323.046 72.7867 323.379 72.92V72.36C323.379 71.6933 323.179 71.18 322.779 70.82C322.393 70.46 321.813 70.28 321.039 70.28C320.466 70.28 319.919 70.38 319.399 70.58C318.879 70.78 318.333 71.0733 317.759 71.46L316.899 69.7C317.593 69.2467 318.299 68.9067 319.019 68.68C319.753 68.4533 320.519 68.34 321.319 68.34C322.813 68.34 323.973 68.7133 324.799 69.46C325.639 70.2067 326.059 71.2733 326.059 72.66V76C326.059 76.2933 326.106 76.5 326.199 76.62C326.293 76.7267 326.459 76.7933 326.699 76.82V79C326.459 79.0533 326.239 79.0867 326.039 79.1C325.853 79.1267 325.693 79.14 325.559 79.14C325.026 79.14 324.619 79.02 324.339 78.78C324.059 78.54 323.893 78.2467 323.839 77.9L323.779 77.36C323.313 77.96 322.739 78.42 322.059 78.74C321.393 79.0467 320.706 79.2 319.999 79.2C319.293 79.2 318.666 79.06 318.119 78.78C317.573 78.4867 317.139 78.0933 316.819 77.6C316.513 77.0933 316.359 76.5267 316.359 75.9ZM322.879 76.44C323.213 76.12 323.379 75.8133 323.379 75.52V74.46C322.686 74.18 321.986 74.04 321.279 74.04C320.573 74.04 319.999 74.1933 319.559 74.5C319.119 74.7933 318.899 75.1867 318.899 75.68C318.899 76.08 319.059 76.44 319.379 76.76C319.699 77.08 320.159 77.24 320.759 77.24C321.159 77.24 321.546 77.1667 321.919 77.02C322.306 76.8733 322.626 76.68 322.879 76.44ZM332.664 79.06C331.73 79.06 330.91 78.82 330.204 78.34C329.497 77.86 328.944 77.22 328.544 76.42C328.144 75.6067 327.944 74.72 327.944 73.76C327.944 72.7467 328.15 71.8333 328.564 71.02C328.977 70.1933 329.55 69.54 330.284 69.06C331.017 68.58 331.864 68.34 332.824 68.34C333.637 68.34 334.35 68.5267 334.964 68.9C335.577 69.26 336.084 69.7467 336.484 70.36V68.52H338.824V78.5C338.824 79.54 338.57 80.4267 338.064 81.16C337.57 81.9067 336.884 82.4733 336.004 82.86C335.124 83.26 334.124 83.46 333.004 83.46C331.857 83.46 330.89 83.2667 330.104 82.88C329.33 82.5067 328.664 81.9733 328.104 81.28L329.564 79.86C329.964 80.3533 330.464 80.74 331.064 81.02C331.677 81.3 332.324 81.44 333.004 81.44C333.564 81.44 334.077 81.3333 334.544 81.12C335.024 80.92 335.41 80.6 335.704 80.16C335.997 79.7333 336.144 79.18 336.144 78.5V77.18C335.797 77.78 335.304 78.2467 334.664 78.58C334.037 78.9 333.37 79.06 332.664 79.06ZM333.564 76.92C334.15 76.92 334.677 76.7467 335.144 76.4C335.624 76.0533 335.957 75.64 336.144 75.16V72.66C335.904 72.0467 335.524 71.5533 335.004 71.18C334.497 70.8067 333.964 70.62 333.404 70.62C332.857 70.62 332.377 70.7733 331.964 71.08C331.564 71.3867 331.25 71.7867 331.024 72.28C330.797 72.76 330.684 73.28 330.684 73.84C330.684 74.4133 330.81 74.9333 331.064 75.4C331.317 75.8667 331.657 76.24 332.084 76.52C332.524 76.7867 333.017 76.92 333.564 76.92ZM346.1 79.2C344.966 79.2 343.986 78.9533 343.16 78.46C342.346 77.9667 341.713 77.3133 341.26 76.5C340.806 75.6733 340.58 74.78 340.58 73.82C340.58 72.8333 340.8 71.9267 341.24 71.1C341.693 70.26 342.333 69.5933 343.16 69.1C343.986 68.5933 344.973 68.34 346.12 68.34C347.266 68.34 348.246 68.5933 349.06 69.1C349.873 69.5933 350.493 70.2533 350.92 71.08C351.36 71.8933 351.58 72.7733 351.58 73.72C351.58 74.0667 351.56 74.3667 351.52 74.62H343.42C343.486 75.4333 343.786 76.0733 344.32 76.54C344.866 77.0067 345.493 77.24 346.2 77.24C346.733 77.24 347.233 77.1133 347.7 76.86C348.18 76.5933 348.506 76.2467 348.68 75.82L350.98 76.46C350.593 77.26 349.973 77.92 349.12 78.44C348.266 78.9467 347.26 79.2 346.1 79.2ZM343.36 72.92H348.84C348.76 72.1333 348.46 71.5 347.94 71.02C347.433 70.5267 346.813 70.28 346.08 70.28C345.36 70.28 344.74 70.5267 344.22 71.02C343.713 71.5 343.426 72.1333 343.36 72.92ZM357.072 79.2C356.179 79.2 355.326 79.0533 354.512 78.76C353.699 78.4667 352.999 78.0333 352.412 77.46L353.372 75.72C353.999 76.2267 354.612 76.6 355.212 76.84C355.812 77.08 356.399 77.2 356.972 77.2C357.492 77.2 357.906 77.1067 358.212 76.92C358.532 76.7333 358.692 76.4533 358.692 76.08C358.692 75.6933 358.499 75.4333 358.112 75.3C357.726 75.1533 357.186 74.9733 356.492 74.76C355.719 74.52 355.072 74.2733 354.552 74.02C354.032 73.7667 353.639 73.46 353.372 73.1C353.119 72.74 352.992 72.2733 352.992 71.7C352.992 70.6733 353.379 69.8533 354.152 69.24C354.926 68.6267 355.952 68.32 357.232 68.32C357.979 68.32 358.686 68.44 359.352 68.68C360.019 68.9067 360.626 69.28 361.172 69.8L360.092 71.5C359.066 70.7 358.072 70.3 357.112 70.3C356.686 70.3 356.306 70.38 355.972 70.54C355.652 70.7 355.492 70.98 355.492 71.38C355.492 71.7533 355.646 72.02 355.952 72.18C356.272 72.34 356.752 72.5133 357.392 72.7C358.219 72.9533 358.919 73.2 359.492 73.44C360.079 73.68 360.519 73.9867 360.812 74.36C361.119 74.7333 361.272 75.24 361.272 75.88C361.272 76.92 360.892 77.7333 360.132 78.32C359.372 78.9067 358.352 79.2 357.072 79.2ZM363.035 79V76.12H365.235V79H363.035ZM366.867 75.9C366.867 75.22 367.054 74.6267 367.427 74.12C367.814 73.6 368.347 73.2 369.027 72.92C369.707 72.64 370.487 72.5 371.367 72.5C371.807 72.5 372.254 72.54 372.707 72.62C373.161 72.6867 373.554 72.7867 373.887 72.92V72.36C373.887 71.6933 373.687 71.18 373.287 70.82C372.901 70.46 372.321 70.28 371.547 70.28C370.974 70.28 370.427 70.38 369.907 70.58C369.387 70.78 368.841 71.0733 368.267 71.46L367.407 69.7C368.101 69.2467 368.807 68.9067 369.527 68.68C370.261 68.4533 371.027 68.34 371.827 68.34C373.321 68.34 374.481 68.7133 375.307 69.46C376.147 70.2067 376.567 71.2733 376.567 72.66V76C376.567 76.2933 376.614 76.5 376.707 76.62C376.801 76.7267 376.967 76.7933 377.207 76.82V79C376.967 79.0533 376.747 79.0867 376.547 79.1C376.361 79.1267 376.201 79.14 376.067 79.14C375.534 79.14 375.127 79.02 374.847 78.78C374.567 78.54 374.401 78.2467 374.347 77.9L374.287 77.36C373.821 77.96 373.247 78.42 372.567 78.74C371.901 79.0467 371.214 79.2 370.507 79.2C369.801 79.2 369.174 79.06 368.627 78.78C368.081 78.4867 367.647 78.0933 367.327 77.6C367.021 77.0933 366.867 76.5267 366.867 75.9ZM373.387 76.44C373.721 76.12 373.887 75.8133 373.887 75.52V74.46C373.194 74.18 372.494 74.04 371.787 74.04C371.081 74.04 370.507 74.1933 370.067 74.5C369.627 74.7933 369.407 75.1867 369.407 75.68C369.407 76.08 369.567 76.44 369.887 76.76C370.207 77.08 370.667 77.24 371.267 77.24C371.667 77.24 372.054 77.1667 372.427 77.02C372.814 76.8733 373.134 76.68 373.387 76.44ZM382.932 79.2C382.038 79.2 381.185 79.0533 380.372 78.76C379.558 78.4667 378.858 78.0333 378.272 77.46L379.232 75.72C379.858 76.2267 380.472 76.6 381.072 76.84C381.672 77.08 382.258 77.2 382.832 77.2C383.352 77.2 383.765 77.1067 384.072 76.92C384.392 76.7333 384.552 76.4533 384.552 76.08C384.552 75.6933 384.358 75.4333 383.972 75.3C383.585 75.1533 383.045 74.9733 382.352 74.76C381.578 74.52 380.932 74.2733 380.412 74.02C379.892 73.7667 379.498 73.46 379.232 73.1C378.978 72.74 378.852 72.2733 378.852 71.7C378.852 70.6733 379.238 69.8533 380.012 69.24C380.785 68.6267 381.812 68.32 383.092 68.32C383.838 68.32 384.545 68.44 385.212 68.68C385.878 68.9067 386.485 69.28 387.032 69.8L385.952 71.5C384.925 70.7 383.932 70.3 382.972 70.3C382.545 70.3 382.165 70.38 381.832 70.54C381.512 70.7 381.352 70.98 381.352 71.38C381.352 71.7533 381.505 72.02 381.812 72.18C382.132 72.34 382.612 72.5133 383.252 72.7C384.078 72.9533 384.778 73.2 385.352 73.44C385.938 73.68 386.378 73.9867 386.672 74.36C386.978 74.7333 387.132 75.24 387.132 75.88C387.132 76.92 386.752 77.7333 385.992 78.32C385.232 78.9067 384.212 79.2 382.932 79.2ZM388.954 67.06V64.4H391.634V67.06H388.954ZM388.954 79V68.52H391.634V79H388.954ZM393.332 75.9C393.332 75.22 393.519 74.6267 393.892 74.12C394.279 73.6 394.812 73.2 395.492 72.92C396.172 72.64 396.952 72.5 397.832 72.5C398.272 72.5 398.719 72.54 399.172 72.62C399.625 72.6867 400.019 72.7867 400.352 72.92V72.36C400.352 71.6933 400.152 71.18 399.752 70.82C399.365 70.46 398.785 70.28 398.012 70.28C397.439 70.28 396.892 70.38 396.372 70.58C395.852 70.78 395.305 71.0733 394.732 71.46L393.872 69.7C394.565 69.2467 395.272 68.9067 395.992 68.68C396.725 68.4533 397.492 68.34 398.292 68.34C399.785 68.34 400.945 68.7133 401.772 69.46C402.612 70.2067 403.032 71.2733 403.032 72.66V76C403.032 76.2933 403.079 76.5 403.172 76.62C403.265 76.7267 403.432 76.7933 403.672 76.82V79C403.432 79.0533 403.212 79.0867 403.012 79.1C402.825 79.1267 402.665 79.14 402.532 79.14C401.999 79.14 401.592 79.02 401.312 78.78C401.032 78.54 400.865 78.2467 400.812 77.9L400.752 77.36C400.285 77.96 399.712 78.42 399.032 78.74C398.365 79.0467 397.679 79.2 396.972 79.2C396.265 79.2 395.639 79.06 395.092 78.78C394.545 78.4867 394.112 78.0933 393.792 77.6C393.485 77.0933 393.332 76.5267 393.332 75.9ZM399.852 76.44C400.185 76.12 400.352 75.8133 400.352 75.52V74.46C399.659 74.18 398.959 74.04 398.252 74.04C397.545 74.04 396.972 74.1933 396.532 74.5C396.092 74.7933 395.872 75.1867 395.872 75.68C395.872 76.08 396.032 76.44 396.352 76.76C396.672 77.08 397.132 77.24 397.732 77.24C398.132 77.24 398.519 77.1667 398.892 77.02C399.279 76.8733 399.599 76.68 399.852 76.44ZM417.736 64.8L407.816 79H404.856L414.756 64.8H417.736ZM419.501 67.06V64.4H422.181V67.06H419.501ZM419.501 79V68.52H422.181V79H419.501ZM434.339 79H431.659V73.12C431.659 72.28 431.512 71.6667 431.219 71.28C430.926 70.8933 430.519 70.7 429.999 70.7C429.639 70.7 429.272 70.7933 428.899 70.98C428.539 71.1667 428.212 71.4267 427.919 71.76C427.626 72.08 427.412 72.4533 427.279 72.88V79H424.599V68.52H427.019V70.46C427.406 69.8067 427.966 69.2933 428.699 68.92C429.432 68.5333 430.259 68.34 431.179 68.34C431.832 68.34 432.366 68.46 432.779 68.7C433.192 68.9267 433.512 69.24 433.739 69.64C433.966 70.0267 434.119 70.4667 434.199 70.96C434.292 71.4533 434.339 71.9533 434.339 72.46V79ZM440.529 79.2C439.636 79.2 438.783 79.0533 437.969 78.76C437.156 78.4667 436.456 78.0333 435.869 77.46L436.829 75.72C437.456 76.2267 438.069 76.6 438.669 76.84C439.269 77.08 439.856 77.2 440.429 77.2C440.949 77.2 441.363 77.1067 441.669 76.92C441.989 76.7333 442.149 76.4533 442.149 76.08C442.149 75.6933 441.956 75.4333 441.569 75.3C441.183 75.1533 440.643 74.9733 439.949 74.76C439.176 74.52 438.529 74.2733 438.009 74.02C437.489 73.7667 437.096 73.46 436.829 73.1C436.576 72.74 436.449 72.2733 436.449 71.7C436.449 70.6733 436.836 69.8533 437.609 69.24C438.383 68.6267 439.409 68.32 440.689 68.32C441.436 68.32 442.143 68.44 442.809 68.68C443.476 68.9067 444.083 69.28 444.629 69.8L443.549 71.5C442.523 70.7 441.529 70.3 440.569 70.3C440.143 70.3 439.763 70.38 439.429 70.54C439.109 70.7 438.949 70.98 438.949 71.38C438.949 71.7533 439.103 72.02 439.409 72.18C439.729 72.34 440.209 72.5133 440.849 72.7C441.676 72.9533 442.376 73.2 442.949 73.44C443.536 73.68 443.976 73.9867 444.269 74.36C444.576 74.7333 444.729 75.24 444.729 75.88C444.729 76.92 444.349 77.7333 443.589 78.32C442.829 78.9067 441.809 79.2 440.529 79.2ZM458.752 64.8L448.832 79H445.872L455.772 64.8H458.752ZM463.562 79.06C462.629 79.06 461.809 78.82 461.102 78.34C460.396 77.86 459.842 77.22 459.442 76.42C459.042 75.6067 458.842 74.72 458.842 73.76C458.842 72.7467 459.049 71.8333 459.462 71.02C459.876 70.1933 460.449 69.54 461.182 69.06C461.916 68.58 462.762 68.34 463.722 68.34C464.536 68.34 465.249 68.5267 465.862 68.9C466.476 69.26 466.982 69.7467 467.382 70.36V68.52H469.722V78.5C469.722 79.54 469.469 80.4267 468.962 81.16C468.469 81.9067 467.782 82.4733 466.902 82.86C466.022 83.26 465.022 83.46 463.902 83.46C462.756 83.46 461.789 83.2667 461.002 82.88C460.229 82.5067 459.562 81.9733 459.002 81.28L460.462 79.86C460.862 80.3533 461.362 80.74 461.962 81.02C462.576 81.3 463.222 81.44 463.902 81.44C464.462 81.44 464.976 81.3333 465.442 81.12C465.922 80.92 466.309 80.6 466.602 80.16C466.896 79.7333 467.042 79.18 467.042 78.5V77.18C466.696 77.78 466.202 78.2467 465.562 78.58C464.936 78.9 464.269 79.06 463.562 79.06ZM464.462 76.92C465.049 76.92 465.576 76.7467 466.042 76.4C466.522 76.0533 466.856 75.64 467.042 75.16V72.66C466.802 72.0467 466.422 71.5533 465.902 71.18C465.396 70.8067 464.862 70.62 464.302 70.62C463.756 70.62 463.276 70.7733 462.862 71.08C462.462 71.3867 462.149 71.7867 461.922 72.28C461.696 72.76 461.582 73.28 461.582 73.84C461.582 74.4133 461.709 74.9333 461.962 75.4C462.216 75.8667 462.556 76.24 462.982 76.52C463.422 76.7867 463.916 76.92 464.462 76.92ZM471.418 75.9C471.418 75.22 471.605 74.6267 471.978 74.12C472.365 73.6 472.898 73.2 473.578 72.92C474.258 72.64 475.038 72.5 475.918 72.5C476.358 72.5 476.805 72.54 477.258 72.62C477.711 72.6867 478.105 72.7867 478.438 72.92V72.36C478.438 71.6933 478.238 71.18 477.838 70.82C477.451 70.46 476.871 70.28 476.098 70.28C475.525 70.28 474.978 70.38 474.458 70.58C473.938 70.78 473.391 71.0733 472.818 71.46L471.958 69.7C472.651 69.2467 473.358 68.9067 474.078 68.68C474.811 68.4533 475.578 68.34 476.378 68.34C477.871 68.34 479.031 68.7133 479.858 69.46C480.698 70.2067 481.118 71.2733 481.118 72.66V76C481.118 76.2933 481.165 76.5 481.258 76.62C481.351 76.7267 481.518 76.7933 481.758 76.82V79C481.518 79.0533 481.298 79.0867 481.098 79.1C480.911 79.1267 480.751 79.14 480.618 79.14C480.085 79.14 479.678 79.02 479.398 78.78C479.118 78.54 478.951 78.2467 478.898 77.9L478.838 77.36C478.371 77.96 477.798 78.42 477.118 78.74C476.451 79.0467 475.765 79.2 475.058 79.2C474.351 79.2 473.725 79.06 473.178 78.78C472.631 78.4867 472.198 78.0933 471.878 77.6C471.571 77.0933 471.418 76.5267 471.418 75.9ZM477.938 76.44C478.271 76.12 478.438 75.8133 478.438 75.52V74.46C477.745 74.18 477.045 74.04 476.338 74.04C475.631 74.04 475.058 74.1933 474.618 74.5C474.178 74.7933 473.958 75.1867 473.958 75.68C473.958 76.08 474.118 76.44 474.438 76.76C474.758 77.08 475.218 77.24 475.818 77.24C476.218 77.24 476.605 77.1667 476.978 77.02C477.365 76.8733 477.685 76.68 477.938 76.44ZM483.602 64.4H486.282V75.64C486.282 76.1333 486.362 76.46 486.522 76.62C486.682 76.78 486.902 76.86 487.182 76.86C487.396 76.86 487.616 76.8333 487.842 76.78C488.069 76.7267 488.269 76.66 488.442 76.58L488.802 78.62C488.442 78.7933 488.022 78.9267 487.542 79.02C487.062 79.1133 486.629 79.16 486.242 79.16C485.402 79.16 484.749 78.94 484.282 78.5C483.829 78.0467 483.602 77.4067 483.602 76.58V64.4ZM489.95 64.4H492.63V75.64C492.63 76.1333 492.71 76.46 492.87 76.62C493.03 76.78 493.25 76.86 493.53 76.86C493.743 76.86 493.963 76.8333 494.19 76.78C494.417 76.7267 494.617 76.66 494.79 76.58L495.15 78.62C494.79 78.7933 494.37 78.9267 493.89 79.02C493.41 79.1133 492.977 79.16 492.59 79.16C491.75 79.16 491.097 78.94 490.63 78.5C490.177 78.0467 489.95 77.4067 489.95 76.58V64.4ZM501.178 79.2C500.044 79.2 499.064 78.9533 498.238 78.46C497.424 77.9667 496.791 77.3133 496.338 76.5C495.884 75.6733 495.658 74.78 495.658 73.82C495.658 72.8333 495.878 71.9267 496.318 71.1C496.771 70.26 497.411 69.5933 498.238 69.1C499.064 68.5933 500.051 68.34 501.198 68.34C502.344 68.34 503.324 68.5933 504.138 69.1C504.951 69.5933 505.571 70.2533 505.998 71.08C506.438 71.8933 506.658 72.7733 506.658 73.72C506.658 74.0667 506.638 74.3667 506.598 74.62H498.498C498.564 75.4333 498.864 76.0733 499.398 76.54C499.944 77.0067 500.571 77.24 501.278 77.24C501.811 77.24 502.311 77.1133 502.778 76.86C503.258 76.5933 503.584 76.2467 503.758 75.82L506.058 76.46C505.671 77.26 505.051 77.92 504.198 78.44C503.344 78.9467 502.338 79.2 501.178 79.2ZM498.438 72.92H503.918C503.838 72.1333 503.538 71.5 503.018 71.02C502.511 70.5267 501.891 70.28 501.158 70.28C500.438 70.28 499.818 70.5267 499.298 71.02C498.791 71.5 498.504 72.1333 498.438 72.92ZM514.53 70.84C513.717 70.84 512.99 71 512.35 71.32C511.71 71.6267 511.25 72.0733 510.97 72.66V79H508.29V68.52H510.75V70.76C511.11 70.04 511.577 69.4733 512.15 69.06C512.737 68.6467 513.35 68.42 513.99 68.38C514.27 68.38 514.45 68.3867 514.53 68.4V70.84ZM516.245 81.04C516.738 81.1733 517.138 81.24 517.445 81.24C517.805 81.24 518.091 81.0867 518.305 80.78C518.531 80.4867 518.785 79.8933 519.065 79L514.925 68.52H517.705L520.525 76.26L523.005 68.52H525.565L521.165 81.08C520.925 81.8 520.491 82.3933 519.865 82.86C519.251 83.34 518.491 83.58 517.585 83.58C517.145 83.58 516.698 83.5067 516.245 83.36V81.04Z" fill="black"/>
<rect x="114" y="404" width="136" height="136" fill="#C4C4C4"/>
<rect x="114" y="545" width="136" height="137" fill="#C4C4C4"/>
<rect x="114" y="687" width="136" height="80" fill="#C4C4C4"/>
<rect x="255" y="404" width="137" height="136" fill="#C4C4C4"/>
<rect x="255" y="545" width="137" height="137" fill="#C4C4C4"/>
<rect x="255" y="687" width="137" height="80" fill="#C4C4C4"/>
<rect x="396" y="404" width="137" height="136" fill="#C4C4C4"/>
<rect x="396" y="545" width="137" height="137" fill="#C4C4C4"/>
<rect x="396" y="687" width="137" height="80" fill="#C4C4C4"/>
<g filter="url(#filter1_d)">
<rect x="563" y="116" width="396" height="610" rx="32" fill="white"/>
</g>
<rect x="597" y="320" width="160" height="10" rx="5" fill="#C4C4C4"/>
<rect x="597" y="347" width="107" height="10" rx="5" fill="#C4C4C4"/>
<rect x="860" y="155" width="26" height="26" rx="8" stroke="black" stroke-width="2"/>
<path d="M868 168H878" stroke="black" stroke-width="2"/>
<path d="M873 163L873 173" stroke="black" stroke-width="2"/>
<path d="M757 684.75H765C768.452 684.75 771.25 687.548 771.25 691V699C771.25 702.452 768.452 705.25 765 705.25H757C753.548 705.25 750.75 702.452 750.75 699V691C750.75 687.548 753.548 684.75 757 684.75Z" stroke="black" stroke-width="1.5"/>
<path d="M757.071 695H764.929" stroke="black" stroke-width="1.5"/>
<path d="M761 691.071L761 698.929" stroke="black" stroke-width="1.5"/>
<path d="M907 161H925" stroke="black" stroke-width="2"/>
<path d="M907 167.857H925" stroke="black" stroke-width="2"/>
<path d="M907 174.714H925" stroke="black" stroke-width="2"/>
<circle cx="641" cy="255" r="44" fill="#A177B4"/>
<path d="M736.583 243.24H730.143V240.8H740.823L733.763 255H730.723L736.583 243.24ZM750.092 252.58V255H742.052V252.58H744.812V243.34C744.666 243.54 744.406 243.78 744.032 244.06C743.659 244.327 743.246 244.56 742.792 244.76C742.352 244.96 741.952 245.06 741.592 245.06V242.58C741.939 242.58 742.299 242.487 742.672 242.3C743.046 242.113 743.392 241.9 743.712 241.66C744.032 241.407 744.292 241.187 744.492 241C744.706 240.8 744.812 240.687 744.812 240.66H747.552V252.58H750.092ZM723.41 271V261.06H727.554C727.992 261.06 728.394 261.153 728.758 261.34C729.122 261.517 729.439 261.76 729.71 262.068C729.98 262.367 730.19 262.707 730.34 263.09C730.489 263.463 730.564 263.846 730.564 264.238C730.564 264.779 730.442 265.297 730.2 265.792C729.957 266.277 729.616 266.674 729.178 266.982C728.739 267.281 728.226 267.43 727.638 267.43H724.67V271H723.41ZM724.67 266.31H727.568C727.913 266.31 728.212 266.217 728.464 266.03C728.725 265.843 728.926 265.591 729.066 265.274C729.215 264.957 729.29 264.611 729.29 264.238C729.29 263.846 729.206 263.496 729.038 263.188C728.87 262.871 728.65 262.623 728.38 262.446C728.109 262.269 727.81 262.18 727.484 262.18H724.67V266.31ZM734.992 271.14C734.264 271.14 733.62 270.967 733.06 270.622C732.509 270.267 732.08 269.805 731.772 269.236C731.464 268.657 731.31 268.032 731.31 267.36C731.31 266.679 731.464 266.053 731.772 265.484C732.089 264.905 732.523 264.443 733.074 264.098C733.634 263.743 734.273 263.566 734.992 263.566C735.72 263.566 736.359 263.743 736.91 264.098C737.47 264.443 737.904 264.905 738.212 265.484C738.529 266.053 738.688 266.679 738.688 267.36C738.688 268.032 738.529 268.657 738.212 269.236C737.904 269.805 737.474 270.267 736.924 270.622C736.373 270.967 735.729 271.14 734.992 271.14ZM732.57 267.374C732.57 267.878 732.677 268.335 732.892 268.746C733.116 269.157 733.41 269.483 733.774 269.726C734.138 269.959 734.544 270.076 734.992 270.076C735.44 270.076 735.846 269.955 736.21 269.712C736.583 269.469 736.877 269.143 737.092 268.732C737.316 268.312 737.428 267.85 737.428 267.346C737.428 266.842 737.316 266.385 737.092 265.974C736.877 265.563 736.583 265.237 736.21 264.994C735.846 264.751 735.44 264.63 734.992 264.63C734.544 264.63 734.138 264.756 733.774 265.008C733.41 265.251 733.116 265.577 732.892 265.988C732.677 266.399 732.57 266.861 732.57 267.374ZM742.687 271.14C742.08 271.14 741.511 271.042 740.979 270.846C740.447 270.641 739.989 270.337 739.607 269.936L740.083 269.068C740.503 269.46 740.923 269.74 741.343 269.908C741.763 270.076 742.192 270.16 742.631 270.16C743.135 270.16 743.545 270.067 743.863 269.88C744.18 269.684 744.339 269.399 744.339 269.026C744.339 268.755 744.255 268.555 744.087 268.424C743.928 268.293 743.699 268.186 743.401 268.102C743.102 268.009 742.747 267.906 742.337 267.794C741.581 267.579 741.002 267.327 740.601 267.038C740.209 266.739 740.013 266.305 740.013 265.736C740.013 265.045 740.274 264.513 740.797 264.14C741.329 263.757 742.005 263.566 742.827 263.566C743.928 263.566 744.796 263.897 745.431 264.56L744.871 265.414C744.301 264.826 743.597 264.532 742.757 264.532C742.505 264.532 742.257 264.565 742.015 264.63C741.772 264.686 741.571 264.793 741.413 264.952C741.254 265.101 741.175 265.316 741.175 265.596C741.175 265.941 741.315 266.189 741.595 266.338C741.875 266.487 742.285 266.641 742.827 266.8C743.377 266.959 743.853 267.117 744.255 267.276C744.665 267.435 744.983 267.64 745.207 267.892C745.431 268.144 745.543 268.494 745.543 268.942C745.543 269.633 745.281 270.174 744.759 270.566C744.236 270.949 743.545 271.14 742.687 271.14ZM750.796 270.636C750.647 270.701 750.409 270.795 750.082 270.916C749.765 271.037 749.41 271.098 749.018 271.098C748.57 271.098 748.183 270.977 747.856 270.734C747.53 270.482 747.366 270.095 747.366 269.572V264.658H746.372V263.692H747.366V261.256H748.598V263.692H750.236V264.658H748.598V269.194C748.617 269.455 748.706 269.651 748.864 269.782C749.023 269.903 749.21 269.964 749.424 269.964C749.667 269.964 749.891 269.922 750.096 269.838C750.302 269.754 750.437 269.693 750.502 269.656L750.796 270.636ZM754.444 271.14C753.838 271.14 753.268 271.042 752.736 270.846C752.204 270.641 751.747 270.337 751.364 269.936L751.84 269.068C752.26 269.46 752.68 269.74 753.1 269.908C753.52 270.076 753.95 270.16 754.388 270.16C754.892 270.16 755.303 270.067 755.62 269.88C755.938 269.684 756.096 269.399 756.096 269.026C756.096 268.755 756.012 268.555 755.844 268.424C755.686 268.293 755.457 268.186 755.158 268.102C754.86 268.009 754.505 267.906 754.094 267.794C753.338 267.579 752.76 267.327 752.358 267.038C751.966 266.739 751.77 266.305 751.77 265.736C751.77 265.045 752.032 264.513 752.554 264.14C753.086 263.757 753.763 263.566 754.584 263.566C755.686 263.566 756.554 263.897 757.188 264.56L756.628 265.414C756.059 264.826 755.354 264.532 754.514 264.532C754.262 264.532 754.015 264.565 753.772 264.63C753.53 264.686 753.329 264.793 753.17 264.952C753.012 265.101 752.932 265.316 752.932 265.596C752.932 265.941 753.072 266.189 753.352 266.338C753.632 266.487 754.043 266.641 754.584 266.8C755.135 266.959 755.611 267.117 756.012 267.276C756.423 267.435 756.74 267.64 756.964 267.892C757.188 268.144 757.3 268.494 757.3 268.942C757.3 269.633 757.039 270.174 756.516 270.566C755.994 270.949 755.303 271.14 754.444 271.14Z" fill="black"/>
<path d="M803.743 255.2C802.717 255.2 801.79 254.98 800.963 254.54C800.15 254.087 799.523 253.48 799.083 252.72L800.623 251.12C800.997 251.64 801.463 252.053 802.023 252.36C802.583 252.667 803.163 252.82 803.763 252.82C804.483 252.82 805.07 252.6 805.523 252.16C805.99 251.72 806.223 251.147 806.223 250.44C806.223 249.76 806.003 249.207 805.563 248.78C805.123 248.34 804.577 248.12 803.923 248.12C803.497 248.12 803.09 248.22 802.703 248.42C802.317 248.62 802.01 248.893 801.783 249.24H799.443L801.083 240.8H808.083V243.24H803.023L802.463 246.42C802.623 246.247 802.857 246.107 803.163 246C803.47 245.88 803.85 245.82 804.303 245.82C805.197 245.82 805.997 246.013 806.703 246.4C807.41 246.787 807.963 247.327 808.363 248.02C808.777 248.7 808.983 249.487 808.983 250.38C808.983 251.34 808.757 252.18 808.303 252.9C807.85 253.62 807.223 254.187 806.423 254.6C805.637 255 804.743 255.2 803.743 255.2ZM816.25 255V251.78H810.27V249.38L817.09 240.8H818.93V249.36H820.69V251.78H818.93V255H816.25ZM812.97 249.36H816.55V244.84L812.97 249.36ZM822.289 255C822.289 253.92 822.382 253.007 822.569 252.26C822.769 251.5 823.082 250.853 823.509 250.32C823.949 249.773 824.529 249.28 825.249 248.84C825.715 248.56 826.195 248.3 826.689 248.06C827.195 247.807 827.662 247.547 828.089 247.28C828.529 247 828.882 246.68 829.149 246.32C829.429 245.947 829.569 245.5 829.569 244.98C829.569 244.393 829.382 243.927 829.009 243.58C828.649 243.22 828.135 243.04 827.469 243.04C826.962 243.04 826.489 243.133 826.049 243.32C825.622 243.493 825.235 243.713 824.889 243.98C824.555 244.233 824.269 244.487 824.029 244.74L822.349 242.98C822.589 242.7 822.955 242.38 823.449 242.02C823.955 241.647 824.575 241.32 825.309 241.04C826.042 240.76 826.875 240.62 827.809 240.62C828.849 240.62 829.722 240.807 830.429 241.18C831.135 241.54 831.669 242.04 832.029 242.68C832.402 243.307 832.589 244.033 832.589 244.86C832.589 245.66 832.415 246.34 832.069 246.9C831.735 247.447 831.302 247.913 830.769 248.3C830.235 248.687 829.682 249.047 829.109 249.38C828.189 249.873 827.489 250.293 827.009 250.64C826.542 250.987 826.209 251.313 826.009 251.62C825.809 251.913 825.649 252.233 825.529 252.58H832.609V255H822.289ZM785.348 271V261.06H791.914V262.18H786.608V265.498H791.074V266.548H786.608V271H785.348ZM796.055 271.14C795.327 271.14 794.683 270.967 794.123 270.622C793.572 270.267 793.143 269.805 792.835 269.236C792.527 268.657 792.373 268.032 792.373 267.36C792.373 266.679 792.527 266.053 792.835 265.484C793.152 264.905 793.586 264.443 794.137 264.098C794.697 263.743 795.336 263.566 796.055 263.566C796.783 263.566 797.422 263.743 797.973 264.098C798.533 264.443 798.967 264.905 799.275 265.484C799.592 266.053 799.751 266.679 799.751 267.36C799.751 268.032 799.592 268.657 799.275 269.236C798.967 269.805 798.538 270.267 797.987 270.622C797.436 270.967 796.792 271.14 796.055 271.14ZM793.633 267.374C793.633 267.878 793.74 268.335 793.955 268.746C794.179 269.157 794.473 269.483 794.837 269.726C795.201 269.959 795.607 270.076 796.055 270.076C796.503 270.076 796.909 269.955 797.273 269.712C797.646 269.469 797.94 269.143 798.155 268.732C798.379 268.312 798.491 267.85 798.491 267.346C798.491 266.842 798.379 266.385 798.155 265.974C797.94 265.563 797.646 265.237 797.273 264.994C796.909 264.751 796.503 264.63 796.055 264.63C795.607 264.63 795.201 264.756 794.837 265.008C794.473 265.251 794.179 265.577 793.955 265.988C793.74 266.399 793.633 266.861 793.633 267.374ZM801.272 260.78H802.504V269.11C802.504 269.511 802.56 269.759 802.672 269.852C802.784 269.945 802.919 269.992 803.078 269.992C803.274 269.992 803.461 269.973 803.638 269.936C803.815 269.889 803.965 269.843 804.086 269.796L804.282 270.804C804.077 270.888 803.834 270.958 803.554 271.014C803.274 271.07 803.027 271.098 802.812 271.098C802.336 271.098 801.958 270.963 801.678 270.692C801.407 270.421 801.272 270.043 801.272 269.558V260.78ZM805.278 260.78H806.51V269.11C806.51 269.511 806.566 269.759 806.678 269.852C806.79 269.945 806.925 269.992 807.084 269.992C807.28 269.992 807.467 269.973 807.644 269.936C807.821 269.889 807.971 269.843 808.092 269.796L808.288 270.804C808.083 270.888 807.84 270.958 807.56 271.014C807.28 271.07 807.033 271.098 806.818 271.098C806.342 271.098 805.964 270.963 805.684 270.692C805.413 270.421 805.278 270.043 805.278 269.558V260.78ZM812.448 271.14C811.72 271.14 811.076 270.967 810.516 270.622C809.965 270.267 809.536 269.805 809.228 269.236C808.92 268.657 808.766 268.032 808.766 267.36C808.766 266.679 808.92 266.053 809.228 265.484C809.545 264.905 809.979 264.443 810.53 264.098C811.09 263.743 811.729 263.566 812.448 263.566C813.176 263.566 813.815 263.743 814.366 264.098C814.926 264.443 815.36 264.905 815.668 265.484C815.985 266.053 816.144 266.679 816.144 267.36C816.144 268.032 815.985 268.657 815.668 269.236C815.36 269.805 814.93 270.267 814.38 270.622C813.829 270.967 813.185 271.14 812.448 271.14ZM810.026 267.374C810.026 267.878 810.133 268.335 810.348 268.746C810.572 269.157 810.866 269.483 811.23 269.726C811.594 269.959 812 270.076 812.448 270.076C812.896 270.076 813.302 269.955 813.666 269.712C814.039 269.469 814.333 269.143 814.548 268.732C814.772 268.312 814.884 267.85 814.884 267.346C814.884 266.842 814.772 266.385 814.548 265.974C814.333 265.563 814.039 265.237 813.666 264.994C813.302 264.751 812.896 264.63 812.448 264.63C812 264.63 811.594 264.756 811.23 265.008C810.866 265.251 810.572 265.577 810.348 265.988C810.133 266.399 810.026 266.861 810.026 267.374ZM826.546 263.692H827.736L824.628 271H823.55L822.136 267.556L820.736 271H819.658L816.55 263.692H817.726L820.246 269.782L821.422 266.786L820.19 263.706H821.268L822.136 266.03L823.004 263.706H824.082L822.864 266.786L824.04 269.782L826.546 263.692ZM831.876 271.14C831.148 271.14 830.504 270.967 829.944 270.622C829.384 270.277 828.946 269.815 828.628 269.236C828.311 268.657 828.152 268.027 828.152 267.346C828.152 266.655 828.311 266.025 828.628 265.456C828.946 264.887 829.384 264.429 829.944 264.084C830.514 263.739 831.162 263.566 831.89 263.566C832.628 263.566 833.267 263.743 833.808 264.098C834.359 264.443 834.784 264.901 835.082 265.47C835.39 266.03 835.544 266.637 835.544 267.29C835.544 267.495 835.535 267.654 835.516 267.766H829.454C829.492 268.242 829.622 268.667 829.846 269.04C830.08 269.404 830.378 269.693 830.742 269.908C831.106 270.113 831.498 270.216 831.918 270.216C832.366 270.216 832.786 270.104 833.178 269.88C833.58 269.656 833.855 269.362 834.004 268.998L835.068 269.292C834.835 269.833 834.429 270.277 833.85 270.622C833.272 270.967 832.614 271.14 831.876 271.14ZM829.412 266.912H834.396C834.359 266.436 834.224 266.016 833.99 265.652C833.757 265.288 833.458 265.003 833.094 264.798C832.73 264.593 832.329 264.49 831.89 264.49C831.461 264.49 831.064 264.593 830.7 264.798C830.336 265.003 830.038 265.288 829.804 265.652C829.58 266.016 829.45 266.436 829.412 266.912ZM840.778 264.77C840.162 264.779 839.616 264.938 839.14 265.246C838.673 265.545 838.342 265.96 838.146 266.492V271H836.914V263.692H838.062V265.386C838.314 264.882 838.645 264.476 839.056 264.168C839.476 263.851 839.915 263.673 840.372 263.636C840.465 263.636 840.545 263.636 840.61 263.636C840.675 263.636 840.731 263.641 840.778 263.65V264.77ZM844.506 271.14C843.899 271.14 843.33 271.042 842.798 270.846C842.266 270.641 841.809 270.337 841.426 269.936L841.902 269.068C842.322 269.46 842.742 269.74 843.162 269.908C843.582 270.076 844.011 270.16 844.45 270.16C844.954 270.16 845.365 270.067 845.682 269.88C845.999 269.684 846.158 269.399 846.158 269.026C846.158 268.755 846.074 268.555 845.906 268.424C845.747 268.293 845.519 268.186 845.22 268.102C844.921 268.009 844.567 267.906 844.156 267.794C843.4 267.579 842.821 267.327 842.42 267.038C842.028 266.739 841.832 266.305 841.832 265.736C841.832 265.045 842.093 264.513 842.616 264.14C843.148 263.757 843.825 263.566 844.646 263.566C845.747 263.566 846.615 263.897 847.25 264.56L846.69 265.414C846.121 264.826 845.416 264.532 844.576 264.532C844.324 264.532 844.077 264.565 843.834 264.63C843.591 264.686 843.391 264.793 843.232 264.952C843.073 265.101 842.994 265.316 842.994 265.596C842.994 265.941 843.134 266.189 843.414 266.338C843.694 266.487 844.105 266.641 844.646 266.8C845.197 266.959 845.673 267.117 846.074 267.276C846.485 267.435 846.802 267.64 847.026 267.892C847.25 268.144 847.362 268.494 847.362 268.942C847.362 269.633 847.101 270.174 846.578 270.566C846.055 270.949 845.365 271.14 844.506 271.14Z" fill="black"/>
<path d="M881.873 255V251.78H875.893V249.38L882.713 240.8H884.553V249.36H886.313V251.78H884.553V255H881.873ZM878.593 249.36H882.173V244.84L878.593 249.36ZM887.892 245.64C887.892 244.72 888.118 243.887 888.572 243.14C889.038 242.393 889.658 241.8 890.432 241.36C891.218 240.92 892.105 240.7 893.092 240.7C894.158 240.7 895.085 240.96 895.872 241.48C896.658 241.987 897.258 242.727 897.672 243.7C898.098 244.673 898.312 245.84 898.312 247.2C898.312 249.787 897.812 251.767 896.812 253.14C895.825 254.513 894.492 255.2 892.812 255.2C891.918 255.2 891.092 255.007 890.332 254.62C889.585 254.22 888.952 253.66 888.432 252.94L889.972 251.26C890.292 251.753 890.705 252.147 891.212 252.44C891.718 252.72 892.265 252.86 892.852 252.86C893.745 252.86 894.458 252.507 894.992 251.8C895.525 251.093 895.805 250.093 895.832 248.8C895.552 249.28 895.152 249.66 894.632 249.94C894.112 250.22 893.518 250.36 892.852 250.36C891.918 250.36 891.078 250.153 890.332 249.74C889.585 249.313 888.992 248.747 888.552 248.04C888.112 247.32 887.892 246.52 887.892 245.64ZM893.072 242.94C892.605 242.94 892.172 243.067 891.772 243.32C891.372 243.56 891.052 243.887 890.812 244.3C890.585 244.7 890.472 245.14 890.472 245.62C890.472 246.1 890.585 246.54 890.812 246.94C891.052 247.327 891.372 247.64 891.772 247.88C892.172 248.107 892.612 248.22 893.092 248.22C893.572 248.22 894.005 248.107 894.392 247.88C894.792 247.64 895.112 247.327 895.352 246.94C895.592 246.54 895.712 246.107 895.712 245.64C895.712 245.16 895.592 244.713 895.352 244.3C895.112 243.887 894.792 243.56 894.392 243.32C893.992 243.067 893.552 242.94 893.072 242.94ZM904.62 255.2C903.594 255.2 902.667 254.98 901.84 254.54C901.027 254.087 900.4 253.48 899.96 252.72L901.5 251.12C901.874 251.64 902.34 252.053 902.9 252.36C903.46 252.667 904.04 252.82 904.64 252.82C905.36 252.82 905.947 252.6 906.4 252.16C906.867 251.72 907.1 251.147 907.1 250.44C907.1 249.76 906.88 249.207 906.44 248.78C906 248.34 905.454 248.12 904.8 248.12C904.374 248.12 903.967 248.22 903.58 248.42C903.194 248.62 902.887 248.893 902.66 249.24H900.32L901.96 240.8H908.96V243.24H903.9L903.34 246.42C903.5 246.247 903.734 246.107 904.04 246C904.347 245.88 904.727 245.82 905.18 245.82C906.074 245.82 906.874 246.013 907.58 246.4C908.287 246.787 908.84 247.327 909.24 248.02C909.654 248.7 909.86 249.487 909.86 250.38C909.86 251.34 909.634 252.18 909.18 252.9C908.727 253.62 908.1 254.187 907.3 254.6C906.514 255 905.62 255.2 904.62 255.2ZM862.211 271V261.06H868.777V262.18H863.471V265.498H867.937V266.548H863.471V271H862.211ZM872.918 271.14C872.19 271.14 871.546 270.967 870.986 270.622C870.436 270.267 870.006 269.805 869.698 269.236C869.39 268.657 869.236 268.032 869.236 267.36C869.236 266.679 869.39 266.053 869.698 265.484C870.016 264.905 870.45 264.443 871 264.098C871.56 263.743 872.2 263.566 872.918 263.566C873.646 263.566 874.286 263.743 874.836 264.098C875.396 264.443 875.83 264.905 876.138 265.484C876.456 266.053 876.614 266.679 876.614 267.36C876.614 268.032 876.456 268.657 876.138 269.236C875.83 269.805 875.401 270.267 874.85 270.622C874.3 270.967 873.656 271.14 872.918 271.14ZM870.496 267.374C870.496 267.878 870.604 268.335 870.818 268.746C871.042 269.157 871.336 269.483 871.7 269.726C872.064 269.959 872.47 270.076 872.918 270.076C873.366 270.076 873.772 269.955 874.136 269.712C874.51 269.469 874.804 269.143 875.018 268.732C875.242 268.312 875.354 267.85 875.354 267.346C875.354 266.842 875.242 266.385 875.018 265.974C874.804 265.563 874.51 265.237 874.136 264.994C873.772 264.751 873.366 264.63 872.918 264.63C872.47 264.63 872.064 264.756 871.7 265.008C871.336 265.251 871.042 265.577 870.818 265.988C870.604 266.399 870.496 266.861 870.496 267.374ZM878.135 260.78H879.367V269.11C879.367 269.511 879.423 269.759 879.535 269.852C879.647 269.945 879.783 269.992 879.941 269.992C880.137 269.992 880.324 269.973 880.501 269.936C880.679 269.889 880.828 269.843 880.949 269.796L881.145 270.804C880.94 270.888 880.697 270.958 880.417 271.014C880.137 271.07 879.89 271.098 879.675 271.098C879.199 271.098 878.821 270.963 878.541 270.692C878.271 270.421 878.135 270.043 878.135 269.558V260.78ZM882.141 260.78H883.373V269.11C883.373 269.511 883.429 269.759 883.541 269.852C883.653 269.945 883.788 269.992 883.947 269.992C884.143 269.992 884.33 269.973 884.507 269.936C884.684 269.889 884.834 269.843 884.955 269.796L885.151 270.804C884.946 270.888 884.703 270.958 884.423 271.014C884.143 271.07 883.896 271.098 883.681 271.098C883.205 271.098 882.827 270.963 882.547 270.692C882.276 270.421 882.141 270.043 882.141 269.558V260.78ZM889.311 271.14C888.583 271.14 887.939 270.967 887.379 270.622C886.828 270.267 886.399 269.805 886.091 269.236C885.783 268.657 885.629 268.032 885.629 267.36C885.629 266.679 885.783 266.053 886.091 265.484C886.408 264.905 886.842 264.443 887.393 264.098C887.953 263.743 888.592 263.566 889.311 263.566C890.039 263.566 890.678 263.743 891.229 264.098C891.789 264.443 892.223 264.905 892.531 265.484C892.848 266.053 893.007 266.679 893.007 267.36C893.007 268.032 892.848 268.657 892.531 269.236C892.223 269.805 891.794 270.267 891.243 270.622C890.692 270.967 890.048 271.14 889.311 271.14ZM886.889 267.374C886.889 267.878 886.996 268.335 887.211 268.746C887.435 269.157 887.729 269.483 888.093 269.726C888.457 269.959 888.863 270.076 889.311 270.076C889.759 270.076 890.165 269.955 890.529 269.712C890.902 269.469 891.196 269.143 891.411 268.732C891.635 268.312 891.747 267.85 891.747 267.346C891.747 266.842 891.635 266.385 891.411 265.974C891.196 265.563 890.902 265.237 890.529 264.994C890.165 264.751 889.759 264.63 889.311 264.63C888.863 264.63 888.457 264.756 888.093 265.008C887.729 265.251 887.435 265.577 887.211 265.988C886.996 266.399 886.889 266.861 886.889 267.374ZM903.41 263.692H904.6L901.492 271H900.414L899 267.556L897.6 271H896.522L893.414 263.692H894.59L897.11 269.782L898.286 266.786L897.054 263.706H898.132L899 266.03L899.868 263.706H900.946L899.728 266.786L900.904 269.782L903.41 263.692ZM905.752 262.32V260.78H906.984V262.32H905.752ZM905.752 271V263.692H906.984V271H905.752ZM915.32 271H914.088V266.912C914.088 266.137 913.967 265.573 913.724 265.218C913.491 264.854 913.132 264.672 912.646 264.672C912.31 264.672 911.974 264.756 911.638 264.924C911.312 265.092 911.018 265.321 910.756 265.61C910.504 265.89 910.322 266.217 910.21 266.59V271H908.978V263.692H910.098V265.26C910.388 264.747 910.803 264.336 911.344 264.028C911.895 263.72 912.492 263.566 913.136 263.566C913.706 263.566 914.144 263.701 914.452 263.972C914.77 264.233 914.994 264.597 915.124 265.064C915.255 265.521 915.32 266.044 915.32 266.632V271ZM920.148 271.084C919.486 271.084 918.898 270.911 918.384 270.566C917.88 270.211 917.484 269.749 917.194 269.18C916.914 268.611 916.774 268.004 916.774 267.36C916.774 266.669 916.914 266.039 917.194 265.47C917.484 264.891 917.885 264.429 918.398 264.084C918.912 263.739 919.5 263.566 920.162 263.566C920.769 263.566 921.296 263.715 921.744 264.014C922.202 264.313 922.584 264.691 922.892 265.148V263.692H923.984V270.916C923.984 271.607 923.816 272.19 923.48 272.666C923.154 273.142 922.706 273.501 922.136 273.744C921.576 273.996 920.951 274.122 920.26 274.122C919.439 274.122 918.767 273.977 918.244 273.688C917.722 273.399 917.288 273.007 916.942 272.512L917.656 271.882C917.946 272.311 918.319 272.633 918.776 272.848C919.243 273.063 919.738 273.17 920.26 273.17C920.708 273.17 921.119 273.086 921.492 272.918C921.875 272.759 922.178 272.512 922.402 272.176C922.636 271.84 922.752 271.42 922.752 270.916V269.628C922.482 270.076 922.108 270.431 921.632 270.692C921.166 270.953 920.671 271.084 920.148 271.084ZM920.526 270.076C920.872 270.076 921.203 269.997 921.52 269.838C921.838 269.679 922.104 269.474 922.318 269.222C922.542 268.97 922.687 268.709 922.752 268.438V266.338C922.556 265.843 922.239 265.437 921.8 265.12C921.362 264.793 920.9 264.63 920.414 264.63C919.92 264.63 919.49 264.765 919.126 265.036C918.772 265.307 918.496 265.652 918.3 266.072C918.114 266.492 918.02 266.931 918.02 267.388C918.02 267.873 918.132 268.321 918.356 268.732C918.58 269.133 918.879 269.46 919.252 269.712C919.635 269.955 920.06 270.076 920.526 270.076Z" fill="black"/>
<path d="M604.756 176.24C603.38 176.24 602.196 175.944 601.204 175.352C600.228 174.744 599.476 173.944 598.948 172.952C598.42 171.96 598.156 170.888 598.156 169.736C598.156 168.568 598.42 167.488 598.948 166.496C599.492 165.504 600.252 164.712 601.228 164.12C602.22 163.512 603.396 163.208 604.756 163.208C606.116 163.208 607.284 163.512 608.26 164.12C609.252 164.712 610.012 165.504 610.54 166.496C611.068 167.488 611.332 168.568 611.332 169.736C611.332 170.888 611.068 171.96 610.54 172.952C610.012 173.944 609.252 174.744 608.26 175.352C607.284 175.944 606.116 176.24 604.756 176.24ZM601.468 169.736C601.468 170.472 601.612 171.128 601.9 171.704C602.188 172.264 602.58 172.704 603.076 173.024C603.572 173.344 604.132 173.504 604.756 173.504C605.364 173.504 605.916 173.344 606.412 173.024C606.908 172.688 607.3 172.24 607.588 171.68C607.892 171.104 608.044 170.448 608.044 169.712C608.044 168.992 607.892 168.352 607.588 167.792C607.3 167.216 606.908 166.768 606.412 166.448C605.916 166.112 605.364 165.944 604.756 165.944C604.132 165.944 603.572 166.112 603.076 166.448C602.58 166.768 602.188 167.216 601.9 167.792C601.612 168.352 601.468 169 601.468 169.736ZM625.191 176H621.975V168.944C621.975 167.936 621.799 167.2 621.447 166.736C621.095 166.272 620.607 166.04 619.983 166.04C619.551 166.04 619.111 166.152 618.663 166.376C618.231 166.6 617.839 166.912 617.487 167.312C617.135 167.696 616.879 168.144 616.719 168.656V176H613.503V163.424H616.407V165.752C616.871 164.968 617.543 164.352 618.423 163.904C619.303 163.44 620.295 163.208 621.399 163.208C622.183 163.208 622.823 163.352 623.319 163.64C623.815 163.912 624.199 164.288 624.471 164.768C624.743 165.232 624.927 165.76 625.023 166.352C625.135 166.944 625.191 167.544 625.191 168.152V176ZM633.819 176.24C632.459 176.24 631.283 175.944 630.291 175.352C629.315 174.76 628.555 173.976 628.011 173C627.467 172.008 627.195 170.936 627.195 169.784C627.195 168.6 627.459 167.512 627.987 166.52C628.531 165.512 629.299 164.712 630.291 164.12C631.283 163.512 632.467 163.208 633.843 163.208C635.219 163.208 636.395 163.512 637.371 164.12C638.347 164.712 639.091 165.504 639.603 166.496C640.131 167.472 640.395 168.528 640.395 169.664C640.395 170.08 640.371 170.44 640.323 170.744H630.603C630.683 171.72 631.043 172.488 631.683 173.048C632.339 173.608 633.091 173.888 633.939 173.888C634.579 173.888 635.179 173.736 635.739 173.432C636.315 173.112 636.707 172.696 636.915 172.184L639.675 172.952C639.211 173.912 638.467 174.704 637.443 175.328C636.419 175.936 635.211 176.24 633.819 176.24ZM630.531 168.704H637.107C637.011 167.76 636.651 167 636.027 166.424C635.419 165.832 634.675 165.536 633.795 165.536C632.931 165.536 632.187 165.832 631.563 166.424C630.955 167 630.611 167.76 630.531 168.704ZM646.987 176.24C645.915 176.24 644.891 176.064 643.915 175.712C642.939 175.36 642.099 174.84 641.395 174.152L642.547 172.064C643.299 172.672 644.035 173.12 644.755 173.408C645.475 173.696 646.179 173.84 646.867 173.84C647.491 173.84 647.987 173.728 648.355 173.504C648.739 173.28 648.931 172.944 648.931 172.496C648.931 172.032 648.699 171.72 648.235 171.56C647.771 171.384 647.123 171.168 646.291 170.912C645.363 170.624 644.587 170.328 643.963 170.024C643.339 169.72 642.867 169.352 642.547 168.92C642.243 168.488 642.091 167.928 642.091 167.24C642.091 166.008 642.555 165.024 643.483 164.288C644.411 163.552 645.643 163.184 647.179 163.184C648.075 163.184 648.923 163.328 649.723 163.616C650.523 163.888 651.251 164.336 651.907 164.96L650.611 167C649.379 166.04 648.187 165.56 647.035 165.56C646.523 165.56 646.067 165.656 645.667 165.848C645.283 166.04 645.091 166.376 645.091 166.856C645.091 167.304 645.275 167.624 645.643 167.816C646.027 168.008 646.603 168.216 647.371 168.44C648.363 168.744 649.203 169.04 649.891 169.328C650.595 169.616 651.123 169.984 651.475 170.432C651.843 170.88 652.027 171.488 652.027 172.256C652.027 173.504 651.571 174.48 650.659 175.184C649.747 175.888 648.523 176.24 646.987 176.24ZM654.15 178.448C654.742 178.608 655.222 178.688 655.59 178.688C656.022 178.688 656.366 178.504 656.622 178.136C656.894 177.784 657.198 177.072 657.534 176L652.566 163.424H655.902L659.286 172.712L662.262 163.424H665.334L660.054 178.496C659.766 179.36 659.246 180.072 658.494 180.632C657.758 181.208 656.846 181.496 655.758 181.496C655.23 181.496 654.694 181.408 654.15 181.232V178.448ZM678.769 176H675.553V168.944C675.553 167.936 675.377 167.2 675.025 166.736C674.673 166.272 674.185 166.04 673.561 166.04C673.129 166.04 672.689 166.152 672.241 166.376C671.809 166.6 671.417 166.912 671.065 167.312C670.713 167.696 670.457 168.144 670.297 168.656V176H667.081V163.424H669.985V165.752C670.449 164.968 671.121 164.352 672.001 163.904C672.881 163.44 673.873 163.208 674.977 163.208C675.761 163.208 676.401 163.352 676.897 163.64C677.393 163.912 677.777 164.288 678.049 164.768C678.321 165.232 678.505 165.76 678.601 166.352C678.713 166.944 678.769 167.544 678.769 168.152V176ZM687.422 176.24C686.062 176.24 684.886 175.936 683.894 175.328C682.902 174.72 682.134 173.92 681.59 172.928C681.046 171.936 680.774 170.864 680.774 169.712C680.774 168.544 681.038 167.464 681.566 166.472C682.11 165.48 682.878 164.688 683.87 164.096C684.862 163.504 686.038 163.208 687.398 163.208C688.774 163.208 689.942 163.504 690.902 164.096C691.878 164.688 692.606 165.464 693.086 166.424L689.942 167.384C689.382 166.424 688.526 165.944 687.374 165.944C686.75 165.944 686.19 166.104 685.694 166.424C685.198 166.728 684.806 167.168 684.518 167.744C684.23 168.304 684.086 168.96 684.086 169.712C684.086 170.448 684.23 171.104 684.518 171.68C684.822 172.24 685.222 172.688 685.718 173.024C686.214 173.344 686.766 173.504 687.374 173.504C687.95 173.504 688.478 173.368 688.958 173.096C689.454 172.808 689.798 172.448 689.99 172.016L693.134 172.976C692.702 173.92 691.982 174.704 690.974 175.328C689.982 175.936 688.798 176.24 687.422 176.24ZM695.04 176V172.544H697.68V176H695.04ZM708.039 176.24C707.047 176.24 706.183 176.016 705.447 175.568C704.711 175.12 704.135 174.528 703.719 173.792V181.112H700.503V163.424H703.311V165.584C703.775 164.848 704.375 164.272 705.111 163.856C705.863 163.424 706.711 163.208 707.655 163.208C708.791 163.208 709.799 163.504 710.679 164.096C711.559 164.672 712.255 165.456 712.767 166.448C713.279 167.424 713.535 168.504 713.535 169.688C713.535 170.92 713.295 172.032 712.815 173.024C712.351 174 711.703 174.784 710.871 175.376C710.055 175.952 709.111 176.24 708.039 176.24ZM706.959 173.504C707.615 173.504 708.183 173.328 708.663 172.976C709.159 172.608 709.543 172.136 709.815 171.56C710.103 170.968 710.247 170.344 710.247 169.688C710.247 168.984 710.095 168.352 709.791 167.792C709.487 167.216 709.071 166.768 708.543 166.448C708.031 166.112 707.439 165.944 706.767 165.944C706.159 165.944 705.551 166.144 704.943 166.544C704.335 166.944 703.927 167.448 703.719 168.056V171.008C704.007 171.712 704.447 172.304 705.039 172.784C705.631 173.264 706.271 173.504 706.959 173.504ZM715.69 158.48H718.906V171.968C718.906 172.56 719.002 172.952 719.194 173.144C719.386 173.336 719.65 173.432 719.986 173.432C720.242 173.432 720.506 173.4 720.778 173.336C721.05 173.272 721.29 173.192 721.498 173.096L721.93 175.544C721.498 175.752 720.994 175.912 720.418 176.024C719.842 176.136 719.322 176.192 718.858 176.192C717.85 176.192 717.066 175.928 716.506 175.4C715.962 174.856 715.69 174.088 715.69 173.096V158.48ZM722.467 172.28C722.467 171.464 722.691 170.752 723.139 170.144C723.603 169.52 724.243 169.04 725.059 168.704C725.875 168.368 726.811 168.2 727.867 168.2C728.395 168.2 728.931 168.248 729.475 168.344C730.019 168.424 730.491 168.544 730.891 168.704V168.032C730.891 167.232 730.651 166.616 730.171 166.184C729.707 165.752 729.011 165.536 728.083 165.536C727.395 165.536 726.739 165.656 726.115 165.896C725.491 166.136 724.835 166.488 724.147 166.952L723.115 164.84C723.947 164.296 724.795 163.888 725.659 163.616C726.539 163.344 727.459 163.208 728.419 163.208C730.211 163.208 731.603 163.656 732.595 164.552C733.603 165.448 734.107 166.728 734.107 168.392V172.4C734.107 172.752 734.163 173 734.275 173.144C734.387 173.272 734.587 173.352 734.875 173.384V176C734.587 176.064 734.323 176.104 734.083 176.12C733.859 176.152 733.667 176.168 733.507 176.168C732.867 176.168 732.379 176.024 732.043 175.736C731.707 175.448 731.507 175.096 731.443 174.68L731.371 174.032C730.811 174.752 730.123 175.304 729.307 175.688C728.507 176.056 727.683 176.24 726.835 176.24C725.987 176.24 725.235 176.072 724.579 175.736C723.923 175.384 723.403 174.912 723.019 174.32C722.651 173.712 722.467 173.032 722.467 172.28ZM730.291 172.928C730.691 172.544 730.891 172.176 730.891 171.824V170.552C730.059 170.216 729.219 170.048 728.371 170.048C727.523 170.048 726.835 170.232 726.307 170.6C725.779 170.952 725.515 171.424 725.515 172.016C725.515 172.496 725.707 172.928 726.091 173.312C726.475 173.696 727.027 173.888 727.747 173.888C728.227 173.888 728.691 173.8 729.139 173.624C729.603 173.448 729.987 173.216 730.291 172.928ZM744.531 175.352C744.099 175.544 743.563 175.736 742.923 175.928C742.299 176.12 741.651 176.216 740.979 176.216C740.387 176.216 739.843 176.112 739.347 175.904C738.851 175.696 738.451 175.368 738.147 174.92C737.859 174.456 737.715 173.856 737.715 173.12V165.896H736.059V163.424H737.715V159.344H740.931V163.424H743.571V165.896H740.931V172.04C740.931 172.472 741.043 172.784 741.267 172.976C741.507 173.168 741.795 173.264 742.131 173.264C742.467 173.264 742.795 173.208 743.115 173.096C743.435 172.984 743.691 172.888 743.883 172.808L744.531 175.352ZM746.206 161.672V158.48H749.422V161.672H746.206ZM746.206 176V163.424H749.422V176H746.206ZM764.011 176H760.795V168.944C760.795 167.936 760.619 167.2 760.267 166.736C759.915 166.272 759.427 166.04 758.803 166.04C758.371 166.04 757.931 166.152 757.483 166.376C757.051 166.6 756.659 166.912 756.307 167.312C755.955 167.696 755.699 168.144 755.539 168.656V176H752.323V163.424H755.227V165.752C755.691 164.968 756.363 164.352 757.243 163.904C758.123 163.44 759.115 163.208 760.219 163.208C761.003 163.208 761.643 163.352 762.139 163.64C762.635 163.912 763.019 164.288 763.291 164.768C763.563 165.232 763.747 165.76 763.843 166.352C763.955 166.944 764.011 167.544 764.011 168.152V176ZM766.688 171.296V163.424H769.904V170.6C769.904 172.536 770.6 173.504 771.992 173.504C772.616 173.504 773.216 173.32 773.792 172.952C774.384 172.568 774.864 171.992 775.232 171.224V163.424H778.448V172.4C778.448 172.752 778.504 173 778.616 173.144C778.728 173.272 778.928 173.352 779.216 173.384V176C778.896 176.064 778.624 176.104 778.4 176.12C778.192 176.136 778 176.144 777.824 176.144C777.248 176.144 776.776 176.016 776.408 175.76C776.056 175.488 775.848 175.12 775.784 174.656L775.712 173.648C775.152 174.512 774.432 175.16 773.552 175.592C772.672 176.024 771.704 176.24 770.648 176.24C769.352 176.24 768.368 175.824 767.696 174.992C767.024 174.144 766.688 172.912 766.688 171.296ZM801.18 176H797.964V168.944C797.964 167.952 797.788 167.224 797.436 166.76C797.1 166.28 796.628 166.04 796.02 166.04C795.38 166.04 794.78 166.288 794.22 166.784C793.66 167.264 793.26 167.896 793.02 168.68V176H789.804V168.944C789.804 167.936 789.628 167.2 789.276 166.736C788.94 166.272 788.468 166.04 787.86 166.04C787.236 166.04 786.636 166.28 786.06 166.76C785.5 167.24 785.1 167.872 784.86 168.656V176H781.644V163.424H784.548V165.752C785.012 164.936 785.644 164.312 786.444 163.88C787.26 163.432 788.188 163.208 789.228 163.208C790.268 163.208 791.076 163.464 791.652 163.976C792.244 164.488 792.62 165.12 792.78 165.872C793.276 165.008 793.924 164.352 794.724 163.904C795.524 163.44 796.42 163.208 797.412 163.208C798.196 163.208 798.828 163.352 799.308 163.64C799.804 163.912 800.188 164.288 800.46 164.768C800.732 165.232 800.916 165.76 801.012 166.352C801.124 166.944 801.18 167.544 801.18 168.152V176Z" fill="black"/>
<path d="M850.292 390.292H845.667C845.458 390.292 845.25 390.208 845.083 390.042L843.417 388.375C843.167 388.125 842.792 388.125 842.542 388.375L840.875 390.042C840.708 390.208 840.5 390.292 840.292 390.292H835.708C834.333 390.292 833.208 391.417 833.208 392.792V405.292C833.208 406.667 834.333 407.792 835.708 407.792H850.292C851.667 407.792 852.792 406.667 852.792 405.292V392.792C852.792 391.417 851.667 390.292 850.292 390.292ZM838.042 406.542C837.792 406.542 837.583 406.292 837.625 406.042C837.917 404.708 839.083 403.708 840.458 403.708H845.458C846.875 403.708 848.042 404.708 848.292 406.042C848.333 406.292 848.125 406.542 847.875 406.542H838.042V406.542ZM851.542 405.292C851.542 406 851 406.542 850.292 406.542H850.042C849.833 406.542 849.667 406.375 849.625 406.167C849.375 404.083 847.625 402.458 845.5 402.458H840.5C838.375 402.458 836.583 404.083 836.375 406.167C836.333 406.375 836.167 406.542 835.958 406.542H835.708C835 406.542 834.458 406 834.458 405.292V392.792C834.458 392.083 835 391.542 835.708 391.542H840.333C840.875 391.542 841.417 391.333 841.792 390.917L843 389.708L844.208 390.917C844.583 391.292 845.125 391.542 845.667 391.542H850.292C851 391.542 851.542 392.083 851.542 392.792V405.292ZM843 393.208C840.792 393.208 839 395 839 397.208C839 399.417 840.792 401.208 843 401.208C845.208 401.208 847 399.417 847 397.208C847 395 845.208 393.208 843 393.208V393.208ZM843 399.917C841.5 399.917 840.25 398.708 840.25 397.167C840.25 395.667 841.458 394.417 843 394.417C844.542 394.417 845.75 395.625 845.75 397.167C845.75 398.667 844.5 399.917 843 399.917Z" fill="#8E8E8E"/>
<path d="M670.875 390.375H670.375V390.875V395.458V395.958H670.875H675.458H675.958V395.458V390.875V390.375H675.458H670.875ZM670.875 396.208H670.375V396.708V401.292V401.792H670.875H675.458H675.958V401.292V396.708V396.208H675.458H670.875ZM675.458 407.625H675.958V407.125V402.542V402.042H675.458H670.875H670.375V402.542V407.125V407.625H670.875H675.458ZM681.292 407.625H681.792V407.125V402.542V402.042H681.292H676.708H676.208V402.542V407.125V407.625H676.708H681.292ZM681.292 401.792H681.792V401.292V396.708V396.208H681.292H676.708H676.208V396.708V401.292V401.792H676.708H681.292ZM681.292 395.958H681.792V395.458V390.875V390.375H681.292H676.708H676.208V390.875V395.458V395.958H676.708H681.292ZM687.125 407.625H687.625V407.125V402.542V402.042H687.125H682.542H682.042V402.542V407.125V407.625H682.542H687.125ZM687.125 401.792H687.625V401.292V396.708V396.208H687.125H682.542H682.042V396.708V401.292V401.792H682.542H687.125ZM687.125 395.958H687.625V395.458V390.875V390.375H687.125H682.542H682.042V390.875V395.458V395.958H682.542H687.125ZM670.25 390.125H687.75C687.77 390.125 687.802 390.134 687.834 390.166C687.866 390.198 687.875 390.23 687.875 390.25V407.75C687.875 407.77 687.866 407.802 687.834 407.834C687.802 407.866 687.77 407.875 687.75 407.875H670.25C670.23 407.875 670.198 407.866 670.166 407.834C670.134 407.802 670.125 407.77 670.125 407.75V390.25C670.125 390.23 670.134 390.198 670.166 390.166C670.198 390.134 670.23 390.125 670.25 390.125Z" fill="#262626" stroke="black"/>
<path d="M597 420H925" stroke="#D5D5D5"/>
<path d="M597 420H761" stroke="black"/>
<rect x="596" y="425" width="107.333" height="107.333" fill="#C4C4C4"/>
<rect x="596" y="536" width="107.333" height="107.333" fill="#C4C4C4"/>
<rect x="596" y="647" width="107" height="19" fill="#C4C4C4"/>
<rect x="707" y="425" width="107.333" height="107.333" fill="#C4C4C4"/>
<rect x="707" y="536" width="107.333" height="107.333" fill="#C4C4C4"/>
<rect x="707" y="647" width="107" height="19" fill="#C4C4C4"/>
<rect x="818" y="425" width="107.333" height="107.333" fill="#C4C4C4"/>
<rect x="818" y="536" width="107.333" height="107.333" fill="#C4C4C4"/>
<rect x="818" y="647" width="107" height="19" fill="#C4C4C4"/>
<path d="M563 667L959 667" stroke="#D5D5D5"/>
<g clip-path="url(#clip1)">
<path d="M612.762 706H605.75C605.383 706 605.062 705.679 605.062 705.312V699.675C605.062 698.483 604.146 697.567 602.954 697.567C601.762 697.567 600.846 698.483 600.846 699.675V705.312C600.846 705.679 600.525 706 600.158 706H593.146C592.779 706 592.458 705.679 592.458 705.312V694.542C592.458 694.358 592.55 694.175 592.642 694.037L602.496 684.183C602.771 683.908 603.183 683.908 603.458 684.183L613.312 694.037C613.496 694.221 613.587 694.542 613.45 694.771C613.45 694.817 613.404 694.817 613.404 694.862V705.312C613.45 705.679 613.129 706 612.762 706ZM606.437 704.625H612.075V694.725L603 685.65L593.833 694.817V704.625H599.471V699.675C599.471 697.704 600.983 696.192 602.954 696.192C604.925 696.192 606.437 697.704 606.437 699.675V704.625V704.625Z" fill="#262626"/>
</g>
<g clip-path="url(#clip2)">
<path d="M692.85 704.694L687.307 699.151C687.208 699.052 687.079 699 686.941 699H686.499C687.973 697.406 688.875 695.279 688.875 692.938C688.875 688 684.875 684 679.938 684C675 684 671 688 671 692.938C671 697.875 675 701.875 679.938 701.875C682.279 701.875 684.406 700.973 686 699.503V699.941C686 700.079 686.056 700.208 686.151 700.307L691.694 705.85C691.896 706.052 692.222 706.052 692.424 705.85L692.85 705.424C693.052 705.222 693.052 704.896 692.85 704.694ZM679.938 700.5C675.757 700.5 672.375 697.118 672.375 692.938C672.375 688.757 675.757 685.375 679.938 685.375C684.118 685.375 687.5 688.757 687.5 692.938C687.5 697.118 684.118 700.5 679.938 700.5Z" fill="black"/>
</g>
<circle cx="920" cy="695" r="11" fill="#A177B4"/>
<circle cx="920" cy="695" r="12.5" stroke="black"/>
<g clip-path="url(#clip3)">
<path d="M846.222 689.5C846.222 686.467 843.739 684 840.687 684C837.634 684 835.151 686.467 835.151 689.5H831V702.562C831 704.461 832.549 706 834.459 706H846.914C848.824 706 850.373 704.461 850.373 702.562V689.5H846.222ZM840.687 685.375C842.976 685.375 844.838 687.225 844.838 689.5H836.535C836.535 687.225 838.397 685.375 840.687 685.375ZM848.989 702.562C848.989 703.7 848.058 704.625 846.914 704.625H834.459C833.315 704.625 832.384 703.7 832.384 702.562V690.875H835.151V692.938C835.151 693.317 835.461 693.625 835.843 693.625C836.225 693.625 836.535 693.317 836.535 692.938V690.875H844.838V692.938C844.838 693.317 845.148 693.625 845.53 693.625C845.912 693.625 846.222 693.317 846.222 692.938V690.875H848.989V702.562Z" fill="black"/>
</g>
<circle cx="323.5" cy="227.5" r="54.5" fill="#A177B4"/>
<rect x="262" y="335" width="123" height="10" rx="5" fill="#C4C4C4"/>
<rect x="280" y="362" width="87" height="10" rx="5" fill="#C4C4C4"/>
<defs>
<filter id="filter0_d" x="0" y="0" width="676" height="812" filterUnits="userSpaceOnUse" color-interpolation-filters="sRGB">
<feFlood flood-opacity="0" result="BackgroundImageFix"/>
<feColorMatrix in="SourceAlpha" type="matrix" values="0 0 0 0 0 0 0 0 0 0 0 0 0 0 0 0 0 0 127 0"/>
<feOffset dx="15" dy="15"/>
<feGaussianBlur stdDeviation="15"/>
<feColorMatrix type="matrix" values="0 0 0 0 0.835294 0 0 0 0 0.835294 0 0 0 0 0.835294 0 0 0 0.5 0"/>
<feBlend mode="normal" in2="BackgroundImageFix" result="effect1_dropShadow"/>
<feBlend mode="normal" in="SourceGraphic" in2="effect1_dropShadow" result="shape"/>
</filter>
<filter id="filter1_d" x="523" y="76" width="486" height="700" filterUnits="userSpaceOnUse" color-interpolation-filters="sRGB">
<feFlood flood-opacity="0" result="BackgroundImageFix"/>
<feColorMatrix in="SourceAlpha" type="matrix" values="0 0 0 0 0 0 0 0 0 0 0 0 0 0 0 0 0 0 127 0"/>
<feOffset dx="5" dy="5"/>
<feGaussianBlur stdDeviation="22.5"/>
<feColorMatrix type="matrix" values="0 0 0 0 0.835294 0 0 0 0 0.835294 0 0 0 0 0.835294 0 0 0 0.5 0"/>
<feBlend mode="normal" in2="BackgroundImageFix" result="effect1_dropShadow"/>
<feBlend mode="normal" in="SourceGraphic" in2="effect1_dropShadow" result="shape"/>
</filter>
<clipPath id="clip0">
<rect width="20" height="20" fill="white" transform="translate(124 63)"/>
</clipPath>
<clipPath id="clip1">
<rect width="22" height="22" fill="white" transform="translate(592 684)"/>
</clipPath>
<clipPath id="clip2">
<rect width="22" height="22" fill="white" transform="translate(671 684)"/>
</clipPath>
<clipPath id="clip3">
<rect width="19.3731" height="22" fill="white" transform="translate(831 684)"/>
</clipPath>
</defs>
</svg>
