<svg width="698" height="630" viewBox="0 0 698 630" fill="none" xmlns="http://www.w3.org/2000/svg">
<rect x="36" y="1" width="433" height="48" rx="24" fill="white" stroke="#DFE1E5" stroke-width="2"/>
<path d="M65.608 17.008H68.68L70.624 22.648L72.592 17.008H75.64L72.712 24.76L74.872 30.184L79.696 16.96H83.296L76.48 34H73.624L70.624 26.848L67.648 34H64.792L58 16.96H61.552L66.4 30.184L68.512 24.76L65.608 17.008ZM88.8741 34.24C87.5141 34.24 86.3381 33.944 85.3461 33.352C84.3701 32.76 83.6101 31.976 83.0661 31C82.5221 30.008 82.2501 28.936 82.2501 27.784C82.2501 26.6 82.5141 25.512 83.0421 24.52C83.5861 23.512 84.3541 22.712 85.3461 22.12C86.3381 21.512 87.5221 21.208 88.8981 21.208C90.2741 21.208 91.4501 21.512 92.4261 22.12C93.4021 22.712 94.1461 23.504 94.6581 24.496C95.1861 25.472 95.4501 26.528 95.4501 27.664C95.4501 28.08 95.4261 28.44 95.3781 28.744H85.6581C85.7381 29.72 86.0981 30.488 86.7381 31.048C87.3941 31.608 88.1461 31.888 88.9941 31.888C89.6341 31.888 90.2341 31.736 90.7941 31.432C91.3701 31.112 91.7621 30.696 91.9701 30.184L94.7301 30.952C94.2661 31.912 93.5221 32.704 92.4981 33.328C91.4741 33.936 90.2661 34.24 88.8741 34.24ZM85.5861 26.704H92.1621C92.0661 25.76 91.7061 25 91.0821 24.424C90.4741 23.832 89.7301 23.536 88.8501 23.536C87.9861 23.536 87.2421 23.832 86.6181 24.424C86.0101 25 85.6661 25.76 85.5861 26.704ZM104.561 34.24C103.601 34.24 102.745 34.024 101.993 33.592C101.241 33.16 100.649 32.568 100.217 31.816V34H97.4093V16.48H100.625V23.632C101.073 22.88 101.657 22.288 102.377 21.856C103.113 21.424 103.969 21.208 104.945 21.208C106.033 21.208 106.985 21.512 107.801 22.12C108.633 22.712 109.281 23.504 109.745 24.496C110.209 25.488 110.441 26.576 110.441 27.76C110.441 28.976 110.185 30.072 109.673 31.048C109.161 32.024 108.457 32.8 107.561 33.376C106.681 33.952 105.681 34.24 104.561 34.24ZM103.673 31.504C104.361 31.504 104.961 31.336 105.473 31C106.001 30.664 106.409 30.216 106.697 29.656C107.001 29.08 107.153 28.456 107.153 27.784C107.153 27.096 107.009 26.464 106.721 25.888C106.449 25.296 106.065 24.824 105.569 24.472C105.073 24.12 104.505 23.944 103.865 23.944C103.161 23.944 102.513 24.184 101.921 24.664C101.345 25.128 100.913 25.704 100.625 26.392V29.392C100.833 30.016 101.241 30.528 101.849 30.928C102.457 31.312 103.065 31.504 103.673 31.504ZM117.252 34.24C116.18 34.24 115.156 34.064 114.18 33.712C113.204 33.36 112.364 32.84 111.66 32.152L112.812 30.064C113.564 30.672 114.3 31.12 115.02 31.408C115.74 31.696 116.444 31.84 117.132 31.84C117.756 31.84 118.252 31.728 118.62 31.504C119.004 31.28 119.196 30.944 119.196 30.496C119.196 30.032 118.964 29.72 118.5 29.56C118.036 29.384 117.388 29.168 116.556 28.912C115.628 28.624 114.852 28.328 114.228 28.024C113.604 27.72 113.132 27.352 112.812 26.92C112.508 26.488 112.356 25.928 112.356 25.24C112.356 24.008 112.82 23.024 113.748 22.288C114.676 21.552 115.908 21.184 117.444 21.184C118.34 21.184 119.188 21.328 119.988 21.616C120.788 21.888 121.516 22.336 122.172 22.96L120.876 25C119.644 24.04 118.452 23.56 117.3 23.56C116.788 23.56 116.332 23.656 115.932 23.848C115.548 24.04 115.356 24.376 115.356 24.856C115.356 25.304 115.54 25.624 115.908 25.816C116.292 26.008 116.868 26.216 117.636 26.44C118.628 26.744 119.468 27.04 120.156 27.328C120.86 27.616 121.388 27.984 121.74 28.432C122.108 28.88 122.292 29.488 122.292 30.256C122.292 31.504 121.836 32.48 120.924 33.184C120.012 33.888 118.788 34.24 117.252 34.24ZM124.48 19.672V16.48H127.696V19.672H124.48ZM124.48 34V21.424H127.696V34H124.48ZM138.133 33.352C137.701 33.544 137.165 33.736 136.525 33.928C135.901 34.12 135.253 34.216 134.581 34.216C133.989 34.216 133.445 34.112 132.949 33.904C132.453 33.696 132.053 33.368 131.749 32.92C131.461 32.456 131.317 31.856 131.317 31.12V23.896H129.661V21.424H131.317V17.344H134.533V21.424H137.173V23.896H134.533V30.04C134.533 30.472 134.645 30.784 134.869 30.976C135.109 31.168 135.397 31.264 135.733 31.264C136.069 31.264 136.397 31.208 136.717 31.096C137.037 30.984 137.293 30.888 137.485 30.808L138.133 33.352ZM145.476 34.24C144.116 34.24 142.94 33.944 141.948 33.352C140.972 32.76 140.212 31.976 139.668 31C139.124 30.008 138.852 28.936 138.852 27.784C138.852 26.6 139.116 25.512 139.644 24.52C140.188 23.512 140.956 22.712 141.948 22.12C142.94 21.512 144.124 21.208 145.5 21.208C146.876 21.208 148.052 21.512 149.028 22.12C150.004 22.712 150.748 23.504 151.26 24.496C151.788 25.472 152.052 26.528 152.052 27.664C152.052 28.08 152.028 28.44 151.98 28.744H142.26C142.34 29.72 142.7 30.488 143.34 31.048C143.996 31.608 144.748 31.888 145.596 31.888C146.236 31.888 146.836 31.736 147.396 31.432C147.972 31.112 148.364 30.696 148.572 30.184L151.332 30.952C150.868 31.912 150.124 32.704 149.1 33.328C148.076 33.936 146.868 34.24 145.476 34.24ZM142.188 26.704H148.764C148.668 25.76 148.308 25 147.684 24.424C147.076 23.832 146.332 23.536 145.452 23.536C144.588 23.536 143.844 23.832 143.22 24.424C142.612 25 142.268 25.76 142.188 26.704ZM170.241 21.424C170.097 21.264 169.793 21.056 169.329 20.8C168.865 20.528 168.305 20.288 167.649 20.08C167.009 19.856 166.345 19.744 165.657 19.744C163.849 19.744 162.945 20.384 162.945 21.664C162.945 22.128 163.089 22.496 163.377 22.768C163.665 23.04 164.097 23.272 164.673 23.464C165.249 23.656 165.969 23.864 166.833 24.088C167.953 24.376 168.921 24.712 169.737 25.096C170.569 25.48 171.201 25.992 171.633 26.632C172.081 27.256 172.305 28.088 172.305 29.128C172.305 30.344 172.009 31.328 171.417 32.08C170.841 32.816 170.073 33.352 169.113 33.688C168.153 34.024 167.113 34.192 165.993 34.192C164.713 34.192 163.441 34 162.177 33.616C160.929 33.216 159.817 32.672 158.841 31.984L160.305 29.128C160.449 29.272 160.705 29.464 161.073 29.704C161.441 29.928 161.889 30.16 162.417 30.4C162.945 30.624 163.521 30.816 164.145 30.976C164.769 31.136 165.401 31.216 166.041 31.216C167.865 31.216 168.777 30.632 168.777 29.464C168.777 28.968 168.593 28.568 168.225 28.264C167.857 27.96 167.337 27.704 166.665 27.496C166.009 27.288 165.241 27.056 164.361 26.8C163.273 26.496 162.369 26.16 161.649 25.792C160.945 25.408 160.417 24.936 160.065 24.376C159.713 23.8 159.537 23.072 159.537 22.192C159.537 21.024 159.809 20.048 160.353 19.264C160.913 18.464 161.665 17.864 162.609 17.464C163.553 17.048 164.601 16.84 165.753 16.84C166.937 16.84 168.041 17.032 169.065 17.416C170.089 17.8 170.969 18.24 171.705 18.736L170.241 21.424ZM186.639 31.096V34H174.807V16.96H186.423V19.864H178.119V23.968H185.295V26.656H178.119V31.096H186.639ZM196.189 34.12C194.941 34.12 193.805 33.88 192.781 33.4C191.773 32.92 190.901 32.272 190.165 31.456C189.445 30.624 188.885 29.696 188.485 28.672C188.085 27.632 187.885 26.568 187.885 25.48C187.885 24.344 188.093 23.264 188.509 22.24C188.925 21.2 189.509 20.28 190.261 19.48C191.013 18.664 191.893 18.024 192.901 17.56C193.925 17.08 195.045 16.84 196.261 16.84C197.493 16.84 198.613 17.088 199.621 17.584C200.645 18.08 201.517 18.744 202.237 19.576C202.973 20.408 203.533 21.344 203.917 22.384C204.317 23.408 204.517 24.456 204.517 25.528C204.517 26.648 204.309 27.728 203.893 28.768C203.477 29.792 202.893 30.712 202.141 31.528C201.405 32.328 200.525 32.96 199.501 33.424C198.493 33.888 197.389 34.12 196.189 34.12ZM191.245 25.48C191.245 26.472 191.437 27.4 191.821 28.264C192.221 29.128 192.789 29.832 193.525 30.376C194.277 30.92 195.173 31.192 196.213 31.192C197.285 31.192 198.189 30.912 198.925 30.352C199.661 29.792 200.221 29.072 200.605 28.192C200.989 27.312 201.181 26.408 201.181 25.48C201.181 24.488 200.981 23.56 200.581 22.696C200.181 21.832 199.605 21.136 198.853 20.608C198.117 20.064 197.237 19.792 196.213 19.792C195.141 19.792 194.237 20.072 193.501 20.632C192.765 21.192 192.205 21.912 191.821 22.792C191.437 23.656 191.245 24.552 191.245 25.48Z" fill="black"/>
<path d="M442.083 28.3333H441.162L440.835 28.0183C442.018 26.6464 442.668 24.8948 442.667 23.0833C442.667 21.5835 442.222 20.1173 441.389 18.8703C440.555 17.6232 439.371 16.6512 437.985 16.0773C436.6 15.5033 435.075 15.3531 433.604 15.6457C432.133 15.9383 430.782 16.6606 429.721 17.7211C428.661 18.7817 427.938 20.1329 427.646 21.6039C427.353 23.0749 427.503 24.5997 428.077 25.9854C428.651 27.371 429.623 28.5554 430.87 29.3886C432.117 30.2219 433.583 30.6667 435.083 30.6667C436.962 30.6667 438.688 29.9783 440.018 28.835L440.333 29.1617V30.0833L446.167 35.905L447.905 34.1667L442.083 28.3333ZM435.083 28.3333C432.178 28.3333 429.833 25.9883 429.833 23.0833C429.833 20.1783 432.178 17.8333 435.083 17.8333C437.988 17.8333 440.333 20.1783 440.333 23.0833C440.333 25.9883 437.988 28.3333 435.083 28.3333Z" fill="#4285F4"/>
<path d="M413 15L413 38" stroke="#E0E0E0" stroke-width="2"/>
<path d="M396.167 19.4783L394.522 17.8333L388 24.355L381.478 17.8333L379.833 19.4783L386.355 26L379.833 32.5216L381.478 34.1666L388 27.645L394.522 34.1666L396.167 32.5216L389.645 26L396.167 19.4783Z" fill="#80868B"/>
<path d="M68 69V71C69.5913 71 71.1174 71.6321 72.2426 72.7574C73.3679 73.8826 74 75.4087 74 77H76C76 74.8783 75.1571 72.8434 73.6569 71.3431C72.1566 69.8429 70.1217 69 68 69Z" fill="#34A853"/>
<path d="M68 71V69C65.8783 69 63.8434 69.8429 62.3431 71.3431C60.8429 72.8434 60 74.8783 60 77H62C62 73.7 64.7 71 68 71Z" fill="#EA4335"/>
<path d="M62 77H60C60 79.1217 60.8429 81.1566 62.3431 82.6569C63.8434 84.1571 65.8783 85 68 85V83C64.7 83 62 80.31 62 77Z" fill="#FBBC04"/>
<path d="M80 87.59L74.31 81.9C75.4042 80.501 75.9991 78.7761 76 77H74C74 78.5913 73.3679 80.1174 72.2426 81.2426C71.1174 82.3679 69.5913 83 68 83V85C69.85 85 71.52 84.36 72.88 83.32L78.57 89.01L80 87.59Z" fill="#4285F4"/>
<path d="M94.272 73.64H96.512L100.688 85H98.416L97.36 82.168H93.392L92.352 85H90.08L94.272 73.64ZM96.96 80.616L95.392 75.928L93.76 80.616H96.96ZM101.663 73.32H103.807V82.312C103.807 82.7067 103.871 82.968 103.999 83.096C104.127 83.224 104.303 83.288 104.527 83.288C104.698 83.288 104.874 83.2667 105.055 83.224C105.236 83.1813 105.396 83.128 105.535 83.064L105.823 84.696C105.535 84.8347 105.199 84.9413 104.815 85.016C104.431 85.0907 104.084 85.128 103.775 85.128C103.103 85.128 102.58 84.952 102.207 84.6C101.844 84.2373 101.663 83.7253 101.663 83.064V73.32ZM106.741 73.32H108.885V82.312C108.885 82.7067 108.949 82.968 109.077 83.096C109.205 83.224 109.381 83.288 109.605 83.288C109.776 83.288 109.952 83.2667 110.133 83.224C110.315 83.1813 110.475 83.128 110.613 83.064L110.901 84.696C110.613 84.8347 110.277 84.9413 109.893 85.016C109.509 85.0907 109.163 85.128 108.853 85.128C108.181 85.128 107.659 84.952 107.285 84.6C106.923 84.2373 106.741 83.7253 106.741 83.064V73.32Z" fill="#1A73E8"/>
<path d="M51 102.5L457 101.956" stroke="#DFE1E5" stroke-width="2"/>
<path d="M51.5 102.5H127" stroke="#1A73E8" stroke-width="2"/>
<path d="M154 80L158 85H146L150 81L151.79 82.78L154 80ZM147.99 77.01C148.522 77.0113 149.032 76.8014 149.409 76.4263C149.786 76.0512 149.999 75.5418 150 75.01C150.001 74.4782 149.791 73.9677 149.416 73.5908C149.041 73.2138 148.532 73.0013 148 73C147.468 72.9987 146.958 73.2086 146.581 73.5837C146.204 73.9588 145.991 74.4682 145.99 75C145.989 75.5318 146.199 76.0423 146.574 76.4192C146.949 76.7962 147.458 77.0087 147.99 77.01ZM162 72V86C161.997 86.7939 161.68 87.5544 161.118 88.1149C160.555 88.6753 159.794 88.99 159 88.99H145C143.36 88.99 142 87.63 142 85.99V72C142 70.36 143.36 69 145 69H159C160.65 69 162 70.36 162 72ZM159.99 72C159.99 71.7348 159.885 71.4804 159.697 71.2929C159.51 71.1054 159.255 71 158.99 71H145C144.735 71 144.48 71.1054 144.293 71.2929C144.105 71.4804 144 71.7348 144 72V86C144 86.2652 144.105 86.5196 144.293 86.7071C144.48 86.8946 144.735 87 145 87H152V86.99H159C159.265 86.99 159.52 86.8846 159.707 86.6971C159.895 86.5096 160 86.2552 160 85.99V72" fill="#5F6368"/>
<path d="M173.184 85V73.64H175.392V85H173.184ZM190.578 85H188.434V80.296C188.434 79.6347 188.317 79.1493 188.082 78.84C187.858 78.52 187.543 78.36 187.138 78.36C186.711 78.36 186.311 78.5253 185.938 78.856C185.565 79.176 185.298 79.5973 185.138 80.12V85H182.994V80.296C182.994 79.624 182.877 79.1333 182.642 78.824C182.418 78.5147 182.103 78.36 181.698 78.36C181.282 78.36 180.882 78.52 180.498 78.84C180.125 79.16 179.858 79.5813 179.698 80.104V85H177.554V76.616H179.49V78.168C179.799 77.624 180.221 77.208 180.754 76.92C181.298 76.6213 181.917 76.472 182.61 76.472C183.303 76.472 183.842 76.6427 184.226 76.984C184.621 77.3253 184.871 77.7467 184.978 78.248C185.309 77.672 185.741 77.2347 186.274 76.936C186.807 76.6267 187.405 76.472 188.066 76.472C188.589 76.472 189.01 76.568 189.33 76.76C189.661 76.9413 189.917 77.192 190.098 77.512C190.279 77.8213 190.402 78.1733 190.466 78.568C190.541 78.9627 190.578 79.3627 190.578 79.768V85ZM191.869 82.52C191.869 81.976 192.018 81.5013 192.317 81.096C192.626 80.68 193.053 80.36 193.597 80.136C194.141 79.912 194.765 79.8 195.469 79.8C195.821 79.8 196.178 79.832 196.541 79.896C196.903 79.9493 197.218 80.0293 197.485 80.136V79.688C197.485 79.1547 197.325 78.744 197.005 78.456C196.695 78.168 196.231 78.024 195.613 78.024C195.154 78.024 194.717 78.104 194.301 78.264C193.885 78.424 193.447 78.6587 192.989 78.968L192.301 77.56C192.855 77.1973 193.421 76.9253 193.997 76.744C194.583 76.5627 195.197 76.472 195.837 76.472C197.031 76.472 197.959 76.7707 198.621 77.368C199.293 77.9653 199.629 78.8187 199.629 79.928V82.6C199.629 82.8347 199.666 83 199.741 83.096C199.815 83.1813 199.949 83.2347 200.141 83.256V85C199.949 85.0427 199.773 85.0693 199.613 85.08C199.463 85.1013 199.335 85.112 199.229 85.112C198.802 85.112 198.477 85.016 198.253 84.824C198.029 84.632 197.895 84.3973 197.853 84.12L197.805 83.688C197.431 84.168 196.973 84.536 196.429 84.792C195.895 85.0373 195.346 85.16 194.781 85.16C194.215 85.16 193.714 85.048 193.277 84.824C192.839 84.5893 192.493 84.2747 192.237 83.88C191.991 83.4747 191.869 83.0213 191.869 82.52ZM197.085 82.952C197.351 82.696 197.485 82.4507 197.485 82.216V81.368C196.93 81.144 196.37 81.032 195.805 81.032C195.239 81.032 194.781 81.1547 194.429 81.4C194.077 81.6347 193.901 81.9493 193.901 82.344C193.901 82.664 194.029 82.952 194.285 83.208C194.541 83.464 194.909 83.592 195.389 83.592C195.709 83.592 196.018 83.5333 196.317 83.416C196.626 83.2987 196.882 83.144 197.085 82.952ZM204.912 85.048C204.166 85.048 203.51 84.856 202.944 84.472C202.379 84.088 201.936 83.576 201.616 82.936C201.296 82.2853 201.136 81.576 201.136 80.808C201.136 79.9973 201.302 79.2667 201.632 78.616C201.963 77.9547 202.422 77.432 203.008 77.048C203.595 76.664 204.272 76.472 205.04 76.472C205.691 76.472 206.262 76.6213 206.752 76.92C207.243 77.208 207.648 77.5973 207.968 78.088V76.616H209.84V84.6C209.84 85.432 209.638 86.1413 209.232 86.728C208.838 87.3253 208.288 87.7787 207.584 88.088C206.88 88.408 206.08 88.568 205.184 88.568C204.267 88.568 203.494 88.4133 202.864 88.104C202.246 87.8053 201.712 87.3787 201.264 86.824L202.432 85.688C202.752 86.0827 203.152 86.392 203.632 86.616C204.123 86.84 204.64 86.952 205.184 86.952C205.632 86.952 206.043 86.8667 206.416 86.696C206.8 86.536 207.11 86.28 207.344 85.928C207.579 85.5867 207.696 85.144 207.696 84.6V83.544C207.419 84.024 207.024 84.3973 206.512 84.664C206.011 84.92 205.478 85.048 204.912 85.048ZM205.632 83.336C206.102 83.336 206.523 83.1973 206.896 82.92C207.28 82.6427 207.547 82.312 207.696 81.928V79.928C207.504 79.4373 207.2 79.0427 206.784 78.744C206.379 78.4453 205.952 78.296 205.504 78.296C205.067 78.296 204.683 78.4187 204.352 78.664C204.032 78.9093 203.782 79.2293 203.6 79.624C203.419 80.008 203.328 80.424 203.328 80.872C203.328 81.3307 203.43 81.7467 203.632 82.12C203.835 82.4933 204.107 82.792 204.448 83.016C204.8 83.2293 205.195 83.336 205.632 83.336ZM215.661 85.16C214.754 85.16 213.97 84.9627 213.309 84.568C212.658 84.1733 212.152 83.6507 211.789 83C211.426 82.3387 211.245 81.624 211.245 80.856C211.245 80.0667 211.421 79.3413 211.773 78.68C212.136 78.008 212.648 77.4747 213.309 77.08C213.97 76.6747 214.76 76.472 215.677 76.472C216.594 76.472 217.378 76.6747 218.029 77.08C218.68 77.4747 219.176 78.0027 219.517 78.664C219.869 79.3147 220.045 80.0187 220.045 80.776C220.045 81.0533 220.029 81.2933 219.997 81.496H213.517C213.57 82.1467 213.81 82.6587 214.237 83.032C214.674 83.4053 215.176 83.592 215.741 83.592C216.168 83.592 216.568 83.4907 216.941 83.288C217.325 83.0747 217.586 82.7973 217.725 82.456L219.565 82.968C219.256 83.608 218.76 84.136 218.077 84.552C217.394 84.9573 216.589 85.16 215.661 85.16ZM213.469 80.136H217.853C217.789 79.5067 217.549 79 217.133 78.616C216.728 78.2213 216.232 78.024 215.645 78.024C215.069 78.024 214.573 78.2213 214.157 78.616C213.752 79 213.522 79.5067 213.469 80.136ZM224.439 85.16C223.724 85.16 223.042 85.0427 222.391 84.808C221.74 84.5733 221.18 84.2267 220.711 83.768L221.479 82.376C221.98 82.7813 222.471 83.08 222.951 83.272C223.431 83.464 223.9 83.56 224.359 83.56C224.775 83.56 225.106 83.4853 225.351 83.336C225.607 83.1867 225.735 82.9627 225.735 82.664C225.735 82.3547 225.58 82.1467 225.271 82.04C224.962 81.9227 224.53 81.7787 223.975 81.608C223.356 81.416 222.839 81.2187 222.423 81.016C222.007 80.8133 221.692 80.568 221.479 80.28C221.276 79.992 221.175 79.6187 221.175 79.16C221.175 78.3387 221.484 77.6827 222.103 77.192C222.722 76.7013 223.543 76.456 224.567 76.456C225.164 76.456 225.73 76.552 226.263 76.744C226.796 76.9253 227.282 77.224 227.719 77.64L226.855 79C226.034 78.36 225.239 78.04 224.471 78.04C224.13 78.04 223.826 78.104 223.559 78.232C223.303 78.36 223.175 78.584 223.175 78.904C223.175 79.2027 223.298 79.416 223.543 79.544C223.799 79.672 224.183 79.8107 224.695 79.96C225.356 80.1627 225.916 80.36 226.375 80.552C226.844 80.744 227.196 80.9893 227.431 81.288C227.676 81.5867 227.799 81.992 227.799 82.504C227.799 83.336 227.495 83.9867 226.887 84.456C226.279 84.9253 225.463 85.16 224.439 85.16Z" fill="#5F6368"/>
<path d="M293.392 77.704V85H291.184V73.64H292.944L298.816 81.128V73.656H301.024V85H299.184L293.392 77.704ZM306.927 85.16C306.02 85.16 305.236 84.9627 304.575 84.568C303.924 84.1733 303.417 83.6507 303.055 83C302.692 82.3387 302.511 81.624 302.511 80.856C302.511 80.0667 302.687 79.3413 303.039 78.68C303.401 78.008 303.913 77.4747 304.575 77.08C305.236 76.6747 306.025 76.472 306.943 76.472C307.86 76.472 308.644 76.6747 309.295 77.08C309.945 77.4747 310.441 78.0027 310.783 78.664C311.135 79.3147 311.311 80.0187 311.311 80.776C311.311 81.0533 311.295 81.2933 311.263 81.496H304.783C304.836 82.1467 305.076 82.6587 305.503 83.032C305.94 83.4053 306.441 83.592 307.007 83.592C307.433 83.592 307.833 83.4907 308.207 83.288C308.591 83.0747 308.852 82.7973 308.991 82.456L310.831 82.968C310.521 83.608 310.025 84.136 309.343 84.552C308.66 84.9573 307.855 85.16 306.927 85.16ZM304.735 80.136H309.119C309.055 79.5067 308.815 79 308.399 78.616C307.993 78.2213 307.497 78.024 306.911 78.024C306.335 78.024 305.839 78.2213 305.423 78.616C305.017 79 304.788 79.5067 304.735 80.136ZM322.782 76.616H324.814L321.31 85H319.518L318.11 81.4L316.734 85H314.926L311.438 76.616H313.454L315.95 82.952L316.926 80.216L315.47 76.632H317.246L318.11 79.192L318.99 76.632H320.766L319.31 80.216L320.302 82.952L322.782 76.616ZM328.689 85.16C327.974 85.16 327.292 85.0427 326.641 84.808C325.99 84.5733 325.43 84.2267 324.961 83.768L325.729 82.376C326.23 82.7813 326.721 83.08 327.201 83.272C327.681 83.464 328.15 83.56 328.609 83.56C329.025 83.56 329.356 83.4853 329.601 83.336C329.857 83.1867 329.985 82.9627 329.985 82.664C329.985 82.3547 329.83 82.1467 329.521 82.04C329.212 81.9227 328.78 81.7787 328.225 81.608C327.606 81.416 327.089 81.2187 326.673 81.016C326.257 80.8133 325.942 80.568 325.729 80.28C325.526 79.992 325.425 79.6187 325.425 79.16C325.425 78.3387 325.734 77.6827 326.353 77.192C326.972 76.7013 327.793 76.456 328.817 76.456C329.414 76.456 329.98 76.552 330.513 76.744C331.046 76.9253 331.532 77.224 331.969 77.64L331.105 79C330.284 78.36 329.489 78.04 328.721 78.04C328.38 78.04 328.076 78.104 327.809 78.232C327.553 78.36 327.425 78.584 327.425 78.904C327.425 79.2027 327.548 79.416 327.793 79.544C328.049 79.672 328.433 79.8107 328.945 79.96C329.606 80.1627 330.166 80.36 330.625 80.552C331.094 80.744 331.446 80.9893 331.681 81.288C331.926 81.5867 332.049 81.992 332.049 82.504C332.049 83.336 331.745 83.9867 331.137 84.456C330.529 84.9253 329.713 85.16 328.689 85.16Z" fill="#5F6368"/>
<path d="M396.352 73.64L399.424 82.376L402.464 73.64H404.784L400.48 85H398.352L394.032 73.64H396.352ZM405.789 75.448V73.32H407.933V75.448H405.789ZM405.789 85V76.616H407.933V85H405.789ZM409.355 80.808C409.355 80.008 409.515 79.2773 409.835 78.616C410.155 77.9547 410.597 77.432 411.163 77.048C411.728 76.664 412.373 76.472 413.099 76.472C413.717 76.472 414.272 76.6267 414.763 76.936C415.264 77.2347 415.653 77.6187 415.931 78.088V73.32H418.075V82.6C418.075 82.8347 418.112 83 418.187 83.096C418.261 83.1813 418.389 83.2347 418.571 83.256V85C418.187 85.0747 417.883 85.112 417.659 85.112C417.275 85.112 416.955 85.016 416.699 84.824C416.453 84.632 416.315 84.3813 416.283 84.072L416.251 83.544C415.941 84.0667 415.52 84.4667 414.987 84.744C414.464 85.0213 413.915 85.16 413.339 85.16C412.56 85.16 411.872 84.968 411.275 84.584C410.677 84.1893 410.208 83.6667 409.867 83.016C409.525 82.3547 409.355 81.6187 409.355 80.808ZM415.931 81.928V79.928C415.76 79.4587 415.467 79.0693 415.051 78.76C414.635 78.4507 414.208 78.296 413.771 78.296C413.333 78.296 412.949 78.4187 412.619 78.664C412.288 78.8987 412.032 79.2133 411.851 79.608C411.669 79.992 411.579 80.408 411.579 80.856C411.579 81.3147 411.68 81.736 411.883 82.12C412.085 82.4933 412.357 82.792 412.699 83.016C413.051 83.2293 413.451 83.336 413.899 83.336C414.304 83.336 414.704 83.2027 415.099 82.936C415.504 82.6693 415.781 82.3333 415.931 81.928ZM424.067 85.16C423.16 85.16 422.376 84.9627 421.715 84.568C421.064 84.1733 420.558 83.6507 420.195 83C419.832 82.3387 419.651 81.624 419.651 80.856C419.651 80.0667 419.827 79.3413 420.179 78.68C420.542 78.008 421.054 77.4747 421.715 77.08C422.376 76.6747 423.166 76.472 424.083 76.472C425 76.472 425.784 76.6747 426.435 77.08C427.086 77.4747 427.582 78.0027 427.923 78.664C428.275 79.3147 428.451 80.0187 428.451 80.776C428.451 81.0533 428.435 81.2933 428.403 81.496H421.923C421.976 82.1467 422.216 82.6587 422.643 83.032C423.08 83.4053 423.582 83.592 424.147 83.592C424.574 83.592 424.974 83.4907 425.347 83.288C425.731 83.0747 425.992 82.7973 426.131 82.456L427.971 82.968C427.662 83.608 427.166 84.136 426.483 84.552C425.8 84.9573 424.995 85.16 424.067 85.16ZM421.875 80.136H426.259C426.195 79.5067 425.955 79 425.539 78.616C425.134 78.2213 424.638 78.024 424.051 78.024C423.475 78.024 422.979 78.2213 422.563 78.616C422.158 79 421.928 79.5067 421.875 80.136ZM433.629 85.16C432.712 85.16 431.923 84.9627 431.261 84.568C430.611 84.1627 430.109 83.6293 429.757 82.968C429.405 82.3067 429.229 81.592 429.229 80.824C429.229 80.0453 429.405 79.3253 429.757 78.664C430.12 78.0027 430.627 77.4747 431.277 77.08C431.939 76.6747 432.723 76.472 433.629 76.472C434.536 76.472 435.315 76.6747 435.965 77.08C436.627 77.4747 437.133 78.0027 437.485 78.664C437.837 79.3253 438.013 80.0453 438.013 80.824C438.013 81.592 437.837 82.3067 437.485 82.968C437.133 83.6293 436.627 84.1627 435.965 84.568C435.315 84.9627 434.536 85.16 433.629 85.16ZM431.437 80.824C431.437 81.3147 431.533 81.752 431.725 82.136C431.917 82.5093 432.179 82.8027 432.509 83.016C432.84 83.2293 433.213 83.336 433.629 83.336C434.035 83.336 434.403 83.2293 434.733 83.016C435.064 82.792 435.325 82.4933 435.517 82.12C435.72 81.736 435.821 81.2987 435.821 80.808C435.821 80.328 435.72 79.9013 435.517 79.528C435.325 79.144 435.064 78.8453 434.733 78.632C434.403 78.408 434.035 78.296 433.629 78.296C433.213 78.296 432.84 78.408 432.509 78.632C432.179 78.8453 431.917 79.144 431.725 79.528C431.533 79.9013 431.437 80.3333 431.437 80.824ZM442.548 85.16C441.834 85.16 441.151 85.0427 440.5 84.808C439.85 84.5733 439.29 84.2267 438.82 83.768L439.588 82.376C440.09 82.7813 440.58 83.08 441.06 83.272C441.54 83.464 442.01 83.56 442.468 83.56C442.884 83.56 443.215 83.4853 443.46 83.336C443.716 83.1867 443.844 82.9627 443.844 82.664C443.844 82.3547 443.69 82.1467 443.38 82.04C443.071 81.9227 442.639 81.7787 442.084 81.608C441.466 81.416 440.948 81.2187 440.532 81.016C440.116 80.8133 439.802 80.568 439.588 80.28C439.386 79.992 439.284 79.6187 439.284 79.16C439.284 78.3387 439.594 77.6827 440.212 77.192C440.831 76.7013 441.652 76.456 442.676 76.456C443.274 76.456 443.839 76.552 444.372 76.744C444.906 76.9253 445.391 77.224 445.828 77.64L444.964 79C444.143 78.36 443.348 78.04 442.58 78.04C442.239 78.04 441.935 78.104 441.668 78.232C441.412 78.36 441.284 78.584 441.284 78.904C441.284 79.2027 441.407 79.416 441.652 79.544C441.908 79.672 442.292 79.8107 442.804 79.96C443.466 80.1627 444.026 80.36 444.484 80.552C444.954 80.744 445.306 80.9893 445.54 81.288C445.786 81.5867 445.908 81.992 445.908 82.504C445.908 83.336 445.604 83.9867 444.996 84.456C444.388 84.9253 443.572 85.16 442.548 85.16Z" fill="#5F6368"/>
<path d="M270 78H276V80H270V78ZM264 84H276V82H264V84ZM264 80H268V74H264V80ZM280 72.78V85.22C280 86.76 278.66 88 277 88H263C261.36 88 260 86.75 260 85.22V72.78C260 71.26 261.36 70 263 70H277C278.64 70 280 71.25 280 72.78ZM277.99 79V72.78C277.99 72.36 277.53 72 276.99 72H263C262.46 72 262 72.36 262 72.78V85.22C262 85.64 262.46 86 263 86H277C277.54 86 278 85.64 278 85.22V79H277.99ZM270 76H276V74H270V76Z" fill="#5F6368"/>
<path d="M372 83.5L378 79L372 74.5V83.5ZM367 87H381C381.265 87 381.52 86.8946 381.707 86.7071C381.895 86.5196 382 86.2652 382 86V72C382 71.7348 381.895 71.4804 381.707 71.2929C381.52 71.1054 381.265 71 381 71H367C366.735 71 366.48 71.1054 366.293 71.2929C366.105 71.4804 366 71.7348 366 72V86C366 86.2652 366.105 86.5196 366.293 86.7071C366.48 86.8946 366.735 87 367 87ZM381.5 89H367C366.204 89 365.441 88.6839 364.879 88.1213C364.316 87.5587 364 86.7956 364 86V71.4C364 70.7635 364.253 70.153 364.703 69.7029C365.153 69.2529 365.763 69 366.4 69H381.6C382.237 69 382.847 69.2529 383.297 69.7029C383.747 70.153 384 70.7635 384 71.4V86.5C384 87.163 383.737 87.7989 383.268 88.2678C382.799 88.7366 382.163 89 381.5 89Z" fill="#5F6368"/>
<rect x="96.4" y="165.822" width="214.804" height="10.4783" rx="5.23913" fill="#C4C4C4"/>
<rect x="58.6783" y="249.648" width="300.726" height="10.4783" rx="5.23913" fill="#C4C4C4"/>
<rect x="58.6783" y="272.7" width="300.726" height="10.4783" rx="5.23913" fill="#C4C4C4"/>
<rect x="58.6783" y="295.752" width="165.557" height="10.4783" rx="5.23913" fill="#C4C4C4"/>
<rect x="58.6783" y="196.209" width="399.222" height="10.4783" rx="5.23913" fill="#A177B4"/>
<rect x="58.6783" y="219.261" width="130.978" height="10.4783" rx="5.23913" fill="#A177B4"/>
<rect x="58.6783" y="158.487" width="25.1478" height="25.1478" rx="4" fill="#C4C4C4"/>
<rect x="379.313" y="241.265" width="78.587" height="78.587" rx="12" fill="#C4C4C4"/>
<rect x="103" y="380" width="241" height="10" rx="5" fill="#C4C4C4"/>
<rect x="67" y="521" width="379" height="10" rx="5" fill="#C4C4C4"/>
<rect x="67" y="543" width="93" height="10" rx="5" fill="#C4C4C4"/>
<rect x="67" y="409" width="215" height="10" rx="5" fill="#A177B4"/>
<rect x="67" y="373" width="23.874" height="23.874" rx="4" fill="#C4C4C4"/>
<rect x="67" y="436" width="74.6063" height="74.6063" rx="12" fill="#C4C4C4"/>
<rect x="153" y="436" width="74.6063" height="74.6063" rx="12" fill="#C4C4C4"/>
<rect x="239" y="436" width="74.6063" height="74.6063" rx="12" fill="#C4C4C4"/>
<rect x="27" y="135" width="458" height="209" rx="11" stroke="#DFE1E5" stroke-width="2"/>
<path d="M32 109L37.3607 119.251L46.8711 112.665L46.8539 124.233L58.3355 122.822L52.9444 133.057L63.7667 137.143L54.2367 143.7L61.9205 152.347L50.4348 153.725L53.2199 164.952L42.4098 160.834L39.6581 172.07L32 163.4L24.3419 172.07L21.5902 160.834L10.7801 164.952L13.5652 153.725L2.07948 152.347L9.76332 143.7L0.233316 137.143L11.0556 133.057L5.66452 122.822L17.1461 124.233L17.1289 112.665L26.6393 119.251L32 109Z" fill="#F6CB03"/>
<path d="M34.07 139.672H30.858L30.154 142.686H33.036V144.886H29.626L28.614 149H26.238L27.272 144.886H24.632L23.642 149H21.266L22.278 144.886H19.814V142.686H22.806L23.532 139.672H20.848V137.604H24.038L25.072 133.38H27.448L26.392 137.604H29.032L30.044 133.38H32.42L31.386 137.604H34.07V139.672ZM27.8 142.686L28.504 139.672H25.886L25.16 142.686H27.8ZM45.1515 146.338V149H36.3075V146.338H39.3435V136.174C39.1821 136.394 38.8961 136.658 38.4855 136.966C38.0748 137.259 37.6201 137.516 37.1215 137.736C36.6375 137.956 36.1975 138.066 35.8015 138.066V135.338C36.1828 135.338 36.5788 135.235 36.9895 135.03C37.4001 134.825 37.7815 134.59 38.1335 134.326C38.4855 134.047 38.7715 133.805 38.9915 133.6C39.2261 133.38 39.3435 133.255 39.3435 133.226H42.3575V146.338H45.1515Z" fill="white"/>
<rect y="134" width="698" height="495" fill="url(#paint0_linear)"/>
<rect x="121.014" y="611.636" width="87.0947" height="17.5777" rx="8.78887" fill="#A177B4"/>
<rect x="240.334" y="519.353" width="87.0947" height="109.861" rx="12" fill="#A177B4"/>
<rect x="359.653" y="409.492" width="87.0947" height="219.722" rx="12" fill="#A177B4"/>
<rect x="478.973" y="299.632" width="87.0947" height="329.582" rx="12" fill="#A177B4"/>
<rect x="598.293" y="189.771" width="87.0947" height="439.443" rx="12" fill="#A177B4"/>
<g clip-path="url(#clip0)">
<path d="M678.102 155.033H605.64C604.107 155.033 602.853 156.351 602.853 157.963V163.822C602.853 165.434 604.107 166.752 605.64 166.752H678.102C679.635 166.752 680.89 165.434 680.89 163.822V157.963C680.89 156.351 679.635 155.033 678.102 155.033ZM689.251 96.438C684.635 96.438 680.89 100.375 680.89 105.227C680.89 106.527 681.168 107.736 681.656 108.853L669.045 116.8C666.362 118.484 662.896 117.532 661.345 114.676L647.149 88.5643C649.013 86.9529 650.232 84.5359 650.232 81.7893C650.232 76.9369 646.487 73 641.871 73C637.255 73 633.51 76.9369 633.51 81.7893C633.51 84.5359 634.729 86.9529 636.593 88.5643L622.397 114.676C620.846 117.532 617.363 118.484 614.698 116.8L602.104 108.853C602.574 107.754 602.87 106.527 602.87 105.227C602.87 100.375 599.125 96.438 594.509 96.438C589.893 96.438 586.13 100.375 586.13 105.227C586.13 110.08 589.876 114.017 594.492 114.017C594.944 114.017 595.397 113.943 595.833 113.87L608.427 149.174H675.315L687.909 113.87C688.345 113.943 688.798 114.017 689.251 114.017C693.867 114.017 697.612 110.08 697.612 105.227C697.612 100.375 693.867 96.438 689.251 96.438Z" fill="#F6CB03"/>
</g>
<defs>
<linearGradient id="paint0_linear" x1="698" y1="629" x2="40.8867" y2="16.2026" gradientUnits="userSpaceOnUse">
<stop stop-color="white"/>
<stop offset="0.297763" stop-color="white"/>
<stop offset="1" stop-color="white" stop-opacity="0"/>
</linearGradient>
<clipPath id="clip0">
<rect width="111.481" height="93.752" fill="white" transform="translate(586.13 73)"/>
</clipPath>
</defs>
</svg>
