<svg width="789" height="768" viewBox="0 0 789 768" fill="none" xmlns="http://www.w3.org/2000/svg">
<g filter="url(#filter0_d)">
<rect x="231" y="15" width="443" height="708" rx="32" fill="white"/>
</g>
<mask id="mask0" mask-type="alpha" maskUnits="userSpaceOnUse" x="231" y="15" width="443" height="134">
<rect x="231" y="15" width="443" height="134" fill="#C4C4C4"/>
</mask>
<g mask="url(#mask0)">
<g filter="url(#filter1_d)">
<path d="M231 47C231 29.3269 245.327 15 263 15H642C659.673 15 674 29.3269 674 47V105.218H231V47Z" fill="#EFE6F4"/>
</g>
</g>
<path d="M749 704C771.091 704 789 686.091 789 664C789 641.909 771.091 624 749 624C726.909 624 709 641.909 709 664C709 686.091 726.909 704 749 704Z" fill="#A177B4"/>
<path fill-rule="evenodd" clip-rule="evenodd" d="M749 637.333C764.022 637.333 775.667 648.337 775.667 663.2C775.667 678.063 764.022 689.067 749 689.067C746.302 689.067 743.713 688.71 741.281 688.041C740.808 687.911 740.305 687.948 739.857 688.146L734.564 690.483C733.179 691.094 731.616 690.109 731.57 688.597L731.425 683.853C731.407 683.268 731.144 682.722 730.708 682.332C725.519 677.692 722.333 670.974 722.333 663.2C722.333 648.337 733.978 637.333 749 637.333ZM732.987 670.765C732.235 671.957 733.701 673.301 734.824 672.449L743.238 666.063C743.808 665.631 744.594 665.629 745.166 666.058L751.396 670.73C753.266 672.133 755.934 671.64 757.18 669.663L765.013 657.235C765.765 656.043 764.299 654.699 763.176 655.551L754.762 661.937C754.192 662.369 753.406 662.371 752.834 661.942L746.604 657.27C744.734 655.868 742.066 656.36 740.82 658.337L732.987 670.765Z" fill="white"/>
<path d="M232 669H675" stroke="#D5D5D5"/>
<circle cx="282.5" cy="61.5" r="27.5" fill="#A177B4"/>
<circle cx="276.5" cy="149.5" r="21.5" fill="#A177B4"/>
<circle cx="276.5" cy="571.5" r="21.5" fill="#A177B4"/>
<circle r="7" transform="matrix(1 0 0 -1 302 81)" fill="#42B72A" stroke="white" stroke-width="2"/>
<rect x="327" y="44" width="182" height="10" rx="5" fill="#C1A1CF"/>
<rect x="327" y="70" width="88" height="10" rx="5" fill="#C1A1CF"/>
<circle cx="586" cy="61" r="19" fill="#C1A1CF"/>
<circle cx="634" cy="61" r="19" fill="#C1A1CF"/>
<circle cx="577.5" cy="61.5" r="2.5" fill="white"/>
<circle cx="585.5" cy="61.5" r="2.5" fill="white"/>
<circle cx="593.5" cy="61.5" r="2.5" fill="white"/>
<path d="M627 61H641" stroke="white" stroke-width="4" stroke-linecap="round"/>
<path d="M259.408 686.96H262.768L269.032 704H265.624L264.04 699.752H258.088L256.528 704H253.12L259.408 686.96ZM263.44 697.424L261.088 690.392L258.64 697.424H263.44ZM275.034 704.24C273.962 704.24 272.938 704.064 271.962 703.712C270.986 703.36 270.146 702.84 269.442 702.152L270.594 700.064C271.346 700.672 272.082 701.12 272.802 701.408C273.522 701.696 274.226 701.84 274.914 701.84C275.538 701.84 276.034 701.728 276.402 701.504C276.786 701.28 276.978 700.944 276.978 700.496C276.978 700.032 276.746 699.72 276.282 699.56C275.818 699.384 275.17 699.168 274.338 698.912C273.41 698.624 272.634 698.328 272.01 698.024C271.386 697.72 270.914 697.352 270.594 696.92C270.29 696.488 270.138 695.928 270.138 695.24C270.138 694.008 270.602 693.024 271.53 692.288C272.458 691.552 273.69 691.184 275.226 691.184C276.122 691.184 276.97 691.328 277.77 691.616C278.57 691.888 279.298 692.336 279.954 692.96L278.658 695C277.426 694.04 276.234 693.56 275.082 693.56C274.57 693.56 274.114 693.656 273.714 693.848C273.33 694.04 273.138 694.376 273.138 694.856C273.138 695.304 273.322 695.624 273.69 695.816C274.074 696.008 274.65 696.216 275.418 696.44C276.41 696.744 277.25 697.04 277.938 697.328C278.642 697.616 279.17 697.984 279.522 698.432C279.89 698.88 280.074 699.488 280.074 700.256C280.074 701.504 279.618 702.48 278.706 703.184C277.794 703.888 276.57 704.24 275.034 704.24ZM290.853 704L287.181 698.576L285.477 700.256V704H282.261V686.48H285.477V697.088L290.541 691.448H293.949L289.269 696.776L294.285 704H290.853ZM300.545 700.28C300.545 699.464 300.769 698.752 301.217 698.144C301.681 697.52 302.321 697.04 303.137 696.704C303.953 696.368 304.889 696.2 305.945 696.2C306.473 696.2 307.009 696.248 307.553 696.344C308.097 696.424 308.569 696.544 308.969 696.704V696.032C308.969 695.232 308.729 694.616 308.249 694.184C307.785 693.752 307.089 693.536 306.161 693.536C305.473 693.536 304.817 693.656 304.193 693.896C303.569 694.136 302.913 694.488 302.225 694.952L301.193 692.84C302.025 692.296 302.873 691.888 303.737 691.616C304.617 691.344 305.537 691.208 306.497 691.208C308.289 691.208 309.681 691.656 310.673 692.552C311.681 693.448 312.185 694.728 312.185 696.392V700.4C312.185 700.752 312.241 701 312.353 701.144C312.465 701.272 312.665 701.352 312.953 701.384V704C312.665 704.064 312.401 704.104 312.161 704.12C311.937 704.152 311.745 704.168 311.585 704.168C310.945 704.168 310.457 704.024 310.121 703.736C309.785 703.448 309.585 703.096 309.521 702.68L309.449 702.032C308.889 702.752 308.201 703.304 307.385 703.688C306.585 704.056 305.761 704.24 304.913 704.24C304.065 704.24 303.313 704.072 302.657 703.736C302.001 703.384 301.481 702.912 301.097 702.32C300.729 701.712 300.545 701.032 300.545 700.28ZM308.369 700.928C308.769 700.544 308.969 700.176 308.969 699.824V698.552C308.137 698.216 307.297 698.048 306.449 698.048C305.601 698.048 304.913 698.232 304.385 698.6C303.857 698.952 303.593 699.424 303.593 700.016C303.593 700.496 303.785 700.928 304.169 701.312C304.553 701.696 305.105 701.888 305.825 701.888C306.305 701.888 306.769 701.8 307.217 701.624C307.681 701.448 308.065 701.216 308.369 700.928ZM325.708 704.24C324.636 704.24 323.684 703.944 322.852 703.352C322.02 702.76 321.372 701.968 320.908 700.976C320.444 699.984 320.212 698.888 320.212 697.688C320.212 696.488 320.468 695.4 320.98 694.424C321.492 693.432 322.188 692.648 323.068 692.072C323.964 691.496 324.972 691.208 326.092 691.208C327.052 691.208 327.9 691.432 328.636 691.88C329.372 692.312 329.972 692.888 330.436 693.608V691.424H333.244V709.112H330.028V701.792C329.068 703.424 327.628 704.24 325.708 704.24ZM326.908 701.504C327.596 701.504 328.196 701.312 328.708 700.928C329.236 700.544 329.676 700.048 330.028 699.44V696.464C329.916 695.984 329.692 695.56 329.356 695.192C329.02 694.808 328.628 694.504 328.18 694.28C327.748 694.056 327.308 693.944 326.86 693.944C326.204 693.944 325.62 694.128 325.108 694.496C324.612 694.848 324.22 695.32 323.932 695.912C323.644 696.488 323.5 697.112 323.5 697.784C323.5 698.472 323.644 699.104 323.932 699.68C324.22 700.24 324.62 700.688 325.132 701.024C325.644 701.344 326.236 701.504 326.908 701.504ZM336.047 699.296V691.424H339.263V698.6C339.263 700.536 339.959 701.504 341.351 701.504C341.975 701.504 342.575 701.32 343.151 700.952C343.743 700.568 344.223 699.992 344.591 699.224V691.424H347.807V700.4C347.807 700.752 347.863 701 347.975 701.144C348.087 701.272 348.287 701.352 348.575 701.384V704C348.255 704.064 347.983 704.104 347.759 704.12C347.551 704.136 347.359 704.144 347.183 704.144C346.607 704.144 346.135 704.016 345.767 703.76C345.415 703.488 345.207 703.12 345.143 702.656L345.071 701.648C344.511 702.512 343.791 703.16 342.911 703.592C342.031 704.024 341.063 704.24 340.007 704.24C338.711 704.24 337.727 703.824 337.055 702.992C336.383 702.144 336.047 700.912 336.047 699.296ZM356.835 704.24C355.475 704.24 354.299 703.944 353.307 703.352C352.331 702.76 351.571 701.976 351.027 701C350.483 700.008 350.211 698.936 350.211 697.784C350.211 696.6 350.475 695.512 351.003 694.52C351.547 693.512 352.315 692.712 353.307 692.12C354.299 691.512 355.483 691.208 356.859 691.208C358.235 691.208 359.411 691.512 360.387 692.12C361.363 692.712 362.107 693.504 362.619 694.496C363.147 695.472 363.411 696.528 363.411 697.664C363.411 698.08 363.387 698.44 363.339 698.744H353.619C353.699 699.72 354.059 700.488 354.699 701.048C355.355 701.608 356.107 701.888 356.955 701.888C357.595 701.888 358.195 701.736 358.755 701.432C359.331 701.112 359.723 700.696 359.931 700.184L362.691 700.952C362.227 701.912 361.483 702.704 360.459 703.328C359.435 703.936 358.227 704.24 356.835 704.24ZM353.547 696.704H360.123C360.027 695.76 359.667 695 359.043 694.424C358.435 693.832 357.691 693.536 356.811 693.536C355.947 693.536 355.203 693.832 354.579 694.424C353.971 695 353.627 695.76 353.547 696.704ZM370.002 704.24C368.93 704.24 367.906 704.064 366.93 703.712C365.954 703.36 365.114 702.84 364.41 702.152L365.562 700.064C366.314 700.672 367.05 701.12 367.77 701.408C368.49 701.696 369.194 701.84 369.882 701.84C370.506 701.84 371.002 701.728 371.37 701.504C371.754 701.28 371.946 700.944 371.946 700.496C371.946 700.032 371.714 699.72 371.25 699.56C370.786 699.384 370.138 699.168 369.306 698.912C368.378 698.624 367.602 698.328 366.978 698.024C366.354 697.72 365.882 697.352 365.562 696.92C365.258 696.488 365.106 695.928 365.106 695.24C365.106 694.008 365.57 693.024 366.498 692.288C367.426 691.552 368.658 691.184 370.194 691.184C371.09 691.184 371.938 691.328 372.738 691.616C373.538 691.888 374.266 692.336 374.922 692.96L373.626 695C372.394 694.04 371.202 693.56 370.05 693.56C369.538 693.56 369.082 693.656 368.682 693.848C368.298 694.04 368.106 694.376 368.106 694.856C368.106 695.304 368.29 695.624 368.658 695.816C369.042 696.008 369.618 696.216 370.386 696.44C371.378 696.744 372.218 697.04 372.906 697.328C373.61 697.616 374.138 697.984 374.49 698.432C374.858 698.88 375.042 699.488 375.042 700.256C375.042 701.504 374.586 702.48 373.674 703.184C372.762 703.888 371.538 704.24 370.002 704.24ZM384.695 703.352C384.263 703.544 383.727 703.736 383.087 703.928C382.463 704.12 381.815 704.216 381.143 704.216C380.551 704.216 380.007 704.112 379.511 703.904C379.015 703.696 378.615 703.368 378.311 702.92C378.023 702.456 377.879 701.856 377.879 701.12V693.896H376.223V691.424H377.879V687.344H381.095V691.424H383.735V693.896H381.095V700.04C381.095 700.472 381.207 700.784 381.431 700.976C381.671 701.168 381.959 701.264 382.295 701.264C382.631 701.264 382.959 701.208 383.279 701.096C383.599 700.984 383.855 700.888 384.047 700.808L384.695 703.352ZM386.37 689.672V686.48H389.586V689.672H386.37ZM386.37 704V691.424H389.586V704H386.37ZM398.295 704.24C396.919 704.24 395.735 703.944 394.743 703.352C393.767 702.744 393.015 701.944 392.487 700.952C391.959 699.96 391.695 698.888 391.695 697.736C391.695 696.568 391.959 695.488 392.487 694.496C393.031 693.504 393.791 692.712 394.767 692.12C395.759 691.512 396.935 691.208 398.295 691.208C399.655 691.208 400.823 691.512 401.799 692.12C402.791 692.712 403.551 693.504 404.079 694.496C404.607 695.488 404.871 696.568 404.871 697.736C404.871 698.888 404.607 699.96 404.079 700.952C403.551 701.944 402.791 702.744 401.799 703.352C400.823 703.944 399.655 704.24 398.295 704.24ZM395.007 697.736C395.007 698.472 395.151 699.128 395.439 699.704C395.727 700.264 396.119 700.704 396.615 701.024C397.111 701.344 397.671 701.504 398.295 701.504C398.903 701.504 399.455 701.344 399.951 701.024C400.447 700.688 400.839 700.24 401.127 699.68C401.431 699.104 401.583 698.448 401.583 697.712C401.583 696.992 401.431 696.352 401.127 695.792C400.839 695.216 400.447 694.768 399.951 694.448C399.455 694.112 398.903 693.944 398.295 693.944C397.671 693.944 397.111 694.112 396.615 694.448C396.119 694.768 395.727 695.216 395.439 695.792C395.151 696.352 395.007 697 395.007 697.736ZM418.73 704H415.514V696.944C415.514 695.936 415.338 695.2 414.986 694.736C414.634 694.272 414.146 694.04 413.522 694.04C413.09 694.04 412.65 694.152 412.202 694.376C411.77 694.6 411.378 694.912 411.026 695.312C410.674 695.696 410.418 696.144 410.258 696.656V704H407.042V691.424H409.946V693.752C410.41 692.968 411.082 692.352 411.962 691.904C412.842 691.44 413.834 691.208 414.938 691.208C415.722 691.208 416.362 691.352 416.858 691.64C417.354 691.912 417.738 692.288 418.01 692.768C418.282 693.232 418.466 693.76 418.562 694.352C418.674 694.944 418.73 695.544 418.73 696.152V704ZM421.455 704V700.544H424.095V704H421.455ZM426.845 704V700.544H429.485V704H426.845ZM432.236 704V700.544H434.876V704H432.236Z" fill="#B5B5B5"/>
<rect x="318" y="127" width="303" height="45" rx="22.5" fill="#F5F5F5"/>
<rect x="482" y="397" width="166" height="45" rx="22.5" fill="#EFE6F4"/>
<rect x="547" y="608" width="101" height="45" rx="22.5" fill="#EFE6F4"/>
<path d="M348.42 142.8V157H345.68V150.94H339.24V157H336.48V142.8H339.24V148.54H345.68V142.8H348.42ZM355.807 157.2C354.673 157.2 353.693 156.953 352.867 156.46C352.053 155.967 351.42 155.313 350.967 154.5C350.513 153.673 350.287 152.78 350.287 151.82C350.287 150.833 350.507 149.927 350.947 149.1C351.4 148.26 352.04 147.593 352.867 147.1C353.693 146.593 354.68 146.34 355.827 146.34C356.973 146.34 357.953 146.593 358.767 147.1C359.58 147.593 360.2 148.253 360.627 149.08C361.067 149.893 361.287 150.773 361.287 151.72C361.287 152.067 361.267 152.367 361.227 152.62H353.127C353.193 153.433 353.493 154.073 354.027 154.54C354.573 155.007 355.2 155.24 355.907 155.24C356.44 155.24 356.94 155.113 357.407 154.86C357.887 154.593 358.213 154.247 358.387 153.82L360.687 154.46C360.3 155.26 359.68 155.92 358.827 156.44C357.973 156.947 356.967 157.2 355.807 157.2ZM353.067 150.92H358.547C358.467 150.133 358.167 149.5 357.647 149.02C357.14 148.527 356.52 148.28 355.787 148.28C355.067 148.28 354.447 148.527 353.927 149.02C353.42 149.5 353.133 150.133 353.067 150.92ZM362.899 142.4H365.579V153.64C365.579 154.133 365.659 154.46 365.819 154.62C365.979 154.78 366.199 154.86 366.479 154.86C366.693 154.86 366.913 154.833 367.139 154.78C367.366 154.727 367.566 154.66 367.739 154.58L368.099 156.62C367.739 156.793 367.319 156.927 366.839 157.02C366.359 157.113 365.926 157.16 365.539 157.16C364.699 157.16 364.046 156.94 363.579 156.5C363.126 156.047 362.899 155.407 362.899 154.58V142.4ZM369.247 142.4H371.927V153.64C371.927 154.133 372.007 154.46 372.167 154.62C372.327 154.78 372.547 154.86 372.827 154.86C373.04 154.86 373.26 154.833 373.487 154.78C373.714 154.727 373.914 154.66 374.087 154.58L374.447 156.62C374.087 156.793 373.667 156.927 373.187 157.02C372.707 157.113 372.274 157.16 371.887 157.16C371.047 157.16 370.394 156.94 369.927 156.5C369.474 156.047 369.247 155.407 369.247 154.58V142.4ZM380.455 157.2C379.308 157.2 378.321 156.953 377.495 156.46C376.681 155.953 376.055 155.287 375.615 154.46C375.175 153.633 374.955 152.74 374.955 151.78C374.955 150.807 375.175 149.907 375.615 149.08C376.068 148.253 376.701 147.593 377.515 147.1C378.341 146.593 379.321 146.34 380.455 146.34C381.588 146.34 382.561 146.593 383.375 147.1C384.201 147.593 384.835 148.253 385.275 149.08C385.715 149.907 385.935 150.807 385.935 151.78C385.935 152.74 385.715 153.633 385.275 154.46C384.835 155.287 384.201 155.953 383.375 156.46C382.561 156.953 381.588 157.2 380.455 157.2ZM377.715 151.78C377.715 152.393 377.835 152.94 378.075 153.42C378.315 153.887 378.641 154.253 379.055 154.52C379.468 154.787 379.935 154.92 380.455 154.92C380.961 154.92 381.421 154.787 381.835 154.52C382.248 154.24 382.575 153.867 382.815 153.4C383.068 152.92 383.195 152.373 383.195 151.76C383.195 151.16 383.068 150.627 382.815 150.16C382.575 149.68 382.248 149.307 381.835 149.04C381.421 148.76 380.961 148.62 380.455 148.62C379.935 148.62 379.468 148.76 379.055 149.04C378.641 149.307 378.315 149.68 378.075 150.16C377.835 150.627 377.715 151.167 377.715 151.78ZM387.769 159.3L388.309 156.92H387.469V154.12H389.789V156.92L388.969 159.3H387.769ZM406.722 157H404.042V151.12C404.042 150.307 403.882 149.7 403.562 149.3C403.255 148.9 402.828 148.7 402.282 148.7C401.948 148.7 401.602 148.793 401.242 148.98C400.895 149.167 400.575 149.427 400.282 149.76C400.002 150.08 399.795 150.453 399.662 150.88V157H396.982V142.4H399.662V148.46C400.048 147.793 400.575 147.273 401.242 146.9C401.908 146.527 402.635 146.34 403.422 146.34C404.315 146.34 405.002 146.54 405.482 146.94C405.962 147.34 406.288 147.853 406.462 148.48C406.635 149.107 406.722 149.767 406.722 150.46V157ZM413.892 157.2C412.745 157.2 411.759 156.953 410.932 156.46C410.119 155.953 409.492 155.287 409.052 154.46C408.612 153.633 408.392 152.74 408.392 151.78C408.392 150.807 408.612 149.907 409.052 149.08C409.505 148.253 410.139 147.593 410.952 147.1C411.779 146.593 412.759 146.34 413.892 146.34C415.025 146.34 415.999 146.593 416.812 147.1C417.639 147.593 418.272 148.253 418.712 149.08C419.152 149.907 419.372 150.807 419.372 151.78C419.372 152.74 419.152 153.633 418.712 154.46C418.272 155.287 417.639 155.953 416.812 156.46C415.999 156.953 415.025 157.2 413.892 157.2ZM411.152 151.78C411.152 152.393 411.272 152.94 411.512 153.42C411.752 153.887 412.079 154.253 412.492 154.52C412.905 154.787 413.372 154.92 413.892 154.92C414.399 154.92 414.859 154.787 415.272 154.52C415.685 154.24 416.012 153.867 416.252 153.4C416.505 152.92 416.632 152.373 416.632 151.76C416.632 151.16 416.505 150.627 416.252 150.16C416.012 149.68 415.685 149.307 415.272 149.04C414.859 148.76 414.399 148.62 413.892 148.62C413.372 148.62 412.905 148.76 412.492 149.04C412.079 149.307 411.752 149.68 411.512 150.16C411.272 150.627 411.152 151.167 411.152 151.78ZM433.829 146.52H436.369L431.989 157H429.749L427.989 152.5L426.269 157H424.009L419.649 146.52H422.169L425.289 154.44L426.509 151.02L424.689 146.54H426.909L427.989 149.74L429.089 146.54H431.309L429.489 151.02L430.729 154.44L433.829 146.52ZM446.725 157.2C445.592 157.2 444.612 156.947 443.785 156.44C442.958 155.933 442.318 155.267 441.865 154.44C441.412 153.613 441.185 152.72 441.185 151.76C441.185 150.787 441.405 149.887 441.845 149.06C442.298 148.233 442.938 147.573 443.765 147.08C444.592 146.587 445.572 146.34 446.705 146.34C447.852 146.34 448.825 146.587 449.625 147.08C450.438 147.573 451.045 148.22 451.445 149.02L448.825 149.82C448.358 149.02 447.645 148.62 446.685 148.62C446.165 148.62 445.698 148.753 445.285 149.02C444.872 149.273 444.545 149.64 444.305 150.12C444.065 150.587 443.945 151.133 443.945 151.76C443.945 152.373 444.065 152.92 444.305 153.4C444.558 153.867 444.892 154.24 445.305 154.52C445.718 154.787 446.178 154.92 446.685 154.92C447.165 154.92 447.605 154.807 448.005 154.58C448.418 154.34 448.705 154.04 448.865 153.68L451.485 154.48C451.125 155.267 450.525 155.92 449.685 156.44C448.858 156.947 447.872 157.2 446.725 157.2ZM452.414 153.9C452.414 153.22 452.601 152.627 452.974 152.12C453.361 151.6 453.894 151.2 454.574 150.92C455.254 150.64 456.034 150.5 456.914 150.5C457.354 150.5 457.801 150.54 458.254 150.62C458.707 150.687 459.101 150.787 459.434 150.92V150.36C459.434 149.693 459.234 149.18 458.834 148.82C458.447 148.46 457.867 148.28 457.094 148.28C456.521 148.28 455.974 148.38 455.454 148.58C454.934 148.78 454.387 149.073 453.814 149.46L452.954 147.7C453.647 147.247 454.354 146.907 455.074 146.68C455.807 146.453 456.574 146.34 457.374 146.34C458.867 146.34 460.027 146.713 460.854 147.46C461.694 148.207 462.114 149.273 462.114 150.66V154C462.114 154.293 462.161 154.5 462.254 154.62C462.347 154.727 462.514 154.793 462.754 154.82V157C462.514 157.053 462.294 157.087 462.094 157.1C461.907 157.127 461.747 157.14 461.614 157.14C461.081 157.14 460.674 157.02 460.394 156.78C460.114 156.54 459.947 156.247 459.894 155.9L459.834 155.36C459.367 155.96 458.794 156.42 458.114 156.74C457.447 157.047 456.761 157.2 456.054 157.2C455.347 157.2 454.721 157.06 454.174 156.78C453.627 156.487 453.194 156.093 452.874 155.6C452.567 155.093 452.414 154.527 452.414 153.9ZM458.934 154.44C459.267 154.12 459.434 153.813 459.434 153.52V152.46C458.741 152.18 458.041 152.04 457.334 152.04C456.627 152.04 456.054 152.193 455.614 152.5C455.174 152.793 454.954 153.187 454.954 153.68C454.954 154.08 455.114 154.44 455.434 154.76C455.754 155.08 456.214 155.24 456.814 155.24C457.214 155.24 457.601 155.167 457.974 155.02C458.361 154.873 458.681 154.68 458.934 154.44ZM474.358 157H471.678V151.12C471.678 150.28 471.532 149.667 471.238 149.28C470.945 148.893 470.538 148.7 470.018 148.7C469.658 148.7 469.292 148.793 468.918 148.98C468.558 149.167 468.232 149.427 467.938 149.76C467.645 150.08 467.432 150.453 467.298 150.88V157H464.618V146.52H467.038V148.46C467.425 147.807 467.985 147.293 468.718 146.92C469.452 146.533 470.278 146.34 471.198 146.34C471.852 146.34 472.385 146.46 472.798 146.7C473.212 146.927 473.532 147.24 473.758 147.64C473.985 148.027 474.138 148.467 474.218 148.96C474.312 149.453 474.358 149.953 474.358 150.46V157ZM493.927 146.52H496.467L492.087 157H489.847L488.087 152.5L486.367 157H484.107L479.747 146.52H482.267L485.387 154.44L486.607 151.02L484.787 146.54H487.007L488.087 149.74L489.187 146.54H491.407L489.587 151.02L490.827 154.44L493.927 146.52ZM502.213 157.2C501.079 157.2 500.099 156.953 499.273 156.46C498.459 155.967 497.826 155.313 497.373 154.5C496.919 153.673 496.693 152.78 496.693 151.82C496.693 150.833 496.913 149.927 497.353 149.1C497.806 148.26 498.446 147.593 499.273 147.1C500.099 146.593 501.086 146.34 502.233 146.34C503.379 146.34 504.359 146.593 505.173 147.1C505.986 147.593 506.606 148.253 507.033 149.08C507.473 149.893 507.693 150.773 507.693 151.72C507.693 152.067 507.673 152.367 507.633 152.62H499.533C499.599 153.433 499.899 154.073 500.433 154.54C500.979 155.007 501.606 155.24 502.313 155.24C502.846 155.24 503.346 155.113 503.813 154.86C504.293 154.593 504.619 154.247 504.793 153.82L507.093 154.46C506.706 155.26 506.086 155.92 505.233 156.44C504.379 156.947 503.373 157.2 502.213 157.2ZM499.473 150.92H504.953C504.873 150.133 504.573 149.5 504.053 149.02C503.546 148.527 502.926 148.28 502.193 148.28C501.473 148.28 500.853 148.527 500.333 149.02C499.826 149.5 499.539 150.133 499.473 150.92ZM523.87 157H521.19V151.12C521.19 150.307 521.03 149.7 520.71 149.3C520.403 148.9 519.977 148.7 519.43 148.7C519.097 148.7 518.75 148.793 518.39 148.98C518.043 149.167 517.723 149.427 517.43 149.76C517.15 150.08 516.943 150.453 516.81 150.88V157H514.13V142.4H516.81V148.46C517.197 147.793 517.723 147.273 518.39 146.9C519.057 146.527 519.783 146.34 520.57 146.34C521.463 146.34 522.15 146.54 522.63 146.94C523.11 147.34 523.437 147.853 523.61 148.48C523.783 149.107 523.87 149.767 523.87 150.46V157ZM531.06 157.2C529.927 157.2 528.947 156.953 528.12 156.46C527.307 155.967 526.674 155.313 526.22 154.5C525.767 153.673 525.54 152.78 525.54 151.82C525.54 150.833 525.76 149.927 526.2 149.1C526.654 148.26 527.294 147.593 528.12 147.1C528.947 146.593 529.934 146.34 531.08 146.34C532.227 146.34 533.207 146.593 534.02 147.1C534.834 147.593 535.454 148.253 535.88 149.08C536.32 149.893 536.54 150.773 536.54 151.72C536.54 152.067 536.52 152.367 536.48 152.62H528.38C528.447 153.433 528.747 154.073 529.28 154.54C529.827 155.007 530.454 155.24 531.16 155.24C531.694 155.24 532.194 155.113 532.66 154.86C533.14 154.593 533.467 154.247 533.64 153.82L535.94 154.46C535.554 155.26 534.934 155.92 534.08 156.44C533.227 156.947 532.22 157.2 531.06 157.2ZM528.32 150.92H533.8C533.72 150.133 533.42 149.5 532.9 149.02C532.394 148.527 531.774 148.28 531.04 148.28C530.32 148.28 529.7 148.527 529.18 149.02C528.674 149.5 528.387 150.133 528.32 150.92ZM538.153 142.4H540.833V153.64C540.833 154.133 540.913 154.46 541.073 154.62C541.233 154.78 541.453 154.86 541.733 154.86C541.946 154.86 542.166 154.833 542.393 154.78C542.62 154.727 542.82 154.66 542.993 154.58L543.353 156.62C542.993 156.793 542.573 156.927 542.093 157.02C541.613 157.113 541.18 157.16 540.793 157.16C539.953 157.16 539.3 156.94 538.833 156.5C538.38 156.047 538.153 155.407 538.153 154.58V142.4ZM550.801 157.2C549.974 157.2 549.254 157.013 548.641 156.64C548.027 156.267 547.547 155.773 547.201 155.16V161.26H544.521V146.52H546.861V148.32C547.247 147.707 547.747 147.227 548.361 146.88C548.987 146.52 549.694 146.34 550.481 146.34C551.427 146.34 552.267 146.587 553.001 147.08C553.734 147.56 554.314 148.213 554.741 149.04C555.167 149.853 555.381 150.753 555.381 151.74C555.381 152.767 555.181 153.693 554.781 154.52C554.394 155.333 553.854 155.987 553.161 156.48C552.481 156.96 551.694 157.2 550.801 157.2ZM549.901 154.92C550.447 154.92 550.921 154.773 551.321 154.48C551.734 154.173 552.054 153.78 552.281 153.3C552.521 152.807 552.641 152.287 552.641 151.74C552.641 151.153 552.514 150.627 552.261 150.16C552.007 149.68 551.661 149.307 551.221 149.04C550.794 148.76 550.301 148.62 549.741 148.62C549.234 148.62 548.727 148.787 548.221 149.12C547.714 149.453 547.374 149.873 547.201 150.38V152.84C547.441 153.427 547.807 153.92 548.301 154.32C548.794 154.72 549.327 154.92 549.901 154.92ZM561.674 159.04C562.168 159.173 562.568 159.24 562.874 159.24C563.234 159.24 563.521 159.087 563.734 158.78C563.961 158.487 564.214 157.893 564.494 157L560.354 146.52H563.134L565.954 154.26L568.434 146.52H570.994L566.594 159.08C566.354 159.8 565.921 160.393 565.294 160.86C564.681 161.34 563.921 161.58 563.014 161.58C562.574 161.58 562.128 161.507 561.674 161.36V159.04ZM576.939 157.2C575.792 157.2 574.806 156.953 573.979 156.46C573.166 155.953 572.539 155.287 572.099 154.46C571.659 153.633 571.439 152.74 571.439 151.78C571.439 150.807 571.659 149.907 572.099 149.08C572.552 148.253 573.186 147.593 573.999 147.1C574.826 146.593 575.806 146.34 576.939 146.34C578.072 146.34 579.046 146.593 579.859 147.1C580.686 147.593 581.319 148.253 581.759 149.08C582.199 149.907 582.419 150.807 582.419 151.78C582.419 152.74 582.199 153.633 581.759 154.46C581.319 155.287 580.686 155.953 579.859 156.46C579.046 156.953 578.072 157.2 576.939 157.2ZM574.199 151.78C574.199 152.393 574.319 152.94 574.559 153.42C574.799 153.887 575.126 154.253 575.539 154.52C575.952 154.787 576.419 154.92 576.939 154.92C577.446 154.92 577.906 154.787 578.319 154.52C578.732 154.24 579.059 153.867 579.299 153.4C579.552 152.92 579.679 152.373 579.679 151.76C579.679 151.16 579.552 150.627 579.299 150.16C579.059 149.68 578.732 149.307 578.319 149.04C577.906 148.76 577.446 148.62 576.939 148.62C576.419 148.62 575.952 148.76 575.539 149.04C575.126 149.307 574.799 149.68 574.559 150.16C574.319 150.627 574.199 151.167 574.199 151.78ZM584.128 153.08V146.52H586.808V152.5C586.808 154.113 587.388 154.92 588.548 154.92C589.068 154.92 589.568 154.767 590.048 154.46C590.541 154.14 590.941 153.66 591.248 153.02V146.52H593.928V154C593.928 154.293 593.974 154.5 594.068 154.62C594.161 154.727 594.328 154.793 594.568 154.82V157C594.301 157.053 594.074 157.087 593.888 157.1C593.714 157.113 593.554 157.12 593.408 157.12C592.928 157.12 592.534 157.013 592.228 156.8C591.934 156.573 591.761 156.267 591.708 155.88L591.648 155.04C591.181 155.76 590.581 156.3 589.848 156.66C589.114 157.02 588.308 157.2 587.428 157.2C586.348 157.2 585.528 156.853 584.968 156.16C584.408 155.453 584.128 154.427 584.128 153.08ZM597.811 152.34C597.811 151.687 597.918 151.1 598.131 150.58C598.344 150.06 598.784 149.607 599.451 149.22C599.651 149.1 599.898 148.96 600.191 148.8C600.484 148.64 600.771 148.453 601.051 148.24C601.331 148.027 601.564 147.78 601.751 147.5C601.951 147.22 602.051 146.893 602.051 146.52C602.051 145.973 601.858 145.553 601.471 145.26C601.084 144.953 600.644 144.8 600.151 144.8C599.564 144.8 599.078 144.98 598.691 145.34C598.304 145.687 598.004 146.04 597.791 146.4L596.051 145.2C596.398 144.387 596.951 143.753 597.711 143.3C598.484 142.847 599.324 142.62 600.231 142.62C600.911 142.62 601.564 142.76 602.191 143.04C602.831 143.307 603.358 143.733 603.771 144.32C604.184 144.893 604.391 145.64 604.391 146.56C604.391 147.413 604.198 148.093 603.811 148.6C603.424 149.093 602.918 149.533 602.291 149.92C601.931 150.133 601.578 150.34 601.231 150.54C600.884 150.74 600.591 150.98 600.351 151.26C600.124 151.527 600.011 151.887 600.011 152.34H597.811ZM597.851 157V154.24H600.071V157H597.851Z" fill="black"/>
<path d="M575.1 626.22H570.56V638H567.82V626.22H563.28V623.8H575.1V626.22ZM586.343 638H583.663V632.12C583.663 631.307 583.503 630.7 583.183 630.3C582.876 629.9 582.449 629.7 581.903 629.7C581.569 629.7 581.223 629.793 580.863 629.98C580.516 630.167 580.196 630.427 579.903 630.76C579.623 631.08 579.416 631.453 579.283 631.88V638H576.603V623.4H579.283V629.46C579.669 628.793 580.196 628.273 580.863 627.9C581.529 627.527 582.256 627.34 583.043 627.34C583.936 627.34 584.623 627.54 585.103 627.94C585.583 628.34 585.909 628.853 586.083 629.48C586.256 630.107 586.343 630.767 586.343 631.46V638ZM587.953 634.9C587.953 634.22 588.14 633.627 588.513 633.12C588.9 632.6 589.433 632.2 590.113 631.92C590.793 631.64 591.573 631.5 592.453 631.5C592.893 631.5 593.34 631.54 593.793 631.62C594.246 631.687 594.64 631.787 594.973 631.92V631.36C594.973 630.693 594.773 630.18 594.373 629.82C593.986 629.46 593.406 629.28 592.633 629.28C592.06 629.28 591.513 629.38 590.993 629.58C590.473 629.78 589.926 630.073 589.353 630.46L588.493 628.7C589.186 628.247 589.893 627.907 590.613 627.68C591.346 627.453 592.113 627.34 592.913 627.34C594.406 627.34 595.566 627.713 596.393 628.46C597.233 629.207 597.653 630.273 597.653 631.66V635C597.653 635.293 597.7 635.5 597.793 635.62C597.886 635.727 598.053 635.793 598.293 635.82V638C598.053 638.053 597.833 638.087 597.633 638.1C597.446 638.127 597.286 638.14 597.153 638.14C596.62 638.14 596.213 638.02 595.933 637.78C595.653 637.54 595.486 637.247 595.433 636.9L595.373 636.36C594.906 636.96 594.333 637.42 593.653 637.74C592.986 638.047 592.3 638.2 591.593 638.2C590.886 638.2 590.26 638.06 589.713 637.78C589.166 637.487 588.733 637.093 588.413 636.6C588.106 636.093 587.953 635.527 587.953 634.9ZM594.473 635.44C594.806 635.12 594.973 634.813 594.973 634.52V633.46C594.28 633.18 593.58 633.04 592.873 633.04C592.166 633.04 591.593 633.193 591.153 633.5C590.713 633.793 590.493 634.187 590.493 634.68C590.493 635.08 590.653 635.44 590.973 635.76C591.293 636.08 591.753 636.24 592.353 636.24C592.753 636.24 593.14 636.167 593.513 636.02C593.9 635.873 594.22 635.68 594.473 635.44ZM609.898 638H607.218V632.12C607.218 631.28 607.071 630.667 606.778 630.28C606.484 629.893 606.078 629.7 605.558 629.7C605.198 629.7 604.831 629.793 604.458 629.98C604.098 630.167 603.771 630.427 603.478 630.76C603.184 631.08 602.971 631.453 602.838 631.88V638H600.158V627.52H602.578V629.46C602.964 628.807 603.524 628.293 604.258 627.92C604.991 627.533 605.818 627.34 606.738 627.34C607.391 627.34 607.924 627.46 608.338 627.7C608.751 627.927 609.071 628.24 609.298 628.64C609.524 629.027 609.678 629.467 609.758 629.96C609.851 630.453 609.898 630.953 609.898 631.46V638ZM619.388 638L616.328 633.48L614.908 634.88V638H612.228V623.4H614.908V632.24L619.128 627.54H621.968L618.068 631.98L622.248 638H619.388ZM627.182 638.2C626.288 638.2 625.435 638.053 624.622 637.76C623.808 637.467 623.108 637.033 622.522 636.46L623.482 634.72C624.108 635.227 624.722 635.6 625.322 635.84C625.922 636.08 626.508 636.2 627.082 636.2C627.602 636.2 628.015 636.107 628.322 635.92C628.642 635.733 628.802 635.453 628.802 635.08C628.802 634.693 628.608 634.433 628.222 634.3C627.835 634.153 627.295 633.973 626.602 633.76C625.828 633.52 625.182 633.273 624.662 633.02C624.142 632.767 623.748 632.46 623.482 632.1C623.228 631.74 623.102 631.273 623.102 630.7C623.102 629.673 623.488 628.853 624.262 628.24C625.035 627.627 626.062 627.32 627.342 627.32C628.088 627.32 628.795 627.44 629.462 627.68C630.128 627.907 630.735 628.28 631.282 628.8L630.202 630.5C629.175 629.7 628.182 629.3 627.222 629.3C626.795 629.3 626.415 629.38 626.082 629.54C625.762 629.7 625.602 629.98 625.602 630.38C625.602 630.753 625.755 631.02 626.062 631.18C626.382 631.34 626.862 631.513 627.502 631.7C628.328 631.953 629.028 632.2 629.602 632.44C630.188 632.68 630.628 632.987 630.922 633.36C631.228 633.733 631.382 634.24 631.382 634.88C631.382 635.92 631.002 636.733 630.242 637.32C629.482 637.907 628.462 638.2 627.182 638.2Z" fill="black"/>
<g filter="url(#filter2_d)">
<rect x="40" y="195" width="384" height="236" rx="32" fill="white"/>
</g>
<rect x="69" y="359" width="325" height="46" rx="12" fill="#F5F5F5"/>
<rect x="69" y="305" width="325" height="46" rx="12" fill="#F5F5F5"/>
<rect x="69" y="251" width="325" height="46" rx="12" fill="#F5F5F5"/>
<path d="M168.48 389V374.8H171.24V386.58H178.48V389H168.48ZM184.662 389.2C183.515 389.2 182.528 388.953 181.702 388.46C180.888 387.953 180.262 387.287 179.822 386.46C179.382 385.633 179.162 384.74 179.162 383.78C179.162 382.807 179.382 381.907 179.822 381.08C180.275 380.253 180.908 379.593 181.722 379.1C182.548 378.593 183.528 378.34 184.662 378.34C185.795 378.34 186.768 378.593 187.582 379.1C188.408 379.593 189.042 380.253 189.482 381.08C189.922 381.907 190.142 382.807 190.142 383.78C190.142 384.74 189.922 385.633 189.482 386.46C189.042 387.287 188.408 387.953 187.582 388.46C186.768 388.953 185.795 389.2 184.662 389.2ZM181.922 383.78C181.922 384.393 182.042 384.94 182.282 385.42C182.522 385.887 182.848 386.253 183.262 386.52C183.675 386.787 184.142 386.92 184.662 386.92C185.168 386.92 185.628 386.787 186.042 386.52C186.455 386.24 186.782 385.867 187.022 385.4C187.275 384.92 187.402 384.373 187.402 383.76C187.402 383.16 187.275 382.627 187.022 382.16C186.782 381.68 186.455 381.307 186.042 381.04C185.628 380.76 185.168 380.62 184.662 380.62C184.142 380.62 183.675 380.76 183.262 381.04C182.848 381.307 182.522 381.68 182.282 382.16C182.042 382.627 181.922 383.167 181.922 383.78ZM196.83 389.2C195.697 389.2 194.717 388.947 193.89 388.44C193.064 387.933 192.424 387.267 191.97 386.44C191.517 385.613 191.29 384.72 191.29 383.76C191.29 382.787 191.51 381.887 191.95 381.06C192.404 380.233 193.044 379.573 193.87 379.08C194.697 378.587 195.677 378.34 196.81 378.34C197.957 378.34 198.93 378.587 199.73 379.08C200.544 379.573 201.15 380.22 201.55 381.02L198.93 381.82C198.464 381.02 197.75 380.62 196.79 380.62C196.27 380.62 195.804 380.753 195.39 381.02C194.977 381.273 194.65 381.64 194.41 382.12C194.17 382.587 194.05 383.133 194.05 383.76C194.05 384.373 194.17 384.92 194.41 385.4C194.664 385.867 194.997 386.24 195.41 386.52C195.824 386.787 196.284 386.92 196.79 386.92C197.27 386.92 197.71 386.807 198.11 386.58C198.524 386.34 198.81 386.04 198.97 385.68L201.59 386.48C201.23 387.267 200.63 387.92 199.79 388.44C198.964 388.947 197.977 389.2 196.83 389.2ZM202.52 385.9C202.52 385.22 202.706 384.627 203.08 384.12C203.466 383.6 204 383.2 204.68 382.92C205.36 382.64 206.14 382.5 207.02 382.5C207.46 382.5 207.906 382.54 208.36 382.62C208.813 382.687 209.206 382.787 209.54 382.92V382.36C209.54 381.693 209.34 381.18 208.94 380.82C208.553 380.46 207.973 380.28 207.2 380.28C206.626 380.28 206.08 380.38 205.56 380.58C205.04 380.78 204.493 381.073 203.92 381.46L203.06 379.7C203.753 379.247 204.46 378.907 205.18 378.68C205.913 378.453 206.68 378.34 207.48 378.34C208.973 378.34 210.133 378.713 210.96 379.46C211.8 380.207 212.22 381.273 212.22 382.66V386C212.22 386.293 212.266 386.5 212.36 386.62C212.453 386.727 212.62 386.793 212.86 386.82V389C212.62 389.053 212.4 389.087 212.2 389.1C212.013 389.127 211.853 389.14 211.72 389.14C211.186 389.14 210.78 389.02 210.5 388.78C210.22 388.54 210.053 388.247 210 387.9L209.94 387.36C209.473 387.96 208.9 388.42 208.22 388.74C207.553 389.047 206.866 389.2 206.16 389.2C205.453 389.2 204.826 389.06 204.28 388.78C203.733 388.487 203.3 388.093 202.98 387.6C202.673 387.093 202.52 386.527 202.52 385.9ZM209.04 386.44C209.373 386.12 209.54 385.813 209.54 385.52V384.46C208.846 384.18 208.146 384.04 207.44 384.04C206.733 384.04 206.16 384.193 205.72 384.5C205.28 384.793 205.06 385.187 205.06 385.68C205.06 386.08 205.22 386.44 205.54 386.76C205.86 387.08 206.32 387.24 206.92 387.24C207.32 387.24 207.706 387.167 208.08 387.02C208.466 386.873 208.786 386.68 209.04 386.44ZM220.906 388.46C220.546 388.62 220.1 388.78 219.566 388.94C219.046 389.1 218.506 389.18 217.946 389.18C217.453 389.18 217 389.093 216.586 388.92C216.173 388.747 215.84 388.473 215.586 388.1C215.346 387.713 215.226 387.213 215.226 386.6V380.58H213.846V378.52H215.226V375.12H217.906V378.52H220.106V380.58H217.906V385.7C217.906 386.06 218 386.32 218.186 386.48C218.386 386.64 218.626 386.72 218.906 386.72C219.186 386.72 219.46 386.673 219.726 386.58C219.993 386.487 220.206 386.407 220.366 386.34L220.906 388.46ZM222.302 377.06V374.4H224.982V377.06H222.302ZM222.302 389V378.52H224.982V389H222.302ZM232.24 389.2C231.093 389.2 230.106 388.953 229.28 388.46C228.466 387.953 227.84 387.287 227.4 386.46C226.96 385.633 226.74 384.74 226.74 383.78C226.74 382.807 226.96 381.907 227.4 381.08C227.853 380.253 228.486 379.593 229.3 379.1C230.126 378.593 231.106 378.34 232.24 378.34C233.373 378.34 234.346 378.593 235.16 379.1C235.986 379.593 236.62 380.253 237.06 381.08C237.5 381.907 237.72 382.807 237.72 383.78C237.72 384.74 237.5 385.633 237.06 386.46C236.62 387.287 235.986 387.953 235.16 388.46C234.346 388.953 233.373 389.2 232.24 389.2ZM229.5 383.78C229.5 384.393 229.62 384.94 229.86 385.42C230.1 385.887 230.426 386.253 230.84 386.52C231.253 386.787 231.72 386.92 232.24 386.92C232.746 386.92 233.206 386.787 233.62 386.52C234.033 386.24 234.36 385.867 234.6 385.4C234.853 384.92 234.98 384.373 234.98 383.76C234.98 383.16 234.853 382.627 234.6 382.16C234.36 381.68 234.033 381.307 233.62 381.04C233.206 380.76 232.746 380.62 232.24 380.62C231.72 380.62 231.253 380.76 230.84 381.04C230.426 381.307 230.1 381.68 229.86 382.16C229.62 382.627 229.5 383.167 229.5 383.78ZM249.269 389H246.589V383.12C246.589 382.28 246.442 381.667 246.149 381.28C245.855 380.893 245.449 380.7 244.929 380.7C244.569 380.7 244.202 380.793 243.829 380.98C243.469 381.167 243.142 381.427 242.849 381.76C242.555 382.08 242.342 382.453 242.209 382.88V389H239.529V378.52H241.949V380.46C242.335 379.807 242.895 379.293 243.629 378.92C244.362 378.533 245.189 378.34 246.109 378.34C246.762 378.34 247.295 378.46 247.709 378.7C248.122 378.927 248.442 379.24 248.669 379.64C248.895 380.027 249.049 380.467 249.129 380.96C249.222 381.453 249.269 381.953 249.269 382.46V389ZM268.244 389V379.68L264.604 386.62H263.064L259.424 379.68V389H256.664V374.8H259.624L263.824 382.88L268.064 374.8H271.004V389H268.244ZM272.871 385.9C272.871 385.22 273.058 384.627 273.431 384.12C273.818 383.6 274.351 383.2 275.031 382.92C275.711 382.64 276.491 382.5 277.371 382.5C277.811 382.5 278.258 382.54 278.711 382.62C279.164 382.687 279.558 382.787 279.891 382.92V382.36C279.891 381.693 279.691 381.18 279.291 380.82C278.904 380.46 278.324 380.28 277.551 380.28C276.978 380.28 276.431 380.38 275.911 380.58C275.391 380.78 274.844 381.073 274.271 381.46L273.411 379.7C274.104 379.247 274.811 378.907 275.531 378.68C276.264 378.453 277.031 378.34 277.831 378.34C279.324 378.34 280.484 378.713 281.311 379.46C282.151 380.207 282.571 381.273 282.571 382.66V386C282.571 386.293 282.618 386.5 282.711 386.62C282.804 386.727 282.971 386.793 283.211 386.82V389C282.971 389.053 282.751 389.087 282.551 389.1C282.364 389.127 282.204 389.14 282.071 389.14C281.538 389.14 281.131 389.02 280.851 388.78C280.571 388.54 280.404 388.247 280.351 387.9L280.291 387.36C279.824 387.96 279.251 388.42 278.571 388.74C277.904 389.047 277.218 389.2 276.511 389.2C275.804 389.2 275.178 389.06 274.631 388.78C274.084 388.487 273.651 388.093 273.331 387.6C273.024 387.093 272.871 386.527 272.871 385.9ZM279.391 386.44C279.724 386.12 279.891 385.813 279.891 385.52V384.46C279.198 384.18 278.498 384.04 277.791 384.04C277.084 384.04 276.511 384.193 276.071 384.5C275.631 384.793 275.411 385.187 275.411 385.68C275.411 386.08 275.571 386.44 275.891 386.76C276.211 387.08 276.671 387.24 277.271 387.24C277.671 387.24 278.058 387.167 278.431 387.02C278.818 386.873 279.138 386.68 279.391 386.44ZM291.355 389.2C290.529 389.2 289.809 389.013 289.195 388.64C288.582 388.267 288.102 387.773 287.755 387.16V393.26H285.075V378.52H287.415V380.32C287.802 379.707 288.302 379.227 288.915 378.88C289.542 378.52 290.249 378.34 291.035 378.34C291.982 378.34 292.822 378.587 293.555 379.08C294.289 379.56 294.869 380.213 295.295 381.04C295.722 381.853 295.935 382.753 295.935 383.74C295.935 384.767 295.735 385.693 295.335 386.52C294.949 387.333 294.409 387.987 293.715 388.48C293.035 388.96 292.249 389.2 291.355 389.2ZM290.455 386.92C291.002 386.92 291.475 386.773 291.875 386.48C292.289 386.173 292.609 385.78 292.835 385.3C293.075 384.807 293.195 384.287 293.195 383.74C293.195 383.153 293.069 382.627 292.815 382.16C292.562 381.68 292.215 381.307 291.775 381.04C291.349 380.76 290.855 380.62 290.295 380.62C289.789 380.62 289.282 380.787 288.775 381.12C288.269 381.453 287.929 381.873 287.755 382.38V384.84C287.995 385.427 288.362 385.92 288.855 386.32C289.349 386.72 289.882 386.92 290.455 386.92Z" fill="#333333"/>
<path d="M173.48 336V321.8H176.24V333.58H183.48V336H173.48ZM184.18 332.9C184.18 332.22 184.366 331.627 184.74 331.12C185.126 330.6 185.66 330.2 186.34 329.92C187.02 329.64 187.8 329.5 188.68 329.5C189.12 329.5 189.566 329.54 190.02 329.62C190.473 329.687 190.866 329.787 191.2 329.92V329.36C191.2 328.693 191 328.18 190.6 327.82C190.213 327.46 189.633 327.28 188.86 327.28C188.286 327.28 187.74 327.38 187.22 327.58C186.7 327.78 186.153 328.073 185.58 328.46L184.72 326.7C185.413 326.247 186.12 325.907 186.84 325.68C187.573 325.453 188.34 325.34 189.14 325.34C190.633 325.34 191.793 325.713 192.62 326.46C193.46 327.207 193.88 328.273 193.88 329.66V333C193.88 333.293 193.926 333.5 194.02 333.62C194.113 333.727 194.28 333.793 194.52 333.82V336C194.28 336.053 194.06 336.087 193.86 336.1C193.673 336.127 193.513 336.14 193.38 336.14C192.846 336.14 192.44 336.02 192.16 335.78C191.88 335.54 191.713 335.247 191.66 334.9L191.6 334.36C191.133 334.96 190.56 335.42 189.88 335.74C189.213 336.047 188.526 336.2 187.82 336.2C187.113 336.2 186.486 336.06 185.94 335.78C185.393 335.487 184.96 335.093 184.64 334.6C184.333 334.093 184.18 333.527 184.18 332.9ZM190.7 333.44C191.033 333.12 191.2 332.813 191.2 332.52V331.46C190.506 331.18 189.806 331.04 189.1 331.04C188.393 331.04 187.82 331.193 187.38 331.5C186.94 331.793 186.72 332.187 186.72 332.68C186.72 333.08 186.88 333.44 187.2 333.76C187.52 334.08 187.98 334.24 188.58 334.24C188.98 334.24 189.366 334.167 189.74 334.02C190.126 333.873 190.446 333.68 190.7 333.44ZM202.566 335.46C202.206 335.62 201.76 335.78 201.226 335.94C200.706 336.1 200.166 336.18 199.606 336.18C199.113 336.18 198.66 336.093 198.246 335.92C197.833 335.747 197.5 335.473 197.246 335.1C197.006 334.713 196.886 334.213 196.886 333.6V327.58H195.506V325.52H196.886V322.12H199.566V325.52H201.766V327.58H199.566V332.7C199.566 333.06 199.66 333.32 199.846 333.48C200.046 333.64 200.286 333.72 200.566 333.72C200.846 333.72 201.12 333.673 201.386 333.58C201.653 333.487 201.866 333.407 202.026 333.34L202.566 335.46ZM208.685 336.2C207.552 336.2 206.572 335.953 205.745 335.46C204.932 334.967 204.299 334.313 203.845 333.5C203.392 332.673 203.165 331.78 203.165 330.82C203.165 329.833 203.385 328.927 203.825 328.1C204.279 327.26 204.919 326.593 205.745 326.1C206.572 325.593 207.559 325.34 208.705 325.34C209.852 325.34 210.832 325.593 211.645 326.1C212.459 326.593 213.079 327.253 213.505 328.08C213.945 328.893 214.165 329.773 214.165 330.72C214.165 331.067 214.145 331.367 214.105 331.62H206.005C206.072 332.433 206.372 333.073 206.905 333.54C207.452 334.007 208.079 334.24 208.785 334.24C209.319 334.24 209.819 334.113 210.285 333.86C210.765 333.593 211.092 333.247 211.265 332.82L213.565 333.46C213.179 334.26 212.559 334.92 211.705 335.44C210.852 335.947 209.845 336.2 208.685 336.2ZM205.945 329.92H211.425C211.345 329.133 211.045 328.5 210.525 328.02C210.019 327.527 209.399 327.28 208.665 327.28C207.945 327.28 207.325 327.527 206.805 328.02C206.299 328.5 206.012 329.133 205.945 329.92ZM219.658 336.2C218.765 336.2 217.911 336.053 217.098 335.76C216.285 335.467 215.585 335.033 214.998 334.46L215.958 332.72C216.585 333.227 217.198 333.6 217.798 333.84C218.398 334.08 218.985 334.2 219.558 334.2C220.078 334.2 220.491 334.107 220.798 333.92C221.118 333.733 221.278 333.453 221.278 333.08C221.278 332.693 221.085 332.433 220.698 332.3C220.311 332.153 219.771 331.973 219.078 331.76C218.305 331.52 217.658 331.273 217.138 331.02C216.618 330.767 216.225 330.46 215.958 330.1C215.705 329.74 215.578 329.273 215.578 328.7C215.578 327.673 215.965 326.853 216.738 326.24C217.511 325.627 218.538 325.32 219.818 325.32C220.565 325.32 221.271 325.44 221.938 325.68C222.605 325.907 223.211 326.28 223.758 326.8L222.678 328.5C221.651 327.7 220.658 327.3 219.698 327.3C219.271 327.3 218.891 327.38 218.558 327.54C218.238 327.7 218.078 327.98 218.078 328.38C218.078 328.753 218.231 329.02 218.538 329.18C218.858 329.34 219.338 329.513 219.978 329.7C220.805 329.953 221.505 330.2 222.078 330.44C222.665 330.68 223.105 330.987 223.398 331.36C223.705 331.733 223.858 332.24 223.858 332.88C223.858 333.92 223.478 334.733 222.718 335.32C221.958 335.907 220.938 336.2 219.658 336.2ZM231.902 335.46C231.542 335.62 231.096 335.78 230.562 335.94C230.042 336.1 229.502 336.18 228.942 336.18C228.449 336.18 227.996 336.093 227.582 335.92C227.169 335.747 226.836 335.473 226.582 335.1C226.342 334.713 226.222 334.213 226.222 333.6V327.58H224.842V325.52H226.222V322.12H228.902V325.52H231.102V327.58H228.902V332.7C228.902 333.06 228.996 333.32 229.182 333.48C229.382 333.64 229.622 333.72 229.902 333.72C230.182 333.72 230.456 333.673 230.722 333.58C230.989 333.487 231.202 333.407 231.362 333.34L231.902 335.46ZM241.123 326.88V336H238.363V321.8H240.563L247.903 331.16V321.82H250.663V336H248.363L241.123 326.88ZM258.041 336.2C256.908 336.2 255.928 335.953 255.101 335.46C254.288 334.967 253.654 334.313 253.201 333.5C252.748 332.673 252.521 331.78 252.521 330.82C252.521 329.833 252.741 328.927 253.181 328.1C253.634 327.26 254.274 326.593 255.101 326.1C255.928 325.593 256.914 325.34 258.061 325.34C259.208 325.34 260.188 325.593 261.001 326.1C261.814 326.593 262.434 327.253 262.861 328.08C263.301 328.893 263.521 329.773 263.521 330.72C263.521 331.067 263.501 331.367 263.461 331.62H255.361C255.428 332.433 255.728 333.073 256.261 333.54C256.808 334.007 257.434 334.24 258.141 334.24C258.674 334.24 259.174 334.113 259.641 333.86C260.121 333.593 260.448 333.247 260.621 332.82L262.921 333.46C262.534 334.26 261.914 334.92 261.061 335.44C260.208 335.947 259.201 336.2 258.041 336.2ZM255.301 329.92H260.781C260.701 329.133 260.401 328.5 259.881 328.02C259.374 327.527 258.754 327.28 258.021 327.28C257.301 327.28 256.681 327.527 256.161 328.02C255.654 328.5 255.368 329.133 255.301 329.92ZM277.861 325.52H280.401L276.021 336H273.781L272.021 331.5L270.301 336H268.041L263.681 325.52H266.201L269.321 333.44L270.541 330.02L268.721 325.54H270.941L272.021 328.74L273.121 325.54H275.341L273.521 330.02L274.761 333.44L277.861 325.52ZM285.244 336.2C284.351 336.2 283.497 336.053 282.684 335.76C281.871 335.467 281.171 335.033 280.584 334.46L281.544 332.72C282.171 333.227 282.784 333.6 283.384 333.84C283.984 334.08 284.571 334.2 285.144 334.2C285.664 334.2 286.077 334.107 286.384 333.92C286.704 333.733 286.864 333.453 286.864 333.08C286.864 332.693 286.671 332.433 286.284 332.3C285.897 332.153 285.357 331.973 284.664 331.76C283.891 331.52 283.244 331.273 282.724 331.02C282.204 330.767 281.811 330.46 281.544 330.1C281.291 329.74 281.164 329.273 281.164 328.7C281.164 327.673 281.551 326.853 282.324 326.24C283.097 325.627 284.124 325.32 285.404 325.32C286.151 325.32 286.857 325.44 287.524 325.68C288.191 325.907 288.797 326.28 289.344 326.8L288.264 328.5C287.237 327.7 286.244 327.3 285.284 327.3C284.857 327.3 284.477 327.38 284.144 327.54C283.824 327.7 283.664 327.98 283.664 328.38C283.664 328.753 283.817 329.02 284.124 329.18C284.444 329.34 284.924 329.513 285.564 329.7C286.391 329.953 287.091 330.2 287.664 330.44C288.251 330.68 288.691 330.987 288.984 331.36C289.291 331.733 289.444 332.24 289.444 332.88C289.444 333.92 289.064 334.733 288.304 335.32C287.544 335.907 286.524 336.2 285.244 336.2Z" fill="#333333"/>
<path d="M178.34 266.8H181.14L186.36 281H183.52L182.2 277.46H177.24L175.94 281H173.1L178.34 266.8ZM181.7 275.52L179.74 269.66L177.7 275.52H181.7ZM187.579 266.4H190.259V277.64C190.259 278.133 190.339 278.46 190.499 278.62C190.659 278.78 190.879 278.86 191.159 278.86C191.372 278.86 191.592 278.833 191.819 278.78C192.046 278.727 192.246 278.66 192.419 278.58L192.779 280.62C192.419 280.793 191.999 280.927 191.519 281.02C191.039 281.113 190.606 281.16 190.219 281.16C189.379 281.16 188.726 280.94 188.259 280.5C187.806 280.047 187.579 279.407 187.579 278.58V266.4ZM193.927 266.4H196.607V277.64C196.607 278.133 196.687 278.46 196.847 278.62C197.007 278.78 197.227 278.86 197.507 278.86C197.72 278.86 197.94 278.833 198.167 278.78C198.393 278.727 198.593 278.66 198.767 278.58L199.127 280.62C198.767 280.793 198.347 280.927 197.867 281.02C197.387 281.113 196.953 281.16 196.567 281.16C195.727 281.16 195.073 280.94 194.607 280.5C194.153 280.047 193.927 279.407 193.927 278.58V266.4ZM204.812 281V266.8H210.832C211.485 266.8 212.085 266.933 212.632 267.2C213.192 267.467 213.672 267.827 214.072 268.28C214.472 268.733 214.785 269.24 215.012 269.8C215.239 270.36 215.352 270.933 215.352 271.52C215.352 272.32 215.165 273.08 214.792 273.8C214.419 274.52 213.899 275.107 213.232 275.56C212.579 276.013 211.812 276.24 210.932 276.24H207.572V281H204.812ZM207.572 273.82H210.772C211.279 273.82 211.699 273.613 212.032 273.2C212.379 272.773 212.552 272.213 212.552 271.52C212.552 270.787 212.359 270.22 211.972 269.82C211.585 269.42 211.145 269.22 210.652 269.22H207.572V273.82ZM223.253 272.84C222.44 272.84 221.713 273 221.073 273.32C220.433 273.627 219.973 274.073 219.693 274.66V281H217.013V270.52H219.473V272.76C219.833 272.04 220.3 271.473 220.873 271.06C221.46 270.647 222.073 270.42 222.713 270.38C222.993 270.38 223.173 270.387 223.253 270.4V272.84ZM229.451 281.2C228.304 281.2 227.317 280.953 226.491 280.46C225.677 279.953 225.051 279.287 224.611 278.46C224.171 277.633 223.951 276.74 223.951 275.78C223.951 274.807 224.171 273.907 224.611 273.08C225.064 272.253 225.697 271.593 226.511 271.1C227.337 270.593 228.317 270.34 229.451 270.34C230.584 270.34 231.557 270.593 232.371 271.1C233.197 271.593 233.831 272.253 234.271 273.08C234.711 273.907 234.931 274.807 234.931 275.78C234.931 276.74 234.711 277.633 234.271 278.46C233.831 279.287 233.197 279.953 232.371 280.46C231.557 280.953 230.584 281.2 229.451 281.2ZM226.711 275.78C226.711 276.393 226.831 276.94 227.071 277.42C227.311 277.887 227.637 278.253 228.051 278.52C228.464 278.787 228.931 278.92 229.451 278.92C229.957 278.92 230.417 278.787 230.831 278.52C231.244 278.24 231.571 277.867 231.811 277.4C232.064 276.92 232.191 276.373 232.191 275.76C232.191 275.16 232.064 274.627 231.811 274.16C231.571 273.68 231.244 273.307 230.831 273.04C230.417 272.76 229.957 272.62 229.451 272.62C228.931 272.62 228.464 272.76 228.051 273.04C227.637 273.307 227.311 273.68 227.071 274.16C226.831 274.627 226.711 275.167 226.711 275.78ZM236.1 275.76C236.1 274.76 236.3 273.847 236.7 273.02C237.1 272.193 237.653 271.54 238.36 271.06C239.066 270.58 239.873 270.34 240.78 270.34C241.553 270.34 242.246 270.533 242.86 270.92C243.486 271.293 243.973 271.773 244.32 272.36V266.4H247V278C247 278.293 247.046 278.5 247.14 278.62C247.233 278.727 247.393 278.793 247.62 278.82V281C247.14 281.093 246.76 281.14 246.48 281.14C246 281.14 245.6 281.02 245.28 280.78C244.973 280.54 244.8 280.227 244.76 279.84L244.72 279.18C244.333 279.833 243.806 280.333 243.14 280.68C242.486 281.027 241.8 281.2 241.08 281.2C240.106 281.2 239.246 280.96 238.5 280.48C237.753 279.987 237.166 279.333 236.74 278.52C236.313 277.693 236.1 276.773 236.1 275.76ZM244.32 277.16V274.66C244.106 274.073 243.74 273.587 243.22 273.2C242.7 272.813 242.166 272.62 241.62 272.62C241.073 272.62 240.593 272.773 240.18 273.08C239.766 273.373 239.446 273.767 239.22 274.26C238.993 274.74 238.88 275.26 238.88 275.82C238.88 276.393 239.006 276.92 239.26 277.4C239.513 277.867 239.853 278.24 240.28 278.52C240.72 278.787 241.22 278.92 241.78 278.92C242.286 278.92 242.786 278.753 243.28 278.42C243.786 278.087 244.133 277.667 244.32 277.16ZM249.53 277.08V270.52H252.21V276.5C252.21 278.113 252.79 278.92 253.95 278.92C254.47 278.92 254.97 278.767 255.45 278.46C255.943 278.14 256.343 277.66 256.65 277.02V270.52H259.33V278C259.33 278.293 259.377 278.5 259.47 278.62C259.563 278.727 259.73 278.793 259.97 278.82V281C259.703 281.053 259.477 281.087 259.29 281.1C259.117 281.113 258.957 281.12 258.81 281.12C258.33 281.12 257.937 281.013 257.63 280.8C257.337 280.573 257.163 280.267 257.11 279.88L257.05 279.04C256.583 279.76 255.983 280.3 255.25 280.66C254.517 281.02 253.71 281.2 252.83 281.2C251.75 281.2 250.93 280.853 250.37 280.16C249.81 279.453 249.53 278.427 249.53 277.08ZM266.873 281.2C265.74 281.2 264.76 280.947 263.933 280.44C263.107 279.933 262.467 279.267 262.013 278.44C261.56 277.613 261.333 276.72 261.333 275.76C261.333 274.787 261.553 273.887 261.993 273.06C262.447 272.233 263.087 271.573 263.913 271.08C264.74 270.587 265.72 270.34 266.853 270.34C268 270.34 268.973 270.587 269.773 271.08C270.587 271.573 271.193 272.22 271.593 273.02L268.973 273.82C268.507 273.02 267.793 272.62 266.833 272.62C266.313 272.62 265.847 272.753 265.433 273.02C265.02 273.273 264.693 273.64 264.453 274.12C264.213 274.587 264.093 275.133 264.093 275.76C264.093 276.373 264.213 276.92 264.453 277.4C264.707 277.867 265.04 278.24 265.453 278.52C265.867 278.787 266.327 278.92 266.833 278.92C267.313 278.92 267.753 278.807 268.153 278.58C268.567 278.34 268.853 278.04 269.013 277.68L271.633 278.48C271.273 279.267 270.673 279.92 269.833 280.44C269.007 280.947 268.02 281.2 266.873 281.2ZM279.563 280.46C279.203 280.62 278.756 280.78 278.223 280.94C277.703 281.1 277.163 281.18 276.603 281.18C276.109 281.18 275.656 281.093 275.243 280.92C274.829 280.747 274.496 280.473 274.243 280.1C274.003 279.713 273.883 279.213 273.883 278.6V272.58H272.503V270.52H273.883V267.12H276.563V270.52H278.763V272.58H276.563V277.7C276.563 278.06 276.656 278.32 276.843 278.48C277.043 278.64 277.283 278.72 277.563 278.72C277.843 278.72 278.116 278.673 278.383 278.58C278.649 278.487 278.863 278.407 279.023 278.34L279.563 280.46ZM284.818 281.2C283.925 281.2 283.072 281.053 282.258 280.76C281.445 280.467 280.745 280.033 280.158 279.46L281.118 277.72C281.745 278.227 282.358 278.6 282.958 278.84C283.558 279.08 284.145 279.2 284.718 279.2C285.238 279.2 285.652 279.107 285.958 278.92C286.278 278.733 286.438 278.453 286.438 278.08C286.438 277.693 286.245 277.433 285.858 277.3C285.472 277.153 284.932 276.973 284.238 276.76C283.465 276.52 282.818 276.273 282.298 276.02C281.778 275.767 281.385 275.46 281.118 275.1C280.865 274.74 280.738 274.273 280.738 273.7C280.738 272.673 281.125 271.853 281.898 271.24C282.672 270.627 283.698 270.32 284.978 270.32C285.725 270.32 286.432 270.44 287.098 270.68C287.765 270.907 288.372 271.28 288.918 271.8L287.838 273.5C286.812 272.7 285.818 272.3 284.858 272.3C284.432 272.3 284.052 272.38 283.718 272.54C283.398 272.7 283.238 272.98 283.238 273.38C283.238 273.753 283.392 274.02 283.698 274.18C284.018 274.34 284.498 274.513 285.138 274.7C285.965 274.953 286.665 275.2 287.238 275.44C287.825 275.68 288.265 275.987 288.558 276.36C288.865 276.733 289.018 277.24 289.018 277.88C289.018 278.92 288.638 279.733 287.878 280.32C287.118 280.907 286.098 281.2 284.818 281.2Z" fill="#333333"/>
<path d="M120.874 215.38H123.954L129.696 231H126.572L125.12 227.106H119.664L118.234 231H115.11L120.874 215.38ZM124.57 224.972L122.414 218.526L120.17 224.972H124.57ZM130.798 226.688V219.472H133.746V226.05C133.746 227.825 134.384 228.712 135.66 228.712C136.232 228.712 136.782 228.543 137.31 228.206C137.853 227.854 138.293 227.326 138.63 226.622V219.472H141.578V227.7C141.578 228.023 141.63 228.25 141.732 228.382C141.835 228.499 142.018 228.573 142.282 228.602V231C141.989 231.059 141.74 231.095 141.534 231.11C141.344 231.125 141.168 231.132 141.006 231.132C140.478 231.132 140.046 231.015 139.708 230.78C139.386 230.531 139.195 230.193 139.136 229.768L139.07 228.844C138.557 229.636 137.897 230.23 137.09 230.626C136.284 231.022 135.396 231.22 134.428 231.22C133.24 231.22 132.338 230.839 131.722 230.076C131.106 229.299 130.798 228.169 130.798 226.688ZM151.373 230.406C150.977 230.582 150.486 230.758 149.899 230.934C149.327 231.11 148.733 231.198 148.117 231.198C147.574 231.198 147.076 231.103 146.621 230.912C146.166 230.721 145.8 230.421 145.521 230.01C145.257 229.585 145.125 229.035 145.125 228.36V221.738H143.607V219.472H145.125V215.732H148.073V219.472H150.493V221.738H148.073V227.37C148.073 227.766 148.176 228.052 148.381 228.228C148.601 228.404 148.865 228.492 149.173 228.492C149.481 228.492 149.782 228.441 150.075 228.338C150.368 228.235 150.603 228.147 150.779 228.074L151.373 230.406ZM158.082 231.22C156.821 231.22 155.735 230.949 154.826 230.406C153.931 229.849 153.242 229.115 152.758 228.206C152.274 227.297 152.032 226.314 152.032 225.258C152.032 224.187 152.274 223.197 152.758 222.288C153.257 221.379 153.953 220.653 154.848 220.11C155.757 219.553 156.835 219.274 158.082 219.274C159.329 219.274 160.399 219.553 161.294 220.11C162.203 220.653 162.9 221.379 163.384 222.288C163.868 223.197 164.11 224.187 164.11 225.258C164.11 226.314 163.868 227.297 163.384 228.206C162.9 229.115 162.203 229.849 161.294 230.406C160.399 230.949 159.329 231.22 158.082 231.22ZM155.068 225.258C155.068 225.933 155.2 226.534 155.464 227.062C155.728 227.575 156.087 227.979 156.542 228.272C156.997 228.565 157.51 228.712 158.082 228.712C158.639 228.712 159.145 228.565 159.6 228.272C160.055 227.964 160.414 227.553 160.678 227.04C160.957 226.512 161.096 225.911 161.096 225.236C161.096 224.576 160.957 223.989 160.678 223.476C160.414 222.948 160.055 222.537 159.6 222.244C159.145 221.936 158.639 221.782 158.082 221.782C157.51 221.782 156.997 221.936 156.542 222.244C156.087 222.537 155.728 222.948 155.464 223.476C155.2 223.989 155.068 224.583 155.068 225.258ZM171.671 231V215.38H178.293C179.012 215.38 179.672 215.527 180.273 215.82C180.889 216.113 181.417 216.509 181.857 217.008C182.297 217.507 182.642 218.064 182.891 218.68C183.14 219.296 183.265 219.927 183.265 220.572C183.265 221.452 183.06 222.288 182.649 223.08C182.238 223.872 181.666 224.517 180.933 225.016C180.214 225.515 179.371 225.764 178.403 225.764H174.707V231H171.671ZM174.707 223.102H178.227C178.784 223.102 179.246 222.875 179.613 222.42C179.994 221.951 180.185 221.335 180.185 220.572C180.185 219.765 179.972 219.142 179.547 218.702C179.122 218.262 178.638 218.042 178.095 218.042H174.707V223.102ZM191.956 222.024C191.061 222.024 190.262 222.2 189.558 222.552C188.854 222.889 188.348 223.381 188.04 224.026V231H185.092V219.472H187.798V221.936C188.194 221.144 188.707 220.521 189.338 220.066C189.983 219.611 190.658 219.362 191.362 219.318C191.67 219.318 191.868 219.325 191.956 219.34V222.024ZM198.773 231.22C197.512 231.22 196.427 230.949 195.517 230.406C194.623 229.849 193.933 229.115 193.449 228.206C192.965 227.297 192.723 226.314 192.723 225.258C192.723 224.187 192.965 223.197 193.449 222.288C193.948 221.379 194.645 220.653 195.539 220.11C196.449 219.553 197.527 219.274 198.773 219.274C200.02 219.274 201.091 219.553 201.985 220.11C202.895 220.653 203.591 221.379 204.075 222.288C204.559 223.197 204.801 224.187 204.801 225.258C204.801 226.314 204.559 227.297 204.075 228.206C203.591 229.115 202.895 229.849 201.985 230.406C201.091 230.949 200.02 231.22 198.773 231.22ZM195.759 225.258C195.759 225.933 195.891 226.534 196.155 227.062C196.419 227.575 196.779 227.979 197.233 228.272C197.688 228.565 198.201 228.712 198.773 228.712C199.331 228.712 199.837 228.565 200.291 228.272C200.746 227.964 201.105 227.553 201.369 227.04C201.648 226.512 201.787 225.911 201.787 225.236C201.787 224.576 201.648 223.989 201.369 223.476C201.105 222.948 200.746 222.537 200.291 222.244C199.837 221.936 199.331 221.782 198.773 221.782C198.201 221.782 197.688 221.936 197.233 222.244C196.779 222.537 196.419 222.948 196.155 223.476C195.891 223.989 195.759 224.583 195.759 225.258ZM209.507 231L205.261 219.472H208.319L211.223 228.316L214.149 219.472H216.943L212.719 231H209.507ZM218.5 217.866V214.94H221.448V217.866H218.5ZM218.5 231V219.472H221.448V231H218.5ZM223.404 225.236C223.404 224.136 223.624 223.131 224.064 222.222C224.504 221.313 225.112 220.594 225.89 220.066C226.667 219.538 227.554 219.274 228.552 219.274C229.402 219.274 230.165 219.487 230.84 219.912C231.529 220.323 232.064 220.851 232.446 221.496V214.94H235.394V227.7C235.394 228.023 235.445 228.25 235.548 228.382C235.65 228.499 235.826 228.573 236.076 228.602V231C235.548 231.103 235.13 231.154 234.822 231.154C234.294 231.154 233.854 231.022 233.502 230.758C233.164 230.494 232.974 230.149 232.93 229.724L232.886 228.998C232.46 229.717 231.881 230.267 231.148 230.648C230.429 231.029 229.674 231.22 228.882 231.22C227.811 231.22 226.865 230.956 226.044 230.428C225.222 229.885 224.577 229.167 224.108 228.272C223.638 227.363 223.404 226.351 223.404 225.236ZM232.446 226.776V224.026C232.211 223.381 231.808 222.845 231.236 222.42C230.664 221.995 230.077 221.782 229.476 221.782C228.874 221.782 228.346 221.951 227.892 222.288C227.437 222.611 227.085 223.043 226.836 223.586C226.586 224.114 226.462 224.686 226.462 225.302C226.462 225.933 226.601 226.512 226.88 227.04C227.158 227.553 227.532 227.964 228.002 228.272C228.486 228.565 229.036 228.712 229.652 228.712C230.209 228.712 230.759 228.529 231.302 228.162C231.859 227.795 232.24 227.333 232.446 226.776ZM243.633 231.22C242.387 231.22 241.309 230.949 240.399 230.406C239.505 229.863 238.808 229.145 238.309 228.25C237.811 227.341 237.561 226.358 237.561 225.302C237.561 224.217 237.803 223.219 238.287 222.31C238.786 221.386 239.49 220.653 240.399 220.11C241.309 219.553 242.394 219.274 243.655 219.274C244.917 219.274 245.995 219.553 246.889 220.11C247.784 220.653 248.466 221.379 248.935 222.288C249.419 223.183 249.661 224.151 249.661 225.192C249.661 225.573 249.639 225.903 249.595 226.182H240.685C240.759 227.077 241.089 227.781 241.675 228.294C242.277 228.807 242.966 229.064 243.743 229.064C244.33 229.064 244.88 228.925 245.393 228.646C245.921 228.353 246.281 227.971 246.471 227.502L249.001 228.206C248.576 229.086 247.894 229.812 246.955 230.384C246.017 230.941 244.909 231.22 243.633 231.22ZM240.619 224.312H246.647C246.559 223.447 246.229 222.75 245.657 222.222C245.1 221.679 244.418 221.408 243.611 221.408C242.819 221.408 242.137 221.679 241.565 222.222C241.008 222.75 240.693 223.447 240.619 224.312ZM257.028 231V215.402H260.064V222.816L266.62 215.38H269.964L263.98 222.31L270.338 231H266.906L262.044 224.268L260.064 226.336V231H257.028ZM276.053 231.22C274.807 231.22 273.729 230.949 272.819 230.406C271.925 229.863 271.228 229.145 270.729 228.25C270.231 227.341 269.981 226.358 269.981 225.302C269.981 224.217 270.223 223.219 270.707 222.31C271.206 221.386 271.91 220.653 272.819 220.11C273.729 219.553 274.814 219.274 276.075 219.274C277.337 219.274 278.415 219.553 279.309 220.11C280.204 220.653 280.886 221.379 281.355 222.288C281.839 223.183 282.081 224.151 282.081 225.192C282.081 225.573 282.059 225.903 282.015 226.182H273.105C273.179 227.077 273.509 227.781 274.095 228.294C274.697 228.807 275.386 229.064 276.163 229.064C276.75 229.064 277.3 228.925 277.813 228.646C278.341 228.353 278.701 227.971 278.891 227.502L281.421 228.206C280.996 229.086 280.314 229.812 279.375 230.384C278.437 230.941 277.329 231.22 276.053 231.22ZM273.039 224.312H279.067C278.979 223.447 278.649 222.75 278.077 222.222C277.52 221.679 276.838 221.408 276.031 221.408C275.239 221.408 274.557 221.679 273.985 222.222C273.428 222.75 273.113 223.447 273.039 224.312ZM283.754 233.244C284.297 233.391 284.737 233.464 285.074 233.464C285.47 233.464 285.785 233.295 286.02 232.958C286.269 232.635 286.548 231.983 286.856 231L282.302 219.472H285.36L288.462 227.986L291.19 219.472H294.006L289.166 233.288C288.902 234.08 288.425 234.733 287.736 235.246C287.061 235.774 286.225 236.038 285.228 236.038C284.744 236.038 284.253 235.957 283.754 235.796V233.244ZM309.908 219.472H312.702L307.884 231H305.42L303.484 226.05L301.592 231H299.106L294.31 219.472H297.082L300.514 228.184L301.856 224.422L299.854 219.494H302.296L303.484 223.014L304.694 219.494H307.136L305.134 224.422L306.498 228.184L309.908 219.472ZM319 231.22C317.739 231.22 316.653 230.949 315.744 230.406C314.849 229.849 314.16 229.115 313.676 228.206C313.192 227.297 312.95 226.314 312.95 225.258C312.95 224.187 313.192 223.197 313.676 222.288C314.175 221.379 314.871 220.653 315.766 220.11C316.675 219.553 317.753 219.274 319 219.274C320.247 219.274 321.317 219.553 322.212 220.11C323.121 220.653 323.818 221.379 324.302 222.288C324.786 223.197 325.028 224.187 325.028 225.258C325.028 226.314 324.786 227.297 324.302 228.206C323.818 229.115 323.121 229.849 322.212 230.406C321.317 230.949 320.247 231.22 319 231.22ZM315.986 225.258C315.986 225.933 316.118 226.534 316.382 227.062C316.646 227.575 317.005 227.979 317.46 228.272C317.915 228.565 318.428 228.712 319 228.712C319.557 228.712 320.063 228.565 320.518 228.272C320.973 227.964 321.332 227.553 321.596 227.04C321.875 226.512 322.014 225.911 322.014 225.236C322.014 224.576 321.875 223.989 321.596 223.476C321.332 222.948 320.973 222.537 320.518 222.244C320.063 221.936 319.557 221.782 319 221.782C318.428 221.782 317.915 221.936 317.46 222.244C317.005 222.537 316.646 222.948 316.382 223.476C316.118 223.989 315.986 224.583 315.986 225.258ZM333.882 222.024C332.987 222.024 332.188 222.2 331.484 222.552C330.78 222.889 330.274 223.381 329.966 224.026V231H327.018V219.472H329.724V221.936C330.12 221.144 330.633 220.521 331.264 220.066C331.909 219.611 332.584 219.362 333.288 219.318C333.596 219.318 333.794 219.325 333.882 219.34V222.024ZM334.714 225.236C334.714 224.136 334.934 223.131 335.374 222.222C335.814 221.313 336.423 220.594 337.2 220.066C337.978 219.538 338.865 219.274 339.862 219.274C340.713 219.274 341.476 219.487 342.15 219.912C342.84 220.323 343.375 220.851 343.756 221.496V214.94H346.704V227.7C346.704 228.023 346.756 228.25 346.858 228.382C346.961 228.499 347.137 228.573 347.386 228.602V231C346.858 231.103 346.44 231.154 346.132 231.154C345.604 231.154 345.164 231.022 344.812 230.758C344.475 230.494 344.284 230.149 344.24 229.724L344.196 228.998C343.771 229.717 343.192 230.267 342.458 230.648C341.74 231.029 340.984 231.22 340.192 231.22C339.122 231.22 338.176 230.956 337.354 230.428C336.533 229.885 335.888 229.167 335.418 228.272C334.949 227.363 334.714 226.351 334.714 225.236ZM343.756 226.776V224.026C343.522 223.381 343.118 222.845 342.546 222.42C341.974 221.995 341.388 221.782 340.786 221.782C340.185 221.782 339.657 221.951 339.202 222.288C338.748 222.611 338.396 223.043 338.146 223.586C337.897 224.114 337.772 224.686 337.772 225.302C337.772 225.933 337.912 226.512 338.19 227.04C338.469 227.553 338.843 227.964 339.312 228.272C339.796 228.565 340.346 228.712 340.962 228.712C341.52 228.712 342.07 228.529 342.612 228.162C343.17 227.795 343.551 227.333 343.756 226.776Z" fill="black"/>
<rect x="318" y="458" width="255" height="137" rx="22.5" fill="#F5F5F5"/>
<path d="M341.54 582.1C340.5 582.1 339.553 581.9 338.7 581.5C337.86 581.1 337.133 580.56 336.52 579.88C335.92 579.187 335.453 578.413 335.12 577.56C334.787 576.693 334.62 575.807 334.62 574.9C334.62 573.953 334.793 573.053 335.14 572.2C335.487 571.333 335.973 570.567 336.6 569.9C337.227 569.22 337.96 568.687 338.8 568.3C339.653 567.9 340.587 567.7 341.6 567.7C342.627 567.7 343.56 567.907 344.4 568.32C345.253 568.733 345.98 569.287 346.58 569.98C347.193 570.673 347.66 571.453 347.98 572.32C348.313 573.173 348.48 574.047 348.48 574.94C348.48 575.873 348.307 576.773 347.96 577.64C347.613 578.493 347.127 579.26 346.5 579.94C345.887 580.607 345.153 581.133 344.3 581.52C343.46 581.907 342.54 582.1 341.54 582.1ZM337.42 574.9C337.42 575.727 337.58 576.5 337.9 577.22C338.233 577.94 338.707 578.527 339.32 578.98C339.947 579.433 340.693 579.66 341.56 579.66C342.453 579.66 343.207 579.427 343.82 578.96C344.433 578.493 344.9 577.893 345.22 577.16C345.54 576.427 345.7 575.673 345.7 574.9C345.7 574.073 345.533 573.3 345.2 572.58C344.867 571.86 344.387 571.28 343.76 570.84C343.147 570.387 342.413 570.16 341.56 570.16C340.667 570.16 339.913 570.393 339.3 570.86C338.687 571.327 338.22 571.927 337.9 572.66C337.58 573.38 337.42 574.127 337.42 574.9ZM350.237 578.08V571.52H352.917V577.5C352.917 579.113 353.497 579.92 354.657 579.92C355.177 579.92 355.677 579.767 356.157 579.46C356.651 579.14 357.051 578.66 357.357 578.02V571.52H360.037V579C360.037 579.293 360.084 579.5 360.177 579.62C360.271 579.727 360.437 579.793 360.677 579.82V582C360.411 582.053 360.184 582.087 359.997 582.1C359.824 582.113 359.664 582.12 359.517 582.12C359.037 582.12 358.644 582.013 358.337 581.8C358.044 581.573 357.871 581.267 357.817 580.88L357.757 580.04C357.291 580.76 356.691 581.3 355.957 581.66C355.224 582.02 354.417 582.2 353.537 582.2C352.457 582.2 351.637 581.853 351.077 581.16C350.517 580.453 350.237 579.427 350.237 578.08ZM368.94 573.84C368.127 573.84 367.4 574 366.76 574.32C366.12 574.627 365.66 575.073 365.38 575.66V582H362.7V571.52H365.16V573.76C365.52 573.04 365.987 572.473 366.56 572.06C367.147 571.647 367.76 571.42 368.4 571.38C368.68 571.38 368.86 571.387 368.94 571.4V573.84ZM375.05 582V567.8H377.81V579.58H385.05V582H375.05ZM391.232 582.2C390.085 582.2 389.099 581.953 388.272 581.46C387.459 580.953 386.832 580.287 386.392 579.46C385.952 578.633 385.732 577.74 385.732 576.78C385.732 575.807 385.952 574.907 386.392 574.08C386.845 573.253 387.479 572.593 388.292 572.1C389.119 571.593 390.099 571.34 391.232 571.34C392.365 571.34 393.339 571.593 394.152 572.1C394.979 572.593 395.612 573.253 396.052 574.08C396.492 574.907 396.712 575.807 396.712 576.78C396.712 577.74 396.492 578.633 396.052 579.46C395.612 580.287 394.979 580.953 394.152 581.46C393.339 581.953 392.365 582.2 391.232 582.2ZM388.492 576.78C388.492 577.393 388.612 577.94 388.852 578.42C389.092 578.887 389.419 579.253 389.832 579.52C390.245 579.787 390.712 579.92 391.232 579.92C391.739 579.92 392.199 579.787 392.612 579.52C393.025 579.24 393.352 578.867 393.592 578.4C393.845 577.92 393.972 577.373 393.972 576.76C393.972 576.16 393.845 575.627 393.592 575.16C393.352 574.68 393.025 574.307 392.612 574.04C392.199 573.76 391.739 573.62 391.232 573.62C390.712 573.62 390.245 573.76 389.832 574.04C389.419 574.307 389.092 574.68 388.852 575.16C388.612 575.627 388.492 576.167 388.492 576.78ZM403.401 582.2C402.267 582.2 401.287 581.947 400.461 581.44C399.634 580.933 398.994 580.267 398.541 579.44C398.087 578.613 397.861 577.72 397.861 576.76C397.861 575.787 398.081 574.887 398.521 574.06C398.974 573.233 399.614 572.573 400.441 572.08C401.267 571.587 402.247 571.34 403.381 571.34C404.527 571.34 405.501 571.587 406.301 572.08C407.114 572.573 407.721 573.22 408.121 574.02L405.501 574.82C405.034 574.02 404.321 573.62 403.361 573.62C402.841 573.62 402.374 573.753 401.961 574.02C401.547 574.273 401.221 574.64 400.981 575.12C400.741 575.587 400.621 576.133 400.621 576.76C400.621 577.373 400.741 577.92 400.981 578.4C401.234 578.867 401.567 579.24 401.981 579.52C402.394 579.787 402.854 579.92 403.361 579.92C403.841 579.92 404.281 579.807 404.681 579.58C405.094 579.34 405.381 579.04 405.541 578.68L408.161 579.48C407.801 580.267 407.201 580.92 406.361 581.44C405.534 581.947 404.547 582.2 403.401 582.2ZM409.09 578.9C409.09 578.22 409.277 577.627 409.65 577.12C410.037 576.6 410.57 576.2 411.25 575.92C411.93 575.64 412.71 575.5 413.59 575.5C414.03 575.5 414.477 575.54 414.93 575.62C415.383 575.687 415.777 575.787 416.11 575.92V575.36C416.11 574.693 415.91 574.18 415.51 573.82C415.123 573.46 414.543 573.28 413.77 573.28C413.197 573.28 412.65 573.38 412.13 573.58C411.61 573.78 411.063 574.073 410.49 574.46L409.63 572.7C410.323 572.247 411.03 571.907 411.75 571.68C412.483 571.453 413.25 571.34 414.05 571.34C415.543 571.34 416.703 571.713 417.53 572.46C418.37 573.207 418.79 574.273 418.79 575.66V579C418.79 579.293 418.837 579.5 418.93 579.62C419.023 579.727 419.19 579.793 419.43 579.82V582C419.19 582.053 418.97 582.087 418.77 582.1C418.583 582.127 418.423 582.14 418.29 582.14C417.757 582.14 417.35 582.02 417.07 581.78C416.79 581.54 416.623 581.247 416.57 580.9L416.51 580.36C416.043 580.96 415.47 581.42 414.79 581.74C414.123 582.047 413.437 582.2 412.73 582.2C412.023 582.2 411.397 582.06 410.85 581.78C410.303 581.487 409.87 581.093 409.55 580.6C409.243 580.093 409.09 579.527 409.09 578.9ZM415.61 579.44C415.943 579.12 416.11 578.813 416.11 578.52V577.46C415.417 577.18 414.717 577.04 414.01 577.04C413.303 577.04 412.73 577.193 412.29 577.5C411.85 577.793 411.63 578.187 411.63 578.68C411.63 579.08 411.79 579.44 412.11 579.76C412.43 580.08 412.89 580.24 413.49 580.24C413.89 580.24 414.277 580.167 414.65 580.02C415.037 579.873 415.357 579.68 415.61 579.44ZM427.477 581.46C427.117 581.62 426.67 581.78 426.137 581.94C425.617 582.1 425.077 582.18 424.517 582.18C424.023 582.18 423.57 582.093 423.157 581.92C422.743 581.747 422.41 581.473 422.157 581.1C421.917 580.713 421.797 580.213 421.797 579.6V573.58H420.417V571.52H421.797V568.12H424.477V571.52H426.677V573.58H424.477V578.7C424.477 579.06 424.57 579.32 424.757 579.48C424.957 579.64 425.197 579.72 425.477 579.72C425.757 579.72 426.03 579.673 426.297 579.58C426.563 579.487 426.777 579.407 426.937 579.34L427.477 581.46ZM428.872 570.06V567.4H431.552V570.06H428.872ZM428.872 582V571.52H431.552V582H428.872ZM438.81 582.2C437.663 582.2 436.677 581.953 435.85 581.46C435.037 580.953 434.41 580.287 433.97 579.46C433.53 578.633 433.31 577.74 433.31 576.78C433.31 575.807 433.53 574.907 433.97 574.08C434.423 573.253 435.057 572.593 435.87 572.1C436.697 571.593 437.677 571.34 438.81 571.34C439.943 571.34 440.917 571.593 441.73 572.1C442.557 572.593 443.19 573.253 443.63 574.08C444.07 574.907 444.29 575.807 444.29 576.78C444.29 577.74 444.07 578.633 443.63 579.46C443.19 580.287 442.557 580.953 441.73 581.46C440.917 581.953 439.943 582.2 438.81 582.2ZM436.07 576.78C436.07 577.393 436.19 577.94 436.43 578.42C436.67 578.887 436.997 579.253 437.41 579.52C437.823 579.787 438.29 579.92 438.81 579.92C439.317 579.92 439.777 579.787 440.19 579.52C440.603 579.24 440.93 578.867 441.17 578.4C441.423 577.92 441.55 577.373 441.55 576.76C441.55 576.16 441.423 575.627 441.17 575.16C440.93 574.68 440.603 574.307 440.19 574.04C439.777 573.76 439.317 573.62 438.81 573.62C438.29 573.62 437.823 573.76 437.41 574.04C436.997 574.307 436.67 574.68 436.43 575.16C436.19 575.627 436.07 576.167 436.07 576.78ZM455.839 582H453.159V576.12C453.159 575.28 453.012 574.667 452.719 574.28C452.426 573.893 452.019 573.7 451.499 573.7C451.139 573.7 450.772 573.793 450.399 573.98C450.039 574.167 449.712 574.427 449.419 574.76C449.126 575.08 448.912 575.453 448.779 575.88V582H446.099V571.52H448.519V573.46C448.906 572.807 449.466 572.293 450.199 571.92C450.932 571.533 451.759 571.34 452.679 571.34C453.332 571.34 453.866 571.46 454.279 571.7C454.692 571.927 455.012 572.24 455.239 572.64C455.466 573.027 455.619 573.467 455.699 573.96C455.792 574.453 455.839 574.953 455.839 575.46V582Z" fill="black"/>
<path d="M317 480.5C317 468.074 327.074 458 339.5 458H550.5C562.926 458 573 468.074 573 480.5V555H317V480.5Z" fill="#DDDDDD"/>
<path d="M501.48 427V412.8H504.24V424.58H511.48V427H501.48ZM517.662 427.2C516.515 427.2 515.528 426.953 514.702 426.46C513.888 425.953 513.262 425.287 512.822 424.46C512.382 423.633 512.162 422.74 512.162 421.78C512.162 420.807 512.382 419.907 512.822 419.08C513.275 418.253 513.908 417.593 514.722 417.1C515.548 416.593 516.528 416.34 517.662 416.34C518.795 416.34 519.768 416.593 520.582 417.1C521.408 417.593 522.042 418.253 522.482 419.08C522.922 419.907 523.142 420.807 523.142 421.78C523.142 422.74 522.922 423.633 522.482 424.46C522.042 425.287 521.408 425.953 520.582 426.46C519.768 426.953 518.795 427.2 517.662 427.2ZM514.922 421.78C514.922 422.393 515.042 422.94 515.282 423.42C515.522 423.887 515.848 424.253 516.262 424.52C516.675 424.787 517.142 424.92 517.662 424.92C518.168 424.92 518.628 424.787 519.042 424.52C519.455 424.24 519.782 423.867 520.022 423.4C520.275 422.92 520.402 422.373 520.402 421.76C520.402 421.16 520.275 420.627 520.022 420.16C519.782 419.68 519.455 419.307 519.042 419.04C518.628 418.76 518.168 418.62 517.662 418.62C517.142 418.62 516.675 418.76 516.262 419.04C515.848 419.307 515.522 419.68 515.282 420.16C515.042 420.627 514.922 421.167 514.922 421.78ZM529.83 427.2C528.697 427.2 527.717 426.947 526.89 426.44C526.064 425.933 525.424 425.267 524.97 424.44C524.517 423.613 524.29 422.72 524.29 421.76C524.29 420.787 524.51 419.887 524.95 419.06C525.404 418.233 526.044 417.573 526.87 417.08C527.697 416.587 528.677 416.34 529.81 416.34C530.957 416.34 531.93 416.587 532.73 417.08C533.544 417.573 534.15 418.22 534.55 419.02L531.93 419.82C531.464 419.02 530.75 418.62 529.79 418.62C529.27 418.62 528.804 418.753 528.39 419.02C527.977 419.273 527.65 419.64 527.41 420.12C527.17 420.587 527.05 421.133 527.05 421.76C527.05 422.373 527.17 422.92 527.41 423.4C527.664 423.867 527.997 424.24 528.41 424.52C528.824 424.787 529.284 424.92 529.79 424.92C530.27 424.92 530.71 424.807 531.11 424.58C531.524 424.34 531.81 424.04 531.97 423.68L534.59 424.48C534.23 425.267 533.63 425.92 532.79 426.44C531.964 426.947 530.977 427.2 529.83 427.2ZM535.52 423.9C535.52 423.22 535.706 422.627 536.08 422.12C536.466 421.6 537 421.2 537.68 420.92C538.36 420.64 539.14 420.5 540.02 420.5C540.46 420.5 540.906 420.54 541.36 420.62C541.813 420.687 542.206 420.787 542.54 420.92V420.36C542.54 419.693 542.34 419.18 541.94 418.82C541.553 418.46 540.973 418.28 540.2 418.28C539.626 418.28 539.08 418.38 538.56 418.58C538.04 418.78 537.493 419.073 536.92 419.46L536.06 417.7C536.753 417.247 537.46 416.907 538.18 416.68C538.913 416.453 539.68 416.34 540.48 416.34C541.973 416.34 543.133 416.713 543.96 417.46C544.8 418.207 545.22 419.273 545.22 420.66V424C545.22 424.293 545.266 424.5 545.36 424.62C545.453 424.727 545.62 424.793 545.86 424.82V427C545.62 427.053 545.4 427.087 545.2 427.1C545.013 427.127 544.853 427.14 544.72 427.14C544.186 427.14 543.78 427.02 543.5 426.78C543.22 426.54 543.053 426.247 543 425.9L542.94 425.36C542.473 425.96 541.9 426.42 541.22 426.74C540.553 427.047 539.866 427.2 539.16 427.2C538.453 427.2 537.826 427.06 537.28 426.78C536.733 426.487 536.3 426.093 535.98 425.6C535.673 425.093 535.52 424.527 535.52 423.9ZM542.04 424.44C542.373 424.12 542.54 423.813 542.54 423.52V422.46C541.846 422.18 541.146 422.04 540.44 422.04C539.733 422.04 539.16 422.193 538.72 422.5C538.28 422.793 538.06 423.187 538.06 423.68C538.06 424.08 538.22 424.44 538.54 424.76C538.86 425.08 539.32 425.24 539.92 425.24C540.32 425.24 540.706 425.167 541.08 425.02C541.466 424.873 541.786 424.68 542.04 424.44ZM553.906 426.46C553.546 426.62 553.1 426.78 552.566 426.94C552.046 427.1 551.506 427.18 550.946 427.18C550.453 427.18 550 427.093 549.586 426.92C549.173 426.747 548.84 426.473 548.586 426.1C548.346 425.713 548.226 425.213 548.226 424.6V418.58H546.846V416.52H548.226V413.12H550.906V416.52H553.106V418.58H550.906V423.7C550.906 424.06 551 424.32 551.186 424.48C551.386 424.64 551.626 424.72 551.906 424.72C552.186 424.72 552.46 424.673 552.726 424.58C552.993 424.487 553.206 424.407 553.366 424.34L553.906 426.46ZM555.302 415.06V412.4H557.982V415.06H555.302ZM555.302 427V416.52H557.982V427H555.302ZM565.24 427.2C564.093 427.2 563.106 426.953 562.28 426.46C561.466 425.953 560.84 425.287 560.4 424.46C559.96 423.633 559.74 422.74 559.74 421.78C559.74 420.807 559.96 419.907 560.4 419.08C560.853 418.253 561.486 417.593 562.3 417.1C563.126 416.593 564.106 416.34 565.24 416.34C566.373 416.34 567.346 416.593 568.16 417.1C568.986 417.593 569.62 418.253 570.06 419.08C570.5 419.907 570.72 420.807 570.72 421.78C570.72 422.74 570.5 423.633 570.06 424.46C569.62 425.287 568.986 425.953 568.16 426.46C567.346 426.953 566.373 427.2 565.24 427.2ZM562.5 421.78C562.5 422.393 562.62 422.94 562.86 423.42C563.1 423.887 563.426 424.253 563.84 424.52C564.253 424.787 564.72 424.92 565.24 424.92C565.746 424.92 566.206 424.787 566.62 424.52C567.033 424.24 567.36 423.867 567.6 423.4C567.853 422.92 567.98 422.373 567.98 421.76C567.98 421.16 567.853 420.627 567.6 420.16C567.36 419.68 567.033 419.307 566.62 419.04C566.206 418.76 565.746 418.62 565.24 418.62C564.72 418.62 564.253 418.76 563.84 419.04C563.426 419.307 563.1 419.68 562.86 420.16C562.62 420.627 562.5 421.167 562.5 421.78ZM582.269 427H579.589V421.12C579.589 420.28 579.442 419.667 579.149 419.28C578.855 418.893 578.449 418.7 577.929 418.7C577.569 418.7 577.202 418.793 576.829 418.98C576.469 419.167 576.142 419.427 575.849 419.76C575.555 420.08 575.342 420.453 575.209 420.88V427H572.529V416.52H574.949V418.46C575.335 417.807 575.895 417.293 576.629 416.92C577.362 416.533 578.189 416.34 579.109 416.34C579.762 416.34 580.295 416.46 580.709 416.7C581.122 416.927 581.442 417.24 581.669 417.64C581.895 418.027 582.049 418.467 582.129 418.96C582.222 419.453 582.269 419.953 582.269 420.46V427ZM601.244 427V417.68L597.604 424.62H596.064L592.424 417.68V427H589.664V412.8H592.624L596.824 420.88L601.064 412.8H604.004V427H601.244ZM605.871 423.9C605.871 423.22 606.058 422.627 606.431 422.12C606.818 421.6 607.351 421.2 608.031 420.92C608.711 420.64 609.491 420.5 610.371 420.5C610.811 420.5 611.258 420.54 611.711 420.62C612.164 420.687 612.558 420.787 612.891 420.92V420.36C612.891 419.693 612.691 419.18 612.291 418.82C611.904 418.46 611.324 418.28 610.551 418.28C609.978 418.28 609.431 418.38 608.911 418.58C608.391 418.78 607.844 419.073 607.271 419.46L606.411 417.7C607.104 417.247 607.811 416.907 608.531 416.68C609.264 416.453 610.031 416.34 610.831 416.34C612.324 416.34 613.484 416.713 614.311 417.46C615.151 418.207 615.571 419.273 615.571 420.66V424C615.571 424.293 615.618 424.5 615.711 424.62C615.804 424.727 615.971 424.793 616.211 424.82V427C615.971 427.053 615.751 427.087 615.551 427.1C615.364 427.127 615.204 427.14 615.071 427.14C614.538 427.14 614.131 427.02 613.851 426.78C613.571 426.54 613.404 426.247 613.351 425.9L613.291 425.36C612.824 425.96 612.251 426.42 611.571 426.74C610.904 427.047 610.218 427.2 609.511 427.2C608.804 427.2 608.178 427.06 607.631 426.78C607.084 426.487 606.651 426.093 606.331 425.6C606.024 425.093 605.871 424.527 605.871 423.9ZM612.391 424.44C612.724 424.12 612.891 423.813 612.891 423.52V422.46C612.198 422.18 611.498 422.04 610.791 422.04C610.084 422.04 609.511 422.193 609.071 422.5C608.631 422.793 608.411 423.187 608.411 423.68C608.411 424.08 608.571 424.44 608.891 424.76C609.211 425.08 609.671 425.24 610.271 425.24C610.671 425.24 611.058 425.167 611.431 425.02C611.818 424.873 612.138 424.68 612.391 424.44ZM624.355 427.2C623.529 427.2 622.809 427.013 622.195 426.64C621.582 426.267 621.102 425.773 620.755 425.16V431.26H618.075V416.52H620.415V418.32C620.802 417.707 621.302 417.227 621.915 416.88C622.542 416.52 623.249 416.34 624.035 416.34C624.982 416.34 625.822 416.587 626.555 417.08C627.289 417.56 627.869 418.213 628.295 419.04C628.722 419.853 628.935 420.753 628.935 421.74C628.935 422.767 628.735 423.693 628.335 424.52C627.949 425.333 627.409 425.987 626.715 426.48C626.035 426.96 625.249 427.2 624.355 427.2ZM623.455 424.92C624.002 424.92 624.475 424.773 624.875 424.48C625.289 424.173 625.609 423.78 625.835 423.3C626.075 422.807 626.195 422.287 626.195 421.74C626.195 421.153 626.069 420.627 625.815 420.16C625.562 419.68 625.215 419.307 624.775 419.04C624.349 418.76 623.855 418.62 623.295 418.62C622.789 418.62 622.282 418.787 621.775 419.12C621.269 419.453 620.929 419.873 620.755 420.38V422.84C620.995 423.427 621.362 423.92 621.855 424.32C622.349 424.72 622.882 424.92 623.455 424.92Z" fill="black"/>
<defs>
<filter id="filter0_d" x="216" y="0" width="503" height="768" filterUnits="userSpaceOnUse" color-interpolation-filters="sRGB">
<feFlood flood-opacity="0" result="BackgroundImageFix"/>
<feColorMatrix in="SourceAlpha" type="matrix" values="0 0 0 0 0 0 0 0 0 0 0 0 0 0 0 0 0 0 127 0"/>
<feOffset dx="15" dy="15"/>
<feGaussianBlur stdDeviation="15"/>
<feColorMatrix type="matrix" values="0 0 0 0 0.835294 0 0 0 0 0.835294 0 0 0 0 0.835294 0 0 0 0.5 0"/>
<feBlend mode="normal" in2="BackgroundImageFix" result="effect1_dropShadow"/>
<feBlend mode="normal" in="SourceGraphic" in2="effect1_dropShadow" result="shape"/>
</filter>
<filter id="filter1_d" x="216" y="7.5" width="473" height="120.218" filterUnits="userSpaceOnUse" color-interpolation-filters="sRGB">
<feFlood flood-opacity="0" result="BackgroundImageFix"/>
<feColorMatrix in="SourceAlpha" type="matrix" values="0 0 0 0 0 0 0 0 0 0 0 0 0 0 0 0 0 0 127 0"/>
<feOffset dy="7.5"/>
<feGaussianBlur stdDeviation="7.5"/>
<feColorMatrix type="matrix" values="0 0 0 0 0.835294 0 0 0 0 0.835294 0 0 0 0 0.835294 0 0 0 0.25 0"/>
<feBlend mode="normal" in2="BackgroundImageFix" result="effect1_dropShadow"/>
<feBlend mode="normal" in="SourceGraphic" in2="effect1_dropShadow" result="shape"/>
</filter>
<filter id="filter2_d" x="0" y="155" width="474" height="326" filterUnits="userSpaceOnUse" color-interpolation-filters="sRGB">
<feFlood flood-opacity="0" result="BackgroundImageFix"/>
<feColorMatrix in="SourceAlpha" type="matrix" values="0 0 0 0 0 0 0 0 0 0 0 0 0 0 0 0 0 0 127 0"/>
<feOffset dx="5" dy="5"/>
<feGaussianBlur stdDeviation="22.5"/>
<feColorMatrix type="matrix" values="0 0 0 0 0.835294 0 0 0 0 0.835294 0 0 0 0 0.835294 0 0 0 0.5 0"/>
<feBlend mode="normal" in2="BackgroundImageFix" result="effect1_dropShadow"/>
<feBlend mode="normal" in="SourceGraphic" in2="effect1_dropShadow" result="shape"/>
</filter>
</defs>
</svg>
