<svg width="685" height="685" viewBox="0 0 685 685" fill="none" xmlns="http://www.w3.org/2000/svg">
<g filter="url(#filter0_d)">
<rect x="15" y="15" width="625" height="625" rx="32" fill="white"/>
</g>
<path d="M128.132 82.314C128.132 83.994 127.698 85.408 126.83 86.556C125.962 87.676 124.786 88.53 123.302 89.118C121.846 89.706 120.25 90 118.514 90H104.108V60.18H120.068C121.468 60.18 122.672 60.558 123.68 61.314C124.688 62.042 125.472 62.994 126.032 64.17C126.592 65.346 126.872 66.55 126.872 67.782C126.872 69.238 126.508 70.61 125.78 71.898C125.052 73.158 123.988 74.096 122.588 74.712C124.296 75.216 125.64 76.126 126.62 77.442C127.628 78.758 128.132 80.382 128.132 82.314ZM109.904 65.136V72.654H117.632C118.584 72.654 119.41 72.318 120.11 71.646C120.81 70.974 121.16 70.05 121.16 68.874C121.16 67.754 120.838 66.858 120.194 66.186C119.578 65.486 118.808 65.136 117.884 65.136H109.904ZM122.294 81.222C122.294 80.13 121.958 79.192 121.286 78.408C120.614 77.624 119.788 77.232 118.808 77.232H109.904V85.086H118.514C119.578 85.086 120.474 84.708 121.202 83.952C121.93 83.196 122.294 82.286 122.294 81.222ZM130.597 83.49C130.597 82.062 130.989 80.816 131.773 79.752C132.585 78.66 133.705 77.82 135.133 77.232C136.561 76.644 138.199 76.35 140.047 76.35C140.971 76.35 141.909 76.434 142.861 76.602C143.813 76.742 144.639 76.952 145.339 77.232V76.056C145.339 74.656 144.919 73.578 144.079 72.822C143.267 72.066 142.049 71.688 140.425 71.688C139.221 71.688 138.073 71.898 136.981 72.318C135.889 72.738 134.741 73.354 133.537 74.166L131.731 70.47C133.187 69.518 134.671 68.804 136.183 68.328C137.723 67.852 139.333 67.614 141.013 67.614C144.149 67.614 146.585 68.398 148.321 69.966C150.085 71.534 150.967 73.774 150.967 76.686V83.7C150.967 84.316 151.065 84.75 151.261 85.002C151.457 85.226 151.807 85.366 152.311 85.422V90C151.807 90.112 151.345 90.182 150.925 90.21C150.533 90.266 150.197 90.294 149.917 90.294C148.797 90.294 147.943 90.042 147.355 89.538C146.767 89.034 146.417 88.418 146.305 87.69L146.179 86.556C145.199 87.816 143.995 88.782 142.567 89.454C141.167 90.098 139.725 90.42 138.241 90.42C136.757 90.42 135.441 90.126 134.293 89.538C133.145 88.922 132.235 88.096 131.563 87.06C130.919 85.996 130.597 84.806 130.597 83.49ZM144.289 84.624C144.989 83.952 145.339 83.308 145.339 82.692V80.466C143.883 79.878 142.413 79.584 140.929 79.584C139.445 79.584 138.241 79.906 137.317 80.55C136.393 81.166 135.931 81.992 135.931 83.028C135.931 83.868 136.267 84.624 136.939 85.296C137.611 85.968 138.577 86.304 139.837 86.304C140.677 86.304 141.489 86.15 142.273 85.842C143.085 85.534 143.757 85.128 144.289 84.624ZM166.474 90.42C164.094 90.42 162.036 89.888 160.3 88.824C158.564 87.76 157.22 86.36 156.268 84.624C155.316 82.888 154.84 81.012 154.84 78.996C154.84 76.952 155.302 75.062 156.226 73.326C157.178 71.59 158.522 70.204 160.258 69.168C161.994 68.132 164.052 67.614 166.432 67.614C168.84 67.614 170.884 68.132 172.564 69.168C174.272 70.204 175.546 71.562 176.386 73.242L170.884 74.922C169.904 73.242 168.406 72.402 166.39 72.402C165.298 72.402 164.318 72.682 163.45 73.242C162.582 73.774 161.896 74.544 161.392 75.552C160.888 76.532 160.636 77.68 160.636 78.996C160.636 80.284 160.888 81.432 161.392 82.44C161.924 83.42 162.624 84.204 163.492 84.792C164.36 85.352 165.326 85.632 166.39 85.632C167.398 85.632 168.322 85.394 169.162 84.918C170.03 84.414 170.632 83.784 170.968 83.028L176.47 84.708C175.714 86.36 174.454 87.732 172.69 88.824C170.954 89.888 168.882 90.42 166.474 90.42ZM194.969 90L188.543 80.508L185.561 83.448V90H179.933V59.34H185.561V77.904L194.423 68.034H200.387L192.197 77.358L200.975 90H194.969Z" fill="#333333"/>
<path d="M82 68L72.024 75.7087C71.5059 76.109 71.5059 76.891 72.024 77.2913L82 85" stroke="#333333" stroke-width="5" stroke-linecap="round"/>
<rect x="62" y="127" width="224" height="224" rx="32" fill="#A177B4"/>
<rect x="329" y="166" width="269" height="20" rx="10" fill="#C5C5C5"/>
<rect x="328" y="219" width="121" height="20" rx="10" fill="#C5C5C5"/>
<path d="M339.556 298.14C338.1 298.14 336.775 297.86 335.58 297.3C334.404 296.721 333.387 295.956 332.528 295.004C331.688 294.052 331.035 292.979 330.568 291.784C330.101 290.571 329.868 289.329 329.868 288.06C329.868 286.735 330.111 285.475 330.596 284.28C331.081 283.067 331.763 281.993 332.64 281.06C333.517 280.108 334.544 279.361 335.72 278.82C336.915 278.26 338.221 277.98 339.64 277.98C341.077 277.98 342.384 278.269 343.56 278.848C344.755 279.427 345.772 280.201 346.612 281.172C347.471 282.143 348.124 283.235 348.572 284.448C349.039 285.643 349.272 286.865 349.272 288.116C349.272 289.385 349.039 290.617 348.572 291.812C348.124 292.988 347.489 294.033 346.668 294.948L349.384 298H345.744L344.568 296.712C343.859 297.16 343.075 297.515 342.216 297.776C341.376 298.019 340.489 298.14 339.556 298.14ZM339.584 294.724C340.088 294.724 340.555 294.668 340.984 294.556C341.432 294.425 341.843 294.257 342.216 294.052L339.192 290.636H342.832L344.204 292.176C344.577 291.579 344.867 290.925 345.072 290.216C345.277 289.507 345.38 288.788 345.38 288.06C345.38 286.903 345.147 285.82 344.68 284.812C344.213 283.804 343.541 282.983 342.664 282.348C341.805 281.713 340.779 281.396 339.584 281.396C338.333 281.396 337.279 281.723 336.42 282.376C335.561 283.029 334.908 283.869 334.46 284.896C334.012 285.923 333.788 286.977 333.788 288.06C333.788 289.217 334.012 290.3 334.46 291.308C334.927 292.316 335.589 293.137 336.448 293.772C337.325 294.407 338.371 294.724 339.584 294.724ZM351.705 292.512V283.328H355.457V291.7C355.457 293.959 356.269 295.088 357.893 295.088C358.621 295.088 359.321 294.873 359.993 294.444C360.683 293.996 361.243 293.324 361.673 292.428V283.328H365.425V293.8C365.425 294.211 365.49 294.5 365.621 294.668C365.751 294.817 365.985 294.911 366.321 294.948V298C365.947 298.075 365.63 298.121 365.369 298.14C365.126 298.159 364.902 298.168 364.697 298.168C364.025 298.168 363.474 298.019 363.045 297.72C362.634 297.403 362.391 296.973 362.317 296.432L362.233 295.256C361.579 296.264 360.739 297.02 359.713 297.524C358.686 298.028 357.557 298.28 356.325 298.28C354.813 298.28 353.665 297.795 352.881 296.824C352.097 295.835 351.705 294.397 351.705 292.512ZM368.145 293.66C368.145 292.708 368.407 291.877 368.929 291.168C369.471 290.44 370.217 289.88 371.169 289.488C372.121 289.096 373.213 288.9 374.445 288.9C375.061 288.9 375.687 288.956 376.321 289.068C376.956 289.161 377.507 289.301 377.973 289.488V288.704C377.973 287.771 377.693 287.052 377.133 286.548C376.592 286.044 375.78 285.792 374.697 285.792C373.895 285.792 373.129 285.932 372.401 286.212C371.673 286.492 370.908 286.903 370.105 287.444L368.901 284.98C369.872 284.345 370.861 283.869 371.869 283.552C372.896 283.235 373.969 283.076 375.089 283.076C377.18 283.076 378.804 283.599 379.961 284.644C381.137 285.689 381.725 287.183 381.725 289.124V293.8C381.725 294.211 381.791 294.5 381.921 294.668C382.052 294.817 382.285 294.911 382.621 294.948V298C382.285 298.075 381.977 298.121 381.697 298.14C381.436 298.177 381.212 298.196 381.025 298.196C380.279 298.196 379.709 298.028 379.317 297.692C378.925 297.356 378.692 296.945 378.617 296.46L378.533 295.704C377.88 296.544 377.077 297.188 376.125 297.636C375.192 298.065 374.231 298.28 373.241 298.28C372.252 298.28 371.375 298.084 370.609 297.692C369.844 297.281 369.237 296.731 368.789 296.04C368.36 295.331 368.145 294.537 368.145 293.66ZM377.273 294.416C377.74 293.968 377.973 293.539 377.973 293.128V291.644C377.003 291.252 376.023 291.056 375.033 291.056C374.044 291.056 373.241 291.271 372.625 291.7C372.009 292.111 371.701 292.661 371.701 293.352C371.701 293.912 371.925 294.416 372.373 294.864C372.821 295.312 373.465 295.536 374.305 295.536C374.865 295.536 375.407 295.433 375.929 295.228C376.471 295.023 376.919 294.752 377.273 294.416ZM398.867 298H395.115V289.768C395.115 288.592 394.91 287.733 394.499 287.192C394.089 286.651 393.519 286.38 392.791 286.38C392.287 286.38 391.774 286.511 391.251 286.772C390.747 287.033 390.29 287.397 389.879 287.864C389.469 288.312 389.17 288.835 388.983 289.432V298H385.231V283.328H388.619V286.044C389.161 285.129 389.945 284.411 390.971 283.888C391.998 283.347 393.155 283.076 394.443 283.076C395.358 283.076 396.105 283.244 396.683 283.58C397.262 283.897 397.71 284.336 398.027 284.896C398.345 285.437 398.559 286.053 398.671 286.744C398.802 287.435 398.867 288.135 398.867 288.844V298ZM410.84 297.244C410.336 297.468 409.711 297.692 408.964 297.916C408.236 298.14 407.48 298.252 406.696 298.252C406.005 298.252 405.371 298.131 404.792 297.888C404.213 297.645 403.747 297.263 403.392 296.74C403.056 296.199 402.888 295.499 402.888 294.64V286.212H400.956V283.328H402.888V278.568H406.64V283.328H409.72V286.212H406.64V293.38C406.64 293.884 406.771 294.248 407.032 294.472C407.312 294.696 407.648 294.808 408.04 294.808C408.432 294.808 408.815 294.743 409.188 294.612C409.561 294.481 409.86 294.369 410.084 294.276L410.84 297.244ZM412.794 281.284V277.56H416.546V281.284H412.794ZM412.794 298V283.328H416.546V298H412.794ZM428.723 297.244C428.219 297.468 427.593 297.692 426.847 297.916C426.119 298.14 425.363 298.252 424.579 298.252C423.888 298.252 423.253 298.131 422.675 297.888C422.096 297.645 421.629 297.263 421.275 296.74C420.939 296.199 420.771 295.499 420.771 294.64V286.212H418.839V283.328H420.771V278.568H424.523V283.328H427.603V286.212H424.523V293.38C424.523 293.884 424.653 294.248 424.915 294.472C425.195 294.696 425.531 294.808 425.923 294.808C426.315 294.808 426.697 294.743 427.071 294.612C427.444 294.481 427.743 294.369 427.967 294.276L428.723 297.244ZM430.93 300.856C431.621 301.043 432.181 301.136 432.61 301.136C433.114 301.136 433.515 300.921 433.814 300.492C434.131 300.081 434.486 299.251 434.878 298L429.082 283.328H432.974L436.922 294.164L440.394 283.328H443.978L437.818 300.912C437.482 301.92 436.875 302.751 435.998 303.404C435.139 304.076 434.075 304.412 432.806 304.412C432.19 304.412 431.565 304.309 430.93 304.104V300.856Z" fill="#333333"/>
<path d="M567.296 293.338V296H558.452V293.338H561.488V283.174C561.327 283.394 561.041 283.658 560.63 283.966C560.219 284.259 559.765 284.516 559.266 284.736C558.782 284.956 558.342 285.066 557.946 285.066V282.338C558.327 282.338 558.723 282.235 559.134 282.03C559.545 281.825 559.926 281.59 560.278 281.326C560.63 281.047 560.916 280.805 561.136 280.6C561.371 280.38 561.488 280.255 561.488 280.226H564.502V293.338H567.296Z" fill="#333333"/>
<rect x="547.5" y="273.5" width="29" height="29" rx="6.5" stroke="#DDDDDD" stroke-width="3"/>
<path d="M591.976 287.184V289.776H589.504V292.488H586.6V289.776H584.128V287.184H586.6V284.472H589.504V287.184H591.976Z" fill="#CCCCCC"/>
<path d="M531.392 290.864V287.96H538.664V290.864H531.392Z" fill="#CCCCCC"/>
<path d="M357.904 394.232C357.712 394.019 357.307 393.741 356.688 393.4C356.069 393.037 355.323 392.717 354.448 392.44C353.595 392.141 352.709 391.992 351.792 391.992C349.381 391.992 348.176 392.845 348.176 394.552C348.176 395.171 348.368 395.661 348.752 396.024C349.136 396.387 349.712 396.696 350.48 396.952C351.248 397.208 352.208 397.485 353.36 397.784C354.853 398.168 356.144 398.616 357.232 399.128C358.341 399.64 359.184 400.323 359.76 401.176C360.357 402.008 360.656 403.117 360.656 404.504C360.656 406.125 360.261 407.437 359.472 408.44C358.704 409.421 357.68 410.136 356.4 410.584C355.12 411.032 353.733 411.256 352.24 411.256C350.533 411.256 348.837 411 347.152 410.488C345.488 409.955 344.005 409.229 342.704 408.312L344.656 404.504C344.848 404.696 345.189 404.952 345.68 405.272C346.171 405.571 346.768 405.88 347.472 406.2C348.176 406.499 348.944 406.755 349.776 406.968C350.608 407.181 351.451 407.288 352.304 407.288C354.736 407.288 355.952 406.509 355.952 404.952C355.952 404.291 355.707 403.757 355.216 403.352C354.725 402.947 354.032 402.605 353.136 402.328C352.261 402.051 351.237 401.741 350.064 401.4C348.613 400.995 347.408 400.547 346.448 400.056C345.509 399.544 344.805 398.915 344.336 398.168C343.867 397.4 343.632 396.429 343.632 395.256C343.632 393.699 343.995 392.397 344.72 391.352C345.467 390.285 346.469 389.485 347.728 388.952C348.987 388.397 350.384 388.12 351.92 388.12C353.499 388.12 354.971 388.376 356.336 388.888C357.701 389.4 358.875 389.987 359.856 390.648L357.904 394.232Z" fill="#333333"/>
<rect x="330.5" y="378.5" width="42" height="42" rx="10.5" stroke="#DDDDDD" stroke-width="3"/>
<path d="M419.896 411V396.088L414.072 407.192H411.608L405.784 396.088V411H401.368V388.28H406.104L412.824 401.208L419.608 388.28H424.312V411H419.896Z" fill="#A177B4"/>
<rect x="391.5" y="378.5" width="42" height="42" rx="10.5" stroke="#A177B4" stroke-width="3"/>
<path d="M466.368 411V388.28H470.784V407.128H482.368V411H466.368Z" fill="#333333"/>
<rect x="452.5" y="378.5" width="42" height="42" rx="10.5" stroke="#DDDDDD" stroke-width="3"/>
<path d="M528.736 388.28L534.368 396.664L539.968 388.28H544.768L536.896 399.8L544.512 411H539.712L534.368 402.936L528.992 411H524.16L531.776 399.8L523.904 388.28H528.736ZM547.056 411V388.28H551.472V407.128H563.056V411H547.056Z" fill="#333333"/>
<rect x="513.5" y="378.5" width="60" height="42" rx="10.5" stroke="#DDDDDD" stroke-width="3"/>
<path d="M342.916 341.328C342.748 341.141 342.393 340.899 341.852 340.6C341.311 340.283 340.657 340.003 339.892 339.76C339.145 339.499 338.371 339.368 337.568 339.368C335.459 339.368 334.404 340.115 334.404 341.608C334.404 342.149 334.572 342.579 334.908 342.896C335.244 343.213 335.748 343.484 336.42 343.708C337.092 343.932 337.932 344.175 338.94 344.436C340.247 344.772 341.376 345.164 342.328 345.612C343.299 346.06 344.036 346.657 344.54 347.404C345.063 348.132 345.324 349.103 345.324 350.316C345.324 351.735 344.979 352.883 344.288 353.76C343.616 354.619 342.72 355.244 341.6 355.636C340.48 356.028 339.267 356.224 337.96 356.224C336.467 356.224 334.983 356 333.508 355.552C332.052 355.085 330.755 354.451 329.616 353.648L331.324 350.316C331.492 350.484 331.791 350.708 332.22 350.988C332.649 351.249 333.172 351.52 333.788 351.8C334.404 352.061 335.076 352.285 335.804 352.472C336.532 352.659 337.269 352.752 338.016 352.752C340.144 352.752 341.208 352.071 341.208 350.708C341.208 350.129 340.993 349.663 340.564 349.308C340.135 348.953 339.528 348.655 338.744 348.412C337.979 348.169 337.083 347.899 336.056 347.6C334.787 347.245 333.732 346.853 332.892 346.424C332.071 345.976 331.455 345.425 331.044 344.772C330.633 344.1 330.428 343.251 330.428 342.224C330.428 340.861 330.745 339.723 331.38 338.808C332.033 337.875 332.911 337.175 334.012 336.708C335.113 336.223 336.336 335.98 337.68 335.98C339.061 335.98 340.349 336.204 341.544 336.652C342.739 337.1 343.765 337.613 344.624 338.192L342.916 341.328ZM347.88 339.284V335.56H351.632V339.284H347.88ZM347.88 356V341.328H351.632V356H347.88ZM354.037 353.704L362.129 343.96H354.373V341.328H366.161V343.624L358.125 353.368H366.301V356H354.037V353.704ZM375.383 356.28C373.796 356.28 372.424 355.935 371.267 355.244C370.128 354.553 369.242 353.639 368.607 352.5C367.972 351.343 367.655 350.092 367.655 348.748C367.655 347.367 367.963 346.097 368.579 344.94C369.214 343.764 370.11 342.831 371.267 342.14C372.424 341.431 373.806 341.076 375.411 341.076C377.016 341.076 378.388 341.431 379.527 342.14C380.666 342.831 381.534 343.755 382.131 344.912C382.747 346.051 383.055 347.283 383.055 348.608C383.055 349.093 383.027 349.513 382.971 349.868H371.631C371.724 351.007 372.144 351.903 372.891 352.556C373.656 353.209 374.534 353.536 375.523 353.536C376.27 353.536 376.97 353.359 377.623 353.004C378.295 352.631 378.752 352.145 378.995 351.548L382.215 352.444C381.674 353.564 380.806 354.488 379.611 355.216C378.416 355.925 377.007 356.28 375.383 356.28ZM371.547 347.488H379.219C379.107 346.387 378.687 345.5 377.959 344.828C377.25 344.137 376.382 343.792 375.355 343.792C374.347 343.792 373.479 344.137 372.751 344.828C372.042 345.5 371.64 346.387 371.547 347.488Z" fill="#333333"/>
<rect x="329.5" y="495.5" width="74" height="74" rx="14.5" stroke="#A177B4" stroke-width="3"/>
<rect x="336.5" y="503" width="60" height="60" rx="12" fill="#DDDDDD"/>
<rect x="422.5" y="495.5" width="74" height="74" rx="14.5" stroke="#DDDDDD" stroke-width="3"/>
<rect x="429.5" y="503" width="60" height="60" rx="12" fill="#DDDDDD"/>
<rect x="515.5" y="495.5" width="74" height="74" rx="14.5" stroke="#DDDDDD" stroke-width="3"/>
<rect x="522.5" y="503" width="60" height="60" rx="12" fill="#DDDDDD"/>
<path d="M328.868 462.92C328.868 461.707 329.083 460.512 329.512 459.336C329.96 458.16 330.604 457.096 331.444 456.144C332.284 455.192 333.311 454.436 334.524 453.876C335.737 453.297 337.119 453.008 338.668 453.008C340.479 453.008 342.056 453.409 343.4 454.212C344.744 455.015 345.743 456.06 346.396 457.348L343.428 459.392C343.092 458.645 342.653 458.057 342.112 457.628C341.571 457.199 340.983 456.891 340.348 456.704C339.732 456.517 339.135 456.424 338.556 456.424C337.585 456.424 336.736 456.62 336.008 457.012C335.299 457.404 334.701 457.917 334.216 458.552C333.731 459.187 333.367 459.896 333.124 460.68C332.9 461.464 332.788 462.248 332.788 463.032C332.788 464.208 333.031 465.309 333.516 466.336C334.001 467.344 334.683 468.165 335.56 468.8C336.437 469.435 337.455 469.752 338.612 469.752C339.209 469.752 339.825 469.649 340.46 469.444C341.113 469.239 341.711 468.912 342.252 468.464C342.793 468.016 343.213 467.437 343.512 466.728L346.676 468.548C346.265 469.537 345.621 470.377 344.744 471.068C343.867 471.74 342.877 472.263 341.776 472.636C340.675 472.991 339.583 473.168 338.5 473.168C337.081 473.168 335.784 472.879 334.608 472.3C333.451 471.703 332.443 470.919 331.584 469.948C330.725 468.959 330.053 467.857 329.568 466.644C329.101 465.412 328.868 464.171 328.868 462.92ZM355.625 473.28C354.019 473.28 352.638 472.935 351.481 472.244C350.342 471.535 349.465 470.601 348.849 469.444C348.233 468.287 347.925 467.036 347.925 465.692C347.925 464.329 348.233 463.069 348.849 461.912C349.483 460.755 350.37 459.831 351.509 459.14C352.666 458.431 354.038 458.076 355.625 458.076C357.211 458.076 358.574 458.431 359.713 459.14C360.87 459.831 361.757 460.755 362.373 461.912C362.989 463.069 363.297 464.329 363.297 465.692C363.297 467.036 362.989 468.287 362.373 469.444C361.757 470.601 360.87 471.535 359.713 472.244C358.574 472.935 357.211 473.28 355.625 473.28ZM351.789 465.692C351.789 466.551 351.957 467.316 352.293 467.988C352.629 468.641 353.086 469.155 353.665 469.528C354.243 469.901 354.897 470.088 355.625 470.088C356.334 470.088 356.978 469.901 357.557 469.528C358.135 469.136 358.593 468.613 358.929 467.96C359.283 467.288 359.461 466.523 359.461 465.664C359.461 464.824 359.283 464.077 358.929 463.424C358.593 462.752 358.135 462.229 357.557 461.856C356.978 461.464 356.334 461.268 355.625 461.268C354.897 461.268 354.243 461.464 353.665 461.856C353.086 462.229 352.629 462.752 352.293 463.424C351.957 464.077 351.789 464.833 351.789 465.692ZM365.801 452.56H369.553V468.296C369.553 468.987 369.665 469.444 369.889 469.668C370.113 469.892 370.421 470.004 370.813 470.004C371.112 470.004 371.42 469.967 371.737 469.892C372.054 469.817 372.334 469.724 372.577 469.612L373.081 472.468C372.577 472.711 371.989 472.897 371.317 473.028C370.645 473.159 370.038 473.224 369.497 473.224C368.321 473.224 367.406 472.916 366.753 472.3C366.118 471.665 365.801 470.769 365.801 469.612V452.56ZM381.492 473.28C379.886 473.28 378.505 472.935 377.348 472.244C376.209 471.535 375.332 470.601 374.716 469.444C374.1 468.287 373.792 467.036 373.792 465.692C373.792 464.329 374.1 463.069 374.716 461.912C375.35 460.755 376.237 459.831 377.376 459.14C378.533 458.431 379.905 458.076 381.492 458.076C383.078 458.076 384.441 458.431 385.58 459.14C386.737 459.831 387.624 460.755 388.24 461.912C388.856 463.069 389.164 464.329 389.164 465.692C389.164 467.036 388.856 468.287 388.24 469.444C387.624 470.601 386.737 471.535 385.58 472.244C384.441 472.935 383.078 473.28 381.492 473.28ZM377.656 465.692C377.656 466.551 377.824 467.316 378.16 467.988C378.496 468.641 378.953 469.155 379.532 469.528C380.11 469.901 380.764 470.088 381.492 470.088C382.201 470.088 382.845 469.901 383.424 469.528C384.002 469.136 384.46 468.613 384.796 467.96C385.15 467.288 385.328 466.523 385.328 465.664C385.328 464.824 385.15 464.077 384.796 463.424C384.46 462.752 384.002 462.229 383.424 461.856C382.845 461.464 382.201 461.268 381.492 461.268C380.764 461.268 380.11 461.464 379.532 461.856C378.953 462.229 378.496 462.752 378.16 463.424C377.824 464.077 377.656 464.833 377.656 465.692ZM391.556 467.512V458.328H395.308V466.7C395.308 468.959 396.12 470.088 397.744 470.088C398.472 470.088 399.172 469.873 399.844 469.444C400.535 468.996 401.095 468.324 401.524 467.428V458.328H405.276V468.8C405.276 469.211 405.342 469.5 405.472 469.668C405.603 469.817 405.836 469.911 406.172 469.948V473C405.799 473.075 405.482 473.121 405.22 473.14C404.978 473.159 404.754 473.168 404.548 473.168C403.876 473.168 403.326 473.019 402.896 472.72C402.486 472.403 402.243 471.973 402.168 471.432L402.084 470.256C401.431 471.264 400.591 472.02 399.564 472.524C398.538 473.028 397.408 473.28 396.176 473.28C394.664 473.28 393.516 472.795 392.732 471.824C391.948 470.835 391.556 469.397 391.556 467.512ZM417.741 461.576C416.602 461.576 415.585 461.8 414.689 462.248C413.793 462.677 413.149 463.303 412.757 464.124V473H409.005V458.328H412.449V461.464C412.953 460.456 413.606 459.663 414.409 459.084C415.23 458.505 416.089 458.188 416.985 458.132C417.377 458.132 417.629 458.141 417.741 458.16V461.576Z" fill="#333333"/>
<defs>
<filter id="filter0_d" x="0" y="0" width="685" height="685" filterUnits="userSpaceOnUse" color-interpolation-filters="sRGB">
<feFlood flood-opacity="0" result="BackgroundImageFix"/>
<feColorMatrix in="SourceAlpha" type="matrix" values="0 0 0 0 0 0 0 0 0 0 0 0 0 0 0 0 0 0 127 0"/>
<feOffset dx="15" dy="15"/>
<feGaussianBlur stdDeviation="15"/>
<feColorMatrix type="matrix" values="0 0 0 0 0.835294 0 0 0 0 0.835294 0 0 0 0 0.835294 0 0 0 0.5 0"/>
<feBlend mode="normal" in2="BackgroundImageFix" result="effect1_dropShadow"/>
<feBlend mode="normal" in="SourceGraphic" in2="effect1_dropShadow" result="shape"/>
</filter>
</defs>
</svg>
