<svg width="789" height="789" viewBox="0 0 789 789" fill="none" xmlns="http://www.w3.org/2000/svg">
<rect width="789" height="789" rx="32" fill="white"/>
<path d="M89.998 736V716.83H93.724V736H89.998ZM110.522 736H106.904V728.062C106.904 726.928 106.706 726.1 106.31 725.578C105.914 725.056 105.365 724.795 104.663 724.795C104.177 724.795 103.682 724.921 103.178 725.173C102.692 725.425 102.251 725.776 101.855 726.226C101.459 726.658 101.171 727.162 100.991 727.738V736H97.3726V721.852H100.64V724.471C101.162 723.589 101.918 722.896 102.908 722.392C103.898 721.87 105.014 721.609 106.256 721.609C107.138 721.609 107.858 721.771 108.416 722.095C108.974 722.401 109.406 722.824 109.712 723.364C110.018 723.886 110.225 724.48 110.333 725.146C110.459 725.812 110.522 726.487 110.522 727.171V736ZM121.714 736.27C120.634 736.27 119.671 736.027 118.825 735.541C117.979 735.055 117.313 734.389 116.827 733.543V736H113.668V716.29H117.286V724.336C117.79 723.49 118.447 722.824 119.257 722.338C120.085 721.852 121.048 721.609 122.146 721.609C123.37 721.609 124.441 721.951 125.359 722.635C126.295 723.301 127.024 724.192 127.546 725.308C128.068 726.424 128.329 727.648 128.329 728.98C128.329 730.348 128.041 731.581 127.465 732.679C126.889 733.777 126.097 734.65 125.089 735.298C124.099 735.946 122.974 736.27 121.714 736.27ZM120.715 733.192C121.489 733.192 122.164 733.003 122.74 732.625C123.334 732.247 123.793 731.743 124.117 731.113C124.459 730.465 124.63 729.763 124.63 729.007C124.63 728.233 124.468 727.522 124.144 726.874C123.838 726.208 123.406 725.677 122.848 725.281C122.29 724.885 121.651 724.687 120.931 724.687C120.139 724.687 119.41 724.957 118.744 725.497C118.096 726.019 117.61 726.667 117.286 727.441V730.816C117.52 731.518 117.979 732.094 118.663 732.544C119.347 732.976 120.031 733.192 120.715 733.192ZM137.314 736.27C135.766 736.27 134.434 735.937 133.318 735.271C132.22 734.587 131.374 733.687 130.78 732.571C130.186 731.455 129.889 730.249 129.889 728.953C129.889 727.639 130.186 726.424 130.78 725.308C131.392 724.192 132.247 723.301 133.345 722.635C134.461 721.951 135.784 721.609 137.314 721.609C138.844 721.609 140.158 721.951 141.256 722.635C142.372 723.301 143.227 724.192 143.821 725.308C144.415 726.424 144.712 727.639 144.712 728.953C144.712 730.249 144.415 731.455 143.821 732.571C143.227 733.687 142.372 734.587 141.256 735.271C140.158 735.937 138.844 736.27 137.314 736.27ZM133.615 728.953C133.615 729.781 133.777 730.519 134.101 731.167C134.425 731.797 134.866 732.292 135.424 732.652C135.982 733.012 136.612 733.192 137.314 733.192C137.998 733.192 138.619 733.012 139.177 732.652C139.735 732.274 140.176 731.77 140.5 731.14C140.842 730.492 141.013 729.754 141.013 728.926C141.013 728.116 140.842 727.396 140.5 726.766C140.176 726.118 139.735 725.614 139.177 725.254C138.619 724.876 137.998 724.687 137.314 724.687C136.612 724.687 135.982 724.876 135.424 725.254C134.866 725.614 134.425 726.118 134.101 726.766C133.777 727.396 133.615 728.125 133.615 728.953ZM147.019 730.708V721.852H150.637V729.925C150.637 732.103 151.42 733.192 152.986 733.192C153.688 733.192 154.363 732.985 155.011 732.571C155.677 732.139 156.217 731.491 156.631 730.627V721.852H160.249V731.95C160.249 732.346 160.312 732.625 160.438 732.787C160.564 732.931 160.789 733.021 161.113 733.057V736C160.753 736.072 160.447 736.117 160.195 736.135C159.961 736.153 159.745 736.162 159.547 736.162C158.899 736.162 158.368 736.018 157.954 735.73C157.558 735.424 157.324 735.01 157.252 734.488L157.171 733.354C156.541 734.326 155.731 735.055 154.741 735.541C153.751 736.027 152.662 736.27 151.474 736.27C150.016 736.27 148.909 735.802 148.153 734.866C147.397 733.912 147.019 732.526 147.019 730.708ZM176.993 736H173.375V728.062C173.375 726.928 173.177 726.1 172.781 725.578C172.385 725.056 171.836 724.795 171.134 724.795C170.648 724.795 170.153 724.921 169.649 725.173C169.163 725.425 168.722 725.776 168.326 726.226C167.93 726.658 167.642 727.162 167.462 727.738V736H163.844V721.852H167.111V724.471C167.633 723.589 168.389 722.896 169.379 722.392C170.369 721.87 171.485 721.609 172.727 721.609C173.609 721.609 174.329 721.771 174.887 722.095C175.445 722.401 175.877 722.824 176.183 723.364C176.489 723.886 176.696 724.48 176.804 725.146C176.93 725.812 176.993 726.487 176.993 727.171V736ZM179.275 728.926C179.275 727.576 179.545 726.343 180.085 725.227C180.625 724.111 181.372 723.229 182.326 722.581C183.28 721.933 184.369 721.609 185.593 721.609C186.637 721.609 187.573 721.87 188.401 722.392C189.247 722.896 189.904 723.544 190.372 724.336V716.29H193.99V731.95C193.99 732.346 194.053 732.625 194.179 732.787C194.305 732.931 194.521 733.021 194.827 733.057V736C194.179 736.126 193.666 736.189 193.288 736.189C192.64 736.189 192.1 736.027 191.668 735.703C191.254 735.379 191.02 734.956 190.966 734.434L190.912 733.543C190.39 734.425 189.679 735.1 188.779 735.568C187.897 736.036 186.97 736.27 185.998 736.27C184.684 736.27 183.523 735.946 182.515 735.298C181.507 734.632 180.715 733.75 180.139 732.652C179.563 731.536 179.275 730.294 179.275 728.926ZM190.372 730.816V727.441C190.084 726.649 189.589 725.992 188.887 725.47C188.185 724.948 187.465 724.687 186.727 724.687C185.989 724.687 185.341 724.894 184.783 725.308C184.225 725.704 183.793 726.235 183.487 726.901C183.181 727.549 183.028 728.251 183.028 729.007C183.028 729.781 183.199 730.492 183.541 731.14C183.883 731.77 184.342 732.274 184.918 732.652C185.512 733.012 186.187 733.192 186.943 733.192C187.627 733.192 188.302 732.967 188.968 732.517C189.652 732.067 190.12 731.5 190.372 730.816Z" fill="black"/>
<path d="M246.998 736V716.83H250.724V736H246.998ZM267.522 736H263.904V728.062C263.904 726.928 263.706 726.1 263.31 725.578C262.914 725.056 262.365 724.795 261.663 724.795C261.177 724.795 260.682 724.921 260.178 725.173C259.692 725.425 259.251 725.776 258.855 726.226C258.459 726.658 258.171 727.162 257.991 727.738V736H254.373V721.852H257.64V724.471C258.162 723.589 258.918 722.896 259.908 722.392C260.898 721.87 262.014 721.609 263.256 721.609C264.138 721.609 264.858 721.771 265.416 722.095C265.974 722.401 266.406 722.824 266.712 723.364C267.018 723.886 267.225 724.48 267.333 725.146C267.459 725.812 267.522 726.487 267.522 727.171V736ZM279.066 735.271C278.58 735.487 277.977 735.703 277.257 735.919C276.555 736.135 275.826 736.243 275.07 736.243C274.404 736.243 273.792 736.126 273.234 735.892C272.676 735.658 272.226 735.289 271.884 734.785C271.56 734.263 271.398 733.588 271.398 732.76V724.633H269.535V721.852H271.398V717.262H275.016V721.852H277.986V724.633H275.016V731.545C275.016 732.031 275.142 732.382 275.394 732.598C275.664 732.814 275.988 732.922 276.366 732.922C276.744 732.922 277.113 732.859 277.473 732.733C277.833 732.607 278.121 732.499 278.337 732.409L279.066 735.271ZM287.327 736.27C285.797 736.27 284.474 735.937 283.358 735.271C282.26 734.605 281.405 733.723 280.793 732.625C280.181 731.509 279.875 730.303 279.875 729.007C279.875 727.675 280.172 726.451 280.766 725.335C281.378 724.201 282.242 723.301 283.358 722.635C284.474 721.951 285.806 721.609 287.354 721.609C288.902 721.609 290.225 721.951 291.323 722.635C292.421 723.301 293.258 724.192 293.834 725.308C294.428 726.406 294.725 727.594 294.725 728.872C294.725 729.34 294.698 729.745 294.644 730.087H283.709C283.799 731.185 284.204 732.049 284.924 732.679C285.662 733.309 286.508 733.624 287.462 733.624C288.182 733.624 288.857 733.453 289.487 733.111C290.135 732.751 290.576 732.283 290.81 731.707L293.915 732.571C293.393 733.651 292.556 734.542 291.404 735.244C290.252 735.928 288.893 736.27 287.327 736.27ZM283.628 727.792H291.026C290.918 726.73 290.513 725.875 289.811 725.227C289.127 724.561 288.29 724.228 287.3 724.228C286.328 724.228 285.491 724.561 284.789 725.227C284.105 725.875 283.718 726.73 283.628 727.792ZM305.353 724.984C304.255 724.984 303.274 725.2 302.41 725.632C301.546 726.046 300.925 726.649 300.547 727.441V736H296.929V721.852H300.25V724.876C300.736 723.904 301.366 723.139 302.14 722.581C302.932 722.023 303.76 721.717 304.624 721.663C305.002 721.663 305.245 721.672 305.353 721.69V724.984ZM313.774 736.27C312.244 736.27 310.921 735.928 309.805 735.244C308.689 734.56 307.825 733.66 307.213 732.544C306.601 731.428 306.295 730.222 306.295 728.926C306.295 727.612 306.592 726.397 307.186 725.281C307.798 724.165 308.662 723.274 309.778 722.608C310.894 721.942 312.217 721.609 313.747 721.609C315.295 721.609 316.609 721.942 317.689 722.608C318.787 723.274 319.606 724.147 320.146 725.227L316.609 726.307C315.979 725.227 315.016 724.687 313.72 724.687C313.018 724.687 312.388 724.867 311.83 725.227C311.272 725.569 310.831 726.064 310.507 726.712C310.183 727.342 310.021 728.08 310.021 728.926C310.021 729.754 310.183 730.492 310.507 731.14C310.849 731.77 311.299 732.274 311.857 732.652C312.415 733.012 313.036 733.192 313.72 733.192C314.368 733.192 314.962 733.039 315.502 732.733C316.06 732.409 316.447 732.004 316.663 731.518L320.2 732.598C319.714 733.66 318.904 734.542 317.77 735.244C316.654 735.928 315.322 736.27 313.774 736.27ZM328.855 736.27C327.325 736.27 326.002 735.937 324.886 735.271C323.788 734.605 322.933 733.723 322.321 732.625C321.709 731.509 321.403 730.303 321.403 729.007C321.403 727.675 321.7 726.451 322.294 725.335C322.906 724.201 323.77 723.301 324.886 722.635C326.002 721.951 327.334 721.609 328.882 721.609C330.43 721.609 331.753 721.951 332.851 722.635C333.949 723.301 334.786 724.192 335.362 725.308C335.956 726.406 336.253 727.594 336.253 728.872C336.253 729.34 336.226 729.745 336.172 730.087H325.237C325.327 731.185 325.732 732.049 326.452 732.679C327.19 733.309 328.036 733.624 328.99 733.624C329.71 733.624 330.385 733.453 331.015 733.111C331.663 732.751 332.104 732.283 332.338 731.707L335.443 732.571C334.921 733.651 334.084 734.542 332.932 735.244C331.78 735.928 330.421 736.27 328.855 736.27ZM325.156 727.792H332.554C332.446 726.73 332.041 725.875 331.339 725.227C330.655 724.561 329.818 724.228 328.828 724.228C327.856 724.228 327.019 724.561 326.317 725.227C325.633 725.875 325.246 726.73 325.156 727.792ZM346.936 736.27C345.82 736.27 344.848 736.018 344.02 735.514C343.192 735.01 342.544 734.344 342.076 733.516V741.751H338.458V721.852H341.617V724.282C342.139 723.454 342.814 722.806 343.642 722.338C344.488 721.852 345.442 721.609 346.504 721.609C347.782 721.609 348.916 721.942 349.906 722.608C350.896 723.256 351.679 724.138 352.255 725.254C352.831 726.352 353.119 727.567 353.119 728.899C353.119 730.285 352.849 731.536 352.309 732.652C351.787 733.75 351.058 734.632 350.122 735.298C349.204 735.946 348.142 736.27 346.936 736.27ZM345.721 733.192C346.459 733.192 347.098 732.994 347.638 732.598C348.196 732.184 348.628 731.653 348.934 731.005C349.258 730.339 349.42 729.637 349.42 728.899C349.42 728.107 349.249 727.396 348.907 726.766C348.565 726.118 348.097 725.614 347.503 725.254C346.927 724.876 346.261 724.687 345.505 724.687C344.821 724.687 344.137 724.912 343.453 725.362C342.769 725.812 342.31 726.379 342.076 727.063V730.384C342.4 731.176 342.895 731.842 343.561 732.382C344.227 732.922 344.947 733.192 345.721 733.192ZM363.863 735.271C363.377 735.487 362.774 735.703 362.054 735.919C361.352 736.135 360.623 736.243 359.867 736.243C359.201 736.243 358.589 736.126 358.031 735.892C357.473 735.658 357.023 735.289 356.681 734.785C356.357 734.263 356.195 733.588 356.195 732.76V724.633H354.332V721.852H356.195V717.262H359.813V721.852H362.783V724.633H359.813V731.545C359.813 732.031 359.939 732.382 360.191 732.598C360.461 732.814 360.785 732.922 361.163 732.922C361.541 732.922 361.91 732.859 362.27 732.733C362.63 732.607 362.918 732.499 363.134 732.409L363.863 735.271Z" fill="black"/>
<path d="M433.309 732.733V736H419.998V716.83H433.066V720.097H423.724V724.714H431.797V727.738H423.724V732.733H433.309ZM448.933 736H445.315V728.062C445.315 726.928 445.117 726.1 444.721 725.578C444.325 725.056 443.776 724.795 443.074 724.795C442.588 724.795 442.093 724.921 441.589 725.173C441.103 725.425 440.662 725.776 440.266 726.226C439.87 726.658 439.582 727.162 439.402 727.738V736H435.784V721.852H439.051V724.471C439.573 723.589 440.329 722.896 441.319 722.392C442.309 721.87 443.425 721.609 444.667 721.609C445.549 721.609 446.269 721.771 446.827 722.095C447.385 722.401 447.817 722.824 448.123 723.364C448.429 723.886 448.636 724.48 448.744 725.146C448.87 725.812 448.933 726.487 448.933 727.171V736ZM457.614 736.081C456.354 736.081 455.247 735.757 454.293 735.109C453.339 734.461 452.592 733.597 452.052 732.517C451.512 731.419 451.242 730.222 451.242 728.926C451.242 727.558 451.521 726.325 452.079 725.227C452.637 724.111 453.411 723.229 454.401 722.581C455.391 721.933 456.534 721.609 457.83 721.609C458.928 721.609 459.891 721.861 460.719 722.365C461.547 722.851 462.231 723.508 462.771 724.336V721.852H465.93V735.325C465.93 736.729 465.588 737.926 464.904 738.916C464.238 739.924 463.311 740.689 462.123 741.211C460.935 741.751 459.585 742.021 458.073 742.021C456.525 742.021 455.22 741.76 454.158 741.238C453.114 740.734 452.214 740.014 451.458 739.078L453.429 737.161C453.969 737.827 454.644 738.349 455.454 738.727C456.282 739.105 457.155 739.294 458.073 739.294C458.829 739.294 459.522 739.15 460.152 738.862C460.8 738.592 461.322 738.16 461.718 737.566C462.114 736.99 462.312 736.243 462.312 735.325V733.543C461.844 734.353 461.178 734.983 460.314 735.433C459.468 735.865 458.568 736.081 457.614 736.081ZM458.829 733.192C459.621 733.192 460.332 732.958 460.962 732.49C461.61 732.022 462.06 731.464 462.312 730.816V727.441C461.988 726.613 461.475 725.947 460.773 725.443C460.089 724.939 459.369 724.687 458.613 724.687C457.875 724.687 457.227 724.894 456.669 725.308C456.129 725.722 455.706 726.262 455.4 726.928C455.094 727.576 454.941 728.278 454.941 729.034C454.941 729.808 455.112 730.51 455.454 731.14C455.796 731.77 456.255 732.274 456.831 732.652C457.425 733.012 458.091 733.192 458.829 733.192ZM468.219 731.815C468.219 730.897 468.471 730.096 468.975 729.412C469.497 728.71 470.217 728.17 471.135 727.792C472.053 727.414 473.106 727.225 474.294 727.225C474.888 727.225 475.491 727.279 476.103 727.387C476.715 727.477 477.246 727.612 477.696 727.792V727.036C477.696 726.136 477.426 725.443 476.886 724.957C476.364 724.471 475.581 724.228 474.537 724.228C473.763 724.228 473.025 724.363 472.323 724.633C471.621 724.903 470.883 725.299 470.109 725.821L468.948 723.445C469.884 722.833 470.838 722.374 471.81 722.068C472.8 721.762 473.835 721.609 474.915 721.609C476.931 721.609 478.497 722.113 479.613 723.121C480.747 724.129 481.314 725.569 481.314 727.441V731.95C481.314 732.346 481.377 732.625 481.503 732.787C481.629 732.931 481.854 733.021 482.178 733.057V736C481.854 736.072 481.557 736.117 481.287 736.135C481.035 736.171 480.819 736.189 480.639 736.189C479.919 736.189 479.37 736.027 478.992 735.703C478.614 735.379 478.389 734.983 478.317 734.515L478.236 733.786C477.606 734.596 476.832 735.217 475.914 735.649C475.014 736.063 474.087 736.27 473.133 736.27C472.179 736.27 471.333 736.081 470.595 735.703C469.857 735.307 469.272 734.776 468.84 734.11C468.426 733.426 468.219 732.661 468.219 731.815ZM477.021 732.544C477.471 732.112 477.696 731.698 477.696 731.302V729.871C476.76 729.493 475.815 729.304 474.861 729.304C473.907 729.304 473.133 729.511 472.539 729.925C471.945 730.321 471.648 730.852 471.648 731.518C471.648 732.058 471.864 732.544 472.296 732.976C472.728 733.408 473.349 733.624 474.159 733.624C474.699 733.624 475.221 733.525 475.725 733.327C476.247 733.129 476.679 732.868 477.021 732.544ZM490.23 736.081C488.97 736.081 487.863 735.757 486.909 735.109C485.955 734.461 485.208 733.597 484.668 732.517C484.128 731.419 483.858 730.222 483.858 728.926C483.858 727.558 484.137 726.325 484.695 725.227C485.253 724.111 486.027 723.229 487.017 722.581C488.007 721.933 489.15 721.609 490.446 721.609C491.544 721.609 492.507 721.861 493.335 722.365C494.163 722.851 494.847 723.508 495.387 724.336V721.852H498.546V735.325C498.546 736.729 498.204 737.926 497.52 738.916C496.854 739.924 495.927 740.689 494.739 741.211C493.551 741.751 492.201 742.021 490.689 742.021C489.141 742.021 487.836 741.76 486.774 741.238C485.73 740.734 484.83 740.014 484.074 739.078L486.045 737.161C486.585 737.827 487.26 738.349 488.07 738.727C488.898 739.105 489.771 739.294 490.689 739.294C491.445 739.294 492.138 739.15 492.768 738.862C493.416 738.592 493.938 738.16 494.334 737.566C494.73 736.99 494.928 736.243 494.928 735.325V733.543C494.46 734.353 493.794 734.983 492.93 735.433C492.084 735.865 491.184 736.081 490.23 736.081ZM491.445 733.192C492.237 733.192 492.948 732.958 493.578 732.49C494.226 732.022 494.676 731.464 494.928 730.816V727.441C494.604 726.613 494.091 725.947 493.389 725.443C492.705 724.939 491.985 724.687 491.229 724.687C490.491 724.687 489.843 724.894 489.285 725.308C488.745 725.722 488.322 726.262 488.016 726.928C487.71 727.576 487.557 728.278 487.557 729.034C487.557 729.808 487.728 730.51 488.07 731.14C488.412 731.77 488.871 732.274 489.447 732.652C490.041 733.012 490.707 733.192 491.445 733.192ZM508.368 736.27C506.838 736.27 505.515 735.937 504.399 735.271C503.301 734.605 502.446 733.723 501.834 732.625C501.222 731.509 500.916 730.303 500.916 729.007C500.916 727.675 501.213 726.451 501.807 725.335C502.419 724.201 503.283 723.301 504.399 722.635C505.515 721.951 506.847 721.609 508.395 721.609C509.943 721.609 511.266 721.951 512.364 722.635C513.462 723.301 514.299 724.192 514.875 725.308C515.469 726.406 515.766 727.594 515.766 728.872C515.766 729.34 515.739 729.745 515.685 730.087H504.75C504.84 731.185 505.245 732.049 505.965 732.679C506.703 733.309 507.549 733.624 508.503 733.624C509.223 733.624 509.898 733.453 510.528 733.111C511.176 732.751 511.617 732.283 511.851 731.707L514.956 732.571C514.434 733.651 513.597 734.542 512.445 735.244C511.293 735.928 509.934 736.27 508.368 736.27ZM504.669 727.792H512.067C511.959 726.73 511.554 725.875 510.852 725.227C510.168 724.561 509.331 724.228 508.341 724.228C507.369 724.228 506.532 724.561 505.83 725.227C505.146 725.875 504.759 726.73 504.669 727.792Z" fill="black"/>
<path d="M589.209 716.83H592.989L600.036 736H596.202L594.42 731.221H587.724L585.969 736H582.135L589.209 716.83ZM593.745 728.602L591.099 720.691L588.345 728.602H593.745ZM602.177 736V725.362H600.314V722.608H602.177V722.257C602.177 721.267 602.375 720.376 602.771 719.584C603.167 718.792 603.725 718.162 604.445 717.694C605.183 717.226 606.056 716.992 607.064 716.992C607.694 716.992 608.297 717.073 608.873 717.235C609.449 717.379 610.043 717.577 610.655 717.829C611.159 717.271 611.771 716.83 612.491 716.506C613.229 716.182 614.075 716.02 615.029 716.02C616.037 716.02 616.973 716.191 617.837 716.533C618.701 716.857 619.511 717.271 620.267 717.775L618.809 720.475C618.341 720.061 617.792 719.728 617.162 719.476C616.532 719.224 615.902 719.098 615.272 719.098C614.462 719.098 613.859 719.35 613.463 719.854C613.067 720.358 612.869 720.943 612.869 721.609V722.608H620.483V736H616.865V725.362H612.869V736H609.251V725.362H605.795V736H602.177ZM605.795 722.122V722.608H609.251V721.744C609.251 721.276 609.305 720.817 609.413 720.367C608.873 720.169 608.333 720.07 607.793 720.07C607.127 720.07 606.623 720.277 606.281 720.691C605.957 721.105 605.795 721.582 605.795 722.122ZM623.724 716.29H627.342V731.464C627.342 732.13 627.45 732.571 627.666 732.787C627.882 733.003 628.179 733.111 628.557 733.111C628.845 733.111 629.142 733.075 629.448 733.003C629.754 732.931 630.024 732.841 630.258 732.733L630.744 735.487C630.258 735.721 629.691 735.901 629.043 736.027C628.395 736.153 627.81 736.216 627.288 736.216C626.154 736.216 625.272 735.919 624.642 735.325C624.03 734.713 623.724 733.849 623.724 732.733V716.29ZM632.321 719.881V716.29H635.939V719.881H632.321ZM632.321 736V721.852H635.939V736H632.321ZM638.231 731.815C638.231 730.897 638.483 730.096 638.987 729.412C639.509 728.71 640.229 728.17 641.147 727.792C642.065 727.414 643.118 727.225 644.306 727.225C644.9 727.225 645.503 727.279 646.115 727.387C646.727 727.477 647.258 727.612 647.708 727.792V727.036C647.708 726.136 647.438 725.443 646.898 724.957C646.376 724.471 645.593 724.228 644.549 724.228C643.775 724.228 643.037 724.363 642.335 724.633C641.633 724.903 640.895 725.299 640.121 725.821L638.96 723.445C639.896 722.833 640.85 722.374 641.822 722.068C642.812 721.762 643.847 721.609 644.927 721.609C646.943 721.609 648.509 722.113 649.625 723.121C650.759 724.129 651.326 725.569 651.326 727.441V731.95C651.326 732.346 651.389 732.625 651.515 732.787C651.641 732.931 651.866 733.021 652.19 733.057V736C651.866 736.072 651.569 736.117 651.299 736.135C651.047 736.171 650.831 736.189 650.651 736.189C649.931 736.189 649.382 736.027 649.004 735.703C648.626 735.379 648.401 734.983 648.329 734.515L648.248 733.786C647.618 734.596 646.844 735.217 645.926 735.649C645.026 736.063 644.099 736.27 643.145 736.27C642.191 736.27 641.345 736.081 640.607 735.703C639.869 735.307 639.284 734.776 638.852 734.11C638.438 733.426 638.231 732.661 638.231 731.815ZM647.033 732.544C647.483 732.112 647.708 731.698 647.708 731.302V729.871C646.772 729.493 645.827 729.304 644.873 729.304C643.919 729.304 643.145 729.511 642.551 729.925C641.957 730.321 641.66 730.852 641.66 731.518C641.66 732.058 641.876 732.544 642.308 732.976C642.74 733.408 643.361 733.624 644.171 733.624C644.711 733.624 645.233 733.525 645.737 733.327C646.259 733.129 646.691 732.868 647.033 732.544ZM663.053 735.271C662.567 735.487 661.964 735.703 661.244 735.919C660.542 736.135 659.813 736.243 659.057 736.243C658.391 736.243 657.779 736.126 657.221 735.892C656.663 735.658 656.213 735.289 655.871 734.785C655.547 734.263 655.385 733.588 655.385 732.76V724.633H653.522V721.852H655.385V717.262H659.003V721.852H661.973V724.633H659.003V731.545C659.003 732.031 659.129 732.382 659.381 732.598C659.651 732.814 659.975 732.922 660.353 732.922C660.731 732.922 661.1 732.859 661.46 732.733C661.82 732.607 662.108 732.499 662.324 732.409L663.053 735.271ZM671.313 736.27C669.783 736.27 668.46 735.937 667.344 735.271C666.246 734.605 665.391 733.723 664.779 732.625C664.167 731.509 663.861 730.303 663.861 729.007C663.861 727.675 664.158 726.451 664.752 725.335C665.364 724.201 666.228 723.301 667.344 722.635C668.46 721.951 669.792 721.609 671.34 721.609C672.888 721.609 674.211 721.951 675.309 722.635C676.407 723.301 677.244 724.192 677.82 725.308C678.414 726.406 678.711 727.594 678.711 728.872C678.711 729.34 678.684 729.745 678.63 730.087H667.695C667.785 731.185 668.19 732.049 668.91 732.679C669.648 733.309 670.494 733.624 671.448 733.624C672.168 733.624 672.843 733.453 673.473 733.111C674.121 732.751 674.562 732.283 674.796 731.707L677.901 732.571C677.379 733.651 676.542 734.542 675.39 735.244C674.238 735.928 672.879 736.27 671.313 736.27ZM667.614 727.792H675.012C674.904 726.73 674.499 725.875 673.797 725.227C673.113 724.561 672.276 724.228 671.286 724.228C670.314 724.228 669.477 724.561 668.775 725.227C668.091 725.875 667.704 726.73 667.614 727.792Z" fill="black"/>
<path fill-rule="evenodd" clip-rule="evenodd" d="M160.562 669.22C159.249 669.402 158.625 670.827 158.625 672.152V682.125C158.625 683.782 157.282 685.125 155.625 685.125H128.5C126.843 685.125 125.5 683.782 125.5 682.125V655C125.5 653.343 126.843 652 128.5 652H153.531C154.339 652 155.154 651.784 155.752 651.238C156.851 650.234 157.003 649.333 156.206 648.189C155.621 647.348 154.573 647 153.548 647H127C123.686 647 121 649.686 121 653V683.963C121 687.277 123.686 689.963 127 689.963H157.963C161.277 689.963 163.963 687.277 163.963 683.963V672.32C163.963 671.233 163.566 670.11 162.604 669.606C161.906 669.241 161.23 669.127 160.562 669.22Z" fill="#008000"/>
<path d="M167.375 652.799L164.227 650.224C163.393 649.541 162.168 649.643 161.457 650.453L142.83 671.695C142.1 672.527 140.833 672.609 140.003 671.877L134.176 666.739C133.37 666.028 132.145 666.082 131.404 666.861L128.473 669.944C127.676 670.783 127.754 672.121 128.644 672.86L140.568 682.772C141.393 683.458 142.612 683.371 143.331 682.574L167.594 655.687C168.359 654.839 168.26 653.523 167.375 652.799Z" fill="#008000"/>
<rect x="182" y="665" width="88" height="5" rx="2.5" fill="#008000"/>
<path fill-rule="evenodd" clip-rule="evenodd" d="M323.562 668.22C322.249 668.402 321.625 669.827 321.625 671.152V681.125C321.625 682.782 320.282 684.125 318.625 684.125H291.5C289.843 684.125 288.5 682.782 288.5 681.125V654C288.5 652.343 289.843 651 291.5 651H315.531C316.339 651 317.154 650.784 317.752 650.238C318.851 649.234 319.003 648.333 318.206 647.189C317.621 646.348 316.573 646 315.548 646H290C286.686 646 284 648.686 284 652V682.963C284 686.277 286.686 688.963 290 688.963H320.963C324.277 688.963 326.963 686.277 326.963 682.963V671.32C326.963 670.233 326.566 669.11 325.604 668.606C324.906 668.241 324.23 668.127 323.562 668.22Z" fill="#008000"/>
<path d="M330.375 651.799L327.227 649.224C326.393 648.541 325.168 648.643 324.457 649.453L305.83 670.695C305.1 671.527 303.833 671.609 303.003 670.877L297.176 665.739C296.37 665.028 295.145 665.082 294.404 665.861L291.473 668.944C290.676 669.783 290.754 671.121 291.644 671.86L303.568 681.772C304.393 682.458 305.612 682.371 306.331 681.574L330.594 654.687C331.359 653.839 331.26 652.523 330.375 651.799Z" fill="#008000"/>
<rect x="346" y="665" width="88" height="5" rx="2.5" fill="#008000"/>
<rect x="509" y="665" width="88" height="5" rx="2.5" fill="#008000"/>
<path fill-rule="evenodd" clip-rule="evenodd" d="M486.562 669.22C485.249 669.402 484.625 670.827 484.625 672.152V682.125C484.625 683.782 483.282 685.125 481.625 685.125H454.5C452.843 685.125 451.5 683.782 451.5 682.125V655C451.5 653.343 452.843 652 454.5 652H478.531C479.339 652 480.154 651.784 480.752 651.238C481.851 650.234 482.003 649.333 481.206 648.189C480.621 647.348 479.573 647 478.548 647H453C449.686 647 447 649.686 447 653V683.963C447 687.277 449.686 689.963 453 689.963H483.963C487.277 689.963 489.963 687.277 489.963 683.963V672.32C489.963 671.233 489.566 670.11 488.604 669.606C487.906 669.241 487.23 669.127 486.562 669.22Z" fill="#008000"/>
<path d="M493.375 652.799L490.227 650.224C489.393 649.541 488.168 649.643 487.457 650.453L468.83 671.695C468.1 672.527 466.833 672.609 466.003 671.877L460.176 666.739C459.37 666.028 458.145 666.082 457.404 666.861L454.473 669.944C453.676 670.783 453.754 672.121 454.644 672.86L466.568 682.772C467.393 683.458 468.612 683.371 469.331 682.574L493.594 655.687C494.359 654.839 494.26 653.523 493.375 652.799Z" fill="#008000"/>
<path fill-rule="evenodd" clip-rule="evenodd" d="M649.562 671.22C648.249 671.402 647.625 672.827 647.625 674.152V684.125C647.625 685.782 646.282 687.125 644.625 687.125H617.5C615.843 687.125 614.5 685.782 614.5 684.125V657C614.5 655.343 615.843 654 617.5 654H641.531C642.339 654 643.154 653.784 643.752 653.238C644.851 652.234 645.003 651.333 644.206 650.189C643.621 649.348 642.573 649 641.548 649H616C612.686 649 610 651.686 610 655V685.963C610 689.277 612.686 691.963 616 691.963H646.963C650.277 691.963 652.963 689.277 652.963 685.963V674.32C652.963 673.233 652.566 672.11 651.604 671.606C650.906 671.241 650.23 671.127 649.562 671.22Z" fill="#008000"/>
<path d="M656.375 654.799L653.227 652.224C652.393 651.541 651.168 651.643 650.457 652.453L631.83 673.695C631.1 674.527 629.833 674.609 629.003 673.877L623.176 668.739C622.37 668.028 621.145 668.082 620.404 668.861L617.473 671.944C616.676 672.783 616.754 674.121 617.644 674.86L629.568 684.772C630.393 685.458 631.612 685.371 632.331 684.574L656.594 657.687C657.359 656.839 657.26 655.523 656.375 654.799Z" fill="#008000"/>
<g filter="url(#filter0_d)">
<circle cx="505" cy="271" r="200" fill="#F5F5F5"/>
</g>
<circle cx="505" cy="274" r="150" fill="#D9C9E1"/>
<circle cx="506" cy="277" r="100" fill="#B492C3"/>
<circle cx="505" cy="277" r="50" fill="#A177B4"/>
<rect x="355" y="521" width="300" height="15" rx="7.5" fill="#DDDDDD"/>
<rect x="405" y="558" width="200" height="15" rx="7.5" fill="#DDDDDD"/>
<defs>
<filter id="filter0_d" x="295" y="61" width="440" height="440" filterUnits="userSpaceOnUse" color-interpolation-filters="sRGB">
<feFlood flood-opacity="0" result="BackgroundImageFix"/>
<feColorMatrix in="SourceAlpha" type="matrix" values="0 0 0 0 0 0 0 0 0 0 0 0 0 0 0 0 0 0 127 0"/>
<feOffset dx="10" dy="10"/>
<feGaussianBlur stdDeviation="10"/>
<feColorMatrix type="matrix" values="0 0 0 0 0.835294 0 0 0 0 0.835294 0 0 0 0 0.835294 0 0 0 0.5 0"/>
<feBlend mode="normal" in2="BackgroundImageFix" result="effect1_dropShadow"/>
<feBlend mode="normal" in="SourceGraphic" in2="effect1_dropShadow" result="shape"/>
</filter>
</defs>
</svg>
