<svg width="789" height="789" viewBox="0 0 789 789" fill="none" xmlns="http://www.w3.org/2000/svg">
<mask id="mask0" mask-type="alpha" maskUnits="userSpaceOnUse" x="0" y="0" width="789" height="789">
<rect width="789" height="789" fill="#C4C4C4"/>
</mask>
<g mask="url(#mask0)">
<rect width="789" height="789" rx="32" fill="white"/>
<circle cx="636" cy="658" r="82" fill="#F9EFFE"/>
<path d="M532.457 641.68C532.457 643.28 532.044 644.627 531.217 645.72C530.391 646.787 529.271 647.6 527.857 648.16C526.471 648.72 524.951 649 523.297 649H509.577V620.6H524.777C526.111 620.6 527.257 620.96 528.217 621.68C529.177 622.373 529.924 623.28 530.457 624.4C530.991 625.52 531.257 626.667 531.257 627.84C531.257 629.227 530.911 630.533 530.217 631.76C529.524 632.96 528.511 633.853 527.177 634.44C528.804 634.92 530.084 635.787 531.017 637.04C531.977 638.293 532.457 639.84 532.457 641.68ZM515.097 625.32V632.48H522.457C523.364 632.48 524.151 632.16 524.817 631.52C525.484 630.88 525.817 630 525.817 628.88C525.817 627.813 525.511 626.96 524.897 626.32C524.311 625.653 523.577 625.32 522.697 625.32H515.097ZM526.897 640.64C526.897 639.6 526.577 638.707 525.937 637.96C525.297 637.213 524.511 636.84 523.577 636.84H515.097V644.32H523.297C524.311 644.32 525.164 643.96 525.857 643.24C526.551 642.52 526.897 641.653 526.897 640.64ZM545.965 649.4C543.698 649.4 541.738 648.907 540.085 647.92C538.458 646.933 537.191 645.627 536.285 644C535.378 642.347 534.925 640.56 534.925 638.64C534.925 636.667 535.365 634.853 536.245 633.2C537.151 631.52 538.431 630.187 540.085 629.2C541.738 628.187 543.711 627.68 546.005 627.68C548.298 627.68 550.258 628.187 551.885 629.2C553.511 630.187 554.751 631.507 555.605 633.16C556.485 634.787 556.925 636.547 556.925 638.44C556.925 639.133 556.885 639.733 556.805 640.24H540.605C540.738 641.867 541.338 643.147 542.405 644.08C543.498 645.013 544.751 645.48 546.165 645.48C547.231 645.48 548.231 645.227 549.165 644.72C550.125 644.187 550.778 643.493 551.125 642.64L555.725 643.92C554.951 645.52 553.711 646.84 552.005 647.88C550.298 648.893 548.285 649.4 545.965 649.4ZM540.485 636.84H551.445C551.285 635.267 550.685 634 549.645 633.04C548.631 632.053 547.391 631.56 545.925 631.56C544.485 631.56 543.245 632.053 542.205 633.04C541.191 634 540.618 635.267 540.485 636.84ZM582.359 647.92C581.639 648.24 580.746 648.56 579.679 648.88C578.639 649.2 577.559 649.36 576.439 649.36C575.453 649.36 574.546 649.187 573.719 648.84C572.893 648.493 572.226 647.947 571.719 647.2C571.239 646.427 570.999 645.427 570.999 644.2V632.16H568.239V628.04H570.999V621.24H576.359V628.04H580.759V632.16H576.359V642.4C576.359 643.12 576.546 643.64 576.919 643.96C577.319 644.28 577.799 644.44 578.359 644.44C578.919 644.44 579.466 644.347 579.999 644.16C580.533 643.973 580.959 643.813 581.279 643.68L582.359 647.92ZM604.631 649H599.271V637.24C599.271 635.613 598.951 634.4 598.311 633.6C597.698 632.8 596.844 632.4 595.751 632.4C595.084 632.4 594.391 632.587 593.671 632.96C592.978 633.333 592.338 633.853 591.751 634.52C591.191 635.16 590.778 635.907 590.511 636.76V649H585.151V619.8H590.511V631.92C591.284 630.587 592.338 629.547 593.671 628.8C595.004 628.053 596.458 627.68 598.031 627.68C599.818 627.68 601.191 628.08 602.151 628.88C603.111 629.68 603.764 630.707 604.111 631.96C604.458 633.213 604.631 634.533 604.631 635.92V649ZM619.012 649.4C616.745 649.4 614.785 648.907 613.132 647.92C611.505 646.933 610.238 645.627 609.332 644C608.425 642.347 607.972 640.56 607.972 638.64C607.972 636.667 608.412 634.853 609.292 633.2C610.198 631.52 611.478 630.187 613.132 629.2C614.785 628.187 616.758 627.68 619.052 627.68C621.345 627.68 623.305 628.187 624.932 629.2C626.558 630.187 627.798 631.507 628.652 633.16C629.532 634.787 629.972 636.547 629.972 638.44C629.972 639.133 629.932 639.733 629.852 640.24H613.652C613.785 641.867 614.385 643.147 615.452 644.08C616.545 645.013 617.798 645.48 619.212 645.48C620.278 645.48 621.278 645.227 622.212 644.72C623.172 644.187 623.825 643.493 624.172 642.64L628.772 643.92C627.998 645.52 626.758 646.84 625.052 647.88C623.345 648.893 621.332 649.4 619.012 649.4ZM613.532 636.84H624.492C624.332 635.267 623.732 634 622.692 633.04C621.678 632.053 620.438 631.56 618.972 631.56C617.532 631.56 616.292 632.053 615.252 633.04C614.238 634 613.665 635.267 613.532 636.84ZM667.806 632.04H661.966L660.686 637.52H665.926V641.52H659.726L657.886 649H653.566L655.446 641.52H650.646L648.846 649H644.526L646.366 641.52H641.886V637.52H647.326L648.646 632.04H643.766V628.28H649.566L651.446 620.6H655.766L653.846 628.28H658.646L660.486 620.6H664.806L662.926 628.28H667.806V632.04ZM656.406 637.52L657.686 632.04H652.926L651.606 637.52H656.406ZM688.034 644.16V649H671.794V644.16H677.474V632.04C677.154 632.44 676.608 632.867 675.834 633.32C675.088 633.773 674.261 634.16 673.354 634.48C672.474 634.8 671.688 634.96 670.994 634.96V629.96C671.474 629.96 672.048 629.813 672.714 629.52C673.408 629.2 674.088 628.827 674.754 628.4C675.448 627.973 676.034 627.56 676.514 627.16C677.021 626.733 677.341 626.4 677.474 626.16H682.954V644.16H688.034ZM396.831 672.12V666.8H402.191V672.12H396.831ZM396.831 696V675.04H402.191V696H396.831ZM426.506 696H421.146V684.24C421.146 682.56 420.853 681.333 420.266 680.56C419.679 679.787 418.866 679.4 417.826 679.4C417.106 679.4 416.373 679.587 415.626 679.96C414.906 680.333 414.253 680.853 413.666 681.52C413.079 682.16 412.653 682.907 412.386 683.76V696H407.026V675.04H411.866V678.92C412.639 677.613 413.759 676.587 415.226 675.84C416.693 675.067 418.346 674.68 420.186 674.68C421.493 674.68 422.559 674.92 423.386 675.4C424.213 675.853 424.853 676.48 425.306 677.28C425.759 678.053 426.066 678.933 426.226 679.92C426.413 680.907 426.506 681.907 426.506 682.92V696ZM440.122 700.08C441.109 700.347 441.909 700.48 442.522 700.48C443.242 700.48 443.816 700.173 444.242 699.56C444.696 698.973 445.202 697.787 445.762 696L437.482 675.04H443.042L448.682 690.52L453.642 675.04H458.762L449.962 700.16C449.482 701.6 448.616 702.787 447.362 703.72C446.136 704.68 444.616 705.16 442.802 705.16C441.922 705.16 441.029 705.013 440.122 704.72V700.08ZM470.651 696.4C468.358 696.4 466.385 695.907 464.731 694.92C463.105 693.907 461.851 692.573 460.971 690.92C460.091 689.267 459.651 687.48 459.651 685.56C459.651 683.613 460.091 681.813 460.971 680.16C461.878 678.507 463.145 677.187 464.771 676.2C466.425 675.187 468.385 674.68 470.651 674.68C472.918 674.68 474.865 675.187 476.491 676.2C478.145 677.187 479.411 678.507 480.291 680.16C481.171 681.813 481.611 683.613 481.611 685.56C481.611 687.48 481.171 689.267 480.291 690.92C479.411 692.573 478.145 693.907 476.491 694.92C474.865 695.907 472.918 696.4 470.651 696.4ZM465.171 685.56C465.171 686.787 465.411 687.88 465.891 688.84C466.371 689.773 467.025 690.507 467.851 691.04C468.678 691.573 469.611 691.84 470.651 691.84C471.665 691.84 472.585 691.573 473.411 691.04C474.238 690.48 474.891 689.733 475.371 688.8C475.878 687.84 476.131 686.747 476.131 685.52C476.131 684.32 475.878 683.253 475.371 682.32C474.891 681.36 474.238 680.613 473.411 680.08C472.585 679.52 471.665 679.24 470.651 679.24C469.611 679.24 468.678 679.52 467.851 680.08C467.025 680.613 466.371 681.36 465.891 682.32C465.411 683.253 465.171 684.333 465.171 685.56ZM485.029 688.16V675.04H490.389V687C490.389 690.227 491.549 691.84 493.869 691.84C494.909 691.84 495.909 691.533 496.869 690.92C497.856 690.28 498.656 689.32 499.269 688.04V675.04H504.629V690C504.629 690.587 504.722 691 504.909 691.24C505.096 691.453 505.429 691.587 505.909 691.64V696C505.376 696.107 504.922 696.173 504.549 696.2C504.202 696.227 503.882 696.24 503.589 696.24C502.629 696.24 501.842 696.027 501.229 695.6C500.642 695.147 500.296 694.533 500.189 693.76L500.069 692.08C499.136 693.52 497.936 694.6 496.469 695.32C495.002 696.04 493.389 696.4 491.629 696.4C489.469 696.4 487.829 695.707 486.709 694.32C485.589 692.907 485.029 690.853 485.029 688.16ZM522.436 679.68C520.809 679.68 519.356 680 518.076 680.64C516.796 681.253 515.876 682.147 515.316 683.32V696H509.956V675.04H514.876V679.52C515.596 678.08 516.529 676.947 517.676 676.12C518.849 675.293 520.076 674.84 521.356 674.76C521.916 674.76 522.276 674.773 522.436 674.8V679.68ZM534.135 672.12V666.8H539.495V672.12H534.135ZM534.135 696V675.04H539.495V696H534.135ZM563.811 696H558.451V684.24C558.451 682.56 558.157 681.333 557.571 680.56C556.984 679.787 556.171 679.4 555.131 679.4C554.411 679.4 553.677 679.587 552.931 679.96C552.211 680.333 551.557 680.853 550.971 681.52C550.384 682.16 549.957 682.907 549.691 683.76V696H544.331V675.04H549.171V678.92C549.944 677.613 551.064 676.587 552.531 675.84C553.997 675.067 555.651 674.68 557.491 674.68C558.797 674.68 559.864 674.92 560.691 675.4C561.517 675.853 562.157 676.48 562.611 677.28C563.064 678.053 563.371 678.933 563.531 679.92C563.717 680.907 563.811 681.907 563.811 682.92V696ZM567.191 685.52C567.191 683.52 567.591 681.693 568.391 680.04C569.191 678.387 570.298 677.08 571.711 676.12C573.125 675.16 574.738 674.68 576.551 674.68C578.098 674.68 579.485 675.067 580.711 675.84C581.965 676.587 582.938 677.547 583.631 678.72V666.8H588.991V690C588.991 690.587 589.085 691 589.271 691.24C589.458 691.453 589.778 691.587 590.231 691.64V696C589.271 696.187 588.511 696.28 587.951 696.28C586.991 696.28 586.191 696.04 585.551 695.56C584.938 695.08 584.591 694.453 584.511 693.68L584.431 692.36C583.658 693.667 582.605 694.667 581.271 695.36C579.965 696.053 578.591 696.4 577.151 696.4C575.205 696.4 573.485 695.92 571.991 694.96C570.498 693.973 569.325 692.667 568.471 691.04C567.618 689.387 567.191 687.547 567.191 685.52ZM583.631 688.32V683.32C583.205 682.147 582.471 681.173 581.431 680.4C580.391 679.627 579.325 679.24 578.231 679.24C577.138 679.24 576.178 679.547 575.351 680.16C574.525 680.747 573.885 681.533 573.431 682.52C572.978 683.48 572.751 684.52 572.751 685.64C572.751 686.787 573.005 687.84 573.511 688.8C574.018 689.733 574.698 690.48 575.551 691.04C576.431 691.573 577.431 691.84 578.551 691.84C579.565 691.84 580.565 691.507 581.551 690.84C582.565 690.173 583.258 689.333 583.631 688.32ZM594.053 688.16V675.04H599.413V687C599.413 690.227 600.573 691.84 602.893 691.84C603.933 691.84 604.933 691.533 605.893 690.92C606.879 690.28 607.679 689.32 608.293 688.04V675.04H613.653V690C613.653 690.587 613.746 691 613.933 691.24C614.119 691.453 614.453 691.587 614.933 691.64V696C614.399 696.107 613.946 696.173 613.573 696.2C613.226 696.227 612.906 696.24 612.613 696.24C611.653 696.24 610.866 696.027 610.253 695.6C609.666 695.147 609.319 694.533 609.213 693.76L609.093 692.08C608.159 693.52 606.959 694.6 605.493 695.32C604.026 696.04 602.413 696.4 600.653 696.4C598.493 696.4 596.853 695.707 595.733 694.32C594.613 692.907 594.053 690.853 594.053 688.16ZM626.699 696.4C624.912 696.4 623.206 696.107 621.579 695.52C619.952 694.933 618.552 694.067 617.379 692.92L619.299 689.44C620.552 690.453 621.779 691.2 622.979 691.68C624.179 692.16 625.352 692.4 626.499 692.4C627.539 692.4 628.366 692.213 628.979 691.84C629.619 691.467 629.939 690.907 629.939 690.16C629.939 689.387 629.552 688.867 628.779 688.6C628.006 688.307 626.926 687.947 625.539 687.52C623.992 687.04 622.699 686.547 621.659 686.04C620.619 685.533 619.832 684.92 619.299 684.2C618.792 683.48 618.539 682.547 618.539 681.4C618.539 679.347 619.312 677.707 620.859 676.48C622.406 675.253 624.459 674.64 627.019 674.64C628.512 674.64 629.926 674.88 631.259 675.36C632.592 675.813 633.806 676.56 634.899 677.6L632.739 681C630.686 679.4 628.699 678.6 626.779 678.6C625.926 678.6 625.166 678.76 624.499 679.08C623.859 679.4 623.539 679.96 623.539 680.76C623.539 681.507 623.846 682.04 624.459 682.36C625.099 682.68 626.059 683.027 627.339 683.4C628.992 683.907 630.392 684.4 631.539 684.88C632.712 685.36 633.592 685.973 634.179 686.72C634.792 687.467 635.099 688.48 635.099 689.76C635.099 691.84 634.339 693.467 632.819 694.64C631.299 695.813 629.259 696.4 626.699 696.4ZM651.188 694.92C650.468 695.24 649.574 695.56 648.508 695.88C647.468 696.2 646.388 696.36 645.268 696.36C644.281 696.36 643.374 696.187 642.548 695.84C641.721 695.493 641.054 694.947 640.548 694.2C640.068 693.427 639.828 692.427 639.828 691.2V679.16H637.068V675.04H639.828V668.24H645.188V675.04H649.588V679.16H645.188V689.4C645.188 690.12 645.374 690.64 645.748 690.96C646.148 691.28 646.628 691.44 647.188 691.44C647.748 691.44 648.294 691.347 648.828 691.16C649.361 690.973 649.788 690.813 650.108 690.68L651.188 694.92ZM666.459 679.68C664.832 679.68 663.379 680 662.099 680.64C660.819 681.253 659.899 682.147 659.339 683.32V696H653.979V675.04H658.899V679.52C659.619 678.08 660.552 676.947 661.699 676.12C662.872 675.293 664.099 674.84 665.379 674.76C665.939 674.76 666.299 674.773 666.459 674.8V679.68ZM669.888 700.08C670.874 700.347 671.674 700.48 672.288 700.48C673.008 700.48 673.581 700.173 674.008 699.56C674.461 698.973 674.968 697.787 675.528 696L667.248 675.04H672.808L678.448 690.52L683.408 675.04H688.528L679.728 700.16C679.248 701.6 678.381 702.787 677.128 703.72C675.901 704.68 674.381 705.16 672.568 705.16C671.688 705.16 670.794 705.013 669.888 704.72V700.08Z" fill="black"/>
<circle cx="300.5" cy="430.5" r="227.5" fill="#F2FAFF"/>
<g filter="url(#filter0_d)">
<path d="M165.353 107.773C165.353 107.773 166.062 123.011 154.932 124.739C143.801 126.464 132.143 125.446 128.994 129.706C128.994 129.706 133.294 100.188 162.81 103.03L165.353 107.773Z" fill="#FF7E06"/>
<path d="M197.478 108.025C197.478 108.025 203.366 121.795 200.206 125.765C197.198 129.543 166.47 143.876 163.478 145.267C163.342 145.33 163.187 145.277 163.116 145.147C162.514 144.078 162.458 142.791 162.963 141.673C165.416 136.276 172.875 120.23 176.686 116.104C181.292 111.118 197.478 108.025 197.478 108.025Z" fill="#E9E8EF"/>
<path d="M180.397 77.7141C180.397 77.7141 171.666 65.5441 166.633 66.1928C161.845 66.8106 133.669 85.6746 130.93 87.5134C130.809 87.5959 130.772 87.7559 130.847 87.8867C131.449 88.9552 132.521 89.6703 133.739 89.8145C139.624 90.5102 157.213 92.4402 162.719 91.3149C169.364 89.9618 180.397 77.7141 180.397 77.7141Z" fill="#E9E8EF"/>
<path d="M241.204 83.1591C236.283 88.5244 230.08 93.812 222.32 98.2165C198.226 111.889 178.153 117.769 172.399 119.289C171.359 119.566 170.257 119.235 169.518 118.457C163.683 112.3 159.588 105.155 157.219 97.0285C156.774 95.5008 157.231 93.8459 158.386 92.7501C163.398 87.9891 178.519 74.4954 201.648 61.5463C209.377 57.22 217.052 54.6572 224.146 53.2194C234.232 63.2936 238.947 75.8773 241.204 83.1591Z" fill="#E9E8EF"/>
<path d="M224.15 53.2165C239.822 50.0411 252.652 52.3592 256.901 53.3401C257.73 53.5327 258.218 54.3923 257.949 55.2004C256.59 59.3279 251.956 71.4359 241.204 83.1591C238.947 75.8772 234.232 63.2936 224.15 53.2165Z" fill="#E9E8EF"/>
<path d="M206.738 66.8583C200.488 70.3821 198.487 78.6762 202.266 85.3851C206.048 92.0945 214.181 94.6787 220.431 91.1549C226.681 87.6311 228.682 79.337 224.903 72.6281C221.125 65.9192 212.991 63.3383 206.738 66.8583Z" fill="#BFC2C9"/>
<path d="M208.255 68.8087C203.275 71.6175 201.679 78.2255 204.691 83.5711C207.703 88.9166 214.184 90.9756 219.167 88.1673C224.147 85.3585 225.742 78.7506 222.731 73.405C219.715 68.0623 213.238 66.0038 208.255 68.8087Z" fill="black"/>
<path d="M219.21 84.3253C219.337 84.3742 219.486 84.347 219.583 84.2404C222.118 81.5752 222.572 77.3819 220.691 74.0424C220.215 73.2015 219.619 72.447 218.916 71.8044C218.775 71.6781 218.558 71.6852 218.428 71.8251C218.298 71.965 218.309 72.1831 218.449 72.3095C219.098 72.903 219.65 73.5964 220.087 74.3767C221.823 77.4551 221.406 81.3131 219.08 83.7602C218.95 83.9001 218.954 84.1173 219.09 84.2466C219.13 84.2831 219.168 84.309 219.21 84.3253Z" fill="white"/>
<path d="M186.316 83.8032C182.188 86.1303 180.865 91.6109 183.363 96.0415C185.86 100.472 191.235 102.179 195.363 99.852C199.491 97.5249 200.814 92.0443 198.317 87.6137C195.819 83.1831 190.444 81.4761 186.316 83.8032Z" fill="#BFC2C9"/>
<path d="M187.318 85.0895C184.027 86.9432 182.974 91.31 184.962 94.8434C186.954 98.3739 191.233 99.7338 194.524 97.8801C197.815 96.0264 198.867 91.6597 196.879 88.1262C194.891 84.5962 190.608 83.2358 187.318 85.0895Z" fill="black"/>
<path d="M194.512 95.4473C194.64 95.4962 194.788 95.469 194.886 95.3624C196.597 93.5645 196.903 90.7396 195.635 88.4873C195.316 87.9196 194.913 87.4157 194.441 86.9812C194.301 86.8514 194.083 86.8619 193.953 87.0018C193.827 87.1422 193.834 87.3598 193.974 87.4862C194.395 87.8688 194.75 88.3213 195.034 88.8221C196.157 90.8098 195.888 93.3028 194.386 94.8827C194.256 95.0225 194.26 95.2397 194.396 95.369C194.432 95.4084 194.47 95.431 194.512 95.4473Z" fill="white"/>
</g>
<path d="M125 520.5L122.794 513.332L122.701 513.36L122.608 513.392L125 520.5ZM113.855 150.217C117.012 147.536 117.398 142.803 114.717 139.645C112.036 136.488 107.303 136.102 104.145 138.783L113.855 150.217ZM323.576 709.66C260.807 681.439 210.778 657.373 172.674 636.61C134.419 615.764 108.745 598.54 94.2222 584.116C86.9661 576.909 82.9907 570.88 81.3374 565.941C79.7934 561.328 80.202 557.528 82.2453 553.864C84.4695 549.876 88.9585 545.502 96.6422 540.922C104.259 536.381 114.473 531.955 127.392 527.608L122.608 513.392C109.152 517.92 97.8401 522.744 88.9612 528.037C80.1494 533.291 73.1735 539.335 69.145 546.558C64.9355 554.105 64.3037 562.309 67.1131 570.702C69.8133 578.769 75.5851 586.747 83.6518 594.759C99.7748 610.772 127.049 628.83 165.497 649.781C204.096 670.814 254.526 695.061 317.425 723.34L323.576 709.66ZM127.206 527.668C155.644 518.918 190.568 514.372 226.855 511.397C244.953 509.913 263.27 508.828 281.185 507.79C299.065 506.755 316.572 505.766 332.903 504.477C365.21 501.927 394.208 498.141 413.014 489.81C422.483 485.616 430.559 479.763 434.565 471.189C438.708 462.323 437.697 452.34 432.798 441.831L419.202 448.169C422.928 456.16 422.636 461.287 420.976 464.839C419.18 468.682 414.931 472.556 406.939 476.096C390.823 483.234 364.353 486.948 331.722 489.523C315.584 490.797 298.255 491.776 280.317 492.815C262.413 493.852 243.93 494.946 225.629 496.447C189.12 499.44 152.856 504.082 122.794 513.332L127.206 527.668ZM432.798 441.831C427.544 430.563 415.401 419.983 400.395 409.923C385.084 399.659 365.506 389.122 343.81 378.324C299.935 356.49 247.921 333.797 200.88 308.932C153.788 284.04 114.205 258.181 95.4928 231.386C86.3242 218.256 82.6116 205.532 84.8117 192.838C87.0376 179.996 95.5586 165.753 113.855 150.217L104.145 138.783C84.3164 155.622 73.0717 172.739 70.032 190.277C66.9665 207.964 72.4883 224.642 83.1947 239.974C104.232 270.1 146.962 297.398 193.87 322.193C240.829 347.015 294.502 370.541 337.127 391.753C358.681 402.48 377.557 412.672 392.043 422.383C406.834 432.298 415.831 440.937 419.202 448.169L432.798 441.831Z" fill="url(#paint0_linear)"/>
<g filter="url(#filter1_d)">
<path d="M178.143 684.599L86.6261 703.404C71.9698 706.416 61.5676 689.456 70.8955 677.757L204.486 510.209C210.072 503.204 208.817 492.977 201.702 487.53L130.538 433.049C123.522 427.677 122.188 417.634 127.56 410.618L265.798 230.052C271.169 223.035 281.212 221.702 288.228 227.074L333.238 261.532C340.255 266.904 341.588 276.947 336.216 283.963L251.89 394.11C246.518 401.127 247.851 411.169 254.868 416.541L326.285 471.216C333.301 476.588 334.635 486.631 329.263 493.647L187.626 678.653C185.284 681.712 181.917 683.824 178.143 684.599Z" fill="#F9F0FE"/>
<path d="M390.658 124.79C398.507 123.468 405.878 128.948 406.873 136.846L429.282 314.723C430.823 326.959 416.936 335.066 407.038 327.707L207.837 179.605C197.94 172.247 201.703 156.613 213.865 154.565L390.658 124.79Z" fill="#F9F0FE"/>
</g>
<g filter="url(#filter2_d)">
<path d="M184.712 703.317L91.8324 713.426C76.9577 715.045 68.1977 697.182 78.5852 686.412L227.35 532.181C233.571 525.732 233.283 515.432 226.713 509.34L160.992 448.403C154.512 442.395 154.13 432.271 160.138 425.792L314.755 259.036C320.763 252.556 330.887 252.174 337.366 258.182L378.934 296.724C385.414 302.732 385.796 312.855 379.788 319.335L285.47 421.058C279.462 427.538 279.844 437.661 286.324 443.669L352.278 504.823C358.758 510.831 359.141 520.954 353.132 527.434L194.714 698.29C192.094 701.115 188.543 702.9 184.712 703.317Z" fill="#D7BEE2"/>
<path d="M448.967 165.992C456.906 165.414 463.729 171.564 463.976 179.52L469.545 358.716C469.929 371.043 455.34 377.808 446.179 369.55L261.799 203.359C252.638 195.102 257.856 179.891 270.157 178.997L448.967 165.992Z" fill="#D7BEE2"/>
</g>
<g filter="url(#filter3_d)">
<path d="M187.417 723.087L93.9982 724.414C79.0373 724.626 71.9966 706.018 83.3511 696.274L245.966 556.721C252.766 550.886 253.449 540.605 247.481 533.922L187.784 467.072C181.898 460.481 182.47 450.367 189.061 444.481L358.68 293.011C365.271 287.125 375.385 287.697 381.271 294.288L419.028 336.569C424.914 343.16 424.343 353.275 417.752 359.16L314.282 451.559C307.691 457.445 307.119 467.559 313.005 474.15L372.914 541.238C378.8 547.829 378.228 557.943 371.637 563.829L197.847 719.023C194.973 721.59 191.27 723.033 187.417 723.087Z" fill="#A177B4"/>
<path d="M501.05 213.006C509.008 213.178 515.222 219.942 514.72 227.886L503.406 406.811C502.628 419.12 487.467 424.481 479.124 415.399L311.197 232.599C302.853 223.516 309.479 208.864 321.809 209.131L501.05 213.006Z" fill="#A177B4"/>
</g>
<path d="M426 445C391.5 371 -39.4999 274.5 105.5 147.5" stroke="url(#paint1_linear)" stroke-width="15" stroke-linecap="round"/>
<path d="M320.5 716.5C69.1652 603.5 8.99997 552.5 141 516" stroke="url(#paint2_linear)" stroke-width="15" stroke-linecap="round"/>
<g filter="url(#filter4_di)">
<path d="M211.196 306H106.798C61.3591 306 62.1102 258.119 106.798 258.119C106.798 243.905 124.073 237.172 133.837 248.394C143.225 200.887 219.082 224.454 211.196 264.479C241.989 264.479 243.867 306 211.196 306Z" fill="white"/>
</g>
<g filter="url(#filter5_di)">
<path d="M464.13 487H394.532C364.239 487 364.74 455.08 394.532 455.08C394.532 445.603 406.048 441.115 412.558 448.596C418.817 416.925 469.388 432.636 464.13 459.319C484.659 459.319 485.911 487 464.13 487Z" fill="white"/>
</g>
</g>
<defs>
<filter id="filter0_d" x="124.994" y="44.7683" width="137.246" height="113.315" filterUnits="userSpaceOnUse" color-interpolation-filters="sRGB">
<feFlood flood-opacity="0" result="BackgroundImageFix"/>
<feColorMatrix in="SourceAlpha" type="matrix" values="0 0 0 0 0 0 0 0 0 0 0 0 0 0 0 0 0 0 127 0"/>
<feOffset dy="4"/>
<feGaussianBlur stdDeviation="2"/>
<feColorMatrix type="matrix" values="0 0 0 0 0 0 0 0 0 0 0 0 0 0 0 0 0 0 0.25 0"/>
<feBlend mode="normal" in2="BackgroundImageFix" result="effect1_dropShadow"/>
<feBlend mode="normal" in="SourceGraphic" in2="effect1_dropShadow" result="shape"/>
</filter>
<filter id="filter1_d" x="-47.2601" y="29.9397" width="604.454" height="762.474" filterUnits="userSpaceOnUse" color-interpolation-filters="sRGB">
<feFlood flood-opacity="0" result="BackgroundImageFix"/>
<feColorMatrix in="SourceAlpha" type="matrix" values="0 0 0 0 0 0 0 0 0 0 0 0 0 0 0 0 0 0 127 0"/>
<feOffset dx="15" dy="15"/>
<feGaussianBlur stdDeviation="15"/>
<feColorMatrix type="matrix" values="0 0 0 0 0.835294 0 0 0 0 0.835294 0 0 0 0 0.835294 0 0 0 0.5 0"/>
<feBlend mode="normal" in2="BackgroundImageFix" result="effect1_dropShadow"/>
<feBlend mode="normal" in="SourceGraphic" in2="effect1_dropShadow" result="shape"/>
</filter>
<filter id="filter2_d" x="-33.6183" y="62.0681" width="640.584" height="744.723" filterUnits="userSpaceOnUse" color-interpolation-filters="sRGB">
<feFlood flood-opacity="0" result="BackgroundImageFix"/>
<feColorMatrix in="SourceAlpha" type="matrix" values="0 0 0 0 0 0 0 0 0 0 0 0 0 0 0 0 0 0 127 0"/>
<feOffset dx="15" dy="15"/>
<feGaussianBlur stdDeviation="15"/>
<feColorMatrix type="matrix" values="0 0 0 0 0.835294 0 0 0 0 0.835294 0 0 0 0 0.835294 0 0 0 0.5 0"/>
<feBlend mode="normal" in2="BackgroundImageFix" result="effect1_dropShadow"/>
<feBlend mode="normal" in="SourceGraphic" in2="effect1_dropShadow" result="shape"/>
</filter>
<filter id="filter3_d" x="-22.0399" y="100.8" width="671.551" height="720.904" filterUnits="userSpaceOnUse" color-interpolation-filters="sRGB">
<feFlood flood-opacity="0" result="BackgroundImageFix"/>
<feColorMatrix in="SourceAlpha" type="matrix" values="0 0 0 0 0 0 0 0 0 0 0 0 0 0 0 0 0 0 127 0"/>
<feOffset dx="15" dy="15"/>
<feGaussianBlur stdDeviation="15"/>
<feColorMatrix type="matrix" values="0 0 0 0 0.835294 0 0 0 0 0.835294 0 0 0 0 0.835294 0 0 0 0.5 0"/>
<feBlend mode="normal" in2="BackgroundImageFix" result="effect1_dropShadow"/>
<feBlend mode="normal" in="SourceGraphic" in2="effect1_dropShadow" result="shape"/>
</filter>
<filter id="filter4_di" x="69" y="222" width="181" height="99" filterUnits="userSpaceOnUse" color-interpolation-filters="sRGB">
<feFlood flood-opacity="0" result="BackgroundImageFix"/>
<feColorMatrix in="SourceAlpha" type="matrix" values="0 0 0 0 0 0 0 0 0 0 0 0 0 0 0 0 0 0 127 0"/>
<feOffset dy="4"/>
<feGaussianBlur stdDeviation="2"/>
<feColorMatrix type="matrix" values="0 0 0 0 0 0 0 0 0 0 0 0 0 0 0 0 0 0 0.25 0"/>
<feBlend mode="normal" in2="BackgroundImageFix" result="effect1_dropShadow"/>
<feBlend mode="normal" in="SourceGraphic" in2="effect1_dropShadow" result="shape"/>
<feColorMatrix in="SourceAlpha" type="matrix" values="0 0 0 0 0 0 0 0 0 0 0 0 0 0 0 0 0 0 127 0" result="hardAlpha"/>
<feOffset dx="15" dy="15"/>
<feGaussianBlur stdDeviation="15"/>
<feComposite in2="hardAlpha" operator="arithmetic" k2="-1" k3="1"/>
<feColorMatrix type="matrix" values="0 0 0 0 0.941667 0 0 0 0 0.941667 0 0 0 0 0.941667 0 0 0 1 0"/>
<feBlend mode="normal" in2="shape" result="effect2_innerShadow"/>
</filter>
<filter id="filter5_di" x="368" y="431" width="127" height="71" filterUnits="userSpaceOnUse" color-interpolation-filters="sRGB">
<feFlood flood-opacity="0" result="BackgroundImageFix"/>
<feColorMatrix in="SourceAlpha" type="matrix" values="0 0 0 0 0 0 0 0 0 0 0 0 0 0 0 0 0 0 127 0"/>
<feOffset dy="4"/>
<feGaussianBlur stdDeviation="2"/>
<feColorMatrix type="matrix" values="0 0 0 0 0 0 0 0 0 0 0 0 0 0 0 0 0 0 0.25 0"/>
<feBlend mode="normal" in2="BackgroundImageFix" result="effect1_dropShadow"/>
<feBlend mode="normal" in="SourceGraphic" in2="effect1_dropShadow" result="shape"/>
<feColorMatrix in="SourceAlpha" type="matrix" values="0 0 0 0 0 0 0 0 0 0 0 0 0 0 0 0 0 0 127 0" result="hardAlpha"/>
<feOffset dx="15" dy="15"/>
<feGaussianBlur stdDeviation="15"/>
<feComposite in2="hardAlpha" operator="arithmetic" k2="-1" k3="1"/>
<feColorMatrix type="matrix" values="0 0 0 0 0.904167 0 0 0 0 0.904167 0 0 0 0 0.904167 0 0 0 1 0"/>
<feBlend mode="normal" in2="shape" result="effect2_innerShadow"/>
</filter>
<linearGradient id="paint0_linear" x1="251.276" y1="144.5" x2="251.276" y2="716.5" gradientUnits="userSpaceOnUse">
<stop stop-color="#FF7E06"/>
<stop offset="1" stop-color="#FFF2AB"/>
</linearGradient>
<linearGradient id="paint1_linear" x1="250.894" y1="147.5" x2="251" y2="725" gradientUnits="userSpaceOnUse">
<stop stop-color="#FF7E06"/>
<stop offset="1" stop-color="#FFF2AB"/>
</linearGradient>
<linearGradient id="paint2_linear" x1="197" y1="122.5" x2="196.728" y2="716.5" gradientUnits="userSpaceOnUse">
<stop stop-color="#FF7E06"/>
<stop offset="1" stop-color="#FFF2AB"/>
</linearGradient>
</defs>
</svg>
